<?xml version="1.0" encoding="utf-8"?>
<!-- Generator: Adobe Illustrator 24.0.0, SVG Export Plug-In . SVG Version: 6.00 Build 0)  -->
<svg version="1.1" xmlns="http://www.w3.org/2000/svg" xmlns:xlink="http://www.w3.org/1999/xlink" x="0px" y="0px"
	 viewBox="0 0 512 512" style="enable-background:new 0 0 512 512;" xml:space="preserve">
<style type="text/css">
	.st0{fill:#9B9B9B;}
	.st1{fill:#FFBF31;}
	.st2{fill:none;}
	.st3{fill:#FFCC30;}
	.st4{fill:#FFFFFF;}
	.st5{fill:#1E1D1C;}
	.st6{fill:#FFCC2A;}
	.st7{fill:#1D1D1B;}
</style>
<g id="GUIAS">
</g>
<g id="Capa_2">
	<g>
		<path d="M136.94,400.92c-0.32,0.26-0.81,0.52-1.48,0.79c-0.67,0.27-1.42,0.49-2.27,0.67c-0.85,0.18-1.69,0.28-2.51,0.28
			c-1.77,0-3.28-0.42-4.51-1.25s-2.16-1.98-2.8-3.45s-0.95-3.17-0.95-5.1c0-1.93,0.34-3.58,1.03-4.95c0.69-1.37,1.64-2.41,2.85-3.14
			s2.59-1.09,4.16-1.09c1.21,0,2.21,0.1,3.02,0.29c0.81,0.19,1.45,0.41,1.92,0.65c0.47,0.24,0.83,0.43,1.06,0.58l0.78-5.03
			c-0.48-0.1-1.03-0.23-1.63-0.4c-0.61-0.17-1.36-0.32-2.25-0.46c-0.89-0.14-2-0.21-3.32-0.21c-1.86,0-3.61,0.3-5.24,0.91
			s-3.07,1.5-4.31,2.69c-1.24,1.19-2.22,2.66-2.92,4.42s-1.05,3.78-1.05,6.09c0,2.81,0.54,5.26,1.63,7.35
			c1.08,2.09,2.64,3.72,4.67,4.87s4.48,1.73,7.33,1.73c1.1,0,2.06-0.08,2.89-0.24c0.83-0.16,1.57-0.35,2.21-0.57
			c0.64-0.22,1.21-0.43,1.7-0.63V400.92z"/>
		<path d="M149.53,394.33c-0.95,0.07-1.91,0.2-2.86,0.39s-1.83,0.44-2.63,0.78c-1.17,0.5-2.1,1.21-2.78,2.11
			c-0.68,0.9-1.02,1.98-1.02,3.23s0.27,2.36,0.82,3.31s1.31,1.69,2.3,2.22c0.98,0.53,2.13,0.79,3.44,0.79
			c1.32,0,2.46-0.22,3.43-0.65c0.97-0.43,1.73-0.89,2.28-1.39v1.74h5.34v-13.6c0-1.87-0.3-3.34-0.9-4.4
			c-0.6-1.06-1.51-1.81-2.73-2.25c-1.23-0.44-2.79-0.67-4.68-0.67c-1.16,0-2.31,0.13-3.46,0.38c-1.15,0.25-2.16,0.54-3.05,0.88
			c-0.89,0.33-1.54,0.62-1.96,0.87l1.22,3.55c0.5-0.26,1.13-0.5,1.88-0.72c0.75-0.22,1.55-0.4,2.39-0.54s1.65-0.2,2.43-0.2
			c1.03,0,1.83,0.16,2.38,0.49s0.83,1.01,0.83,2.06v1.51C151.38,394.21,150.49,394.25,149.53,394.33z M150.31,403.27
			c-0.45,0.12-0.9,0.18-1.36,0.18c-0.88,0-1.59-0.24-2.14-0.71c-0.55-0.47-0.83-1.21-0.83-2.21c0-0.76,0.19-1.33,0.56-1.7
			c0.38-0.37,0.8-0.67,1.28-0.89c0.34-0.15,0.77-0.28,1.28-0.4s1.04-0.21,1.6-0.27s1.05-0.09,1.5-0.09v5.17
			c-0.12,0.15-0.36,0.3-0.7,0.47C151.16,403,150.76,403.14,150.31,403.27z"/>
		<path d="M169.07,409.36l-0.05-2.77c0.1,0.04,0.19,0.07,0.3,0.11c0.8,0.29,1.82,0.43,3.07,0.43c2.09,0,3.93-0.47,5.5-1.41
			c1.57-0.94,2.79-2.26,3.65-3.95c0.86-1.69,1.29-3.69,1.29-5.98c0-2.22-0.38-4.05-1.13-5.5c-0.75-1.45-1.75-2.52-2.99-3.23
			s-2.59-1.06-4.05-1.06c-1.23,0-2.26,0.16-3.08,0.48s-1.49,0.69-2,1.11c-0.35,0.29-0.63,0.54-0.88,0.78v-2.11h-5.27v29.71h5.63
			V409.36z M170.67,390.67c0.67-0.28,1.41-0.42,2.21-0.42c1.28,0,2.28,0.46,3.01,1.37c0.73,0.91,1.08,2.46,1.07,4.66
			c-0.01,1.5-0.23,2.77-0.64,3.82c-0.41,1.04-0.97,1.83-1.67,2.37c-0.7,0.54-1.51,0.81-2.42,0.81c-0.7,0-1.33-0.06-1.88-0.19
			c-0.55-0.13-0.98-0.34-1.28-0.64v-10.88C169.46,391.25,170,390.95,170.67,390.67z"/>
		<path d="M202.93,406.85v-13.6c0-1.87-0.3-3.34-0.9-4.4c-0.6-1.06-1.51-1.81-2.73-2.25c-1.23-0.44-2.79-0.67-4.68-0.67
			c-1.16,0-2.31,0.13-3.46,0.38c-1.15,0.25-2.16,0.54-3.05,0.88c-0.89,0.33-1.54,0.62-1.96,0.87l1.22,3.55
			c0.5-0.26,1.13-0.5,1.88-0.72c0.75-0.22,1.55-0.4,2.39-0.54s1.65-0.2,2.43-0.2c1.03,0,1.83,0.16,2.38,0.49s0.83,1.01,0.83,2.06
			v1.51c-0.83,0-1.72,0.04-2.67,0.11c-0.95,0.07-1.91,0.2-2.86,0.39s-1.83,0.44-2.63,0.78c-1.17,0.5-2.1,1.21-2.78,2.11
			c-0.68,0.9-1.02,1.98-1.02,3.23s0.27,2.36,0.82,3.31s1.31,1.69,2.3,2.22c0.98,0.53,2.13,0.79,3.44,0.79
			c1.32,0,2.46-0.22,3.43-0.65c0.97-0.43,1.73-0.89,2.28-1.39v1.74H202.93z M195.41,403.27c-0.45,0.12-0.9,0.18-1.36,0.18
			c-0.88,0-1.59-0.24-2.14-0.71c-0.55-0.47-0.83-1.21-0.83-2.21c0-0.76,0.19-1.33,0.56-1.7c0.38-0.37,0.8-0.67,1.28-0.89
			c0.34-0.15,0.77-0.28,1.28-0.4s1.04-0.21,1.6-0.27s1.05-0.09,1.5-0.09v5.17c-0.12,0.15-0.36,0.3-0.7,0.47
			C196.25,403,195.85,403.14,195.41,403.27z"/>
		<path d="M220.08,402.53c-0.8,0.2-1.67,0.3-2.6,0.3c-0.96,0-1.83-0.23-2.61-0.69c-0.78-0.46-1.4-1.18-1.85-2.16
			c-0.45-0.98-0.66-2.24-0.62-3.78c0.04-1.43,0.31-2.57,0.82-3.42s1.15-1.46,1.92-1.83c0.77-0.37,1.55-0.55,2.36-0.55
			c1.01,0,1.86,0.09,2.54,0.26c0.68,0.17,1.25,0.4,1.71,0.68l0.7-4.3c-0.33-0.23-0.99-0.46-1.97-0.68
			c-0.98-0.22-2.14-0.33-3.48-0.33c-2.33,0-4.25,0.48-5.75,1.43c-1.51,0.96-2.63,2.25-3.37,3.87c-0.74,1.63-1.11,3.45-1.11,5.47
			c0,1.97,0.36,3.74,1.07,5.3c0.71,1.56,1.78,2.8,3.2,3.7c1.42,0.91,3.19,1.36,5.32,1.36c1.32,0,2.57-0.15,3.76-0.45
			c1.19-0.3,2.08-0.75,2.67-1.34l-0.83-3.46C221.5,402.12,220.88,402.33,220.08,402.53z"/>
		<rect x="226.77" y="386.29" width="5.63" height="20.56"/>
		<path d="M229.3,383.31c0.97,0,1.81-0.33,2.52-0.99c0.71-0.66,1.06-1.46,1.06-2.39c0-0.9-0.29-1.63-0.86-2.21
			c-0.57-0.57-1.36-0.86-2.37-0.86c-0.63,0-1.22,0.15-1.76,0.46s-0.99,0.72-1.33,1.23s-0.51,1.07-0.51,1.69
			c0,0.91,0.31,1.65,0.94,2.22C227.62,383.03,228.38,383.31,229.3,383.31z"/>
		<path d="M238.96,400.99c0,1.48,0.2,2.67,0.6,3.57c0.4,0.9,1.01,1.56,1.83,1.97c0.82,0.41,1.86,0.62,3.11,0.62
			c0.89,0,1.75-0.1,2.6-0.3c0.85-0.2,1.61-0.45,2.27-0.75s1.16-0.6,1.5-0.9l-0.74-3.16c-0.21,0.14-0.5,0.27-0.89,0.39
			s-0.78,0.22-1.2,0.3c-0.42,0.08-0.79,0.12-1.11,0.12c-0.63,0-1.11-0.08-1.44-0.25c-0.33-0.17-0.57-0.55-0.7-1.14
			c-0.14-0.6-0.2-1.55-0.2-2.85v-8.48h5.52v-3.86h-5.52v-4.69h-3.4c-0.17,0.46-0.34,0.91-0.5,1.35c-0.16,0.44-0.31,0.86-0.45,1.24
			c-0.14,0.38-0.27,0.71-0.4,1c-0.25,0.58-0.64,0.99-1.19,1.22c-0.55,0.23-1.28,0.48-2.19,0.74v3.01h2.49V400.99z"/>
		<path d="M263.39,406.5c0.97-0.43,1.73-0.89,2.28-1.39v1.74h5.34v-13.6c0-1.87-0.3-3.34-0.9-4.4c-0.6-1.06-1.51-1.81-2.73-2.25
			s-2.79-0.67-4.68-0.67c-1.16,0-2.31,0.13-3.46,0.38c-1.15,0.25-2.16,0.54-3.05,0.88c-0.89,0.33-1.54,0.62-1.96,0.87l1.22,3.55
			c0.5-0.26,1.13-0.5,1.88-0.72c0.75-0.22,1.55-0.4,2.39-0.54s1.65-0.2,2.43-0.2c1.03,0,1.83,0.16,2.38,0.49
			c0.55,0.33,0.83,1.01,0.83,2.06v1.51c-0.83,0-1.72,0.04-2.67,0.11s-1.91,0.2-2.86,0.39c-0.96,0.18-1.83,0.44-2.63,0.78
			c-1.17,0.5-2.1,1.21-2.78,2.11c-0.68,0.9-1.02,1.98-1.02,3.23s0.27,2.36,0.82,3.31s1.31,1.69,2.3,2.22
			c0.99,0.53,2.13,0.79,3.44,0.79C261.28,407.15,262.42,406.93,263.39,406.5z M259.71,398.83c0.38-0.37,0.8-0.67,1.28-0.89
			c0.34-0.15,0.77-0.28,1.28-0.4c0.51-0.12,1.04-0.21,1.6-0.27c0.55-0.06,1.05-0.09,1.5-0.09v5.17c-0.12,0.15-0.36,0.3-0.7,0.47
			c-0.34,0.17-0.74,0.31-1.19,0.43c-0.45,0.12-0.9,0.18-1.36,0.18c-0.88,0-1.59-0.24-2.14-0.71c-0.55-0.47-0.83-1.21-0.83-2.21
			C259.15,399.77,259.34,399.2,259.71,398.83z"/>
		<path d="M288.18,406.69c1.19-0.3,2.08-0.75,2.67-1.34l-0.83-3.46c-0.44,0.22-1.07,0.43-1.87,0.63c-0.8,0.2-1.67,0.3-2.6,0.3
			c-0.96,0-1.83-0.23-2.61-0.69s-1.4-1.18-1.85-2.16c-0.45-0.98-0.66-2.24-0.62-3.78c0.04-1.43,0.31-2.57,0.82-3.42
			c0.51-0.85,1.15-1.46,1.92-1.83s1.55-0.55,2.36-0.55c1.01,0,1.86,0.09,2.54,0.26c0.68,0.17,1.25,0.4,1.71,0.68l0.7-4.3
			c-0.33-0.23-0.99-0.46-1.97-0.68c-0.98-0.22-2.14-0.33-3.48-0.33c-2.33,0-4.25,0.48-5.75,1.43c-1.51,0.96-2.63,2.25-3.37,3.87
			c-0.74,1.63-1.11,3.45-1.11,5.47c0,1.97,0.36,3.74,1.07,5.3c0.71,1.56,1.78,2.8,3.2,3.7c1.42,0.91,3.19,1.36,5.32,1.36
			C285.74,407.15,286.99,407,288.18,406.69z"/>
		<path d="M297.37,383.31c0.97,0,1.81-0.33,2.52-0.99c0.71-0.66,1.06-1.46,1.06-2.39c0-0.9-0.29-1.63-0.86-2.21
			c-0.57-0.57-1.36-0.86-2.37-0.86c-0.63,0-1.22,0.15-1.76,0.46s-0.99,0.72-1.33,1.23s-0.51,1.07-0.51,1.69
			c0,0.91,0.31,1.65,0.94,2.22C295.69,383.03,296.46,383.31,297.37,383.31z"/>
		<rect x="294.84" y="386.29" width="5.63" height="20.56"/>
		<path d="M315.15,382.64c0.5-0.38,1.05-0.83,1.64-1.35s1.18-1.08,1.75-1.66c0.57-0.58,1.08-1.16,1.53-1.73
			c0.45-0.57,0.79-1.08,1.01-1.53l-3.68-2.92c-0.58,0.9-1.22,1.82-1.91,2.75c-0.7,0.94-1.4,1.83-2.12,2.68
			c-0.71,0.85-1.39,1.59-2.01,2.24l2.57,2.29C314.25,383.27,314.66,383.02,315.15,382.64z"/>
		<path d="M323.42,402.56c0.87-1.51,1.32-3.37,1.35-5.57c0.04-1.96-0.26-3.77-0.89-5.44s-1.66-3.01-3.1-4.02
			c-1.44-1.01-3.37-1.51-5.78-1.51c-1.93,0-3.66,0.39-5.18,1.16c-1.52,0.78-2.72,1.92-3.6,3.42c-0.88,1.5-1.34,3.35-1.38,5.54
			c-0.01,1.48,0.15,2.88,0.5,4.2c0.34,1.32,0.9,2.5,1.67,3.52c0.77,1.02,1.78,1.83,3.04,2.41c1.26,0.58,2.78,0.88,4.58,0.88
			c1.96,0,3.7-0.39,5.21-1.16C321.35,405.21,322.55,404.06,323.42,402.56z M317.97,401.57c-0.67,1.11-1.73,1.66-3.2,1.64
			c-1,0-1.8-0.31-2.39-0.94c-0.6-0.63-1.03-1.47-1.3-2.52c-0.27-1.05-0.41-2.21-0.41-3.46c0-2.06,0.33-3.63,1-4.72
			s1.74-1.63,3.21-1.62c0.99,0.01,1.78,0.33,2.37,0.94c0.6,0.62,1.03,1.44,1.3,2.46c0.27,1.02,0.41,2.16,0.41,3.4
			C318.97,398.85,318.64,400.46,317.97,401.57z"/>
		<path d="M334.65,392.03c0.41-0.33,0.85-0.61,1.32-0.84c0.47-0.23,0.94-0.4,1.4-0.52s0.88-0.18,1.25-0.19
			c1.22-0.05,2.04,0.25,2.46,0.89c0.42,0.64,0.63,1.76,0.63,3.36v12.12h5.65v-12.91c0-2.98-0.5-5.07-1.51-6.25s-2.59-1.76-4.73-1.71
			c-0.9,0.01-1.79,0.15-2.67,0.42c-0.88,0.27-1.68,0.61-2.41,1.01c-0.73,0.4-1.32,0.8-1.79,1.19l-0.09-2.31h-5.12v20.56h5.62V392.03
			z"/>
		<path d="M373.9,406.1c0.79-0.31,1.42-0.66,1.88-1.03l-0.94-3.07c-0.33,0.17-0.81,0.34-1.44,0.51s-1.29,0.3-2,0.4
			s-1.35,0.15-1.94,0.15c-1.08,0-2.04-0.18-2.85-0.53c-0.82-0.35-1.47-0.93-1.94-1.74c-0.44-0.75-0.69-1.74-0.76-2.95h12.3
			c0.09-0.46,0.14-1,0.17-1.64c0.02-0.64,0.04-1.34,0.04-2.09c-0.01-1.5-0.25-2.77-0.71-3.82c-0.46-1.04-1.07-1.88-1.84-2.51
			c-0.76-0.63-1.63-1.09-2.6-1.38c-0.97-0.28-2-0.42-3.07-0.41c-2.12,0.01-3.91,0.48-5.38,1.39c-1.47,0.92-2.58,2.17-3.35,3.74
			c-0.77,1.58-1.15,3.36-1.15,5.36c0,3.33,0.84,5.93,2.53,7.81c1.69,1.88,4.11,2.83,7.28,2.83c1.06,0,2.09-0.1,3.09-0.29
			C372.21,406.67,373.11,406.42,373.9,406.1z M365.77,390.46c0.63-0.47,1.38-0.7,2.23-0.7c0.88,0,1.55,0.21,2.03,0.64
			s0.8,1.02,0.97,1.77c0.17,0.76,0.22,1.63,0.16,2.63h-7.19c0.07-0.74,0.19-1.39,0.35-1.93
			C364.65,391.74,365.14,390.93,365.77,390.46z"/>
		<path d="M399.26,406.85v-12.91c0-2.98-0.5-5.07-1.51-6.25s-2.59-1.76-4.73-1.71c-0.9,0.01-1.79,0.15-2.67,0.42
			c-0.88,0.27-1.68,0.61-2.41,1.01c-0.73,0.4-1.32,0.8-1.79,1.19l-0.09-2.31h-5.12v20.56h5.62v-14.82c0.41-0.33,0.85-0.61,1.32-0.84
			c0.47-0.23,0.94-0.4,1.4-0.52s0.88-0.18,1.25-0.19c1.22-0.05,2.04,0.25,2.46,0.89c0.42,0.64,0.63,1.76,0.63,3.36v12.12H399.26z"/>
		<path d="M72.47,421.6c-1.51-0.62-3.33-0.93-5.45-0.93c-1.31,0-2.56,0.05-3.75,0.15s-2.4,0.15-3.6,0.15h-2.35v27.45h5.8v-8.52
			c0.32,0,0.72,0.01,1.21,0.02c0.49,0.01,1.12,0.02,1.89,0.02c3.56,0,6.28-0.86,8.16-2.59c1.88-1.72,2.82-4.16,2.82-7.3
			c0-2.25-0.41-4.07-1.23-5.45C75.15,423.22,73.99,422.22,72.47,421.6z M70.78,433.51c-0.49,0.83-1.14,1.4-1.96,1.74
			c-0.82,0.33-1.72,0.5-2.71,0.5c-0.53,0-1.04-0.01-1.54-0.04c-0.5-0.02-0.98-0.07-1.45-0.13v-10.58c0.43-0.09,0.91-0.15,1.42-0.19
			c0.52-0.04,1.01-0.06,1.48-0.07c1.83-0.06,3.21,0.37,4.12,1.29c0.91,0.92,1.37,2.26,1.37,4.01
			C71.51,431.53,71.27,432.68,70.78,433.51z"/>
		<path d="M91.5,427.54c-0.9,0-1.76,0.17-2.57,0.51c-0.81,0.34-1.52,0.78-2.11,1.31c-0.5,0.45-0.86,0.93-1.1,1.43l-0.29-2.93h-4.88
			v20.56h5.63v-13.75c0.2-0.19,0.42-0.39,0.69-0.61c0.44-0.35,0.98-0.65,1.62-0.91c0.64-0.25,1.4-0.38,2.29-0.38
			c0.73,0,1.27,0.06,1.63,0.17c0.36,0.11,0.62,0.22,0.79,0.33v-5.49c-0.15-0.09-0.38-0.15-0.69-0.18
			C92.21,427.56,91.87,427.54,91.5,427.54z"/>
		<path d="M111.06,429.09c-1.44-1.01-3.37-1.51-5.78-1.51c-1.93,0-3.66,0.39-5.18,1.16c-1.52,0.78-2.72,1.92-3.6,3.42
			c-0.88,1.5-1.34,3.35-1.38,5.54c-0.01,1.48,0.15,2.88,0.5,4.2c0.34,1.32,0.9,2.5,1.67,3.52c0.77,1.02,1.78,1.83,3.04,2.41
			s2.78,0.88,4.58,0.88c1.96,0,3.69-0.39,5.21-1.16c1.51-0.78,2.71-1.92,3.58-3.43c0.87-1.51,1.32-3.37,1.35-5.57
			c0.04-1.96-0.26-3.77-0.89-5.44C113.54,431.44,112.5,430.1,111.06,429.09z M108.25,443.13c-0.67,1.11-1.73,1.66-3.2,1.64
			c-1,0-1.79-0.31-2.39-0.94c-0.6-0.63-1.03-1.47-1.3-2.52c-0.27-1.05-0.41-2.21-0.41-3.46c0-2.06,0.33-3.63,1-4.72
			s1.74-1.63,3.21-1.62c0.99,0.01,1.78,0.33,2.37,0.94c0.6,0.62,1.03,1.44,1.3,2.46c0.27,1.02,0.41,2.16,0.41,3.4
			C109.25,440.42,108.92,442.03,108.25,443.13z"/>
		<path d="M130.74,444.09c-0.8,0.2-1.67,0.3-2.6,0.3c-0.96,0-1.83-0.23-2.61-0.69c-0.78-0.46-1.4-1.18-1.85-2.16
			c-0.45-0.98-0.66-2.24-0.62-3.78c0.04-1.43,0.31-2.57,0.82-3.42s1.15-1.46,1.92-1.83c0.77-0.37,1.55-0.55,2.36-0.55
			c1.01,0,1.86,0.09,2.54,0.26c0.68,0.17,1.25,0.4,1.71,0.68l0.7-4.3c-0.33-0.23-0.99-0.46-1.97-0.68
			c-0.98-0.22-2.14-0.33-3.48-0.33c-2.33,0-4.25,0.48-5.75,1.43c-1.51,0.96-2.63,2.25-3.37,3.87c-0.74,1.63-1.11,3.45-1.11,5.47
			c0,1.97,0.36,3.74,1.07,5.3c0.71,1.56,1.78,2.8,3.2,3.7c1.42,0.91,3.19,1.36,5.32,1.36c1.32,0,2.57-0.15,3.76-0.45
			c1.19-0.3,2.08-0.75,2.67-1.34l-0.83-3.46C132.16,443.69,131.54,443.9,130.74,444.09z"/>
		<path d="M151.65,429.36c-0.76-0.63-1.63-1.09-2.6-1.38c-0.97-0.28-2-0.42-3.07-0.41c-2.12,0.01-3.91,0.48-5.38,1.39
			c-1.47,0.92-2.58,2.17-3.35,3.74c-0.77,1.58-1.15,3.36-1.15,5.36c0,3.33,0.84,5.93,2.53,7.81c1.69,1.88,4.11,2.83,7.28,2.83
			c1.06,0,2.09-0.1,3.09-0.29c1-0.19,1.9-0.44,2.7-0.76c0.79-0.31,1.42-0.66,1.88-1.03l-0.94-3.07c-0.33,0.17-0.81,0.34-1.44,0.51
			c-0.63,0.17-1.29,0.3-2,0.4s-1.35,0.15-1.94,0.15c-1.08,0-2.04-0.18-2.85-0.53c-0.82-0.35-1.47-0.93-1.94-1.74
			c-0.44-0.75-0.69-1.74-0.76-2.95H154c0.09-0.46,0.14-1,0.17-1.64c0.02-0.64,0.04-1.34,0.04-2.09c-0.01-1.5-0.25-2.77-0.71-3.82
			C153.03,430.83,152.41,430,151.65,429.36z M148.95,436.37h-7.19c0.07-0.74,0.19-1.39,0.35-1.93c0.34-1.14,0.83-1.94,1.46-2.41
			c0.63-0.47,1.38-0.7,2.23-0.7c0.87,0,1.55,0.21,2.03,0.64c0.48,0.42,0.8,1.02,0.97,1.77C148.96,434.5,149.01,435.37,148.95,436.37
			z"/>
		<path d="M169.88,437.6c-1-0.6-2.24-1.2-3.72-1.8c-1-0.42-1.78-0.8-2.34-1.14c-0.56-0.34-0.83-0.86-0.82-1.56
			c0-0.54,0.27-0.96,0.82-1.25c0.55-0.29,1.42-0.43,2.61-0.43c0.65,0,1.3,0.07,1.93,0.21c0.63,0.14,1.2,0.32,1.71,0.55
			c0.5,0.22,0.87,0.43,1.11,0.63l0.61-4.05c-0.39-0.23-1.12-0.49-2.19-0.77c-1.07-0.28-2.36-0.42-3.87-0.42
			c-1.49,0-2.85,0.21-4.07,0.64s-2.2,1.06-2.94,1.91c-0.73,0.85-1.11,1.92-1.12,3.2c-0.01,1.08,0.19,2.03,0.62,2.84
			s1.07,1.52,1.94,2.15c0.87,0.63,1.97,1.21,3.3,1.74c0.74,0.3,1.41,0.58,2.01,0.86s1.08,0.58,1.43,0.9s0.53,0.7,0.53,1.13
			c0,0.63-0.27,1.1-0.79,1.41c-0.53,0.31-1.35,0.46-2.48,0.45c-0.89,0-1.75-0.11-2.59-0.32c-0.84-0.21-1.56-0.45-2.16-0.71
			s-1-0.47-1.2-0.63l-0.63,3.97c0.36,0.25,0.9,0.49,1.64,0.74c0.73,0.25,1.58,0.45,2.55,0.62c0.97,0.17,1.97,0.25,3.02,0.25
			c2.49,0,4.46-0.53,5.93-1.59s2.2-2.61,2.2-4.66c0-1.11-0.26-2.05-0.77-2.82S170.88,438.2,169.88,437.6z"/>
		<path d="M191.63,429.09c-1.44-1.01-3.37-1.51-5.78-1.51c-1.93,0-3.66,0.39-5.18,1.16c-1.52,0.78-2.72,1.92-3.6,3.42
			c-0.88,1.5-1.34,3.35-1.38,5.54c-0.01,1.48,0.15,2.88,0.5,4.2c0.34,1.32,0.9,2.5,1.67,3.52c0.77,1.02,1.78,1.83,3.04,2.41
			s2.78,0.88,4.58,0.88c1.96,0,3.69-0.39,5.21-1.16c1.51-0.78,2.71-1.92,3.58-3.43c0.87-1.51,1.32-3.37,1.35-5.57
			c0.04-1.96-0.26-3.77-0.89-5.44C194.1,431.44,193.07,430.1,191.63,429.09z M188.82,443.13c-0.67,1.11-1.73,1.66-3.2,1.64
			c-1,0-1.79-0.31-2.39-0.94c-0.6-0.63-1.03-1.47-1.3-2.52c-0.27-1.05-0.41-2.21-0.41-3.46c0-2.06,0.33-3.63,1-4.72
			s1.74-1.63,3.21-1.62c0.99,0.01,1.78,0.33,2.37,0.94c0.6,0.62,1.03,1.44,1.3,2.46c0.27,1.02,0.41,2.16,0.41,3.4
			C189.82,440.42,189.49,442.03,188.82,443.13z"/>
		<path d="M211.04,437.6c-1-0.6-2.24-1.2-3.72-1.8c-1-0.42-1.78-0.8-2.34-1.14c-0.56-0.34-0.83-0.86-0.82-1.56
			c0-0.54,0.27-0.96,0.82-1.25c0.55-0.29,1.42-0.43,2.61-0.43c0.65,0,1.3,0.07,1.93,0.21c0.63,0.14,1.2,0.32,1.71,0.55
			c0.5,0.22,0.87,0.43,1.11,0.63l0.61-4.05c-0.39-0.23-1.12-0.49-2.19-0.77c-1.07-0.28-2.36-0.42-3.87-0.42
			c-1.49,0-2.85,0.21-4.07,0.64s-2.2,1.06-2.94,1.91c-0.73,0.85-1.11,1.92-1.12,3.2c-0.01,1.08,0.19,2.03,0.62,2.84
			s1.07,1.52,1.94,2.15c0.87,0.63,1.97,1.21,3.3,1.74c0.74,0.3,1.41,0.58,2.01,0.86s1.08,0.58,1.43,0.9s0.53,0.7,0.53,1.13
			c0,0.63-0.27,1.1-0.79,1.41c-0.53,0.31-1.35,0.46-2.48,0.45c-0.89,0-1.75-0.11-2.59-0.32c-0.84-0.21-1.56-0.45-2.16-0.71
			s-1-0.47-1.2-0.63l-0.63,3.97c0.36,0.25,0.9,0.49,1.64,0.74c0.73,0.25,1.58,0.45,2.55,0.62c0.97,0.17,1.97,0.25,3.02,0.25
			c2.49,0,4.46-0.53,5.93-1.59s2.2-2.61,2.2-4.66c0-1.11-0.26-2.05-0.77-2.82S212.04,438.2,211.04,437.6z"/>
		<polygon points="244.78,420.96 241.1,435.63 239.99,441.82 238.66,435.63 234.69,420.96 226.78,420.96 223.75,448.42 
			229.17,448.42 230.39,433.03 230.9,425.25 232.79,433.16 237.52,448.62 242.1,448.62 246.53,433.16 248.32,425.25 248.77,433.03 
			250.12,448.42 255.75,448.42 252.39,420.96 		"/>
		<path d="M274.63,429.36c-0.76-0.63-1.63-1.09-2.6-1.38c-0.97-0.28-2-0.42-3.07-0.41c-2.12,0.01-3.91,0.48-5.38,1.39
			c-1.47,0.92-2.58,2.17-3.35,3.74c-0.77,1.58-1.16,3.36-1.16,5.36c0,3.33,0.84,5.93,2.53,7.81c1.69,1.88,4.11,2.83,7.28,2.83
			c1.06,0,2.09-0.1,3.09-0.29c1-0.19,1.9-0.44,2.7-0.76c0.79-0.31,1.42-0.66,1.88-1.03l-0.94-3.07c-0.33,0.17-0.81,0.34-1.44,0.51
			c-0.63,0.17-1.29,0.3-2,0.4c-0.7,0.1-1.35,0.15-1.94,0.15c-1.08,0-2.04-0.18-2.85-0.53c-0.82-0.35-1.47-0.93-1.94-1.74
			c-0.44-0.75-0.69-1.74-0.76-2.95h12.3c0.09-0.46,0.14-1,0.17-1.64c0.02-0.64,0.04-1.34,0.04-2.09c-0.01-1.5-0.25-2.77-0.71-3.82
			C276.01,430.83,275.39,430,274.63,429.36z M271.93,436.37h-7.19c0.07-0.74,0.19-1.39,0.35-1.93c0.34-1.14,0.83-1.94,1.46-2.41
			c0.63-0.47,1.38-0.7,2.23-0.7c0.87,0,1.55,0.21,2.03,0.64s0.8,1.02,0.97,1.77S272,435.37,271.93,436.37z"/>
		<path d="M292.68,444c-0.38,0.12-0.78,0.22-1.2,0.3c-0.42,0.08-0.79,0.12-1.11,0.12c-0.63,0-1.11-0.08-1.44-0.25
			c-0.33-0.17-0.57-0.55-0.7-1.14c-0.14-0.6-0.2-1.55-0.2-2.85v-8.48h5.52v-3.86h-5.52v-4.69h-3.4c-0.17,0.46-0.34,0.91-0.5,1.35
			s-0.31,0.86-0.45,1.24c-0.14,0.38-0.27,0.71-0.4,1c-0.25,0.58-0.64,0.99-1.19,1.22c-0.55,0.23-1.28,0.48-2.19,0.74v3.01h2.49
			v10.86c0,1.48,0.2,2.67,0.6,3.57c0.4,0.9,1.01,1.56,1.83,1.97c0.82,0.41,1.86,0.62,3.11,0.62c0.89,0,1.75-0.1,2.61-0.3
			c0.85-0.2,1.61-0.45,2.27-0.75s1.16-0.6,1.5-0.9l-0.74-3.16C293.36,443.75,293.06,443.88,292.68,444z"/>
		<path d="M310.81,428.17c-1.23-0.44-2.79-0.67-4.68-0.67c-1.16,0-2.31,0.13-3.45,0.38c-1.15,0.25-2.16,0.54-3.05,0.88
			c-0.89,0.33-1.54,0.62-1.96,0.87l1.22,3.55c0.5-0.26,1.13-0.5,1.88-0.72s1.55-0.4,2.39-0.54s1.65-0.2,2.43-0.2
			c1.03,0,1.83,0.16,2.38,0.49c0.55,0.33,0.83,1.01,0.83,2.06v1.51c-0.83,0-1.71,0.04-2.67,0.11c-0.96,0.07-1.91,0.2-2.86,0.39
			c-0.96,0.18-1.83,0.44-2.63,0.78c-1.17,0.5-2.1,1.21-2.78,2.11c-0.68,0.9-1.03,1.98-1.03,3.23s0.27,2.36,0.82,3.31
			c0.55,0.95,1.31,1.69,2.3,2.22s2.13,0.79,3.44,0.79c1.32,0,2.46-0.22,3.43-0.65c0.97-0.43,1.73-0.89,2.28-1.39v1.74h5.34v-13.6
			c0-1.87-0.3-3.34-0.9-4.4C312.95,429.36,312.04,428.61,310.81,428.17z M306.91,444.83c-0.45,0.12-0.9,0.18-1.36,0.18
			c-0.88,0-1.59-0.24-2.14-0.71c-0.55-0.47-0.83-1.21-0.83-2.21c0-0.76,0.19-1.33,0.56-1.7c0.38-0.37,0.8-0.67,1.28-0.89
			c0.34-0.15,0.77-0.28,1.28-0.4c0.51-0.12,1.04-0.21,1.6-0.27c0.55-0.06,1.05-0.09,1.5-0.09v5.17c-0.12,0.15-0.36,0.3-0.7,0.47
			C307.76,444.57,307.36,444.71,306.91,444.83z"/>
		<rect x="319.95" y="418.4" width="5.65" height="30.02"/>
		<path d="M338.51,420.45c-0.71,0.85-1.39,1.59-2.01,2.24l2.57,2.29c0.31-0.14,0.71-0.39,1.21-0.77c0.5-0.38,1.05-0.83,1.64-1.35
			s1.18-1.08,1.75-1.66c0.57-0.58,1.08-1.16,1.53-1.73c0.45-0.57,0.79-1.08,1.01-1.53l-3.68-2.92c-0.58,0.9-1.22,1.82-1.91,2.75
			C339.93,418.7,339.23,419.6,338.51,420.45z"/>
		<path d="M343.22,443.34c-0.21,0.16-0.51,0.33-0.91,0.51s-0.83,0.33-1.29,0.45c-0.47,0.12-0.92,0.19-1.37,0.19
			c-0.73,0-1.32-0.1-1.78-0.31c-0.46-0.21-0.8-0.63-1.03-1.27s-0.33-1.61-0.33-2.9v-12.16h-5.62v12.08c0,1.29,0.08,2.48,0.24,3.55
			s0.47,2,0.92,2.79c0.46,0.79,1.12,1.39,2,1.82c0.88,0.42,2.04,0.64,3.46,0.64c0.7,0,1.45-0.09,2.24-0.28s1.54-0.43,2.26-0.75
			c0.67-0.29,1.24-0.63,1.73-0.99v0.76c0,0.54,0.13,0.89,0.4,1.04c0.26,0.15,0.64,0.22,1.12,0.22h3.58v-20.88h-5.63V443.34z"/>
		<path d="M365.34,427.54c-0.9,0-1.75,0.17-2.57,0.51c-0.81,0.34-1.51,0.78-2.11,1.31c-0.5,0.46-0.86,0.93-1.1,1.43l-0.29-2.93
			h-4.88v20.56h5.63v-13.75c0.2-0.19,0.42-0.39,0.69-0.61c0.44-0.35,0.98-0.65,1.62-0.91c0.64-0.25,1.4-0.38,2.29-0.38
			c0.73,0,1.27,0.06,1.63,0.17c0.36,0.11,0.62,0.22,0.79,0.33v-5.49c-0.15-0.09-0.38-0.15-0.69-0.18
			C366.05,427.56,365.71,427.54,365.34,427.54z"/>
		<path d="M385.92,428.4c-0.43,0.23-0.76,0.45-1.03,0.66c-0.43-0.28-0.89-0.53-1.4-0.73c-1.34-0.52-2.88-0.77-4.65-0.76
			c-1.75,0.01-3.28,0.28-4.59,0.81c-1.31,0.53-2.33,1.32-3.06,2.37c-0.73,1.05-1.09,2.34-1.09,3.88c0,1.42,0.37,2.64,1.11,3.66
			c0.67,0.93,1.59,1.65,2.73,2.18c-0.71,0.32-1.29,0.7-1.72,1.14c-0.48,0.49-0.82,0.99-1.02,1.51c-0.2,0.52-0.3,1.03-0.31,1.51
			c0,0.74,0.2,1.36,0.59,1.86c0.29,0.37,0.73,0.67,1.31,0.91c-0.49,0.19-0.96,0.42-1.37,0.7c-0.6,0.41-1.07,0.91-1.41,1.5
			s-0.52,1.24-0.52,1.97c0,1.96,0.79,3.47,2.37,4.54c1.58,1.07,3.99,1.61,7.23,1.63c1.43,0.01,2.8-0.14,4.1-0.46
			s2.47-0.79,3.49-1.42s1.83-1.41,2.42-2.36c0.59-0.94,0.89-2.03,0.89-3.26c0-0.73-0.12-1.43-0.36-2.1s-0.66-1.28-1.25-1.81
			c-0.59-0.54-1.4-0.96-2.44-1.27c-1.04-0.31-2.35-0.46-3.94-0.46h-3.71c-0.92,0-1.57-0.11-1.95-0.34
			c-0.38-0.23-0.56-0.64-0.56-1.25c0-0.39,0.14-0.79,0.42-1.19c0.14-0.2,0.31-0.38,0.5-0.52c0.66,0.1,1.36,0.16,2.09,0.16
			c1.91,0,3.53-0.27,4.86-0.8c1.33-0.54,2.34-1.32,3.03-2.36s1.04-2.31,1.04-3.82c0-0.98-0.17-1.85-0.48-2.62h3.72v-4.06h-2.4
			C387.55,427.78,386.67,427.99,385.92,428.4z M380.19,448.31c1.23,0,2.17,0.13,2.8,0.39c0.63,0.26,1.06,0.62,1.28,1.08
			c0.21,0.46,0.32,1,0.32,1.62c0,0.71-0.23,1.3-0.69,1.75c-0.46,0.45-1.09,0.78-1.88,1c-0.79,0.21-1.67,0.32-2.63,0.32
			c-1.16,0-2.06-0.17-2.71-0.52c-0.65-0.34-1.1-0.81-1.37-1.38c-0.27-0.58-0.4-1.22-0.4-1.92c0-0.63,0.1-1.15,0.31-1.55
			c0.17-0.33,0.37-0.61,0.59-0.84c0.29,0.04,0.6,0.06,0.96,0.06H380.19z M381.49,437.54c-0.66,0.5-1.53,0.75-2.61,0.75
			c-1.21,0-2.06-0.37-2.57-1.12c-0.51-0.75-0.76-1.63-0.76-2.65c0-0.94,0.14-1.66,0.43-2.18c0.29-0.52,0.69-0.88,1.21-1.08
			c0.52-0.2,1.12-0.3,1.81-0.3c1.17,0,2.04,0.3,2.61,0.91c0.57,0.61,0.86,1.51,0.86,2.71C382.48,436.06,382.15,437.05,381.49,437.54
			z"/>
		<rect x="394.42" y="427.86" width="5.63" height="20.56"/>
		<path d="M397.3,418.43c-0.63,0-1.22,0.15-1.76,0.46s-0.99,0.72-1.33,1.23s-0.51,1.07-0.51,1.69c0,0.91,0.31,1.65,0.94,2.22
			c0.63,0.57,1.4,0.85,2.31,0.85c0.97,0,1.81-0.33,2.52-0.99c0.71-0.66,1.06-1.46,1.06-2.39c0-0.9-0.29-1.63-0.86-2.21
			C399.1,418.72,398.31,418.43,397.3,418.43z"/>
		<path d="M417.71,444.09c-0.8,0.2-1.67,0.3-2.6,0.3c-0.96,0-1.83-0.23-2.61-0.69s-1.4-1.18-1.85-2.16
			c-0.45-0.98-0.66-2.24-0.62-3.78c0.04-1.43,0.31-2.57,0.82-3.42c0.51-0.85,1.15-1.46,1.92-1.83s1.55-0.55,2.36-0.55
			c1.01,0,1.86,0.09,2.54,0.26c0.68,0.17,1.25,0.4,1.71,0.68l0.7-4.3c-0.33-0.23-0.99-0.46-1.97-0.68
			c-0.98-0.22-2.14-0.33-3.48-0.33c-2.33,0-4.25,0.48-5.75,1.43c-1.51,0.96-2.63,2.25-3.37,3.87c-0.74,1.63-1.11,3.45-1.11,5.47
			c0,1.97,0.36,3.74,1.07,5.3c0.71,1.56,1.78,2.8,3.2,3.7c1.42,0.91,3.19,1.36,5.32,1.36c1.32,0,2.57-0.15,3.76-0.45
			s2.08-0.75,2.67-1.34l-0.83-3.46C419.13,443.69,418.51,443.9,417.71,444.09z"/>
		<path d="M438.72,429.09c-1.44-1.01-3.37-1.51-5.78-1.51c-1.93,0-3.66,0.39-5.18,1.16c-1.52,0.78-2.72,1.92-3.6,3.42
			c-0.88,1.5-1.34,3.35-1.38,5.54c-0.01,1.48,0.15,2.88,0.5,4.2c0.34,1.32,0.9,2.5,1.67,3.52c0.77,1.02,1.78,1.83,3.04,2.41
			c1.26,0.58,2.78,0.88,4.58,0.88c1.96,0,3.7-0.39,5.21-1.16c1.51-0.78,2.71-1.92,3.58-3.43c0.87-1.51,1.32-3.37,1.35-5.57
			c0.04-1.96-0.26-3.77-0.89-5.44S440.16,430.1,438.72,429.09z M435.91,443.13c-0.67,1.11-1.73,1.66-3.2,1.64
			c-1,0-1.8-0.31-2.39-0.94c-0.6-0.63-1.03-1.47-1.3-2.52c-0.27-1.05-0.41-2.21-0.41-3.46c0-2.06,0.33-3.63,1-4.72
			s1.74-1.63,3.21-1.62c0.99,0.01,1.78,0.33,2.37,0.94c0.6,0.62,1.03,1.44,1.3,2.46c0.27,1.02,0.41,2.16,0.41,3.4
			C436.91,440.42,436.57,442.03,435.91,443.13z"/>
		<path d="M460.4,439.65c-0.51-0.77-1.27-1.45-2.27-2.05s-2.25-1.2-3.72-1.8c-1-0.42-1.78-0.8-2.34-1.14s-0.83-0.86-0.82-1.56
			c0-0.54,0.27-0.96,0.82-1.25c0.55-0.29,1.42-0.43,2.61-0.43c0.65,0,1.3,0.07,1.93,0.21c0.63,0.14,1.2,0.32,1.71,0.55
			s0.88,0.43,1.11,0.63l0.61-4.05c-0.39-0.23-1.12-0.49-2.19-0.77c-1.07-0.28-2.36-0.42-3.87-0.42c-1.49,0-2.85,0.21-4.07,0.64
			c-1.23,0.42-2.21,1.06-2.94,1.91c-0.73,0.85-1.11,1.92-1.12,3.2c-0.01,1.08,0.19,2.03,0.62,2.84s1.07,1.52,1.94,2.15
			s1.97,1.21,3.3,1.74c0.74,0.3,1.41,0.58,2.01,0.86s1.08,0.58,1.43,0.9c0.35,0.32,0.53,0.7,0.53,1.13c0,0.63-0.26,1.1-0.79,1.41
			c-0.53,0.31-1.36,0.46-2.48,0.45c-0.89,0-1.75-0.11-2.59-0.32c-0.84-0.21-1.56-0.45-2.16-0.71s-1-0.47-1.2-0.63l-0.63,3.97
			c0.36,0.25,0.9,0.49,1.63,0.74c0.73,0.25,1.58,0.45,2.55,0.62c0.97,0.17,1.97,0.25,3.02,0.25c2.49,0,4.46-0.53,5.93-1.59
			c1.46-1.06,2.2-2.61,2.2-4.66C461.16,441.36,460.91,440.42,460.4,439.65z"/>
	</g>
	<g>
		<path d="M391.03,294.23c-0.51-0.38-1.03-0.75-1.53-1.15c-1.99-1.58-2.73-3.75-2.06-5.99c0.72-2.4,2.58-4.01,5.14-4.1
			c3.47-0.12,6.95-0.04,10.43-0.05c0.92,0,1.84,0,2.89,0c0.08-0.86,0.19-1.5,0.19-2.13c0.01-6.67,0.03-13.35,0-20.02
			c-0.02-4.04-1-7.81-3.47-11.09c-4.48-5.95-12.03-8.4-19.1-6.22c-6.86,2.13-11.75,8.43-12.15,15.71c-0.05,0.84,0,1.69-0.05,2.54
			c-0.2,3.3-2.43,5.49-5.58,5.5c-3.11,0.01-5.45-2.19-5.65-5.46c-0.22-3.6,0.28-7.12,1.4-10.55c1.87-5.7,5.21-10.37,9.98-14
			c0.82-0.62,1.66-1.22,2.61-1.91c-6.36-6.16-9.24-13.5-7.18-22.21c2.03-8.57,7.66-13.97,16.09-16.7c0.05-0.62,0.15-1.26,0.16-1.9
			c0.01-8.55,0.05-17.1-0.01-25.66c-0.04-5.49-3.35-9.83-8.49-11.29c-0.98-0.28-2.03-0.42-3.05-0.42
			c-9.68-0.03-19.36-0.02-29.04-0.02c-0.27,0-0.55,0.08-1.06,0.15c-0.13,0.75-0.28,1.53-0.46,2.52c0.86,0.42,1.66,0.87,2.5,1.23
			c3.71,1.6,7.44,3.13,11.13,4.76c4.08,1.79,5.21,4.56,3.48,8.65c-2.92,6.91-5.98,13.77-8.84,20.71c-1.53,3.71-4.95,5.35-8.92,3.45
			c-4.31-2.06-8.78-3.8-13.1-5.64c-4.21,4.12-8.35,8.17-12.7,12.44c0.16,0.45,0.41,1.23,0.71,1.99c1.55,3.93,3.16,7.83,4.67,11.77
			c1.44,3.76,0.35,6.53-3.3,8.04c-7.28,3.01-14.6,5.95-21.94,8.8c-3.61,1.4-6.41,0.08-7.94-3.57c-1.55-3.72-3-7.49-4.51-11.23
			c-0.34-0.86-0.72-1.71-1.15-2.73c-5.86,0-11.65,0-17.69,0c-1.55,3.57-3.18,7.35-4.82,11.13c-0.41,0.95-0.78,1.92-1.23,2.84
			c-1.59,3.25-4.34,4.41-7.7,3.04c-4.52-1.83-8.98-3.82-13.46-5.74c-2.59-1.11-5.19-2.19-7.76-3.33c-4.24-1.87-5.35-4.6-3.56-8.84
			c1.86-4.41,3.77-8.79,5.65-13.16c-4.15-4.25-8.24-8.46-12.48-12.81c-3.82,1.52-7.82,3.11-11.82,4.7c-0.52,0.21-1.06,0.4-1.56,0.64
			c-4.04,1.92-7.33-0.14-8.61-3.61c-1.04-2.81-2.21-5.58-3.32-8.37c-1.67-4.18-3.36-8.36-5-12.55c-1.7-4.35-0.59-6.9,3.79-8.7
			c3.99-1.64,7.99-3.26,12.02-4.8c1.32-0.51,1.79-1.24,1.08-2.92c-0.82,0-1.82,0-2.82,0c-8.83,0-17.67,0.09-26.5-0.03
			c-8.85-0.12-15.7-3.96-20.28-11.6c-2.17-3.63-3.07-7.64-3.07-11.85c0-8.36,0-16.73,0-25.09c0-1.02,0-2.03,0-3.23
			c-0.93-0.07-1.65-0.17-2.37-0.18c-3.01-0.02-6.02,0.06-9.02-0.03c-6.86-0.19-11.48-4.73-11.59-11.59
			c-0.12-7.7-0.19-15.42,0.03-23.12c0.28-9.62,4.45-17.31,12.27-22.98c0.52-0.38,1.04-0.75,1.77-1.29
			c-5.39-5.02-8.18-11.07-7.78-18.36c0.33-5.98,2.74-11.08,7.14-15.16c8.5-7.87,21.5-8.03,30.04-0.38c5.03,4.51,7.62,10.2,7.6,16.94
			c-0.01,6.73-2.86,12.31-7.64,16.81c2.15,1.89,4.24,3.48,6.04,5.35c5.11,5.31,7.66,11.77,7.79,19.09
			c0.14,7.7,0.09,15.41,0.03,23.12c-0.06,6.64-4.63,11.27-11.34,11.55c-2.72,0.11-5.45,0.02-8.18,0.03c-1.03,0-2.06,0-3.2,0
			c-0.12,0.68-0.3,1.2-0.3,1.73c-0.02,9.02-0.07,18.04,0.01,27.07c0.06,6.79,4.96,11.8,11.74,11.88c9.58,0.12,19.17,0.03,28.76,0.02
			c0.27,0,0.54-0.08,1.01-0.16c0.21-1.13,0.42-2.3,0.66-3.62c-0.7-0.39-1.31-0.8-1.96-1.08c-3.87-1.68-7.77-3.3-11.64-5
			c-4.27-1.88-5.3-4.5-3.46-8.83c2.89-6.82,5.81-13.64,8.76-20.44c1.83-4.22,4.61-5.32,8.85-3.54c4.41,1.85,8.79,3.77,13.14,5.64
			c4.22-4.11,8.37-8.15,12.78-12.45c-0.89-2.26-1.9-4.86-2.92-7.45c-0.89-2.27-1.87-4.51-2.68-6.81c-1.17-3.3-0.08-6.05,3.17-7.39
			c7.45-3.09,14.95-6.07,22.47-8.98c3.37-1.3,6.15-0.04,7.57,3.32c1.68,3.97,3.2,8.02,4.8,12.02c0.28,0.69,0.61,1.36,0.95,2.12
			c5.81,0,11.6,0,17.65,0c0.22-0.42,0.59-1.05,0.88-1.72c1.68-3.87,3.3-7.77,5.02-11.63c1.7-3.81,4.46-5,8.21-3.43
			c7.18,3.01,14.34,6.07,21.48,9.2c3.59,1.57,4.69,4.43,3.2,8.09c-1.52,3.74-3.15,7.43-4.73,11.14c-0.37,0.86-0.72,1.72-1.06,2.55
			c4.11,4.22,8.15,8.37,12.42,12.76c2.3-0.91,4.89-1.93,7.48-2.95c2.18-0.86,4.34-1.78,6.55-2.58c3.47-1.25,6.25-0.19,7.64,3.15
			c3.08,7.45,6.08,14.95,8.98,22.47c1.29,3.34-0.01,6.09-3.4,7.54c-3.88,1.65-7.83,3.16-11.75,4.73c-0.77,0.31-1.54,0.64-2.47,1.04
			c0.06,1.07,0.11,2.07,0.18,3.44c1.16,0,2.16,0,3.15,0c9.12,0.01,18.24-0.13,27.35,0.06c8.94,0.19,15.51,4.52,19.79,12.3
			c1.84,3.35,2.61,7.01,2.6,10.84c-0.02,8.18-0.01,16.35,0,24.53c0,0.93,0,1.85,0,2.7c17.63,5.79,22.31,26.29,9.02,39.02
			c0.59,0.45,1.15,0.89,1.73,1.32c6.78,4.97,10.86,11.55,11.91,19.95c0.07,0.53,0.31,1.05,0.47,1.57c0,8.65,0,17.29,0,25.94
			c-0.18,0.52-0.4,1.04-0.54,1.57c-0.96,3.71-3.26,6.25-6.74,7.79c-0.59,0.26-1.17,0.53-1.75,0.79
			C402.69,294.23,396.86,294.23,391.03,294.23z M307.62,218.7c-1.72-4.3-3.37-8.36-4.98-12.44c-1.55-3.92-0.93-6.13,2.51-8.48
			c5.74-3.9,10.61-8.66,14.67-14.28c2.49-3.44,4.62-4.02,8.49-2.38c4.06,1.71,8.11,3.46,12.39,5.3c1.73-4.01,3.42-7.94,5.17-11.99
			c-0.73-0.36-1.3-0.67-1.89-0.92c-3.53-1.52-7.08-3.01-10.61-4.55c-3.67-1.6-4.72-3.7-4.03-7.6c0.34-1.94,0.62-3.9,0.8-5.86
			c0.46-4.89,0.24-9.75-0.51-14.6c-0.68-4.43,0.42-6.19,4.53-7.86c2.78-1.13,5.58-2.22,8.37-3.34c1.28-0.51,2.55-1.02,3.94-1.58
			c-1.71-4.22-3.11-8.24-4.98-12.16c-4.18,1.66-8.1,3.21-12.02,4.76c-0.78,0.31-1.56,0.69-2.38,0.84c-2.87,0.53-4.86-0.79-6.39-3.11
			c-3.54-5.4-7.96-9.98-13.1-13.86c-0.67-0.51-1.39-0.97-2.04-1.51c-2.43-2-3-4.08-1.89-7c0.5-1.31,1.1-2.59,1.65-3.89
			c1.31-3.08,2.62-6.15,4-9.4c-4.14-1.77-8.06-3.44-12.08-5.16c-1.94,4.52-3.7,8.76-5.57,12.96c-1.42,3.18-3.62,4.26-7.04,3.64
			c-5.57-1-11.16-1.57-16.82-0.84c-1.58,0.2-3.16,0.45-4.75,0.61c-3.6,0.37-5.43-0.71-6.85-4.03c-0.44-1.04-0.84-2.09-1.26-3.13
			c-1.3-3.21-2.6-6.41-3.96-9.79c-4.13,1.66-8.08,3.25-12.18,4.9c1.73,4.32,3.38,8.4,4.99,12.5c1.52,3.87,0.74,5.95-2.57,8.5
			c-3.26,2.52-6.46,5.15-9.44,8c-2.02,1.93-3.65,4.29-5.38,6.5c-2.34,2.98-4.4,3.61-7.86,2.24c-0.79-0.31-1.56-0.65-2.34-0.98
			c-3.44-1.48-6.87-2.95-10.5-4.52c-1.75,4.09-3.42,8.02-5.16,12.08c4.23,1.82,8.18,3.51,12.12,5.24c4.26,1.87,5.14,3.67,4.35,8.18
			c-0.43,2.49-0.85,5.03-0.84,7.54c0.02,4.21,0.29,8.44,0.65,12.64c0.37,4.4-0.46,5.98-4.47,7.64c-0.95,0.39-1.92,0.76-2.87,1.15
			c-3.12,1.27-6.23,2.54-9.53,3.89c1.66,4.13,3.25,8.07,4.87,12.12c1.35-0.52,2.4-0.91,3.43-1.32c3.05-1.21,6.09-2.45,9.15-3.64
			c3.81-1.48,5.96-0.83,8.27,2.43c0.27,0.38,0.51,0.79,0.79,1.17c3.46,4.86,7.43,9.27,12.35,12.65c5.1,3.5,5.37,5.98,2.88,11.15
			c-1.66,3.44-3.02,7.03-4.59,10.73c4.11,1.74,8.03,3.4,12.09,5.12c1.92-4.48,3.66-8.63,5.47-12.74c1.47-3.34,3.64-4.57,7.21-3.85
			c7.09,1.43,14.18,1.38,21.3,0.32c3.69-0.55,5.6,0.54,7.05,4.03c1.48,3.55,2.87,7.14,4.32,10.7c0.27,0.66,0.64,1.28,1.04,2.08
			C299.65,221.88,303.54,220.33,307.62,218.7z M174.93,92.59c0-8.32,0.46-16.42-0.11-24.43C174,56.69,162.26,49.54,151.6,53.51
			c-6.93,2.58-11.26,8.92-11.35,16.84c-0.08,6.75-0.02,13.51-0.01,20.27c0,0.62,0.15,1.25,0.25,1.98
			C151.97,92.59,163.29,92.59,174.93,92.59z M388.64,229.35c6.04,0.04,11.12-4.95,11.24-11.03c0.12-5.99-4.9-11.15-10.98-11.3
			c-6.12-0.14-11.38,5.04-11.35,11.18C377.56,224.28,382.57,229.31,388.64,229.35z M168.79,28.29c0.21-6.05-4.66-11.28-10.71-11.5
			c-6.2-0.23-11.4,4.66-11.61,10.9c-0.2,5.99,4.75,11.17,10.86,11.38C163.35,39.27,168.58,34.35,168.79,28.29z"/>
		<path d="M365.65,294.23c-0.66-0.49-1.35-0.93-1.97-1.48c-2.51-2.23-2.58-5.86-0.18-8.18c2.29-2.22,5.86-2.12,8.01,0.23
			c2.21,2.41,1.91,6.13-0.68,8.18c-0.57,0.45-1.2,0.83-1.8,1.25C367.91,294.23,366.78,294.23,365.65,294.23z"/>
		<path class="st1" d="M259.53,139.97c-7.59-10.45-7.31-20.69,0.63-27.99c7.21-6.64,18.43-6.83,25.69-0.38
			c4.12,3.66,6.35,8.25,6.58,13.82c0.22,5.57-1.85,10.24-5.56,14.43c0.72,0.61,1.35,1.12,1.96,1.66c5.52,4.83,8.56,10.85,8.63,18.23
			c0.06,6.29-0.08,12.58,0.05,18.87c0.12,5.46-4.6,10.39-10.38,10.3c-9.29-0.14-18.59-0.13-27.88-0.01
			c-5.92,0.08-10.44-4.97-10.35-10.34c0.1-6.01,0.02-12.02,0.02-18.03c0.01-8.13,3.24-14.71,9.6-19.76
			C258.81,140.54,259.1,140.31,259.53,139.97z M286.1,177.48c0-6.61,0.09-12.98-0.07-19.34c-0.03-1.42-0.72-2.92-1.41-4.22
			c-2.75-5.21-8.62-7.82-14.27-6.47c-5.9,1.41-10,6.28-10.12,12.28c-0.11,5.16-0.04,10.32-0.03,15.49c0,0.72,0.1,1.44,0.16,2.26
			C268.95,177.48,277.36,177.48,286.1,177.48z M273.17,118.21c-4.36,0.02-7.86,3.48-7.9,7.82c-0.05,4.43,3.57,8.06,8,8.04
			c4.36-0.02,7.83-3.48,7.87-7.85C281.17,121.69,277.7,118.19,273.17,118.21z"/>
	</g>
	<g>
		<path class="st0" d="M20.75,478.35c-1.32-0.86-2.88-1.29-4.68-1.28c-1.72,0.01-3.28,0.4-4.68,1.17c-1.4,0.77-2.52,1.93-3.37,3.46
			c-0.85,1.53-1.29,3.43-1.34,5.7c-0.04,2.05,0.3,3.88,1.02,5.47c0.72,1.6,1.76,2.85,3.11,3.75c1.35,0.9,2.97,1.33,4.85,1.3
			c1.72-0.04,3.26-0.45,4.62-1.25c1.36-0.8,2.44-1.97,3.23-3.51c0.8-1.54,1.22-3.45,1.26-5.71c0.05-2.09-0.28-3.91-0.99-5.47
			C23.09,480.42,22.08,479.21,20.75,478.35z M20.61,493.88c-1.24,1.5-2.87,2.26-4.89,2.28c-1.48,0.01-2.73-0.38-3.73-1.17
			c-1-0.79-1.76-1.84-2.26-3.15s-0.75-2.74-0.74-4.3c0.01-1.94,0.33-3.56,0.95-4.85s1.46-2.26,2.51-2.9
			c1.05-0.65,2.23-0.97,3.54-0.98c1.43-0.01,2.63,0.37,3.59,1.15c0.97,0.77,1.69,1.81,2.18,3.1s0.73,2.73,0.73,4.29
			C22.48,490.2,21.85,492.38,20.61,493.88z"/>
		<path class="st0" d="M35.22,482.21c-0.71,0-1.39,0.15-2.06,0.44s-1.25,0.63-1.73,1c-0.4,0.31-0.68,0.58-0.86,0.81l-0.13-2.03
			h-1.92v15.27h2.25v-11.75c0.22-0.22,0.5-0.45,0.84-0.7c0.42-0.3,0.9-0.55,1.44-0.77c0.54-0.21,1.13-0.32,1.75-0.32
			c0.57,0,0.99,0.04,1.26,0.11c0.27,0.07,0.47,0.15,0.61,0.22v-2.11c-0.14-0.06-0.33-0.1-0.57-0.12
			C35.87,482.22,35.57,482.21,35.22,482.21z"/>
		<path class="st0" d="M40.99,475.83c-0.27,0-0.52,0.07-0.78,0.22c-0.25,0.15-0.46,0.35-0.62,0.61s-0.25,0.56-0.25,0.9
			c0,0.48,0.14,0.85,0.43,1.11c0.29,0.27,0.63,0.4,1.02,0.4c0.43,0,0.81-0.16,1.15-0.47c0.33-0.32,0.5-0.73,0.5-1.26
			c0-0.43-0.12-0.79-0.36-1.08C41.85,475.98,41.49,475.83,40.99,475.83z"/>
		<rect x="39.81" y="482.43" class="st0" width="2.23" height="15.27"/>
		<path class="st0" d="M56.96,483.75c-0.48-0.51-1.05-0.9-1.72-1.17c-0.66-0.27-1.4-0.4-2.22-0.38c-1.46,0.01-2.71,0.35-3.72,1.04
			c-1.02,0.68-1.79,1.62-2.32,2.8c-0.53,1.19-0.8,2.54-0.8,4.07c0,2.44,0.57,4.36,1.72,5.73c1.14,1.38,2.79,2.07,4.93,2.07
			c0.63,0,1.28-0.06,1.96-0.18c0.67-0.12,1.29-0.28,1.86-0.49c0.57-0.21,1.02-0.45,1.35-0.73l-0.47-1.46
			c-0.27,0.17-0.63,0.35-1.11,0.53c-0.47,0.18-0.98,0.33-1.51,0.45c-0.54,0.12-1.04,0.18-1.5,0.18c-0.94,0-1.79-0.18-2.53-0.53
			s-1.33-0.92-1.77-1.71c-0.44-0.79-0.68-1.84-0.73-3.15c-0.01-0.19,0-0.37,0-0.55h10.02c0.06-0.32,0.09-0.67,0.1-1.05
			s0.01-0.81,0.01-1.28c-0.02-0.87-0.16-1.66-0.43-2.37C57.81,484.87,57.44,484.26,56.96,483.75z M48.46,488.77
			c0.08-0.76,0.22-1.44,0.44-2c0.39-1.03,0.93-1.79,1.63-2.26s1.48-0.71,2.36-0.71c0.92,0,1.65,0.22,2.18,0.66
			c0.53,0.44,0.9,1.04,1.11,1.79s0.28,1.59,0.23,2.53H48.46z"/>
		<path class="st0" d="M70.25,482.18c-0.74,0.02-1.47,0.15-2.2,0.41s-1.38,0.54-1.98,0.88c-0.6,0.33-1.08,0.64-1.45,0.91v-1.95h-2
			v15.27h2.25v-11.78c0.38-0.3,0.83-0.59,1.35-0.88c0.51-0.28,1.04-0.52,1.58-0.7c0.54-0.18,1.05-0.28,1.52-0.29
			c1.32-0.05,2.19,0.25,2.62,0.91c0.43,0.66,0.65,1.75,0.65,3.26v9.48h2.25v-9.45c0-2.25-0.35-3.83-1.04-4.75
			C73.09,482.59,71.91,482.15,70.25,482.18z"/>
		<path class="st0" d="M86.9,495.7c-0.33,0.11-0.69,0.21-1.08,0.29c-0.38,0.08-0.73,0.12-1.04,0.12c-0.5,0-0.9-0.06-1.2-0.19
			c-0.3-0.13-0.51-0.42-0.64-0.89c-0.13-0.46-0.19-1.2-0.19-2.22v-8.71h4.75v-1.7h-4.75v-3.49H81.4c-0.09,0.3-0.18,0.66-0.25,1.06
			c-0.08,0.41-0.15,0.79-0.22,1.15c-0.07,0.36-0.13,0.62-0.19,0.78c-0.12,0.31-0.41,0.52-0.89,0.61c-0.47,0.1-0.95,0.21-1.45,0.35
			v1.24h2.11v9.97c0,1.09,0.16,1.91,0.48,2.46c0.32,0.55,0.75,0.92,1.28,1.11c0.53,0.19,1.11,0.28,1.73,0.28
			c0.47,0,0.96-0.06,1.49-0.19c0.53-0.12,1.02-0.28,1.48-0.47c0.46-0.19,0.81-0.39,1.07-0.6l-0.38-1.29
			C87.49,495.47,87.23,495.59,86.9,495.7z"/>
		<path class="st0" d="M99.35,482.59c-0.78-0.28-1.7-0.41-2.74-0.41c-0.82,0-1.62,0.1-2.39,0.31s-1.43,0.43-1.98,0.68
			c-0.55,0.25-0.92,0.43-1.09,0.55l0.55,1.59c0.27-0.19,0.64-0.39,1.13-0.59c0.49-0.2,1.01-0.37,1.59-0.5
			c0.57-0.13,1.11-0.2,1.63-0.2c1.2,0,2.09,0.2,2.69,0.59c0.59,0.39,0.89,1.18,0.89,2.35v1.59c-0.53,0-1.15,0.03-1.85,0.08
			c-0.7,0.05-1.41,0.15-2.14,0.28c-0.72,0.13-1.38,0.31-1.98,0.54c-1.07,0.39-1.89,0.94-2.45,1.64c-0.56,0.7-0.84,1.55-0.84,2.56
			c0,0.89,0.2,1.65,0.6,2.29c0.4,0.64,0.95,1.12,1.65,1.46c0.7,0.34,1.5,0.51,2.4,0.51c1.1,0,2.07-0.18,2.9-0.55
			c0.82-0.36,1.43-0.73,1.85-1.1v1.43h2.09v-10.66c0-1.28-0.22-2.27-0.65-2.98C100.75,483.36,100.14,482.87,99.35,482.59z
			 M97.47,495.98c-0.56,0.17-1.17,0.26-1.82,0.26c-1.1,0-1.89-0.26-2.38-0.78c-0.49-0.52-0.73-1.17-0.73-1.97
			c0-0.69,0.2-1.25,0.59-1.7c0.39-0.45,0.98-0.82,1.74-1.1c0.43-0.17,0.95-0.31,1.54-0.42c0.6-0.1,1.19-0.18,1.77-0.23
			c0.58-0.04,1.05-0.07,1.41-0.07v4.94c-0.12,0.12-0.35,0.28-0.71,0.48C98.51,495.61,98.04,495.81,97.47,495.98z"/>
		<path class="st0" d="M116.25,481.79l0.03,0.92c-0.14-0.05-0.31-0.11-0.48-0.17c-0.71-0.23-1.55-0.34-2.54-0.34
			c-1.54,0-2.88,0.36-4.03,1.07c-1.15,0.71-2.04,1.7-2.68,2.95c-0.64,1.25-0.95,2.7-0.95,4.33c0,1.72,0.29,3.12,0.86,4.21
			c0.57,1.08,1.32,1.88,2.24,2.39c0.92,0.51,1.9,0.76,2.95,0.76c0.94,0,1.75-0.13,2.41-0.41c0.66-0.27,1.21-0.58,1.63-0.92
			c0.28-0.23,0.5-0.42,0.69-0.59v1.7h2.06v-22.33h-2.17V481.79z M114.66,495.61c-0.71,0.37-1.52,0.55-2.42,0.55
			c-1.37,0-2.45-0.49-3.23-1.46c-0.78-0.98-1.16-2.46-1.13-4.44c0.02-1.36,0.25-2.52,0.71-3.48c0.45-0.96,1.07-1.69,1.84-2.19
			c0.77-0.5,1.65-0.76,2.62-0.76c0.84,0,1.53,0.07,2.07,0.22c0.52,0.14,0.9,0.32,1.15,0.53v10.04
			C115.89,494.92,115.36,495.25,114.66,495.61z"/>
		<path class="st0" d="M133.06,483.32c-0.98-0.74-2.27-1.11-3.87-1.11c-1.29,0-2.46,0.29-3.5,0.87s-1.87,1.44-2.49,2.56
			s-0.94,2.5-0.97,4.12c-0.01,1.08,0.1,2.11,0.34,3.09c0.24,0.98,0.62,1.85,1.15,2.61c0.53,0.76,1.22,1.36,2.07,1.8
			s1.89,0.66,3.1,0.66c1.32,0,2.5-0.3,3.53-0.9s1.85-1.47,2.45-2.61c0.6-1.14,0.91-2.53,0.94-4.16c0.02-1.44-0.19-2.77-0.64-3.99
			C134.76,485.04,134.04,484.06,133.06,483.32z M132.36,494.68c-0.8,1.1-1.93,1.65-3.39,1.64c-1.04-0.02-1.88-0.33-2.53-0.93
			s-1.14-1.4-1.45-2.38c-0.31-0.98-0.47-2.06-0.47-3.22c0.02-1.91,0.44-3.39,1.26-4.44c0.82-1.04,1.95-1.55,3.39-1.53
			c1.02,0.01,1.85,0.3,2.5,0.87c0.65,0.57,1.13,1.33,1.44,2.29c0.31,0.96,0.46,2.02,0.45,3.19
			C133.56,492.08,133.16,493.58,132.36,494.68z"/>
		<path class="st0" d="M152.73,482.59c-0.78-0.28-1.7-0.41-2.74-0.41c-0.82,0-1.62,0.1-2.39,0.31s-1.43,0.43-1.98,0.68
			c-0.55,0.25-0.92,0.43-1.09,0.55l0.55,1.59c0.27-0.19,0.64-0.39,1.13-0.59c0.49-0.2,1.01-0.37,1.59-0.5
			c0.57-0.13,1.11-0.2,1.63-0.2c1.2,0,2.09,0.2,2.69,0.59c0.59,0.39,0.89,1.18,0.89,2.35v1.59c-0.53,0-1.15,0.03-1.85,0.08
			c-0.7,0.05-1.41,0.15-2.14,0.28c-0.72,0.13-1.38,0.31-1.98,0.54c-1.07,0.39-1.89,0.94-2.45,1.64c-0.56,0.7-0.84,1.55-0.84,2.56
			c0,0.89,0.2,1.65,0.6,2.29c0.4,0.64,0.95,1.12,1.65,1.46c0.7,0.34,1.5,0.51,2.4,0.51c1.1,0,2.07-0.18,2.9-0.55
			c0.82-0.36,1.43-0.73,1.85-1.1v1.43h2.09v-10.66c0-1.28-0.22-2.27-0.65-2.98C154.12,483.36,153.51,482.87,152.73,482.59z
			 M150.84,495.98c-0.56,0.17-1.17,0.26-1.82,0.26c-1.1,0-1.89-0.26-2.38-0.78c-0.49-0.52-0.73-1.17-0.73-1.97
			c0-0.69,0.2-1.25,0.59-1.7c0.39-0.45,0.98-0.82,1.74-1.1c0.43-0.17,0.95-0.31,1.54-0.42c0.6-0.1,1.19-0.18,1.77-0.23
			c0.58-0.04,1.05-0.07,1.41-0.07v4.94c-0.12,0.12-0.35,0.28-0.71,0.48C151.88,495.61,151.41,495.81,150.84,495.98z"/>
		<path class="st0" d="M177.76,478.35c-1.32-0.86-2.88-1.29-4.68-1.28c-1.72,0.01-3.28,0.4-4.68,1.17c-1.4,0.77-2.52,1.93-3.37,3.46
			c-0.85,1.53-1.29,3.43-1.34,5.7c-0.04,2.05,0.3,3.88,1.02,5.47c0.72,1.6,1.76,2.85,3.11,3.75c1.35,0.9,2.97,1.33,4.85,1.3
			c1.72-0.04,3.26-0.45,4.62-1.25c1.36-0.8,2.44-1.97,3.23-3.51c0.8-1.54,1.22-3.45,1.26-5.71c0.05-2.09-0.28-3.91-0.99-5.47
			C180.1,480.42,179.08,479.21,177.76,478.35z M177.62,493.88c-1.24,1.5-2.87,2.26-4.89,2.28c-1.48,0.01-2.73-0.38-3.73-1.17
			c-1-0.79-1.76-1.84-2.26-3.15s-0.75-2.74-0.74-4.3c0.01-1.94,0.33-3.56,0.95-4.85s1.46-2.26,2.51-2.9
			c1.05-0.65,2.23-0.97,3.54-0.98c1.43-0.01,2.63,0.37,3.59,1.15c0.97,0.77,1.69,1.81,2.18,3.1s0.73,2.73,0.73,4.29
			C179.49,490.2,178.85,492.38,177.62,493.88z"/>
		<path class="st0" d="M195.42,482.96c-0.92-0.5-1.9-0.75-2.95-0.75c-0.94,0-1.74,0.13-2.4,0.4s-1.19,0.57-1.6,0.91
			c-0.33,0.27-0.58,0.5-0.78,0.7v-1.82h-2.03v22.08h2.23v-4.92l-0.02-2.18c0.14,0.06,0.3,0.11,0.48,0.17
			c0.69,0.24,1.52,0.36,2.51,0.36c1.54,0,2.88-0.36,4.03-1.08s2.04-1.71,2.68-2.96c0.64-1.25,0.95-2.69,0.95-4.31
			c0-1.73-0.29-3.14-0.86-4.22C197.09,484.26,196.34,483.46,195.42,482.96z M195.53,493.33c-0.45,0.95-1.07,1.68-1.85,2.18
			s-1.66,0.75-2.64,0.75c-0.82,0-1.49-0.07-2.01-0.22c-0.52-0.15-0.9-0.33-1.15-0.55v-9.97c0.38-0.33,0.91-0.67,1.61-1.03
			c0.7-0.36,1.49-0.54,2.38-0.54c1.37,0,2.45,0.49,3.23,1.46s1.16,2.45,1.14,4.45C196.22,491.22,195.99,492.38,195.53,493.33z"/>
		<path class="st0" d="M212.12,483.75c-0.48-0.51-1.05-0.9-1.72-1.17c-0.66-0.27-1.4-0.4-2.22-0.38c-1.46,0.01-2.71,0.35-3.72,1.04
			c-1.02,0.68-1.79,1.62-2.32,2.8c-0.53,1.19-0.8,2.54-0.8,4.07c0,2.44,0.57,4.36,1.72,5.73c1.14,1.38,2.79,2.07,4.93,2.07
			c0.63,0,1.28-0.06,1.96-0.18c0.67-0.12,1.29-0.28,1.86-0.49c0.57-0.21,1.02-0.45,1.35-0.73l-0.47-1.46
			c-0.27,0.17-0.63,0.35-1.11,0.53c-0.47,0.18-0.98,0.33-1.51,0.45c-0.54,0.12-1.04,0.18-1.5,0.18c-0.94,0-1.79-0.18-2.53-0.53
			s-1.33-0.92-1.77-1.71c-0.44-0.79-0.68-1.84-0.73-3.15c-0.01-0.19,0-0.37,0-0.55h10.02c0.06-0.32,0.09-0.67,0.1-1.05
			s0.01-0.81,0.01-1.28c-0.02-0.87-0.16-1.66-0.43-2.37C212.98,484.87,212.61,484.26,212.12,483.75z M203.62,488.77
			c0.08-0.76,0.22-1.44,0.44-2c0.39-1.03,0.93-1.79,1.63-2.26s1.48-0.71,2.36-0.71c0.92,0,1.65,0.22,2.18,0.66
			c0.53,0.44,0.9,1.04,1.11,1.79s0.28,1.59,0.23,2.53H203.62z"/>
		<path class="st0" d="M224.2,482.21c-0.71,0-1.39,0.15-2.06,0.44s-1.25,0.63-1.73,1c-0.4,0.31-0.68,0.58-0.86,0.81l-0.13-2.03
			h-1.92v15.27h2.25v-11.75c0.22-0.22,0.5-0.45,0.84-0.7c0.42-0.3,0.9-0.55,1.44-0.77c0.54-0.21,1.13-0.32,1.75-0.32
			c0.57,0,0.99,0.04,1.26,0.11c0.27,0.07,0.47,0.15,0.61,0.22v-2.11c-0.14-0.06-0.33-0.1-0.57-0.12
			C224.85,482.22,224.55,482.21,224.2,482.21z"/>
		<path class="st0" d="M236.04,482.59c-0.78-0.28-1.7-0.41-2.74-0.41c-0.82,0-1.62,0.1-2.39,0.31s-1.43,0.43-1.98,0.68
			c-0.55,0.25-0.92,0.43-1.09,0.55l0.55,1.59c0.27-0.19,0.64-0.39,1.13-0.59c0.49-0.2,1.01-0.37,1.59-0.5
			c0.57-0.13,1.11-0.2,1.63-0.2c1.2,0,2.09,0.2,2.69,0.59c0.59,0.39,0.89,1.18,0.89,2.35v1.59c-0.53,0-1.15,0.03-1.85,0.08
			c-0.7,0.05-1.41,0.15-2.14,0.28c-0.72,0.13-1.38,0.31-1.98,0.54c-1.07,0.39-1.89,0.94-2.45,1.64c-0.56,0.7-0.84,1.55-0.84,2.56
			c0,0.89,0.2,1.65,0.6,2.29c0.4,0.64,0.95,1.12,1.65,1.46c0.7,0.34,1.5,0.51,2.4,0.51c1.1,0,2.07-0.18,2.9-0.55
			c0.82-0.36,1.43-0.73,1.85-1.1v1.43h2.09v-10.66c0-1.28-0.22-2.27-0.65-2.98C237.43,483.36,236.82,482.87,236.04,482.59z
			 M234.15,495.98c-0.56,0.17-1.17,0.26-1.82,0.26c-1.1,0-1.89-0.26-2.38-0.78c-0.49-0.52-0.73-1.17-0.73-1.97
			c0-0.69,0.2-1.25,0.59-1.7c0.39-0.45,0.98-0.82,1.74-1.1c0.43-0.17,0.95-0.31,1.54-0.42c0.6-0.1,1.19-0.18,1.77-0.23
			c0.58-0.04,1.05-0.07,1.41-0.07v4.94c-0.12,0.12-0.35,0.28-0.71,0.48C235.19,495.61,234.72,495.81,234.15,495.98z"/>
		<path class="st0" d="M252.94,481.79l0.03,0.92c-0.14-0.05-0.31-0.11-0.48-0.17c-0.71-0.23-1.55-0.34-2.54-0.34
			c-1.54,0-2.88,0.36-4.03,1.07c-1.15,0.71-2.04,1.7-2.68,2.95c-0.64,1.25-0.95,2.7-0.95,4.33c0,1.72,0.29,3.12,0.86,4.21
			c0.57,1.08,1.32,1.88,2.24,2.39c0.92,0.51,1.9,0.76,2.95,0.76c0.94,0,1.75-0.13,2.41-0.41c0.66-0.27,1.21-0.58,1.63-0.92
			c0.28-0.23,0.5-0.42,0.69-0.59v1.7h2.06v-22.33h-2.17V481.79z M251.34,495.61c-0.71,0.37-1.52,0.55-2.42,0.55
			c-1.37,0-2.45-0.49-3.23-1.46c-0.78-0.98-1.16-2.46-1.13-4.44c0.02-1.36,0.25-2.52,0.71-3.48c0.45-0.96,1.07-1.69,1.84-2.19
			c0.77-0.5,1.65-0.76,2.62-0.76c0.84,0,1.53,0.07,2.07,0.22c0.52,0.14,0.9,0.32,1.15,0.53v10.04
			C252.57,494.92,252.04,495.25,251.34,495.61z"/>
		<path class="st0" d="M269.74,483.32c-0.98-0.74-2.27-1.11-3.87-1.11c-1.29,0-2.46,0.29-3.5,0.87s-1.87,1.44-2.49,2.56
			s-0.94,2.5-0.97,4.12c-0.01,1.08,0.11,2.11,0.34,3.09c0.24,0.98,0.62,1.85,1.15,2.61c0.53,0.76,1.22,1.36,2.07,1.8
			s1.89,0.66,3.1,0.66c1.32,0,2.5-0.3,3.53-0.9c1.03-0.6,1.85-1.47,2.45-2.61c0.6-1.14,0.91-2.53,0.94-4.16
			c0.02-1.44-0.2-2.77-0.64-3.99C271.44,485.04,270.72,484.06,269.74,483.32z M269.04,494.68c-0.8,1.1-1.93,1.65-3.38,1.64
			c-1.04-0.02-1.88-0.33-2.53-0.93c-0.66-0.6-1.14-1.4-1.45-2.38s-0.47-2.06-0.47-3.22c0.02-1.91,0.44-3.39,1.26-4.44
			c0.82-1.04,1.95-1.55,3.38-1.53c1.02,0.01,1.85,0.3,2.5,0.87c0.65,0.57,1.13,1.33,1.44,2.29c0.31,0.96,0.46,2.02,0.45,3.19
			C270.24,492.08,269.84,493.58,269.04,494.68z"/>
		<path class="st0" d="M282.99,482.21c-0.71,0-1.39,0.15-2.06,0.44c-0.67,0.29-1.25,0.63-1.73,1c-0.4,0.31-0.68,0.58-0.86,0.81
			l-0.13-2.03h-1.92v15.27h2.25v-11.75c0.22-0.22,0.5-0.45,0.84-0.7c0.42-0.3,0.9-0.55,1.44-0.77c0.54-0.21,1.13-0.32,1.75-0.32
			c0.57,0,0.99,0.04,1.26,0.11c0.27,0.07,0.47,0.15,0.61,0.22v-2.11c-0.14-0.06-0.33-0.1-0.57-0.12
			C283.63,482.22,283.33,482.21,282.99,482.21z"/>
		<path class="st0" d="M296.84,483.75c-0.48-0.51-1.05-0.9-1.72-1.17c-0.66-0.27-1.4-0.4-2.22-0.38c-1.47,0.01-2.71,0.35-3.72,1.04
			c-1.02,0.68-1.79,1.62-2.32,2.8c-0.53,1.19-0.8,2.54-0.8,4.07c0,2.44,0.57,4.36,1.72,5.73c1.14,1.38,2.79,2.07,4.93,2.07
			c0.63,0,1.28-0.06,1.96-0.18s1.29-0.28,1.86-0.49c0.57-0.21,1.02-0.45,1.35-0.73l-0.47-1.46c-0.27,0.17-0.63,0.35-1.11,0.53
			s-0.97,0.33-1.51,0.45c-0.54,0.12-1.04,0.18-1.5,0.18c-0.94,0-1.79-0.18-2.53-0.53c-0.74-0.35-1.33-0.92-1.77-1.71
			c-0.44-0.79-0.68-1.84-0.73-3.15c-0.01-0.19,0-0.37,0-0.55h10.02c0.05-0.32,0.09-0.67,0.1-1.05s0.01-0.81,0.01-1.28
			c-0.02-0.87-0.16-1.66-0.43-2.37C297.69,484.87,297.32,484.26,296.84,483.75z M288.34,488.77c0.08-0.76,0.22-1.44,0.44-2
			c0.39-1.03,0.93-1.79,1.63-2.26c0.7-0.47,1.48-0.71,2.36-0.71c0.92,0,1.65,0.22,2.18,0.66s0.9,1.04,1.11,1.79s0.28,1.59,0.23,2.53
			H288.34z"/>
		<path class="st0" d="M308.85,490.05c-0.77-0.4-1.55-0.77-2.35-1.11c-0.81-0.35-1.5-0.73-2.09-1.16s-0.88-1.04-0.87-1.83
			c0.02-0.6,0.31-1.1,0.87-1.5c0.56-0.39,1.39-0.59,2.49-0.59c0.49,0,0.97,0.04,1.43,0.12c0.46,0.08,0.87,0.19,1.23,0.32
			c0.36,0.13,0.62,0.26,0.8,0.38l0.38-1.7c-0.28-0.16-0.77-0.33-1.5-0.51c-0.72-0.19-1.53-0.27-2.43-0.25
			c-0.96,0-1.84,0.14-2.65,0.41s-1.45,0.7-1.94,1.26c-0.49,0.57-0.74,1.29-0.76,2.17c-0.01,0.83,0.2,1.55,0.61,2.15
			c0.42,0.6,0.99,1.12,1.73,1.57c0.74,0.45,1.59,0.87,2.55,1.25c0.43,0.17,0.89,0.38,1.37,0.62c0.48,0.24,0.89,0.54,1.23,0.89
			s0.51,0.81,0.51,1.35c0,0.78-0.31,1.37-0.94,1.76c-0.63,0.4-1.43,0.6-2.41,0.6c-0.61-0.01-1.22-0.08-1.82-0.21
			c-0.6-0.13-1.13-0.28-1.59-0.45s-0.79-0.33-0.98-0.47l-0.36,1.7c0.29,0.19,0.7,0.37,1.22,0.54c0.52,0.17,1.09,0.3,1.72,0.41
			c0.63,0.11,1.27,0.16,1.92,0.16c1.62,0,2.91-0.36,3.88-1.09c0.97-0.73,1.45-1.76,1.45-3.11c0-0.88-0.25-1.61-0.76-2.19
			C310.25,490.94,309.62,490.45,308.85,490.05z"/>
		<path class="st0" d="M330.09,483.32c-0.98-0.74-2.27-1.11-3.87-1.11c-1.29,0-2.46,0.29-3.5,0.87c-1.04,0.58-1.87,1.44-2.49,2.56
			s-0.94,2.5-0.97,4.12c-0.01,1.08,0.1,2.11,0.34,3.09c0.24,0.98,0.62,1.85,1.15,2.61c0.53,0.76,1.22,1.36,2.07,1.8
			s1.89,0.66,3.1,0.66c1.32,0,2.49-0.3,3.53-0.9c1.03-0.6,1.85-1.47,2.45-2.61c0.6-1.14,0.91-2.53,0.94-4.16
			c0.02-1.44-0.19-2.77-0.64-3.99C331.79,485.04,331.07,484.06,330.09,483.32z M329.39,494.68c-0.8,1.1-1.93,1.65-3.39,1.64
			c-1.04-0.02-1.88-0.33-2.53-0.93s-1.14-1.4-1.45-2.38s-0.47-2.06-0.47-3.22c0.02-1.91,0.44-3.39,1.26-4.44
			c0.82-1.04,1.95-1.55,3.39-1.53c1.02,0.01,1.85,0.3,2.5,0.87c0.65,0.57,1.13,1.33,1.44,2.29s0.46,2.02,0.45,3.19
			C330.59,492.08,330.19,493.58,329.39,494.68z"/>
		<path class="st0" d="M351.72,488.76c-0.56-0.47-1.18-0.89-1.85-1.26c-0.68-0.37-1.35-0.72-2.03-1.04
			c-0.96-0.47-1.78-0.91-2.46-1.33c-0.68-0.42-1.19-0.88-1.54-1.4s-0.53-1.16-0.53-1.92c0-0.68,0.22-1.24,0.65-1.68
			c0.43-0.44,0.99-0.76,1.67-0.97c0.68-0.21,1.38-0.32,2.1-0.32c1.04,0,1.91,0.1,2.6,0.31c0.69,0.21,1.28,0.47,1.77,0.79l0.47-1.79
			c-0.36-0.25-0.93-0.49-1.72-0.73c-0.79-0.24-1.83-0.36-3.12-0.36c-0.78,0-1.55,0.09-2.33,0.26c-0.77,0.17-1.48,0.46-2.13,0.85
			s-1.16,0.91-1.55,1.56c-0.39,0.65-0.58,1.44-0.58,2.38c0,1,0.26,1.88,0.78,2.64c0.52,0.76,1.19,1.43,2.01,2
			c0.82,0.57,1.67,1.05,2.56,1.46c0.95,0.44,1.79,0.86,2.53,1.26s1.3,0.85,1.72,1.37s0.62,1.16,0.62,1.94
			c0,1.13-0.41,1.96-1.24,2.51c-0.83,0.54-1.95,0.82-3.37,0.82c-0.64,0-1.28-0.06-1.93-0.18s-1.25-0.28-1.8-0.47
			c-0.55-0.19-1.01-0.4-1.38-0.62l-0.55,1.87c0.25,0.17,0.66,0.34,1.24,0.53c0.58,0.19,1.26,0.35,2.05,0.48
			c0.79,0.13,1.62,0.2,2.51,0.2c1.32,0,2.48-0.2,3.49-0.6c1.01-0.4,1.79-1,2.36-1.79c0.57-0.8,0.85-1.79,0.85-2.99
			c0-0.81-0.17-1.53-0.51-2.14S352.28,489.24,351.72,488.76z"/>
		<path class="st0" d="M366.65,494.62c-0.28,0.22-0.66,0.44-1.12,0.66c-0.46,0.22-0.96,0.4-1.5,0.55s-1.07,0.22-1.58,0.22
			c-0.8,0-1.42-0.11-1.88-0.34c-0.46-0.23-0.79-0.67-0.98-1.33c-0.2-0.66-0.3-1.63-0.3-2.91v-9.06h-2.22v8.98
			c0,0.97,0.05,1.85,0.16,2.65c0.1,0.8,0.31,1.49,0.61,2.07c0.3,0.58,0.75,1.03,1.35,1.35c0.59,0.32,1.38,0.47,2.36,0.47
			c0.6,0,1.23-0.08,1.88-0.24c0.65-0.16,1.28-0.38,1.88-0.65c0.59-0.27,1.12-0.57,1.59-0.9v0.83c0,0.39,0.1,0.64,0.29,0.75
			s0.47,0.16,0.83,0.16h0.88V482.4h-2.25V494.62z"/>
		<path class="st0" d="M383.64,482.96c-0.92-0.5-1.9-0.75-2.95-0.75c-0.94,0-1.74,0.13-2.4,0.4s-1.19,0.57-1.6,0.91
			c-0.33,0.27-0.58,0.5-0.78,0.7v-1.82h-2.03v22.08h2.22v-4.92l-0.02-2.18c0.14,0.06,0.3,0.11,0.48,0.17
			c0.69,0.24,1.52,0.36,2.51,0.36c1.54,0,2.88-0.36,4.03-1.08c1.15-0.72,2.04-1.71,2.68-2.96c0.64-1.25,0.95-2.69,0.95-4.31
			c0-1.73-0.29-3.14-0.86-4.22C385.3,484.26,384.56,483.46,383.64,482.96z M383.75,493.33c-0.45,0.95-1.07,1.68-1.85,2.18
			s-1.66,0.75-2.64,0.75c-0.82,0-1.5-0.07-2.01-0.22c-0.52-0.15-0.9-0.33-1.15-0.55v-9.97c0.38-0.33,0.91-0.67,1.61-1.03
			c0.7-0.36,1.49-0.54,2.38-0.54c1.37,0,2.45,0.49,3.23,1.46c0.78,0.97,1.16,2.45,1.14,4.45
			C384.44,491.22,384.2,492.38,383.75,493.33z"/>
		<path class="st0" d="M400.34,483.75c-0.48-0.51-1.05-0.9-1.72-1.17c-0.66-0.27-1.4-0.4-2.22-0.38c-1.47,0.01-2.71,0.35-3.72,1.04
			c-1.02,0.68-1.79,1.62-2.32,2.8c-0.53,1.19-0.8,2.54-0.8,4.07c0,2.44,0.57,4.36,1.72,5.73c1.14,1.38,2.79,2.07,4.93,2.07
			c0.63,0,1.28-0.06,1.96-0.18s1.29-0.28,1.86-0.49c0.57-0.21,1.02-0.45,1.35-0.73l-0.47-1.46c-0.27,0.17-0.63,0.35-1.11,0.53
			s-0.97,0.33-1.51,0.45c-0.54,0.12-1.04,0.18-1.5,0.18c-0.94,0-1.79-0.18-2.53-0.53c-0.74-0.35-1.33-0.92-1.77-1.71
			c-0.44-0.79-0.68-1.84-0.73-3.15c-0.01-0.19,0-0.37,0-0.55h10.02c0.05-0.32,0.09-0.67,0.1-1.05s0.01-0.81,0.01-1.28
			c-0.02-0.87-0.16-1.66-0.43-2.37C401.19,484.87,400.82,484.26,400.34,483.75z M391.84,488.77c0.08-0.76,0.22-1.44,0.44-2
			c0.39-1.03,0.93-1.79,1.63-2.26c0.7-0.47,1.48-0.71,2.36-0.71c0.92,0,1.65,0.22,2.18,0.66s0.9,1.04,1.11,1.79s0.28,1.59,0.23,2.53
			H391.84z"/>
		<path class="st0" d="M412.42,482.21c-0.71,0-1.39,0.15-2.06,0.44c-0.67,0.29-1.25,0.63-1.73,1c-0.4,0.31-0.68,0.58-0.86,0.81
			l-0.13-2.03h-1.92v15.27h2.25v-11.75c0.22-0.22,0.5-0.45,0.84-0.7c0.42-0.3,0.9-0.55,1.44-0.77c0.54-0.21,1.13-0.32,1.75-0.32
			c0.57,0,0.99,0.04,1.26,0.11c0.27,0.07,0.47,0.15,0.61,0.22v-2.11c-0.14-0.06-0.33-0.1-0.57-0.12
			C413.06,482.22,412.76,482.21,412.42,482.21z"/>
		<polygon class="st0" points="423.02,491.9 421.91,495.61 420.68,491.9 417.22,482.4 414.81,482.4 420.93,497.95 422.83,497.95 
			428.76,482.4 426.37,482.4 		"/>
		<path class="st0" d="M433.13,475.83c-0.27,0-0.52,0.07-0.78,0.22s-0.46,0.35-0.62,0.61c-0.17,0.26-0.25,0.56-0.25,0.9
			c0,0.48,0.14,0.85,0.43,1.11c0.29,0.27,0.63,0.4,1.02,0.4c0.43,0,0.81-0.16,1.15-0.47c0.33-0.32,0.5-0.73,0.5-1.26
			c0-0.43-0.12-0.79-0.36-1.08C433.99,475.98,433.62,475.83,433.13,475.83z"/>
		<rect x="431.95" y="482.43" class="st0" width="2.22" height="15.27"/>
		<path class="st0" d="M445.86,490.05c-0.77-0.4-1.55-0.77-2.35-1.11c-0.81-0.35-1.5-0.73-2.09-1.16s-0.88-1.04-0.87-1.83
			c0.02-0.6,0.31-1.1,0.87-1.5c0.56-0.39,1.39-0.59,2.49-0.59c0.49,0,0.97,0.04,1.43,0.12c0.46,0.08,0.87,0.19,1.23,0.32
			c0.36,0.13,0.62,0.26,0.8,0.38l0.38-1.7c-0.28-0.16-0.77-0.33-1.5-0.51c-0.72-0.19-1.53-0.27-2.43-0.25
			c-0.96,0-1.84,0.14-2.65,0.41s-1.45,0.7-1.94,1.26c-0.49,0.57-0.74,1.29-0.76,2.17c-0.01,0.83,0.2,1.55,0.61,2.15
			c0.42,0.6,0.99,1.12,1.73,1.57c0.74,0.45,1.59,0.87,2.55,1.25c0.43,0.17,0.89,0.38,1.37,0.62c0.48,0.24,0.89,0.54,1.23,0.89
			s0.51,0.81,0.51,1.35c0,0.78-0.31,1.37-0.94,1.76c-0.63,0.4-1.43,0.6-2.41,0.6c-0.61-0.01-1.22-0.08-1.82-0.21
			c-0.6-0.13-1.13-0.28-1.59-0.45s-0.79-0.33-0.98-0.47l-0.36,1.7c0.29,0.19,0.7,0.37,1.22,0.54c0.52,0.17,1.09,0.3,1.72,0.41
			c0.63,0.11,1.27,0.16,1.92,0.16c1.62,0,2.91-0.36,3.88-1.09c0.97-0.73,1.45-1.76,1.45-3.11c0-0.88-0.25-1.61-0.76-2.19
			C447.27,490.94,446.63,490.45,445.86,490.05z"/>
		<path class="st0" d="M462.1,483.32c-0.98-0.74-2.27-1.11-3.87-1.11c-1.29,0-2.46,0.29-3.5,0.87c-1.04,0.58-1.87,1.44-2.49,2.56
			s-0.94,2.5-0.97,4.12c-0.01,1.08,0.1,2.11,0.34,3.09c0.24,0.98,0.62,1.85,1.15,2.61c0.53,0.76,1.22,1.36,2.07,1.8
			s1.89,0.66,3.1,0.66c1.32,0,2.49-0.3,3.53-0.9c1.03-0.6,1.85-1.47,2.45-2.61c0.6-1.14,0.91-2.53,0.94-4.16
			c0.02-1.44-0.19-2.77-0.64-3.99C463.8,485.04,463.08,484.06,462.1,483.32z M461.4,494.68c-0.8,1.1-1.93,1.65-3.39,1.64
			c-1.04-0.02-1.88-0.33-2.53-0.93s-1.14-1.4-1.45-2.38s-0.47-2.06-0.47-3.22c0.02-1.91,0.44-3.39,1.26-4.44
			c0.82-1.04,1.95-1.55,3.39-1.53c1.02,0.01,1.85,0.3,2.5,0.87c0.65,0.57,1.13,1.33,1.44,2.29s0.46,2.02,0.45,3.19
			C462.6,492.08,462.2,493.58,461.4,494.68z"/>
		<path class="st0" d="M475.35,482.21c-0.71,0-1.39,0.15-2.06,0.44c-0.67,0.29-1.25,0.63-1.73,1c-0.4,0.31-0.68,0.58-0.86,0.81
			l-0.13-2.03h-1.92v15.27h2.25v-11.75c0.22-0.22,0.5-0.45,0.84-0.7c0.42-0.3,0.9-0.55,1.44-0.77c0.54-0.21,1.13-0.32,1.75-0.32
			c0.57,0,0.99,0.04,1.26,0.11c0.27,0.07,0.47,0.15,0.61,0.22v-2.11c-0.14-0.06-0.33-0.1-0.57-0.12
			C475.99,482.22,475.69,482.21,475.35,482.21z"/>
		<path class="st0" d="M489.2,483.75c-0.48-0.51-1.05-0.9-1.72-1.17c-0.66-0.27-1.4-0.4-2.22-0.38c-1.47,0.01-2.71,0.35-3.72,1.04
			c-1.02,0.68-1.79,1.62-2.32,2.8c-0.53,1.19-0.8,2.54-0.8,4.07c0,2.44,0.57,4.36,1.72,5.73c1.14,1.38,2.79,2.07,4.93,2.07
			c0.63,0,1.28-0.06,1.96-0.18s1.29-0.28,1.86-0.49c0.57-0.21,1.02-0.45,1.35-0.73l-0.47-1.46c-0.27,0.17-0.63,0.35-1.11,0.53
			s-0.97,0.33-1.51,0.45c-0.54,0.12-1.04,0.18-1.5,0.18c-0.94,0-1.79-0.18-2.53-0.53c-0.74-0.35-1.33-0.92-1.77-1.71
			c-0.44-0.79-0.68-1.84-0.73-3.15c-0.01-0.19,0-0.37,0-0.55h10.02c0.05-0.32,0.09-0.67,0.1-1.05s0.01-0.81,0.01-1.28
			c-0.02-0.87-0.16-1.66-0.43-2.37C490.05,484.87,489.68,484.26,489.2,483.75z M480.7,488.77c0.08-0.76,0.22-1.44,0.44-2
			c0.39-1.03,0.93-1.79,1.63-2.26c0.7-0.47,1.48-0.71,2.36-0.71c0.92,0,1.65,0.22,2.18,0.66s0.9,1.04,1.11,1.79s0.28,1.59,0.23,2.53
			H480.7z"/>
		<path class="st0" d="M503.12,491.52c-0.51-0.58-1.15-1.07-1.92-1.48c-0.77-0.4-1.55-0.77-2.35-1.11c-0.81-0.35-1.5-0.73-2.09-1.16
			s-0.88-1.04-0.87-1.83c0.02-0.6,0.31-1.1,0.87-1.5c0.56-0.39,1.39-0.59,2.49-0.59c0.49,0,0.97,0.04,1.43,0.12
			c0.46,0.08,0.87,0.19,1.23,0.32c0.36,0.13,0.62,0.26,0.8,0.38l0.38-1.7c-0.28-0.16-0.77-0.33-1.5-0.51
			c-0.72-0.19-1.53-0.27-2.43-0.25c-0.96,0-1.84,0.14-2.65,0.41s-1.45,0.7-1.94,1.26c-0.49,0.57-0.74,1.29-0.76,2.17
			c-0.01,0.83,0.2,1.55,0.61,2.15c0.42,0.6,0.99,1.12,1.73,1.57c0.74,0.45,1.59,0.87,2.55,1.25c0.43,0.17,0.89,0.38,1.37,0.62
			c0.48,0.24,0.89,0.54,1.23,0.89s0.51,0.81,0.51,1.35c0,0.78-0.31,1.37-0.94,1.76c-0.63,0.4-1.43,0.6-2.41,0.6
			c-0.61-0.01-1.22-0.08-1.82-0.21c-0.6-0.13-1.13-0.28-1.59-0.45s-0.79-0.33-0.98-0.47l-0.36,1.7c0.29,0.19,0.7,0.37,1.22,0.54
			c0.52,0.17,1.09,0.3,1.72,0.41c0.63,0.11,1.27,0.16,1.92,0.16c1.62,0,2.91-0.36,3.88-1.09c0.97-0.73,1.45-1.76,1.45-3.11
			C503.88,492.84,503.63,492.11,503.12,491.52z"/>
	</g>
</g>
</svg>
