<?xml version="1.0" encoding="utf-8"?>
<!-- Generator: Adobe Illustrator 24.0.0, SVG Export Plug-In . SVG Version: 6.00 Build 0)  -->
<svg version="1.1" xmlns="http://www.w3.org/2000/svg" xmlns:xlink="http://www.w3.org/1999/xlink" x="0px" y="0px"
	 viewBox="0 0 512 512" style="enable-background:new 0 0 512 512;" xml:space="preserve">
<style type="text/css">
	.st0{fill:#9B9B9B;}
	.st1{fill:#FFBF31;}
	.st2{fill:none;}
	.st3{fill:#FFCC30;}
	.st4{fill:#FFFFFF;}
	.st5{fill:#1E1D1C;}
	.st6{fill:#FFCC2A;}
	.st7{fill:#1D1D1B;}
</style>
<g id="GUIAS">
</g>
<g id="Capa_2">
	<g>
		<polygon points="14.74,398.94 22.43,398.94 22.43,395 14.74,395 14.74,388.64 24.88,388.64 24.88,384.62 9.42,384.62 9.42,409.96 
			25.96,409.96 25.96,405.85 14.74,405.85 		"/>
		<polygon points="46.45,390.96 40.76,390.96 37.6,396.03 37.07,397.09 36.44,396.04 33.17,390.96 27.44,390.96 34.05,400.39 
			27.44,409.96 33.26,409.96 36.39,404.57 36.84,403.67 37.36,404.55 40.79,409.96 46.59,409.96 39.81,400.25 		"/>
		<path d="M63.64,391.7c-1.15-0.65-2.39-0.98-3.73-0.98c-1.14,0-2.09,0.15-2.85,0.44s-1.38,0.64-1.85,1.02
			c-0.33,0.27-0.58,0.5-0.81,0.72v-1.95h-4.86v27.42h5.2v-6.1l-0.04-2.55c0.09,0.04,0.18,0.07,0.28,0.11
			c0.74,0.27,1.68,0.4,2.83,0.4c1.93,0,3.62-0.43,5.07-1.3c1.45-0.87,2.57-2.09,3.37-3.65c0.8-1.56,1.19-3.4,1.19-5.52
			c0-2.05-0.35-3.74-1.04-5.07C65.71,393.35,64.79,392.36,63.64,391.7z M61.43,403.71c-0.38,0.96-0.9,1.69-1.54,2.19
			c-0.65,0.5-1.39,0.75-2.23,0.75c-0.65,0-1.23-0.06-1.73-0.18c-0.51-0.12-0.9-0.32-1.19-0.59v-10.04c0.36-0.28,0.86-0.56,1.48-0.82
			c0.62-0.26,1.3-0.39,2.04-0.39c1.18,0,2.11,0.42,2.78,1.26c0.67,0.84,1,2.27,0.99,4.3C62.01,401.57,61.81,402.75,61.43,403.71z"/>
		<path d="M84.83,392.37c-0.71-0.59-1.51-1.01-2.4-1.27s-1.84-0.39-2.83-0.38c-1.96,0.01-3.61,0.44-4.96,1.29
			c-1.35,0.85-2.38,2-3.09,3.45s-1.07,3.1-1.07,4.94c0,3.07,0.78,5.47,2.34,7.21c1.56,1.74,3.8,2.61,6.72,2.61
			c0.98,0,1.93-0.09,2.86-0.26c0.93-0.18,1.76-0.41,2.49-0.7c0.73-0.29,1.31-0.61,1.73-0.95l-0.87-2.83
			c-0.31,0.16-0.75,0.32-1.33,0.47c-0.58,0.15-1.19,0.28-1.84,0.37c-0.65,0.09-1.25,0.14-1.79,0.14c-1,0-1.88-0.16-2.63-0.49
			c-0.76-0.32-1.35-0.86-1.79-1.6c-0.41-0.69-0.64-1.6-0.7-2.72H87c0.08-0.42,0.13-0.93,0.15-1.52s0.03-1.23,0.03-1.93
			c-0.01-1.39-0.23-2.56-0.66-3.52C86.1,393.73,85.54,392.95,84.83,392.37z M82.34,398.84H75.7c0.07-0.68,0.17-1.28,0.32-1.78
			c0.31-1.05,0.76-1.79,1.35-2.22s1.27-0.65,2.05-0.65c0.81,0,1.43,0.2,1.88,0.59c0.44,0.39,0.74,0.94,0.9,1.64
			C82.35,397.11,82.4,397.92,82.34,398.84z"/>
		<path d="M101.24,390.69c-0.83,0-1.62,0.16-2.37,0.47c-0.75,0.31-1.4,0.72-1.94,1.21c-0.46,0.42-0.8,0.86-1.01,1.32l-0.26-2.71
			h-4.5v18.98h5.2v-12.69c0.18-0.18,0.39-0.36,0.64-0.56c0.4-0.32,0.9-0.6,1.49-0.84c0.59-0.23,1.3-0.35,2.11-0.35
			c0.67,0,1.17,0.05,1.5,0.15c0.33,0.1,0.57,0.21,0.73,0.31v-5.06c-0.14-0.08-0.35-0.14-0.64-0.17
			C101.89,390.71,101.58,390.69,101.24,390.69z"/>
		<rect x="106.42" y="390.98" width="5.2" height="18.98"/>
		<path d="M109.08,382.28c-0.58,0-1.12,0.14-1.63,0.43c-0.51,0.29-0.92,0.66-1.23,1.13c-0.31,0.47-0.47,0.99-0.47,1.56
			c0,0.84,0.29,1.52,0.87,2.05c0.58,0.52,1.29,0.79,2.13,0.79c0.9,0,1.67-0.3,2.33-0.91c0.65-0.61,0.98-1.34,0.98-2.21
			c0-0.83-0.26-1.51-0.79-2.04S110.01,382.28,109.08,382.28z"/>
		<path d="M142.72,391.34c-0.89-0.44-1.98-0.66-3.29-0.65c-0.99,0-1.93,0.14-2.81,0.42c-0.89,0.28-1.67,0.61-2.34,0.99
			c-0.54,0.3-0.97,0.59-1.31,0.85c-0.39-0.73-0.91-1.27-1.56-1.62c-0.84-0.46-1.92-0.67-3.22-0.63c-0.83,0.01-1.64,0.14-2.44,0.38
			c-0.8,0.24-1.53,0.54-2.21,0.89c-0.68,0.35-1.24,0.7-1.68,1.04l-0.08-2.03h-4.72v18.98h5.18v-13.67c0.57-0.47,1.2-0.82,1.89-1.06
			c0.69-0.24,1.29-0.36,1.79-0.36c0.74-0.02,1.31,0.09,1.71,0.34c0.4,0.25,0.68,0.66,0.84,1.24s0.24,1.35,0.24,2.33v11.19h5.18V398
			c0-0.63-0.03-1.19-0.08-1.73c0.44-0.34,0.96-0.65,1.59-0.93c0.69-0.31,1.36-0.47,2-0.47c0.75-0.02,1.33,0.09,1.73,0.33
			c0.4,0.25,0.68,0.65,0.84,1.23c0.15,0.57,0.23,1.35,0.23,2.33v11.2h5.22v-11.94c0-1.85-0.23-3.32-0.68-4.4
			C144.28,392.54,143.61,391.78,142.72,391.34z"/>
		<path d="M163.75,392.37c-0.71-0.59-1.51-1.01-2.4-1.27s-1.84-0.39-2.83-0.38c-1.96,0.01-3.61,0.44-4.96,1.29
			c-1.35,0.85-2.38,2-3.09,3.45s-1.07,3.1-1.07,4.94c0,3.07,0.78,5.47,2.34,7.21c1.56,1.74,3.8,2.61,6.72,2.61
			c0.98,0,1.93-0.09,2.86-0.26c0.93-0.18,1.76-0.41,2.49-0.7c0.73-0.29,1.31-0.61,1.73-0.95l-0.87-2.83
			c-0.31,0.16-0.75,0.32-1.33,0.47c-0.58,0.15-1.19,0.28-1.84,0.37c-0.65,0.09-1.25,0.14-1.79,0.14c-1,0-1.88-0.16-2.63-0.49
			c-0.76-0.32-1.35-0.86-1.79-1.6c-0.41-0.69-0.64-1.6-0.7-2.72h11.35c0.08-0.42,0.13-0.93,0.15-1.52s0.03-1.23,0.03-1.93
			c-0.01-1.39-0.23-2.56-0.66-3.52C165.02,393.73,164.45,392.95,163.75,392.37z M161.26,398.84h-6.64c0.07-0.68,0.17-1.28,0.32-1.78
			c0.31-1.05,0.76-1.79,1.35-2.22s1.27-0.65,2.05-0.65c0.81,0,1.43,0.2,1.88,0.59c0.44,0.39,0.74,0.94,0.9,1.64
			C161.26,397.11,161.31,397.92,161.26,398.84z"/>
		<path d="M181.43,390.69c-0.83,0.01-1.65,0.14-2.46,0.39c-0.81,0.25-1.55,0.56-2.23,0.93c-0.67,0.37-1.22,0.74-1.65,1.1l-0.08-2.13
			h-4.72v18.98h5.18v-13.67c0.38-0.31,0.78-0.57,1.22-0.78c0.44-0.21,0.87-0.37,1.3-0.48c0.43-0.11,0.81-0.17,1.15-0.18
			c1.13-0.04,1.88,0.23,2.27,0.82c0.39,0.59,0.58,1.63,0.58,3.1v11.19h5.22v-11.92c0-2.75-0.47-4.67-1.4-5.77
			S183.41,390.64,181.43,390.69z"/>
		<path d="M202.43,405.88c-0.35,0.11-0.72,0.21-1.11,0.28c-0.39,0.07-0.73,0.11-1.02,0.11c-0.58,0-1.02-0.08-1.33-0.23
			c-0.31-0.15-0.52-0.51-0.65-1.06c-0.13-0.55-0.19-1.43-0.19-2.63v-7.83h5.1v-3.56h-5.1v-4.33H195c-0.16,0.42-0.31,0.84-0.46,1.25
			c-0.15,0.41-0.29,0.79-0.42,1.14c-0.13,0.35-0.25,0.66-0.37,0.92c-0.23,0.53-0.59,0.91-1.1,1.12s-1.18,0.44-2.02,0.68v2.78h2.3
			v10.03c0,1.36,0.18,2.46,0.55,3.29c0.37,0.83,0.93,1.44,1.69,1.82c0.76,0.38,1.71,0.57,2.87,0.57c0.82,0,1.62-0.09,2.4-0.27
			c0.78-0.18,1.48-0.41,2.1-0.69s1.07-0.55,1.38-0.83l-0.68-2.92C203.06,405.65,202.79,405.77,202.43,405.88z"/>
		<path d="M219.17,391.27c-1.13-0.41-2.57-0.61-4.32-0.61c-1.07,0-2.13,0.12-3.19,0.35s-2,0.5-2.81,0.81
			c-0.82,0.31-1.42,0.57-1.81,0.8l1.12,3.27c0.47-0.24,1.05-0.46,1.74-0.67c0.69-0.2,1.43-0.37,2.21-0.49s1.53-0.19,2.24-0.19
			c0.96,0,1.69,0.15,2.2,0.45c0.51,0.3,0.77,0.93,0.77,1.9v1.4c-0.76,0-1.58,0.03-2.46,0.1c-0.88,0.07-1.76,0.19-2.64,0.36
			c-0.88,0.17-1.69,0.41-2.43,0.72c-1.08,0.47-1.94,1.11-2.57,1.94c-0.63,0.83-0.95,1.83-0.95,2.98s0.25,2.18,0.76,3.05
			c0.51,0.88,1.21,1.56,2.12,2.05c0.91,0.49,1.97,0.73,3.17,0.73c1.22,0,2.27-0.2,3.16-0.6c0.89-0.4,1.59-0.82,2.11-1.28v1.6h4.93
			v-12.55c0-1.73-0.28-3.08-0.83-4.06C221.14,392.37,220.3,391.68,219.17,391.27z M215.57,406.65c-0.42,0.11-0.83,0.17-1.25,0.17
			c-0.81,0-1.47-0.22-1.98-0.66c-0.51-0.44-0.77-1.12-0.77-2.04c0-0.71,0.17-1.23,0.52-1.57s0.74-0.61,1.19-0.82
			c0.32-0.14,0.71-0.26,1.19-0.37s0.96-0.19,1.48-0.25c0.51-0.06,0.97-0.09,1.38-0.09v4.77c-0.11,0.14-0.33,0.28-0.65,0.43
			C216.35,406.4,215.99,406.54,215.57,406.65z"/>
		<path d="M238.34,405.97c-0.74,0.18-1.54,0.27-2.4,0.27c-0.89,0-1.69-0.21-2.41-0.64c-0.72-0.43-1.29-1.09-1.71-2
			c-0.42-0.9-0.61-2.07-0.57-3.49c0.03-1.32,0.29-2.37,0.76-3.15s1.06-1.35,1.77-1.69c0.71-0.34,1.43-0.51,2.17-0.51
			c0.93,0,1.71,0.08,2.34,0.24s1.16,0.37,1.58,0.63l0.65-3.97c-0.31-0.22-0.91-0.43-1.82-0.63c-0.9-0.2-1.98-0.31-3.21-0.31
			c-2.15,0-3.92,0.44-5.31,1.32s-2.43,2.07-3.11,3.57c-0.68,1.5-1.02,3.18-1.02,5.05c0,1.82,0.33,3.45,0.99,4.89
			c0.66,1.44,1.64,2.58,2.95,3.42c1.31,0.84,2.94,1.25,4.91,1.25c1.22,0,2.37-0.14,3.47-0.42c1.1-0.28,1.92-0.69,2.46-1.24
			l-0.77-3.19C239.66,405.59,239.08,405.79,238.34,405.97z"/>
		<rect x="244.52" y="390.98" width="5.2" height="18.98"/>
		<path d="M247.18,382.28c-0.58,0-1.12,0.14-1.63,0.43c-0.51,0.29-0.92,0.66-1.23,1.13c-0.31,0.47-0.47,0.99-0.47,1.56
			c0,0.84,0.29,1.52,0.87,2.05c0.58,0.52,1.29,0.79,2.13,0.79c0.9,0,1.67-0.3,2.33-0.91c0.65-0.61,0.98-1.34,0.98-2.21
			c0-0.83-0.26-1.51-0.79-2.04S248.11,382.28,247.18,382.28z"/>
		<path d="M263.26,387.61c0.46-0.35,0.97-0.76,1.52-1.24c0.55-0.48,1.09-1,1.62-1.54c0.53-0.54,1-1.07,1.42-1.59
			c0.41-0.52,0.72-1,0.93-1.42l-3.39-2.69c-0.54,0.83-1.12,1.68-1.77,2.54c-0.64,0.86-1.29,1.69-1.95,2.47s-1.28,1.47-1.86,2.06
			l2.37,2.11C262.43,388.19,262.8,387.96,263.26,387.61z"/>
		<path d="M268.46,392.12c-1.33-0.93-3.11-1.4-5.34-1.4c-1.78,0-3.38,0.36-4.78,1.07c-1.4,0.72-2.51,1.77-3.32,3.15
			c-0.81,1.39-1.24,3.09-1.27,5.12c-0.01,1.36,0.14,2.66,0.46,3.88c0.32,1.22,0.83,2.3,1.54,3.25c0.71,0.94,1.65,1.69,2.81,2.23
			c1.16,0.54,2.57,0.81,4.23,0.81c1.81,0,3.41-0.36,4.81-1.07c1.4-0.72,2.5-1.77,3.31-3.16c0.81-1.39,1.22-3.11,1.25-5.14
			c0.03-1.81-0.24-3.48-0.82-5.02C270.74,394.29,269.79,393.05,268.46,392.12z M265.86,405.08c-0.61,1.02-1.6,1.53-2.95,1.52
			c-0.92,0-1.66-0.29-2.21-0.87c-0.55-0.58-0.95-1.36-1.2-2.33c-0.25-0.97-0.38-2.04-0.38-3.2c0-1.9,0.31-3.35,0.92-4.36
			c0.61-1.01,1.6-1.5,2.97-1.49c0.91,0.01,1.64,0.3,2.19,0.87c0.55,0.57,0.95,1.32,1.2,2.27c0.25,0.94,0.38,1.99,0.38,3.14
			C266.78,402.57,266.48,404.06,265.86,405.08z"/>
		<path d="M287.23,390.69c-0.83,0.01-1.65,0.14-2.46,0.39c-0.81,0.25-1.55,0.56-2.23,0.93s-1.22,0.74-1.65,1.1l-0.09-2.13h-4.72
			v18.98h5.18v-13.67c0.38-0.31,0.78-0.57,1.22-0.78c0.44-0.21,0.87-0.37,1.3-0.48c0.43-0.11,0.81-0.17,1.15-0.18
			c1.12-0.04,1.88,0.23,2.27,0.82c0.39,0.59,0.58,1.63,0.58,3.1v11.19h5.22v-11.92c0-2.75-0.47-4.67-1.4-5.77
			C290.66,391.17,289.21,390.64,287.23,390.69z"/>
		<path d="M329.89,391.34c-0.89-0.44-1.98-0.66-3.29-0.65c-0.99,0-1.93,0.14-2.81,0.42s-1.67,0.61-2.34,0.99
			c-0.54,0.3-0.97,0.59-1.31,0.85c-0.39-0.73-0.91-1.27-1.56-1.62c-0.84-0.46-1.92-0.67-3.22-0.63c-0.83,0.01-1.64,0.14-2.44,0.38
			c-0.8,0.24-1.53,0.54-2.21,0.89c-0.68,0.35-1.24,0.7-1.68,1.04l-0.09-2.03h-4.72v18.98h5.18v-13.67c0.57-0.47,1.2-0.82,1.89-1.06
			c0.69-0.24,1.29-0.36,1.79-0.36c0.74-0.02,1.31,0.09,1.71,0.34s0.68,0.66,0.84,1.24s0.24,1.35,0.24,2.33v11.19h5.18V398
			c0-0.63-0.03-1.19-0.08-1.73c0.44-0.34,0.96-0.65,1.59-0.93c0.69-0.31,1.36-0.47,2-0.47c0.75-0.02,1.33,0.09,1.73,0.33
			c0.4,0.25,0.68,0.65,0.83,1.23c0.15,0.57,0.23,1.35,0.23,2.33v11.2h5.22v-11.94c0-1.85-0.23-3.32-0.68-4.4
			C331.45,392.54,330.78,391.78,329.89,391.34z"/>
		<path d="M350.91,392.37c-0.71-0.59-1.51-1.01-2.4-1.27c-0.9-0.26-1.84-0.39-2.83-0.38c-1.96,0.01-3.61,0.44-4.96,1.29
			c-1.35,0.85-2.38,2-3.09,3.45c-0.71,1.46-1.07,3.1-1.07,4.94c0,3.07,0.78,5.47,2.34,7.21c1.56,1.74,3.8,2.61,6.72,2.61
			c0.98,0,1.93-0.09,2.86-0.26c0.93-0.18,1.76-0.41,2.49-0.7c0.73-0.29,1.31-0.61,1.73-0.95l-0.87-2.83
			c-0.31,0.16-0.75,0.32-1.33,0.47c-0.58,0.15-1.19,0.28-1.84,0.37c-0.65,0.09-1.25,0.14-1.79,0.14c-1,0-1.88-0.16-2.63-0.49
			s-1.35-0.86-1.79-1.6c-0.41-0.69-0.64-1.6-0.7-2.72h11.35c0.08-0.42,0.13-0.93,0.15-1.52c0.02-0.59,0.03-1.23,0.03-1.93
			c-0.01-1.39-0.23-2.56-0.66-3.52C352.18,393.73,351.62,392.95,350.91,392.37z M348.42,398.84h-6.64c0.07-0.68,0.17-1.28,0.32-1.78
			c0.31-1.05,0.76-1.79,1.35-2.22c0.58-0.43,1.27-0.65,2.05-0.65c0.81,0,1.43,0.2,1.88,0.59c0.44,0.39,0.74,0.94,0.89,1.64
			C348.43,397.11,348.48,397.92,348.42,398.84z"/>
		<path d="M367.57,405.88c-0.35,0.11-0.72,0.21-1.11,0.28c-0.39,0.07-0.73,0.11-1.02,0.11c-0.58,0-1.02-0.08-1.33-0.23
			c-0.31-0.15-0.52-0.51-0.65-1.06c-0.12-0.55-0.19-1.43-0.19-2.63v-7.83h5.1v-3.56h-5.1v-4.33h-3.14
			c-0.16,0.42-0.31,0.84-0.46,1.25s-0.29,0.79-0.42,1.14s-0.25,0.66-0.37,0.92c-0.23,0.53-0.59,0.91-1.1,1.12s-1.18,0.44-2.02,0.68
			v2.78h2.3v10.03c0,1.36,0.18,2.46,0.55,3.29s0.93,1.44,1.69,1.82c0.76,0.38,1.71,0.57,2.87,0.57c0.82,0,1.62-0.09,2.4-0.27
			s1.48-0.41,2.1-0.69c0.61-0.28,1.07-0.55,1.38-0.83l-0.68-2.92C368.2,405.65,367.92,405.77,367.57,405.88z"/>
		<path d="M384.31,391.27c-1.13-0.41-2.57-0.61-4.32-0.61c-1.07,0-2.13,0.12-3.19,0.35c-1.06,0.23-1.99,0.5-2.81,0.81
			c-0.82,0.31-1.42,0.57-1.81,0.8l1.12,3.27c0.47-0.24,1.05-0.46,1.74-0.67c0.69-0.2,1.43-0.37,2.21-0.49s1.53-0.19,2.24-0.19
			c0.96,0,1.69,0.15,2.2,0.45c0.51,0.3,0.77,0.93,0.77,1.9v1.4c-0.76,0-1.58,0.03-2.46,0.1s-1.76,0.19-2.64,0.36
			c-0.88,0.17-1.69,0.41-2.43,0.72c-1.08,0.47-1.94,1.11-2.57,1.94c-0.63,0.83-0.95,1.83-0.95,2.98s0.25,2.18,0.76,3.05
			c0.51,0.88,1.21,1.56,2.12,2.05c0.91,0.49,1.97,0.73,3.17,0.73c1.22,0,2.27-0.2,3.16-0.6c0.89-0.4,1.59-0.82,2.11-1.28v1.6h4.93
			v-12.55c0-1.73-0.28-3.08-0.83-4.06C386.28,392.37,385.44,391.68,384.31,391.27z M380.71,406.65c-0.42,0.11-0.83,0.17-1.25,0.17
			c-0.81,0-1.47-0.22-1.98-0.66s-0.77-1.12-0.77-2.04c0-0.71,0.17-1.23,0.52-1.57s0.74-0.61,1.18-0.82
			c0.32-0.14,0.71-0.26,1.19-0.37s0.96-0.19,1.47-0.25c0.51-0.06,0.97-0.09,1.38-0.09v4.77c-0.11,0.14-0.33,0.28-0.65,0.43
			C381.49,406.4,381.12,406.54,380.71,406.65z"/>
		<rect x="392.74" y="382.25" width="5.22" height="27.71"/>
		<path d="M411.5,387.61c0.46-0.35,0.97-0.76,1.52-1.24c0.55-0.48,1.09-1,1.62-1.54c0.53-0.54,1-1.07,1.42-1.59
			c0.42-0.52,0.72-1,0.93-1.42l-3.39-2.69c-0.53,0.83-1.12,1.68-1.76,2.54c-0.64,0.86-1.29,1.69-1.95,2.47s-1.28,1.47-1.86,2.06
			l2.37,2.11C410.67,388.19,411.04,387.96,411.5,387.61z"/>
		<path d="M414.22,405.27c-0.19,0.15-0.47,0.3-0.83,0.47c-0.36,0.16-0.76,0.3-1.19,0.42c-0.43,0.11-0.85,0.17-1.26,0.17
			c-0.67,0-1.22-0.1-1.65-0.29c-0.43-0.19-0.74-0.58-0.95-1.18c-0.2-0.59-0.31-1.48-0.31-2.68v-11.22h-5.18v11.15
			c0,1.19,0.07,2.29,0.22,3.27c0.15,0.99,0.43,1.85,0.85,2.57s1.04,1.29,1.85,1.68c0.81,0.39,1.88,0.59,3.2,0.59
			c0.65,0,1.34-0.08,2.06-0.26c0.73-0.17,1.42-0.4,2.09-0.69c0.62-0.27,1.15-0.58,1.59-0.91v0.7c0,0.5,0.12,0.82,0.37,0.96
			s0.59,0.2,1.03,0.2h3.31v-19.27h-5.2V405.27z"/>
		<path d="M434.63,390.69c-0.83,0-1.62,0.16-2.37,0.47c-0.75,0.31-1.4,0.72-1.94,1.21c-0.46,0.42-0.8,0.86-1.01,1.32l-0.26-2.71
			h-4.5v18.98h5.2v-12.69c0.18-0.18,0.39-0.36,0.64-0.56c0.4-0.32,0.9-0.6,1.49-0.84c0.59-0.23,1.3-0.35,2.11-0.35
			c0.67,0,1.17,0.05,1.5,0.15c0.33,0.1,0.57,0.21,0.73,0.31v-5.06c-0.14-0.08-0.35-0.14-0.64-0.17
			C435.29,390.71,434.97,390.69,434.63,390.69z"/>
		<path d="M453.63,391.48c-0.39,0.22-0.7,0.42-0.95,0.61c-0.4-0.26-0.82-0.49-1.3-0.67c-1.23-0.48-2.66-0.71-4.29-0.7
			c-1.61,0.01-3.03,0.26-4.24,0.75c-1.21,0.49-2.15,1.22-2.82,2.18c-0.67,0.97-1.01,2.16-1.01,3.58c0,1.31,0.34,2.43,1.02,3.38
			c0.62,0.86,1.47,1.52,2.52,2.01c-0.65,0.3-1.19,0.65-1.59,1.05c-0.44,0.45-0.76,0.92-0.94,1.4s-0.28,0.95-0.29,1.39
			c0,0.68,0.18,1.25,0.55,1.71c0.27,0.34,0.67,0.62,1.2,0.84c-0.45,0.18-0.88,0.38-1.26,0.65c-0.55,0.38-0.99,0.84-1.3,1.38
			c-0.32,0.54-0.48,1.14-0.48,1.82c0,1.81,0.73,3.2,2.19,4.19c1.46,0.98,3.69,1.49,6.68,1.51c1.32,0.01,2.58-0.13,3.79-0.43
			c1.2-0.29,2.28-0.73,3.22-1.31c0.94-0.58,1.69-1.3,2.23-2.17c0.55-0.87,0.82-1.87,0.82-3.01c0-0.67-0.11-1.32-0.33-1.94
			c-0.22-0.62-0.61-1.18-1.15-1.67c-0.55-0.49-1.3-0.88-2.25-1.17c-0.95-0.28-2.17-0.43-3.63-0.43h-3.43c-0.85,0-1.45-0.11-1.8-0.32
			c-0.35-0.21-0.52-0.59-0.52-1.15c0-0.36,0.13-0.73,0.38-1.1c0.13-0.19,0.28-0.35,0.46-0.48c0.61,0.09,1.25,0.15,1.93,0.15
			c1.76,0,3.26-0.25,4.48-0.74s2.16-1.22,2.8-2.18c0.64-0.96,0.95-2.13,0.95-3.52c0-0.9-0.16-1.7-0.45-2.42h3.43v-3.75h-2.22
			C455.13,390.91,454.32,391.1,453.63,391.48z M448.34,409.85c1.14,0,2,0.12,2.58,0.36c0.58,0.24,0.98,0.57,1.18,1
			c0.2,0.43,0.3,0.92,0.3,1.49c0,0.66-0.21,1.2-0.64,1.61c-0.43,0.42-1.01,0.72-1.74,0.92c-0.73,0.2-1.54,0.3-2.43,0.3
			c-1.07,0-1.9-0.16-2.5-0.48c-0.6-0.32-1.02-0.75-1.26-1.28c-0.24-0.53-0.37-1.12-0.37-1.77c0-0.58,0.1-1.06,0.29-1.43
			c0.16-0.31,0.35-0.56,0.55-0.78c0.27,0.04,0.56,0.06,0.89,0.06H448.34z M449.54,399.92c-0.61,0.46-1.41,0.69-2.41,0.69
			c-1.11,0-1.9-0.34-2.37-1.03c-0.47-0.69-0.7-1.5-0.7-2.45c0-0.86,0.13-1.54,0.4-2.01c0.27-0.48,0.64-0.81,1.12-1
			s1.03-0.28,1.67-0.28c1.08,0,1.88,0.28,2.41,0.84c0.53,0.56,0.79,1.4,0.79,2.5C450.46,398.55,450.15,399.46,449.54,399.92z"/>
		<rect x="461.47" y="390.98" width="5.2" height="18.98"/>
		<path d="M464.13,382.28c-0.58,0-1.12,0.14-1.63,0.43c-0.51,0.29-0.92,0.66-1.23,1.13c-0.31,0.47-0.47,0.99-0.47,1.56
			c0,0.84,0.29,1.52,0.87,2.05c0.58,0.52,1.29,0.79,2.13,0.79c0.9,0,1.67-0.3,2.33-0.91c0.65-0.61,0.98-1.34,0.98-2.21
			c0-0.83-0.26-1.51-0.79-2.04S465.06,382.28,464.13,382.28z"/>
		<path d="M482.97,405.97c-0.74,0.18-1.54,0.27-2.4,0.27c-0.89,0-1.69-0.21-2.41-0.64c-0.72-0.43-1.29-1.09-1.71-2
			s-0.61-2.07-0.57-3.49c0.03-1.32,0.29-2.37,0.76-3.15s1.06-1.35,1.77-1.69c0.71-0.34,1.43-0.51,2.17-0.51
			c0.93,0,1.71,0.08,2.34,0.24s1.16,0.37,1.58,0.63l0.65-3.97c-0.31-0.22-0.91-0.43-1.82-0.63c-0.9-0.2-1.98-0.31-3.21-0.31
			c-2.15,0-3.92,0.44-5.31,1.32c-1.39,0.88-2.43,2.07-3.11,3.57c-0.68,1.5-1.02,3.18-1.02,5.05c0,1.82,0.33,3.45,0.99,4.89
			c0.66,1.44,1.64,2.58,2.95,3.42c1.31,0.84,2.94,1.25,4.91,1.25c1.22,0,2.37-0.14,3.47-0.42c1.1-0.28,1.92-0.69,2.46-1.24
			l-0.77-3.19C484.29,405.59,483.71,405.79,482.97,405.97z"/>
		<path d="M503.29,393.35c-0.55-0.98-1.39-1.67-2.52-2.08c-1.13-0.41-2.57-0.61-4.32-0.61c-1.07,0-2.13,0.12-3.19,0.35
			c-1.06,0.23-1.99,0.5-2.81,0.81c-0.82,0.31-1.42,0.57-1.81,0.8l1.12,3.27c0.47-0.24,1.05-0.46,1.74-0.67
			c0.69-0.2,1.43-0.37,2.21-0.49s1.53-0.19,2.24-0.19c0.96,0,1.69,0.15,2.2,0.45c0.51,0.3,0.77,0.93,0.77,1.9v1.4
			c-0.76,0-1.58,0.03-2.46,0.1s-1.76,0.19-2.64,0.36c-0.88,0.17-1.69,0.41-2.43,0.72c-1.08,0.47-1.94,1.11-2.57,1.94
			c-0.63,0.83-0.95,1.83-0.95,2.98s0.25,2.18,0.76,3.05c0.51,0.88,1.21,1.56,2.12,2.05c0.91,0.49,1.97,0.73,3.17,0.73
			c1.22,0,2.27-0.2,3.16-0.6c0.89-0.4,1.59-0.82,2.11-1.28v1.6h4.93v-12.55C504.12,395.68,503.84,394.33,503.29,393.35z
			 M497.17,406.65c-0.42,0.11-0.83,0.17-1.25,0.17c-0.81,0-1.47-0.22-1.98-0.66s-0.77-1.12-0.77-2.04c0-0.71,0.17-1.23,0.52-1.57
			s0.74-0.61,1.18-0.82c0.32-0.14,0.71-0.26,1.19-0.37s0.96-0.19,1.47-0.25c0.51-0.06,0.97-0.09,1.38-0.09v4.77
			c-0.11,0.14-0.33,0.28-0.65,0.43C497.95,406.4,497.58,406.54,497.17,406.65z"/>
	</g>
	<g>
		<path class="st2" d="M157.21,216.7c2.22,0,4.33,0,6.68,0c0-11.52,0-22.86,0-34.31c-2.29,0-4.46,0-6.68,0
			C157.21,193.89,157.21,205.23,157.21,216.7z"/>
		<path class="st2" d="M184.78,126.11c0,1.06,0,1.97,0,2.89c0,11.14,0,22.29,0,33.43c0,0.77,0.03,1.54-0.03,2.31
			c-0.19,2.42-1.4,3.6-3.85,3.65c-2.54,0.05-5.07,0.01-7.61,0.01c-0.74,0-1.47,0-2.22,0c0,20.9,0,41.47,0,62.15
			c2.25,0,4.36,0,6.76,0c0-1.17,0-2.09,0-3.01c0-15.53,0-31.05,0.01-46.57c0-0.92-0.01-1.85,0.13-2.76
			c0.28-1.74,1.69-2.89,3.36-2.87c1.68,0.02,3.05,1.17,3.31,2.93c0.15,0.98,0.13,1.99,0.13,2.99c0.01,16.99,0,33.97,0.01,50.96
			c0,0.92,0,1.86,0.17,2.75c0.32,1.59,1.76,2.64,3.35,2.6c1.49-0.04,2.82-1.06,3.17-2.54c0.16-0.66,0.18-1.37,0.18-2.06
			c0.01-34.97,0.01-69.94,0-104.91c0-0.65-0.11-1.31-0.17-1.95C189.18,126.11,187.06,126.11,184.78,126.11z"/>
		<path class="st2" d="M149.97,164.08c-0.33-1.58-1.77-2.63-3.36-2.58c-1.5,0.04-2.82,1.06-3.16,2.55
			c-0.17,0.74-0.18,1.52-0.18,2.29c-0.01,22.12-0.01,44.24,0,66.36c0,0.76,0.01,1.55,0.17,2.29c0.32,1.49,1.64,2.52,3.13,2.59
			c1.57,0.06,3.05-0.98,3.38-2.55c0.19-0.89,0.19-1.83,0.19-2.75c0.01-10.83,0.01-21.66,0.01-32.49c0-10.98,0-21.97-0.01-32.95
			C150.15,165.91,150.16,164.97,149.97,164.08z"/>
		<path class="st2" d="M264.22,56.8c-1.5,0.05-2.8,1.07-3.15,2.55c-0.14,0.59-0.17,1.21-0.17,1.82c-0.01,4.91-0.01,9.82,0,14.72
			c0,0.5,0.12,1,0.19,1.56c2.22,0,4.26,0,6.48,0c0.09-0.42,0.17-0.64,0.18-0.86c0.01-5.29,0.02-10.58,0.02-15.87
			c0-0.46-0.05-0.92-0.16-1.37C267.21,57.79,265.8,56.74,264.22,56.8z"/>
		<path class="st2" d="M279.3,51.62c-3.39-5.64-8.46-8.66-15.05-8.63c-6.59,0.03-11.64,3.08-14.98,8.76
			c-4.74,8.08-9.38,16.22-14.06,24.34c-0.22,0.39-0.39,0.81-0.66,1.36c6.44,0,12.71,0,19.38,0c0-1.54-0.01-2.91,0-4.28
			c0.04-4.69-0.12-9.39,0.18-14.06c0.31-4.9,4.31-8.69,9.14-9.19c4.91-0.5,9.58,2.54,10.95,7.32c0.4,1.38,0.47,2.88,0.49,4.33
			c0.06,4.46,0.02,8.92,0.03,13.37c0,0.82,0.08,1.63,0.11,2.44c6.51,0,12.8,0,19.34,0c-2.36-4.09-4.57-7.94-6.8-11.79
			C284.7,60.92,282.07,56.22,279.3,51.62z"/>
		<path class="st2" d="M343.7,126.05c-2.22,0-4.27,0-6.61,0c-0.04,0.87-0.09,1.55-0.09,2.23c0,34.8,0,69.61,0,104.41
			c0,0.76,0.01,1.55,0.17,2.29c0.32,1.49,1.64,2.53,3.13,2.59c1.57,0.06,3.02-0.99,3.39-2.55c0.16-0.66,0.18-1.37,0.18-2.06
			c0.01-35.03,0.01-70.07,0-105.1C343.87,127.27,343.76,126.69,343.7,126.05z"/>
		<path class="st2" d="M198.67,101.6c-0.08,1.96,1.43,3.57,3.35,3.59c1.83,0.02,3.35-1.44,3.43-3.29c0.08-1.95-1.43-3.57-3.36-3.59
			C200.25,98.29,198.74,99.74,198.67,101.6z"/>
		<path class="st2" d="M198.76,209.74c43.81,0,87.48,0,131.22,0c0-6.85,0-13.53,0-20.41c-43.88,0-87.55,0-131.22,0
			C198.76,196.24,198.76,202.97,198.76,209.74z M319.6,196.09c1.84-0.04,3.37,1.39,3.46,3.25c0.1,1.96-1.39,3.59-3.31,3.63
			c-1.84,0.04-3.37-1.39-3.46-3.25C316.19,197.76,317.68,196.14,319.6,196.09z M305.8,196.09c1.93-0.02,3.48,1.56,3.43,3.52
			c-0.04,1.85-1.53,3.34-3.36,3.36c-1.93,0.02-3.47-1.56-3.43-3.52C302.48,197.6,303.97,196.11,305.8,196.09z M222.72,196.09
			c1.92-0.06,3.51,1.51,3.5,3.46c-0.01,1.85-1.47,3.37-3.3,3.42c-1.92,0.06-3.51-1.51-3.5-3.46
			C219.42,197.66,220.89,196.15,222.72,196.09z M209.02,196.09c1.93,0.03,3.43,1.64,3.35,3.6c-0.08,1.86-1.6,3.31-3.43,3.28
			c-1.93-0.03-3.43-1.64-3.34-3.6C205.67,197.51,207.18,196.07,209.02,196.09z"/>
		<path class="st2" d="M330,101.71c-0.02-1.85-1.49-3.36-3.32-3.4c-1.92-0.05-3.5,1.52-3.48,3.47c0.02,1.85,1.49,3.36,3.32,3.41
			C328.43,105.24,330.02,103.66,330,101.71z"/>
		<path class="st2" d="M212.83,182.1c34.39,0,68.79,0,103.27,0c0-0.06,0-0.11,0-0.17H212.8
			C212.81,181.99,212.82,182.06,212.83,182.1z"/>
		<path d="M191.72,101.74c0,5.76,4.65,10.4,10.4,10.38c5.75-0.03,10.35-4.72,10.28-10.48c-0.07-5.77-4.74-10.34-10.51-10.26
			C196.25,91.46,191.72,96.07,191.72,101.74z M205.45,101.9c-0.08,1.85-1.59,3.31-3.43,3.29c-1.92-0.02-3.43-1.64-3.35-3.59
			c0.07-1.86,1.58-3.31,3.42-3.29C204.02,98.33,205.53,99.94,205.45,101.9z"/>
		<path d="M336.94,101.79c0.02-5.76-4.61-10.42-10.36-10.41c-5.66,0.01-10.23,4.53-10.32,10.22c-0.09,5.76,4.51,10.48,10.24,10.53
			C332.26,112.17,336.92,107.56,336.94,101.79z M323.2,101.78c-0.02-1.95,1.55-3.52,3.48-3.47c1.83,0.05,3.3,1.56,3.32,3.4
			c0.02,1.94-1.56,3.52-3.48,3.48C324.69,105.15,323.22,103.63,323.2,101.78z"/>
		<path d="M208.94,202.98c1.84,0.02,3.35-1.43,3.43-3.28c0.08-1.96-1.42-3.57-3.35-3.6c-1.84-0.03-3.36,1.42-3.43,3.28
			C205.51,201.33,207.01,202.95,208.94,202.98z"/>
		<path d="M222.91,202.98c1.83-0.05,3.3-1.57,3.3-3.42c0.01-1.95-1.58-3.51-3.5-3.46c-1.83,0.05-3.3,1.57-3.3,3.42
			C219.41,201.46,220.99,203.03,222.91,202.98z"/>
		<path d="M305.88,202.98c1.83-0.02,3.32-1.51,3.36-3.36c0.04-1.95-1.51-3.54-3.43-3.52c-1.84,0.02-3.32,1.5-3.36,3.36
			C302.41,201.41,303.95,203,305.88,202.98z"/>
		<path d="M319.76,202.98c1.92-0.05,3.41-1.68,3.31-3.63c-0.09-1.86-1.62-3.29-3.46-3.25c-1.93,0.04-3.41,1.67-3.31,3.63
			C316.39,201.58,317.92,203.02,319.76,202.98z"/>
		<path class="st1" d="M323.15,146.94c0-0.77,0.03-1.54-0.03-2.31c-0.18-2.55-1.39-3.67-3.99-3.75c-0.46-0.01-0.92,0-1.38,0
			c-35.59,0-71.19,0-106.78,0c-0.61,0-1.23-0.03-1.84,0.01c-2.17,0.13-3.36,1.27-3.57,3.45c-0.08,0.84-0.05,1.69-0.05,2.53
			c0,10.84,0,21.68,0,32.52c0,0.84,0,1.7,0,2.69h7.29c0-2.86-0.12-30.59-0.12-34.15c0.57-0.04,1.16-0.13,1.76-0.13
			c8.68-0.01,17.37,0.03,26.05-0.04c1.42-0.01,2.17,0.47,2.86,1.7c3.85,6.82,7.82,13.57,11.71,20.36c1.57,2.73,3.75,4.65,6.87,5.34
			c4.23,0.93,7.74-0.33,10.49-3.63c0.63-0.76,1.11-1.66,1.61-2.52c3.66-6.31,7.3-12.63,10.95-18.94c0.42-0.72,0.85-1.44,1.26-2.14
			c9.98,0,19.87,0,29.85,0c0,11.43,0,22.72,0,34.15h7.05c0-0.91,0-1.77,0-2.62C323.15,168.62,323.15,157.78,323.15,146.94z
			 M277.02,150.06c-2.99,5.18-5.98,10.36-8.97,15.53c-0.34,0.6-0.67,1.22-1.11,1.74c-1.42,1.65-3.81,1.63-5.24-0.01
			c-0.2-0.23-0.37-0.49-0.52-0.76c-3.45-5.98-6.89-11.95-10.33-17.94c-0.11-0.18-0.12-0.42-0.21-0.72c9.15,0,18.24,0,27.53,0
			C277.73,148.73,277.39,149.41,277.02,150.06z"/>
		<g>
			<path class="st2" d="M184.78,126.11c0,1.06,0,1.97,0,2.89c0,11.14,0,22.29,0,33.43c0,0.77,0.03,1.54-0.03,2.31
				c-0.19,2.42-1.4,3.6-3.85,3.65c-2.54,0.05-5.07,0.01-7.61,0.01c-0.74,0-1.47,0-2.22,0c0,20.9,0,41.47,0,62.15
				c2.25,0,4.36,0,6.76,0c0-1.17,0-2.09,0-3.01c0-15.53,0-31.05,0.01-46.57c0-0.92-0.01-1.85,0.13-2.76
				c0.28-1.74,1.69-2.89,3.36-2.87c1.68,0.02,3.05,1.17,3.31,2.93c0.15,0.98,0.13,1.99,0.13,2.99c0.01,16.99,0,33.97,0.01,50.96
				c0,0.92,0,1.86,0.17,2.75c0.32,1.59,1.76,2.64,3.35,2.6c1.49-0.04,2.82-1.06,3.17-2.54c0.16-0.66,0.18-1.37,0.18-2.06
				c0.01-34.97,0.01-69.94,0-104.91c0-0.65-0.11-1.31-0.17-1.95C189.18,126.11,187.06,126.11,184.78,126.11z"/>
			<path class="st2" d="M157.21,216.7c2.22,0,4.33,0,6.68,0c0-11.52,0-22.86,0-34.31c-2.29,0-4.46,0-6.68,0
				C157.21,193.89,157.21,205.23,157.21,216.7z"/>
			<path class="st2" d="M149.97,164.08c-0.33-1.58-1.77-2.63-3.36-2.58c-1.5,0.04-2.82,1.06-3.16,2.55
				c-0.17,0.74-0.18,1.52-0.18,2.29c-0.01,22.12-0.01,44.24,0,66.36c0,0.76,0.01,1.55,0.17,2.29c0.32,1.49,1.64,2.52,3.13,2.59
				c1.57,0.06,3.05-0.98,3.38-2.55c0.19-0.89,0.19-1.83,0.19-2.75c0.01-10.83,0.01-21.66,0.01-32.49c0-10.98,0-21.97-0.01-32.95
				C150.15,165.91,150.16,164.97,149.97,164.08z"/>
			<path class="st2" d="M279.3,51.62c-3.39-5.64-8.46-8.66-15.05-8.63c-6.59,0.03-11.64,3.08-14.98,8.76
				c-4.74,8.08-9.38,16.22-14.06,24.34c-0.22,0.39-0.39,0.81-0.66,1.36c6.44,0,12.71,0,19.38,0c0-1.54-0.01-2.91,0-4.28
				c0.04-4.69-0.12-9.39,0.18-14.06c0.31-4.9,4.31-8.69,9.14-9.19c4.91-0.5,9.58,2.54,10.95,7.32c0.4,1.38,0.47,2.88,0.49,4.33
				c0.06,4.46,0.02,8.92,0.03,13.37c0,0.82,0.08,1.63,0.11,2.44c6.51,0,12.8,0,19.34,0c-2.36-4.09-4.57-7.94-6.8-11.79
				C284.7,60.92,282.07,56.22,279.3,51.62z"/>
			<path class="st2" d="M264.22,56.8c-1.5,0.05-2.8,1.07-3.15,2.55c-0.14,0.59-0.17,1.21-0.17,1.82c-0.01,4.91-0.01,9.82,0,14.72
				c0,0.5,0.12,1,0.19,1.56c2.22,0,4.26,0,6.48,0c0.09-0.42,0.17-0.64,0.18-0.86c0.01-5.29,0.02-10.58,0.02-15.87
				c0-0.46-0.05-0.92-0.16-1.37C267.21,57.79,265.8,56.74,264.22,56.8z"/>
			<path class="st2" d="M337.09,126.05c-0.04,0.87-0.09,1.55-0.09,2.23c0,34.8,0,69.61,0,104.41c0,0.76,0.01,1.55,0.17,2.29
				c0.32,1.49,1.64,2.53,3.13,2.59c1.57,0.06,3.02-0.99,3.39-2.55c0.16-0.66,0.18-1.37,0.18-2.06c0.01-35.03,0.01-70.07,0-105.1
				c0-0.58-0.11-1.16-0.18-1.8C341.48,126.05,339.43,126.05,337.09,126.05z"/>
			<path class="st2" d="M198.76,209.74c43.81,0,87.48,0,131.22,0c0-6.85,0-13.53,0-20.41c-43.88,0-87.55,0-131.22,0
				C198.76,196.24,198.76,202.97,198.76,209.74z"/>
			<path class="st2" d="M329.9,126.09c-43.78,0-87.41,0-131.11,0c0,18.74,0,37.36,0,56.06c2.22,0,128.96-0.09,131.11-0.09
				C329.9,163.31,329.9,144.74,329.9,126.09z"/>
			<path class="st2" d="M316,216.96c-34.56,0-68.94,0-103.41,0c-0.01,0.08-0.02,0.14-0.02,0.21h103.46
				C316.02,217.1,316.01,217.03,316,216.96z"/>
			<path d="M350.71,80.52c-0.26-1.69-1.37-2.75-3.06-2.95c-0.68-0.08-1.38-0.04-2.07-0.04c-13.61,0-27.21,0-40.82,0
				c-0.83,0-1.67,0-2.45,0c-0.71-1.22-1.34-2.28-1.95-3.34c-4.95-8.58-9.89-17.16-14.86-25.73c-3.53-6.09-8.7-10.03-15.53-11.77
				c-0.8-0.2-1.6-0.45-2.4-0.67c-2.15,0-4.31,0-6.46,0c-0.19,0.11-0.38,0.29-0.59,0.33c-8.04,1.4-13.83,5.86-17.83,12.9
				c-5.43,9.54-10.96,19.03-16.45,28.54c-0.27,0.47-0.55,0.93-0.77,1.41c-1.24,2.67,0.14,5.04,3.06,5.24
				c0.69,0.05,1.38,0.01,2.07,0.01c36.82,0,73.64,0,110.46,0c0.9,0,1.79,0,2.71,0c0,11.66,0,23.01,0,34.42
				c-53.03,0-105.94,0-158.83,0c0-11.52,0-22.86,0-34.42c0.97,0,1.8,0,2.63,0c8.46,0,16.91,0,25.37,0c0.69,0,1.39,0.05,2.07-0.05
				c1.72-0.26,2.93-1.64,2.97-3.31c0.05-1.76-1.2-3.24-3.02-3.5c-0.6-0.09-1.23-0.05-1.84-0.05c-10.15,0-20.29,0-30.44,0
				c-0.46,0-0.92-0.02-1.38,0.01c-1.93,0.16-3.12,1.24-3.35,3.16c-0.12,0.99-0.09,1.99-0.09,2.99c0,24.91,0,49.81,0,74.72
				c0,0.97,0,1.93,0,3.06c-3.47,0-6.61-0.03-9.75,0.01c-2.72,0.03-3.97,1.2-4.05,3.9c-0.08,2.61-0.02,5.23-0.04,7.84
				c-0.01,0.65-0.11,1.3-0.17,1.93c-2.32,0-4.44,0-6.71,0c0-2.68,0.02-5.21-0.01-7.74c-0.01-1.3-0.01-2.62-0.17-3.91
				c-0.59-4.9-4.72-8.7-9.65-8.94c-4.94-0.24-9.55,3.1-10.6,7.83c-0.31,1.41-0.34,2.9-0.34,4.36c-0.02,21.83-0.02,43.66-0.01,65.49
				c0,1.07,0.03,2.16,0.16,3.22c0.62,5.17,5.05,9.05,10.28,9.02c5.23-0.02,9.68-3.91,10.16-9.14c0.27-2.98,0.13-5.99,0.18-8.98
				c0.02-0.82,0.07-1.63,0.11-2.5c2.31,0,4.43,0,6.78,0c0,3.18-0.04,6.24,0.01,9.29c0.05,3.29,1.2,4.4,4.49,4.42
				c3.3,0.02,6.6,0,9.82,0c0.46,0.82,0.8,1.51,1.21,2.15c3.3,5.1,10.09,6.3,14.94,2.64c2.93-2.21,4.13-5.25,4.13-8.83
				c0-4.69,0-9.38,0.01-14.07c0-0.82,0.07-1.64,0.11-2.52c2.31,0,129.01,0.04,131.32,0.04c0,2.39-0.02,4.62,0,6.84
				c0.03,3.84-0.11,7.7,0.18,11.52c0.38,4.96,4.53,8.78,9.45,9.12c4.93,0.34,9.57-2.9,10.73-7.65c0.36-1.47,0.4-3.05,0.4-4.58
				c0.02-49.73,0.02-99.47,0.01-149.2C350.82,82.21,350.83,81.35,350.71,80.52z M267.75,76.6c0,0.22-0.09,0.44-0.18,0.86
				c-2.22,0-4.27,0-6.48,0c-0.07-0.56-0.19-1.06-0.19-1.56c-0.01-4.91-0.01-9.82,0-14.72c0-0.61,0.03-1.24,0.17-1.82
				c0.35-1.49,1.65-2.5,3.15-2.55c1.58-0.05,2.99,1,3.38,2.56c0.11,0.44,0.16,0.91,0.16,1.37C267.77,66.01,267.76,71.31,267.75,76.6
				z M274.84,77.36c-0.04-0.81-0.11-1.62-0.11-2.44c-0.01-4.46,0.03-8.92-0.03-13.37c-0.02-1.45-0.1-2.95-0.49-4.33
				c-1.37-4.77-6.03-7.82-10.95-7.32c-4.83,0.5-8.83,4.29-9.14,9.19c-0.29,4.67-0.14,9.37-0.18,14.06c-0.01,1.37,0,2.74,0,4.28
				c-6.66,0-12.94,0-19.38,0c0.26-0.55,0.43-0.97,0.66-1.36c4.68-8.12,9.31-16.26,14.06-24.34c3.33-5.68,8.39-8.73,14.98-8.76
				c6.59-0.03,11.66,2.99,15.05,8.63c2.77,4.61,5.39,9.3,8.08,13.95c2.22,3.85,4.44,7.7,6.8,11.79
				C287.64,77.36,281.35,77.36,274.84,77.36z M150.15,232.27c0,0.92,0,1.86-0.19,2.75c-0.34,1.57-1.81,2.62-3.38,2.55
				c-1.49-0.06-2.81-1.09-3.13-2.59c-0.16-0.74-0.17-1.52-0.17-2.29c-0.01-22.12-0.01-44.24,0-66.36c0-0.76,0.01-1.55,0.18-2.29
				c0.33-1.49,1.66-2.5,3.16-2.55c1.59-0.05,3.03,1,3.36,2.58c0.18,0.89,0.18,1.83,0.18,2.75c0.01,10.98,0.01,21.97,0.01,32.95
				C150.16,210.61,150.16,221.44,150.15,232.27z M163.89,216.7c-2.35,0-4.46,0-6.68,0c0-11.47,0-22.81,0-34.31c2.22,0,4.39,0,6.68,0
				C163.89,193.84,163.89,205.18,163.89,216.7z M191.66,232.97c0,0.69-0.03,1.39-0.18,2.06c-0.35,1.48-1.68,2.5-3.17,2.54
				c-1.58,0.04-3.03-1.01-3.35-2.6c-0.18-0.89-0.17-1.83-0.17-2.75c-0.01-16.99,0-33.97-0.01-50.96c0-1,0.02-2.01-0.13-2.99
				c-0.26-1.76-1.63-2.92-3.31-2.93c-1.67-0.02-3.08,1.13-3.36,2.87c-0.15,0.9-0.13,1.84-0.13,2.76
				c-0.01,15.53-0.01,31.05-0.01,46.57c0,0.92,0,1.84,0,3.01c-2.4,0-4.52,0-6.76,0c0-20.68,0-41.25,0-62.15c0.74,0,1.48,0,2.22,0
				c2.54,0,5.07,0.04,7.61-0.01c2.44-0.05,3.66-1.23,3.85-3.65c0.06-0.76,0.03-1.54,0.03-2.31c0-11.14,0-22.29,0-33.43
				c0-0.91,0-1.83,0-2.89c2.28,0,4.4,0,6.71,0c0.06,0.64,0.17,1.29,0.17,1.95C191.67,163.03,191.67,198,191.66,232.97z
				 M198.79,126.09c43.7,0,87.33,0,131.11,0c0,18.65,0,37.22,0,55.97c-2.15,0-128.88,0.09-131.11,0.09
				C198.79,163.44,198.79,144.83,198.79,126.09z M289.2,209.74c-30.13,0-60.25,0-90.44,0c0-6.77,0-13.5,0-20.41
				c43.67,0,87.34,0,131.22,0c0,6.88,0,13.56,0,20.41C316.38,209.74,302.79,209.74,289.2,209.74 M343.88,232.96
				c0,0.69-0.02,1.39-0.18,2.06c-0.37,1.57-1.82,2.62-3.39,2.55c-1.49-0.06-2.81-1.09-3.13-2.59c-0.16-0.74-0.17-1.53-0.17-2.29
				c-0.01-34.8-0.01-69.61,0-104.41c0-0.68,0.06-1.36,0.09-2.23c2.34,0,4.39,0,6.61,0c0.07,0.64,0.18,1.22,0.18,1.8
				C343.88,162.89,343.88,197.92,343.88,232.96z"/>
			<path class="st1" d="M316.23,253.99c0.04,6.4-4.18,10.06-8.39,10.86c-0.9,0.17-1.83,0.21-2.75,0.21
				c-27.19,0.01-54.38,0.02-81.58,0c-6.58,0-10.98-4.17-11.03-10.67c-0.09-12.06,0.04-36.96,0.09-37.42h-7.06c0,0.93,0,1.78,0,2.61
				c0,10.92,0,21.83,0.01,32.75c0,1.31,0.06,2.61,0.14,3.92c0.19,3.07,1.23,5.86,3.02,8.33c3.65,5.03,8.64,7.41,14.83,7.41
				c27.21-0.01,54.42,0,81.64-0.01c0.46,0,0.92,0.01,1.38-0.02c5.36-0.33,9.74-2.56,13.05-6.81c2.72-3.5,3.6-7.54,3.59-11.89
				c-0.04-11.22-0.01-22.45-0.01-33.67c0-0.85,0-1.71,0-2.63h-6.93C316.22,217.48,316.15,242.16,316.23,253.99z"/>
		</g>
	</g>
	<g>
		<polygon class="st0" points="90.81,451.31 86.88,463.55 85.97,467.08 85.06,463.55 80.87,451.31 77.91,451.31 75.9,470.14 
			77.93,470.14 79.05,458.43 79.53,452.85 81.2,458.43 85.41,470.32 86.55,470.32 90.56,458.43 92.08,452.85 92.64,458.43 
			93.96,470.14 96.06,470.14 93.63,451.31 		"/>
		<path class="st0" d="M107.56,456.2c-0.72-0.25-1.57-0.38-2.53-0.38c-0.76,0-1.5,0.09-2.21,0.29s-1.32,0.4-1.83,0.63
			c-0.51,0.23-0.85,0.4-1.01,0.51l0.51,1.47c0.25-0.18,0.59-0.36,1.04-0.55c0.45-0.19,0.94-0.34,1.46-0.46
			c0.53-0.12,1.03-0.18,1.5-0.18c1.11,0,1.93,0.18,2.48,0.54c0.54,0.36,0.82,1.09,0.82,2.17v1.47c-0.49,0-1.06,0.03-1.71,0.08
			s-1.3,0.14-1.97,0.26c-0.67,0.12-1.28,0.29-1.83,0.5c-0.99,0.36-1.74,0.87-2.26,1.51c-0.52,0.65-0.78,1.43-0.78,2.36
			c0,0.82,0.18,1.52,0.55,2.11c0.37,0.59,0.87,1.04,1.52,1.35s1.38,0.47,2.21,0.47c1.01,0,1.91-0.17,2.68-0.51
			c0.76-0.33,1.32-0.67,1.71-1.02v1.32h1.93v-9.84c0-1.18-0.2-2.1-0.6-2.75C108.85,456.91,108.29,456.45,107.56,456.2z
			 M105.83,468.56c-0.52,0.16-1.08,0.24-1.68,0.24c-1.01,0-1.75-0.24-2.19-0.72c-0.45-0.48-0.67-1.08-0.67-1.82
			c0-0.63,0.18-1.16,0.54-1.57s0.9-0.75,1.61-1.01c0.4-0.16,0.87-0.29,1.43-0.39c0.55-0.1,1.1-0.17,1.63-0.21
			c0.53-0.04,0.97-0.06,1.31-0.06v4.56c-0.11,0.11-0.32,0.25-0.66,0.44C106.78,468.22,106.35,468.4,105.83,468.56z"/>
		<path class="st0" d="M121.54,455.82c-0.68,0.02-1.36,0.14-2.03,0.37s-1.28,0.5-1.83,0.81c-0.55,0.31-1,0.59-1.34,0.84v-1.8h-1.85
			v14.1h2.08v-10.88c0.35-0.28,0.77-0.55,1.24-0.81s0.96-0.48,1.46-0.65s0.97-0.26,1.41-0.27c1.22-0.05,2.02,0.23,2.42,0.84
			c0.4,0.61,0.6,1.62,0.6,3.01v8.75h2.08v-8.72c0-2.08-0.32-3.54-0.96-4.38C124.17,456.2,123.08,455.8,121.54,455.82z"/>
		<path class="st0" d="M139.39,457.27c-0.44-0.47-0.97-0.83-1.58-1.08s-1.29-0.37-2.05-0.35c-1.35,0.01-2.5,0.33-3.44,0.96
			s-1.65,1.49-2.14,2.59c-0.49,1.09-0.74,2.35-0.74,3.76c0,2.26,0.53,4.02,1.58,5.29c1.06,1.27,2.57,1.91,4.55,1.91
			c0.58,0,1.19-0.06,1.81-0.17c0.62-0.11,1.19-0.26,1.72-0.46s0.94-0.42,1.24-0.67l-0.43-1.34c-0.25,0.16-0.59,0.32-1.02,0.49
			c-0.44,0.17-0.9,0.3-1.39,0.41c-0.49,0.11-0.96,0.17-1.39,0.17c-0.87,0-1.65-0.16-2.33-0.49c-0.68-0.33-1.23-0.85-1.64-1.58
			c-0.41-0.73-0.63-1.69-0.67-2.9c0-0.18,0-0.34,0-0.51h9.25c0.05-0.29,0.08-0.62,0.09-0.97c0.01-0.35,0.01-0.75,0.01-1.18
			c-0.02-0.8-0.15-1.53-0.4-2.19C140.18,458.3,139.84,457.74,139.39,457.27z M131.55,461.91c0.08-0.7,0.21-1.33,0.4-1.85
			c0.36-0.95,0.86-1.65,1.5-2.08c0.64-0.43,1.37-0.65,2.18-0.65c0.85,0,1.53,0.2,2.02,0.61c0.49,0.41,0.83,0.96,1.02,1.65
			c0.19,0.69,0.26,1.47,0.21,2.33H131.55z"/>
		<path class="st0" d="M144.79,470.65c0,1.5-0.18,2.6-0.55,3.28s-0.97,1.03-1.81,1.03c-0.24,0-0.5-0.03-0.79-0.08
			s-0.5-0.1-0.63-0.15v1.52c0.06,0.03,0.19,0.06,0.4,0.09c0.21,0.02,0.43,0.05,0.67,0.06c0.24,0.02,0.43,0.03,0.58,0.03
			c0.93,0,1.7-0.23,2.33-0.68c0.62-0.46,1.09-1.17,1.39-2.14s0.46-2.22,0.46-3.75v-13.82h-2.05V470.65z"/>
		<path class="st0" d="M146,449.96c-0.25,0-0.48,0.07-0.72,0.2c-0.23,0.13-0.42,0.32-0.58,0.56c-0.15,0.24-0.23,0.52-0.23,0.83
			c0,0.44,0.13,0.78,0.4,1.03s0.58,0.37,0.94,0.37c0.4,0,0.75-0.15,1.06-0.44c0.31-0.29,0.46-0.68,0.46-1.16c0-0.4-0.11-0.73-0.33-1
			C146.8,450.1,146.46,449.96,146,449.96z"/>
		<path class="st0" d="M160.4,456.87c-0.91-0.68-2.1-1.03-3.57-1.03c-1.19,0-2.27,0.27-3.23,0.8c-0.96,0.54-1.72,1.33-2.29,2.36
			c-0.57,1.04-0.87,2.31-0.89,3.8c-0.01,1,0.1,1.95,0.32,2.85s0.57,1.71,1.06,2.41c0.49,0.7,1.13,1.25,1.91,1.66
			c0.79,0.41,1.74,0.61,2.86,0.61c1.22,0,2.3-0.28,3.26-0.83c0.96-0.55,1.71-1.36,2.26-2.41c0.55-1.05,0.84-2.33,0.87-3.83
			c0.02-1.33-0.18-2.55-0.59-3.68C161.96,458.46,161.31,457.56,160.4,456.87z M159.75,467.36c-0.74,1.02-1.78,1.52-3.12,1.51
			c-0.96-0.02-1.73-0.3-2.34-0.86s-1.05-1.29-1.34-2.2s-0.43-1.9-0.43-2.97c0.02-1.77,0.4-3.13,1.16-4.09
			c0.76-0.96,1.8-1.43,3.12-1.41c0.94,0.01,1.71,0.27,2.31,0.8c0.6,0.52,1.04,1.23,1.33,2.11c0.29,0.88,0.43,1.87,0.42,2.95
			C160.86,464.96,160.49,466.34,159.75,467.36z"/>
		<path class="st0" d="M179.98,455.47l0.03,0.85c-0.13-0.05-0.28-0.1-0.45-0.16c-0.65-0.21-1.43-0.32-2.35-0.32
			c-1.42,0-2.66,0.33-3.72,0.99s-1.88,1.57-2.47,2.73c-0.59,1.16-0.88,2.49-0.88,3.99c0,1.59,0.26,2.88,0.79,3.89
			c0.53,1,1.22,1.74,2.07,2.21c0.85,0.47,1.76,0.7,2.72,0.7c0.87,0,1.61-0.12,2.22-0.37s1.11-0.53,1.5-0.85
			c0.26-0.21,0.46-0.38,0.63-0.54v1.56h1.9v-20.61h-2V455.47z M178.5,468.22c-0.66,0.34-1.4,0.51-2.23,0.51
			c-1.27,0-2.26-0.45-2.99-1.35c-0.72-0.9-1.07-2.27-1.05-4.1c0.02-1.26,0.23-2.33,0.65-3.21c0.42-0.88,0.98-1.56,1.7-2.02
			c0.71-0.46,1.52-0.7,2.42-0.7c0.78,0,1.41,0.07,1.91,0.2c0.48,0.13,0.83,0.3,1.06,0.49v9.26
			C179.64,467.58,179.15,467.89,178.5,468.22z"/>
		<path class="st0" d="M195.5,457.27c-0.44-0.47-0.97-0.83-1.58-1.08s-1.29-0.37-2.05-0.35c-1.35,0.01-2.5,0.33-3.44,0.96
			s-1.65,1.49-2.14,2.59c-0.49,1.09-0.74,2.35-0.74,3.76c0,2.26,0.53,4.02,1.58,5.29c1.06,1.27,2.57,1.91,4.55,1.91
			c0.58,0,1.19-0.06,1.81-0.17c0.62-0.11,1.19-0.26,1.72-0.46s0.94-0.42,1.24-0.67l-0.43-1.34c-0.25,0.16-0.59,0.32-1.02,0.49
			c-0.44,0.17-0.9,0.3-1.39,0.41c-0.49,0.11-0.96,0.17-1.39,0.17c-0.87,0-1.65-0.16-2.33-0.49c-0.68-0.33-1.23-0.85-1.64-1.58
			c-0.41-0.73-0.63-1.69-0.67-2.9c0-0.18,0-0.34,0-0.51h9.25c0.05-0.29,0.08-0.62,0.09-0.97c0.01-0.35,0.01-0.75,0.01-1.18
			c-0.02-0.8-0.15-1.53-0.4-2.19C196.29,458.3,195.94,457.74,195.5,457.27z M187.65,461.91c0.08-0.7,0.21-1.33,0.4-1.85
			c0.36-0.95,0.86-1.65,1.5-2.08c0.64-0.43,1.37-0.65,2.18-0.65c0.85,0,1.53,0.2,2.02,0.61c0.49,0.41,0.83,0.96,1.02,1.65
			c0.19,0.69,0.26,1.47,0.21,2.33H187.65z"/>
		<path class="st0" d="M214.21,456.54c-0.85-0.46-1.76-0.7-2.72-0.7c-0.87,0-1.61,0.12-2.21,0.37c-0.6,0.25-1.1,0.53-1.48,0.84
			c-0.3,0.25-0.53,0.46-0.72,0.65v-1.68h-1.88v20.38h2.05v-4.54l-0.02-2.01c0.13,0.05,0.28,0.1,0.44,0.16
			c0.63,0.22,1.41,0.33,2.32,0.33c1.42,0,2.66-0.33,3.72-1c1.06-0.66,1.88-1.57,2.47-2.73c0.59-1.16,0.88-2.48,0.88-3.98
			c0-1.6-0.26-2.9-0.79-3.9C215.75,457.74,215.06,457.01,214.21,456.54z M214.31,466.11c-0.42,0.88-0.99,1.55-1.71,2.02
			s-1.53,0.7-2.43,0.7c-0.76,0-1.38-0.07-1.86-0.2c-0.48-0.13-0.83-0.3-1.06-0.51v-9.2c0.35-0.3,0.84-0.62,1.48-0.95
			c0.64-0.33,1.37-0.5,2.19-0.5c1.27,0,2.26,0.45,2.98,1.34c0.72,0.9,1.07,2.27,1.05,4.11
			C214.94,464.17,214.73,465.23,214.31,466.11z"/>
		<path class="st0" d="M226.7,455.85c-0.65,0-1.28,0.13-1.9,0.41s-1.15,0.58-1.6,0.93c-0.37,0.29-0.63,0.53-0.79,0.75l-0.12-1.87
			h-1.77v14.1h2.08V459.3c0.21-0.2,0.46-0.42,0.78-0.65c0.38-0.27,0.83-0.51,1.33-0.71c0.5-0.2,1.04-0.3,1.62-0.3
			c0.52,0,0.91,0.03,1.16,0.1c0.25,0.07,0.44,0.14,0.56,0.2V456c-0.13-0.05-0.3-0.09-0.53-0.11
			C227.29,455.86,227.02,455.85,226.7,455.85z"/>
		<path class="st0" d="M239.25,467.31c-0.26,0.2-0.61,0.41-1.03,0.61c-0.43,0.2-0.89,0.37-1.39,0.51c-0.5,0.13-0.98,0.2-1.46,0.2
			c-0.74,0-1.31-0.11-1.74-0.32c-0.42-0.21-0.72-0.62-0.91-1.23s-0.27-1.5-0.27-2.69v-8.37h-2.05v8.29c0,0.9,0.05,1.71,0.15,2.45
			c0.1,0.74,0.29,1.37,0.56,1.91c0.28,0.54,0.69,0.95,1.24,1.24c0.55,0.29,1.28,0.44,2.18,0.44c0.56,0,1.14-0.07,1.74-0.22
			c0.6-0.15,1.18-0.35,1.74-0.6c0.55-0.25,1.04-0.53,1.47-0.83v0.77c0,0.36,0.09,0.59,0.27,0.69c0.18,0.1,0.44,0.15,0.77,0.15h0.81
			v-14.27h-2.08V467.31z"/>
		<path class="st0" d="M254.9,457.27c-0.44-0.47-0.97-0.83-1.58-1.08s-1.29-0.37-2.05-0.35c-1.35,0.01-2.5,0.33-3.44,0.96
			s-1.65,1.49-2.14,2.59c-0.49,1.09-0.74,2.35-0.74,3.76c0,2.26,0.53,4.02,1.58,5.29c1.06,1.27,2.57,1.91,4.55,1.91
			c0.58,0,1.19-0.06,1.81-0.17c0.62-0.11,1.19-0.26,1.72-0.46s0.94-0.42,1.24-0.67l-0.43-1.34c-0.25,0.16-0.59,0.32-1.02,0.49
			c-0.44,0.17-0.9,0.3-1.39,0.41c-0.49,0.11-0.96,0.17-1.39,0.17c-0.87,0-1.65-0.16-2.33-0.49c-0.68-0.33-1.23-0.85-1.64-1.58
			c-0.41-0.73-0.63-1.69-0.67-2.9c0-0.18,0-0.34,0-0.51h9.25c0.05-0.29,0.08-0.62,0.09-0.97c0.01-0.35,0.01-0.75,0.01-1.18
			c-0.02-0.8-0.15-1.53-0.4-2.19C255.69,458.3,255.34,457.74,254.9,457.27z M247.05,461.91c0.08-0.7,0.21-1.33,0.4-1.85
			c0.36-0.95,0.86-1.65,1.5-2.08c0.64-0.43,1.37-0.65,2.18-0.65c0.85,0,1.53,0.2,2.02,0.61c0.49,0.41,0.83,0.96,1.02,1.65
			c0.19,0.69,0.26,1.47,0.21,2.33H247.05z"/>
		<path class="st0" d="M269.14,456.59c-0.84-0.49-1.78-0.74-2.81-0.74c-0.85,0-1.57,0.12-2.18,0.35c-0.61,0.24-1.11,0.51-1.51,0.83
			c-0.26,0.21-0.47,0.39-0.66,0.57l0.09-2.13v-5.88h-2v19.78c0.12,0.08,0.33,0.18,0.65,0.29c0.31,0.11,0.69,0.22,1.13,0.32
			c0.44,0.11,0.91,0.19,1.43,0.27c0.51,0.07,1.02,0.11,1.54,0.11c1.41,0,2.65-0.33,3.71-0.98c1.07-0.66,1.9-1.57,2.49-2.74
			s0.89-2.52,0.89-4.06c0-1.5-0.25-2.75-0.75-3.75C270.66,457.83,269.98,457.08,269.14,456.59z M269.11,466.18
			c-0.45,0.88-1.03,1.54-1.75,1.98s-1.5,0.66-2.33,0.66c-0.66,0-1.26-0.06-1.79-0.17c-0.54-0.11-0.93-0.26-1.17-0.44v-9.33
			c0.35-0.31,0.86-0.63,1.51-0.94c0.67-0.32,1.4-0.48,2.19-0.48c1.33,0,2.34,0.46,3.03,1.38s1.02,2.25,1,4
			C269.79,464.19,269.56,465.3,269.11,466.18z"/>
		<path class="st0" d="M282.6,456.2c-0.72-0.25-1.57-0.38-2.53-0.38c-0.76,0-1.5,0.09-2.21,0.29c-0.71,0.19-1.32,0.4-1.83,0.63
			c-0.51,0.23-0.85,0.4-1.01,0.51l0.51,1.47c0.25-0.18,0.59-0.36,1.04-0.55c0.45-0.19,0.94-0.34,1.46-0.46
			c0.53-0.12,1.03-0.18,1.5-0.18c1.11,0,1.93,0.18,2.48,0.54c0.54,0.36,0.82,1.09,0.82,2.17v1.47c-0.49,0-1.06,0.03-1.71,0.08
			s-1.3,0.14-1.97,0.26c-0.67,0.12-1.28,0.29-1.83,0.5c-0.99,0.36-1.74,0.87-2.26,1.51s-0.78,1.43-0.78,2.36
			c0,0.82,0.18,1.52,0.55,2.11c0.37,0.59,0.87,1.04,1.52,1.35s1.38,0.47,2.21,0.47c1.01,0,1.91-0.17,2.68-0.51
			c0.76-0.33,1.32-0.67,1.71-1.02v1.32h1.93v-9.84c0-1.18-0.2-2.1-0.6-2.75C283.88,456.91,283.32,456.45,282.6,456.2z
			 M280.86,468.56c-0.52,0.16-1.08,0.24-1.68,0.24c-1.01,0-1.75-0.24-2.19-0.72c-0.45-0.48-0.67-1.08-0.67-1.82
			c0-0.63,0.18-1.16,0.54-1.57s0.9-0.75,1.61-1.01c0.4-0.16,0.87-0.29,1.43-0.39c0.55-0.1,1.1-0.17,1.63-0.21s0.97-0.06,1.31-0.06
			v4.56c-0.11,0.11-0.32,0.25-0.66,0.44C281.82,468.22,281.38,468.4,280.86,468.56z"/>
		<path class="st0" d="M295.39,463.08c-0.71-0.37-1.43-0.71-2.17-1.03c-0.74-0.32-1.39-0.68-1.93-1.07
			c-0.54-0.39-0.81-0.96-0.8-1.69c0.02-0.56,0.28-1.02,0.8-1.38c0.51-0.36,1.28-0.54,2.29-0.54c0.46,0,0.9,0.04,1.33,0.11
			c0.43,0.08,0.8,0.17,1.13,0.29c0.33,0.12,0.58,0.24,0.74,0.35l0.36-1.57c-0.25-0.14-0.71-0.3-1.38-0.48
			c-0.67-0.17-1.42-0.25-2.24-0.23c-0.89,0-1.7,0.13-2.45,0.38c-0.74,0.25-1.34,0.64-1.79,1.17c-0.45,0.52-0.69,1.19-0.7,2
			c-0.01,0.77,0.18,1.43,0.56,1.98c0.38,0.55,0.92,1.04,1.6,1.45c0.68,0.41,1.46,0.8,2.35,1.15c0.4,0.16,0.82,0.35,1.26,0.57
			c0.44,0.22,0.82,0.49,1.13,0.82c0.31,0.33,0.47,0.74,0.47,1.24c0,0.72-0.29,1.26-0.87,1.63c-0.58,0.37-1.32,0.55-2.22,0.55
			c-0.57-0.01-1.13-0.07-1.68-0.19c-0.55-0.12-1.04-0.26-1.47-0.42c-0.43-0.16-0.73-0.3-0.91-0.43l-0.33,1.57
			c0.27,0.18,0.64,0.34,1.12,0.49c0.48,0.15,1.01,0.28,1.59,0.37c0.58,0.1,1.17,0.15,1.77,0.15c1.5,0,2.69-0.34,3.58-1.01
			s1.34-1.63,1.34-2.87c0-0.81-0.24-1.49-0.7-2.02C296.69,463.91,296.1,463.46,295.39,463.08z"/>
		<path class="st0" d="M314.82,455.47l0.03,0.85c-0.13-0.05-0.28-0.1-0.45-0.16c-0.65-0.21-1.43-0.32-2.35-0.32
			c-1.42,0-2.66,0.33-3.72,0.99s-1.88,1.57-2.47,2.73c-0.59,1.16-0.88,2.49-0.88,3.99c0,1.59,0.26,2.88,0.79,3.89
			c0.53,1,1.22,1.74,2.07,2.21c0.85,0.47,1.76,0.7,2.72,0.7c0.87,0,1.61-0.12,2.22-0.37c0.61-0.25,1.11-0.53,1.5-0.85
			c0.26-0.21,0.46-0.38,0.63-0.54v1.56h1.9v-20.61h-2V455.47z M313.35,468.22c-0.66,0.34-1.4,0.51-2.23,0.51
			c-1.27,0-2.26-0.45-2.99-1.35c-0.72-0.9-1.07-2.27-1.05-4.1c0.02-1.26,0.23-2.33,0.65-3.21c0.42-0.88,0.98-1.56,1.7-2.02
			c0.71-0.46,1.52-0.7,2.42-0.7c0.78,0,1.41,0.07,1.91,0.2c0.48,0.13,0.83,0.3,1.06,0.49v9.26
			C314.49,467.58,314,467.89,313.35,468.22z"/>
		<path class="st0" d="M330.35,457.27c-0.44-0.47-0.97-0.83-1.58-1.08c-0.61-0.25-1.3-0.37-2.05-0.35c-1.35,0.01-2.5,0.33-3.43,0.96
			c-0.94,0.63-1.65,1.49-2.14,2.59s-0.74,2.35-0.74,3.76c0,2.26,0.53,4.02,1.58,5.29c1.06,1.27,2.57,1.91,4.55,1.91
			c0.58,0,1.18-0.06,1.81-0.17s1.19-0.26,1.72-0.46s0.94-0.42,1.24-0.67l-0.43-1.34c-0.25,0.16-0.58,0.32-1.02,0.49
			c-0.44,0.17-0.9,0.3-1.39,0.41c-0.49,0.11-0.96,0.17-1.39,0.17c-0.87,0-1.65-0.16-2.33-0.49c-0.68-0.33-1.23-0.85-1.63-1.58
			c-0.41-0.73-0.63-1.69-0.67-2.9c0-0.18,0-0.34,0-0.51h9.25c0.05-0.29,0.08-0.62,0.09-0.97c0.01-0.35,0.01-0.75,0.01-1.18
			c-0.02-0.8-0.15-1.53-0.4-2.19C331.14,458.3,330.79,457.74,330.35,457.27z M322.5,461.91c0.08-0.7,0.21-1.33,0.4-1.85
			c0.36-0.95,0.86-1.65,1.5-2.08c0.64-0.43,1.37-0.65,2.18-0.65c0.85,0,1.53,0.2,2.02,0.61c0.49,0.41,0.83,0.96,1.02,1.65
			c0.19,0.69,0.26,1.47,0.21,2.33H322.5z"/>
		<rect x="340.15" y="449.53" class="st0" width="2.08" height="20.61"/>
		<path class="st0" d="M354.32,456.2c-0.72-0.25-1.57-0.38-2.53-0.38c-0.76,0-1.5,0.09-2.21,0.29c-0.71,0.19-1.32,0.4-1.83,0.63
			c-0.51,0.23-0.85,0.4-1.01,0.51l0.51,1.47c0.25-0.18,0.59-0.36,1.04-0.55c0.45-0.19,0.94-0.34,1.46-0.46
			c0.53-0.12,1.03-0.18,1.5-0.18c1.11,0,1.93,0.18,2.48,0.54c0.54,0.36,0.82,1.09,0.82,2.17v1.47c-0.49,0-1.06,0.03-1.71,0.08
			s-1.3,0.14-1.97,0.26c-0.67,0.12-1.28,0.29-1.83,0.5c-0.99,0.36-1.74,0.87-2.26,1.51s-0.78,1.43-0.78,2.36
			c0,0.82,0.18,1.52,0.55,2.11c0.37,0.59,0.87,1.04,1.52,1.35s1.38,0.47,2.21,0.47c1.01,0,1.91-0.17,2.68-0.51
			c0.76-0.33,1.32-0.67,1.71-1.02v1.32h1.93v-9.84c0-1.18-0.2-2.1-0.6-2.75C355.6,456.91,355.04,456.45,354.32,456.2z
			 M352.58,468.56c-0.52,0.16-1.08,0.24-1.68,0.24c-1.01,0-1.75-0.24-2.19-0.72c-0.45-0.48-0.67-1.08-0.67-1.82
			c0-0.63,0.18-1.16,0.54-1.57s0.9-0.75,1.61-1.01c0.4-0.16,0.87-0.29,1.43-0.39c0.55-0.1,1.1-0.17,1.63-0.21s0.97-0.06,1.31-0.06
			v4.56c-0.11,0.11-0.32,0.25-0.66,0.44C353.54,468.22,353.1,468.4,352.58,468.56z"/>
		<path class="st0" d="M370.27,456.59c-0.84-0.49-1.78-0.74-2.81-0.74c-0.85,0-1.57,0.12-2.18,0.35c-0.61,0.24-1.11,0.51-1.51,0.83
			c-0.26,0.21-0.47,0.39-0.66,0.57l0.09-2.13v-5.88h-2v19.78c0.12,0.08,0.33,0.18,0.65,0.29c0.31,0.11,0.69,0.22,1.13,0.32
			c0.44,0.11,0.91,0.19,1.43,0.27c0.51,0.07,1.02,0.11,1.54,0.11c1.41,0,2.65-0.33,3.71-0.98c1.07-0.66,1.9-1.57,2.49-2.74
			s0.89-2.52,0.89-4.06c0-1.5-0.25-2.75-0.75-3.75C371.79,457.83,371.12,457.08,370.27,456.59z M370.24,466.18
			c-0.45,0.88-1.03,1.54-1.75,1.98s-1.5,0.66-2.33,0.66c-0.66,0-1.26-0.06-1.79-0.17c-0.54-0.11-0.93-0.26-1.17-0.44v-9.33
			c0.35-0.31,0.86-0.63,1.51-0.94c0.67-0.32,1.4-0.48,2.19-0.48c1.33,0,2.34,0.46,3.03,1.38s1.02,2.25,1,4
			C370.92,464.19,370.69,465.3,370.24,466.18z"/>
		<path class="st0" d="M385.32,456.87c-0.91-0.68-2.1-1.03-3.57-1.03c-1.19,0-2.27,0.27-3.23,0.8c-0.96,0.54-1.72,1.33-2.29,2.36
			s-0.87,2.31-0.89,3.8c-0.01,1,0.1,1.95,0.32,2.85c0.22,0.9,0.57,1.71,1.06,2.41c0.49,0.7,1.13,1.25,1.91,1.66
			c0.79,0.41,1.74,0.61,2.87,0.61c1.22,0,2.3-0.28,3.26-0.83c0.95-0.55,1.71-1.36,2.26-2.41c0.55-1.05,0.84-2.33,0.87-3.83
			c0.02-1.33-0.18-2.55-0.59-3.68C386.89,458.46,386.23,457.56,385.32,456.87z M384.68,467.36c-0.74,1.02-1.78,1.52-3.12,1.51
			c-0.96-0.02-1.74-0.3-2.34-0.86c-0.6-0.56-1.05-1.29-1.34-2.2s-0.43-1.9-0.43-2.97c0.02-1.77,0.4-3.13,1.16-4.09
			c0.76-0.96,1.8-1.43,3.12-1.41c0.94,0.01,1.71,0.27,2.31,0.8c0.6,0.52,1.04,1.23,1.33,2.11c0.29,0.88,0.43,1.87,0.42,2.95
			C385.79,464.96,385.42,466.34,384.68,467.36z"/>
		<path class="st0" d="M397.55,455.85c-0.65,0-1.28,0.13-1.9,0.41s-1.15,0.58-1.6,0.93c-0.37,0.29-0.63,0.53-0.79,0.75l-0.12-1.87
			h-1.77v14.1h2.08V459.3c0.21-0.2,0.46-0.42,0.78-0.65c0.38-0.27,0.83-0.51,1.33-0.71c0.5-0.2,1.04-0.3,1.62-0.3
			c0.52,0,0.91,0.03,1.16,0.1c0.25,0.07,0.44,0.14,0.56,0.2V456c-0.13-0.05-0.3-0.09-0.53-0.11
			C398.14,455.86,397.87,455.85,397.55,455.85z"/>
		<path class="st0" d="M408.47,456.2c-0.72-0.25-1.57-0.38-2.53-0.38c-0.76,0-1.5,0.09-2.21,0.29c-0.71,0.19-1.32,0.4-1.83,0.63
			c-0.51,0.23-0.85,0.4-1.01,0.51l0.51,1.47c0.25-0.18,0.59-0.36,1.04-0.55c0.45-0.19,0.94-0.34,1.46-0.46
			c0.53-0.12,1.03-0.18,1.5-0.18c1.11,0,1.93,0.18,2.48,0.54c0.54,0.36,0.82,1.09,0.82,2.17v1.47c-0.49,0-1.06,0.03-1.71,0.08
			s-1.3,0.14-1.97,0.26c-0.67,0.12-1.28,0.29-1.83,0.5c-0.99,0.36-1.74,0.87-2.26,1.51s-0.78,1.43-0.78,2.36
			c0,0.82,0.18,1.52,0.55,2.11c0.37,0.59,0.87,1.04,1.52,1.35s1.38,0.47,2.21,0.47c1.01,0,1.91-0.17,2.68-0.51
			c0.76-0.33,1.32-0.67,1.71-1.02v1.32h1.93v-9.84c0-1.18-0.2-2.1-0.6-2.75C409.75,456.91,409.19,456.45,408.47,456.2z
			 M406.73,468.56c-0.52,0.16-1.08,0.24-1.68,0.24c-1.01,0-1.75-0.24-2.19-0.72c-0.45-0.48-0.67-1.08-0.67-1.82
			c0-0.63,0.18-1.16,0.54-1.57s0.9-0.75,1.61-1.01c0.4-0.16,0.87-0.29,1.43-0.39c0.55-0.1,1.1-0.17,1.63-0.21s0.97-0.06,1.31-0.06
			v4.56c-0.11,0.11-0.32,0.25-0.66,0.44C407.69,468.22,407.25,468.4,406.73,468.56z"/>
		<path class="st0" d="M421.77,468.3c-0.31,0.11-0.64,0.19-1,0.27c-0.35,0.07-0.68,0.11-0.96,0.11c-0.46,0-0.83-0.06-1.11-0.18
			c-0.28-0.12-0.47-0.39-0.59-0.82s-0.18-1.11-0.18-2.05v-8.04h4.39v-1.57h-4.39v-3.22h-1.24c-0.08,0.28-0.16,0.61-0.23,0.98
			c-0.07,0.38-0.14,0.73-0.2,1.06c-0.06,0.33-0.12,0.57-0.17,0.72c-0.11,0.29-0.38,0.48-0.82,0.56s-0.88,0.2-1.34,0.32v1.14h1.95
			v9.2c0,1.01,0.15,1.76,0.44,2.27c0.3,0.51,0.69,0.85,1.18,1.02c0.49,0.17,1.02,0.26,1.6,0.26c0.43,0,0.89-0.06,1.38-0.17
			c0.49-0.11,0.94-0.26,1.36-0.44c0.42-0.18,0.75-0.36,0.99-0.56l-0.36-1.19C422.31,468.09,422.08,468.19,421.77,468.3z"/>
		<path class="st0" d="M434.86,456.87c-0.91-0.68-2.1-1.03-3.57-1.03c-1.19,0-2.27,0.27-3.23,0.8c-0.96,0.54-1.72,1.33-2.29,2.36
			s-0.87,2.31-0.89,3.8c-0.01,1,0.1,1.95,0.32,2.85c0.22,0.9,0.57,1.71,1.06,2.41c0.49,0.7,1.13,1.25,1.91,1.66
			c0.79,0.41,1.74,0.61,2.87,0.61c1.22,0,2.3-0.28,3.26-0.83c0.95-0.55,1.71-1.36,2.26-2.41c0.55-1.05,0.84-2.33,0.87-3.83
			c0.02-1.33-0.18-2.55-0.59-3.68C436.43,458.46,435.77,457.56,434.86,456.87z M434.21,467.36c-0.74,1.02-1.78,1.52-3.12,1.51
			c-0.96-0.02-1.74-0.3-2.34-0.86c-0.6-0.56-1.05-1.29-1.34-2.2s-0.43-1.9-0.43-2.97c0.02-1.77,0.4-3.13,1.16-4.09
			c0.76-0.96,1.8-1.43,3.12-1.41c0.94,0.01,1.71,0.27,2.31,0.8c0.6,0.52,1.04,1.23,1.33,2.11c0.29,0.88,0.43,1.87,0.42,2.95
			C435.32,464.96,434.95,466.34,434.21,467.36z"/>
		<path class="st0" d="M447.09,455.85c-0.65,0-1.28,0.13-1.9,0.41s-1.15,0.58-1.6,0.93c-0.37,0.29-0.63,0.53-0.79,0.75l-0.12-1.87
			h-1.77v14.1h2.08V459.3c0.21-0.2,0.46-0.42,0.78-0.65c0.38-0.27,0.83-0.51,1.33-0.71c0.5-0.2,1.04-0.3,1.62-0.3
			c0.52,0,0.91,0.03,1.16,0.1c0.25,0.07,0.44,0.14,0.56,0.2V456c-0.13-0.05-0.3-0.09-0.53-0.11
			C447.68,455.86,447.41,455.85,447.09,455.85z"/>
		<path class="st0" d="M452.41,449.96c-0.25,0-0.48,0.07-0.72,0.2c-0.23,0.13-0.42,0.32-0.58,0.56c-0.15,0.24-0.23,0.52-0.23,0.83
			c0,0.44,0.13,0.78,0.4,1.03c0.27,0.25,0.58,0.37,0.94,0.37c0.4,0,0.75-0.15,1.06-0.44c0.31-0.29,0.46-0.68,0.46-1.16
			c0-0.4-0.11-0.73-0.33-1C453.21,450.1,452.87,449.96,452.41,449.96z"/>
		<rect x="451.32" y="456.05" class="st0" width="2.05" height="14.1"/>
		<path class="st0" d="M469.11,459.59c-0.41-1.13-1.07-2.04-1.98-2.72s-2.1-1.03-3.57-1.03c-1.19,0-2.27,0.27-3.23,0.8
			c-0.96,0.54-1.72,1.33-2.29,2.36s-0.87,2.31-0.89,3.8c-0.01,1,0.1,1.95,0.32,2.85c0.22,0.9,0.57,1.71,1.06,2.41
			c0.49,0.7,1.13,1.25,1.91,1.66c0.79,0.41,1.74,0.61,2.87,0.61c1.22,0,2.3-0.28,3.26-0.83c0.95-0.55,1.71-1.36,2.26-2.41
			c0.55-1.05,0.84-2.33,0.87-3.83C469.72,461.95,469.52,460.72,469.11,459.59z M466.49,467.36c-0.74,1.02-1.78,1.52-3.12,1.51
			c-0.96-0.02-1.74-0.3-2.34-0.86c-0.6-0.56-1.05-1.29-1.34-2.2s-0.43-1.9-0.43-2.97c0.02-1.77,0.4-3.13,1.16-4.09
			c0.76-0.96,1.8-1.43,3.12-1.41c0.94,0.01,1.71,0.27,2.31,0.8c0.6,0.52,1.04,1.23,1.33,2.11c0.29,0.88,0.43,1.87,0.42,2.95
			C467.6,464.96,467.23,466.34,466.49,467.36z"/>
	</g>
</g>
</svg>
