<?xml version="1.0" encoding="utf-8"?>
<!-- Generator: Adobe Illustrator 24.0.0, SVG Export Plug-In . SVG Version: 6.00 Build 0)  -->
<svg version="1.1" xmlns="http://www.w3.org/2000/svg" xmlns:xlink="http://www.w3.org/1999/xlink" x="0px" y="0px"
	 viewBox="0 0 512 512" style="enable-background:new 0 0 512 512;" xml:space="preserve">
<style type="text/css">
	.st0{fill:#9B9B9B;}
	.st1{fill:#FFBF31;}
	.st2{fill:none;}
	.st3{fill:#FFCC30;}
	.st4{fill:#FFFFFF;}
	.st5{fill:#1E1D1C;}
	.st6{fill:#FFCC2A;}
	.st7{fill:#1D1D1B;}
</style>
<g id="GUIAS">
</g>
<g id="Capa_2">
	<g>
		<g>
			<g>
				<polygon class="st6" points="348.94,197.62 419.47,197.62 382.3,162.98 				"/>
				<polygon class="st6" points="405.03,295.3 460.62,208.8 434.64,208.8 				"/>
				<polygon class="st6" points="286.7,241.54 314.41,269.25 342.4,288.93 299.63,224.02 				"/>
				<polygon class="st6" points="350.95,158.26 345.27,185.32 371.32,158.26 				"/>
				<polygon class="st6" points="471.66,212.32 411.14,306.47 478.72,219.39 				"/>
				<polygon class="st6" points="455.89,197.62 432.02,179.83 435.67,197.62 				"/>
				<polygon class="st6" points="336.09,174.63 319.11,197.62 331.25,197.62 				"/>
				<polygon class="st6" points="421.51,184.23 418.55,169.79 403.08,158.26 393.64,158.26 				"/>
				<polygon class="st6" points="388.07,147.08 371.57,134.78 359.28,147.08 				"/>
				<polygon class="st6" points="331.78,208.8 310.86,208.8 306.71,214.43 361.91,298.22 				"/>
				<polygon class="st6" points="343.58,208.8 379.33,314.9 385.11,318.95 422.82,208.8 				"/>
			</g>
			<path d="M382.85,107.69L259.94,230.6l122.91,122.9l122.91-122.9L382.85,107.69z M456.96,197.62h-1.07h-20.22l-3.65-17.79
				l-1.84-8.99L456.96,197.62z M460.62,208.8l-55.59,86.49l29.61-86.49H460.62z M418.55,169.79l2.96,14.44l-27.87-25.97h9.44h13.1
				L418.55,169.79z M350.95,158.26h20.37l-26.06,27.05L350.95,158.26z M382.3,162.98l37.17,34.64h-70.53L382.3,162.98z
				 M382.85,123.51l23.57,23.57h-18.34h-28.79l12.3-12.3L382.85,123.51z M337.24,169.11l-1.16,5.51l-4.83,23h-12.14h-10.38
				L337.24,169.11z M310.86,208.8h20.92l30.13,89.41l-55.21-83.78L303,208.8H310.86z M314.41,269.25l-27.71-27.71l-10.94-10.94
				l17-17l6.87,10.43l42.77,64.91l16.06,24.37L314.41,269.25z M382.89,325.44l-3.55-10.54L343.58,208.8h79.24l-37.71,110.15
				L382.89,325.44z M411.14,306.47l60.52-94.15l7.07,7.07l11.21,11.21l-84.06,84.06L411.14,306.47z"/>
		</g>
		<path d="M117.14,142.98h-0.12h-21.8H19.37v21.92h75.86v128.64c0,9-7.3,16.29-16.29,16.29H44.45c-9.19,0-16.64-7.45-16.64-16.64
			l0,0H5.89l0,3.23c0,19.51,15.82,35.32,35.33,35.32l41.68,0c18.91,0,34.24-15.33,34.24-34.24L117.14,142.98z"/>
		<g>
			<path class="st7" d="M6.36,379.38c0-4.42,2.18-6.62,6.53-6.62c4.36,0,6.55,2.21,6.55,6.62v4.25h-4.55v-4.25
				c0-1.41-0.66-2.13-1.98-2.14h-0.03c-1.31,0-1.96,0.71-1.96,2.14v2.86c0,1.4,1.42,3.12,4.26,5.16c2.84,2.03,4.26,4.46,4.26,7.29
				v3.99c0,4.43-2.18,6.64-6.53,6.64c-4.36-0.01-6.54-2.23-6.54-6.64v-4.25h4.55v4.25c0,1.43,0.66,2.14,1.99,2.14
				c1.32,0,1.98-0.71,1.98-2.14v-3.6c0-1.52-1.42-3.3-4.26-5.34c-2.84-2.03-4.26-4.49-4.26-7.4V379.38z"/>
			<path class="st7" d="M23.3,373.26h11.8v4.49h-7.25v9.04h6.24v4.5h-6.24v9.04h7.25v4.49H23.3V373.26z"/>
			<path class="st7" d="M38.48,373.26h6.63c4.04,0.01,6.06,2.22,6.06,6.64v4.75c0,2.78-1.2,4.6-3.59,5.48l5.12,14.68h-4.98
				l-4.1-13.88l-0.58,0.08v13.8h-4.55V373.26z M43.03,377.74v9.04h1.05c0.63,0,1.07-0.04,1.3-0.13c0.83-0.33,1.24-1,1.24-2.01v-4.75
				c0-1.44-0.66-2.15-1.98-2.15H43.03z"/>
			<path class="st7" d="M64,404.81h-6.24l-3.21-20.39l-1.48-11.16h4.6l3.2,24.31l3.22-24.31h4.6l-1.48,11.19L64,404.81z"/>
			<path class="st7" d="M71.49,373.26h4.55v31.55h-4.55V373.26z"/>
			<path class="st7" d="M93.06,398.68c0,4.42-2.18,6.63-6.55,6.64c-4.35,0-6.53-2.21-6.53-6.64v-19.3c0-4.42,2.18-6.62,6.53-6.62
				c4.36,0,6.55,2.21,6.55,6.62v4.25H88.5v-4.25c0-1.41-0.66-2.13-1.98-2.14H86.5c-1.31,0-1.96,0.71-1.96,2.14v19.3
				c0,1.43,0.66,2.14,1.98,2.14c1.33,0,2-0.71,2-2.14v-4.25h4.55V398.68z"/>
			<path class="st7" d="M96.83,373.26h4.55v31.55h-4.55V373.26z"/>
			<path class="st7" d="M118.4,398.68c0,4.42-2.18,6.63-6.55,6.64c-4.35,0-6.53-2.21-6.53-6.64v-19.3c0-4.42,2.18-6.62,6.53-6.62
				c4.36,0,6.55,2.21,6.55,6.62V398.68z M113.85,379.38c0-1.41-0.66-2.13-1.98-2.14h-0.03c-1.31,0-1.96,0.71-1.96,2.14v19.3
				c0,1.43,0.66,2.14,1.98,2.14c1.33,0,2-0.71,2-2.14V379.38z"/>
			<path class="st7" d="M121.94,379.38c0-4.42,2.18-6.62,6.53-6.62c4.36,0,6.55,2.21,6.55,6.62v4.25h-4.55v-4.25
				c0-1.41-0.66-2.13-1.98-2.14h-0.03c-1.31,0-1.96,0.71-1.96,2.14v2.86c0,1.4,1.42,3.12,4.26,5.16c2.84,2.03,4.26,4.46,4.26,7.29
				v3.99c0,4.43-2.18,6.64-6.53,6.64c-4.36-0.01-6.54-2.23-6.54-6.64v-4.25h4.55v4.25c0,1.43,0.66,2.14,1.99,2.14
				c1.32,0,1.98-0.71,1.98-2.14v-3.6c0-1.52-1.42-3.3-4.26-5.34c-2.84-2.03-4.26-4.49-4.26-7.4V379.38z"/>
			<path class="st7" d="M150.42,373.26l3.11,12.3l3.1-12.3h4.82l-5.52,17.9l-0.13,0.38v13.27h-4.55v-13.27l-0.14-0.38l-5.52-17.9
				H150.42z"/>
			<path class="st7" d="M171.48,373.26h6.63c4.04,0.01,6.06,2.22,6.06,6.64v4.75c0,3.26-1.45,5.36-4.36,6.3
				c-0.7,0.23-1.71,0.34-3.04,0.34h-0.74v13.52h-4.55V373.26z M176.03,377.74v9.04h1.05c0.63,0,1.07-0.04,1.3-0.13
				c0.83-0.33,1.24-1,1.24-2.01v-4.75c0-1.44-0.66-2.15-1.98-2.15H176.03z"/>
			<path class="st7" d="M187.55,373.26h6.63c4.04,0.01,6.06,2.22,6.06,6.64v4.75c0,2.78-1.2,4.6-3.59,5.48l5.12,14.68h-4.98
				l-4.1-13.88l-0.58,0.08v13.8h-4.55V373.26z M192.1,377.74v9.04h1.05c0.63,0,1.07-0.04,1.3-0.13c0.83-0.33,1.24-1,1.24-2.01v-4.75
				c0-1.44-0.66-2.15-1.98-2.15H192.1z"/>
			<path class="st7" d="M217.09,398.68c0,4.42-2.18,6.63-6.55,6.64c-4.35,0-6.53-2.21-6.53-6.64v-19.3c0-4.42,2.18-6.62,6.53-6.62
				c4.36,0,6.55,2.21,6.55,6.62V398.68z M212.54,379.38c0-1.41-0.66-2.13-1.98-2.14h-0.03c-1.31,0-1.96,0.71-1.96,2.14v19.3
				c0,1.43,0.66,2.14,1.98,2.14c1.33,0,2-0.71,2-2.14V379.38z"/>
			<path class="st7" d="M220.95,373.26h7.01c4.04,0.01,6.06,2.22,6.06,6.64v18.29c0,4.41-2.12,6.61-6.35,6.62h-6.72V373.26z
				 M225.5,377.74v22.58h2c1.32,0,1.98-0.71,1.98-2.14V379.9c0-1.44-0.66-2.15-1.98-2.15H225.5z"/>
			<path class="st7" d="M250.8,398.68c0,4.42-2.18,6.63-6.55,6.64c-4.35,0-6.53-2.21-6.53-6.64v-25.42h4.55v25.42
				c0,1.43,0.66,2.14,1.98,2.14c1.33,0,2-0.71,2-2.14v-25.42h4.55V398.68z"/>
			<path class="st7" d="M267.57,398.68c0,4.42-2.18,6.63-6.55,6.64c-4.35,0-6.53-2.21-6.53-6.64v-19.3c0-4.42,2.18-6.62,6.53-6.62
				c4.36,0,6.55,2.21,6.55,6.62v4.25h-4.55v-4.25c0-1.41-0.66-2.13-1.98-2.14h-0.03c-1.31,0-1.96,0.71-1.96,2.14v19.3
				c0,1.43,0.66,2.14,1.98,2.14c1.33,0,2-0.71,2-2.14v-4.25h4.55V398.68z"/>
			<path class="st7" d="M283.05,373.26v4.49h-4.26v27.06h-4.55v-27.06h-4.26v-4.49H283.05z"/>
			<path class="st7" d="M298.7,398.68c0,4.42-2.18,6.63-6.55,6.64c-4.35,0-6.53-2.21-6.53-6.64v-19.3c0-4.42,2.18-6.62,6.53-6.62
				c4.36,0,6.55,2.21,6.55,6.62V398.68z M294.15,379.38c0-1.41-0.66-2.13-1.98-2.14h-0.03c-1.31,0-1.96,0.71-1.96,2.14v19.3
				c0,1.43,0.66,2.14,1.98,2.14c1.33,0,2-0.71,2-2.14V379.38z"/>
			<path class="st7" d="M302.24,379.38c0-4.42,2.18-6.62,6.53-6.62c4.36,0,6.55,2.21,6.55,6.62v4.25h-4.55v-4.25
				c0-1.41-0.66-2.13-1.98-2.14h-0.03c-1.31,0-1.96,0.71-1.96,2.14v2.86c0,1.4,1.42,3.12,4.26,5.16c2.84,2.03,4.26,4.46,4.26,7.29
				v3.99c0,4.43-2.18,6.64-6.53,6.64c-4.36-0.01-6.54-2.23-6.54-6.64v-4.25h4.55v4.25c0,1.43,0.66,2.14,1.99,2.14
				c1.32,0,1.98-0.71,1.98-2.14v-3.6c0-1.52-1.42-3.3-4.26-5.34c-2.84-2.03-4.26-4.49-4.26-7.4V379.38z"/>
			<path class="st7" d="M327.34,373.26h6.63c4.04,0.01,6.06,2.22,6.06,6.64v4.75c0,3.26-1.45,5.36-4.36,6.3
				c-0.7,0.23-1.71,0.34-3.04,0.34h-0.74v13.52h-4.55V373.26z M331.89,377.74v9.04h1.05c0.63,0,1.07-0.04,1.3-0.13
				c0.83-0.33,1.24-1,1.24-2.01v-4.75c0-1.44-0.66-2.15-1.98-2.15H331.89z"/>
			<path class="st7" d="M354.72,393.62l1.48,11.19h-4.6l-0.88-6.69h-4.65l-0.9,6.69h-4.58l1.48-11.14l3.21-20.41h6.24L354.72,393.62
				z M350.12,393.62l-1.74-13.12l-1.74,13.12H350.12z"/>
			<path class="st7" d="M358.93,373.26h6.63c4.04,0.01,6.06,2.22,6.06,6.64v4.75c0,2.78-1.2,4.6-3.59,5.48l5.12,14.68h-4.98
				l-4.1-13.88l-0.58,0.08v13.8h-4.55V373.26z M363.48,377.74v9.04h1.05c0.63,0,1.07-0.04,1.3-0.13c0.83-0.33,1.24-1,1.24-2.01
				v-4.75c0-1.44-0.66-2.15-1.98-2.15H363.48z"/>
			<path class="st7" d="M388.41,393.62l1.48,11.19h-4.6l-0.88-6.69h-4.65l-0.9,6.69h-4.58l1.48-11.14l3.21-20.41h6.24L388.41,393.62
				z M383.81,393.62l-1.74-13.12l-1.74,13.12H383.81z"/>
			<path class="st7" d="M410.69,394.87l5.29-21.61h4.55v31.55h-4.36v-17.7l-3.89,17.7h-3.09l-4-17.7v17.7h-4.41v-31.55h4.55
				L410.69,394.87z"/>
			<path class="st7" d="M424.8,373.26h4.55v31.55h-4.55V373.26z"/>
			<path class="st7" d="M433.61,373.26h4.55l4.31,18.3v-18.3h4.21v31.55h-4.55l-4.15-17.72v17.72h-4.38V373.26z"/>
			<path class="st7" d="M450.86,373.26h11.8v4.49h-7.25v9.04h6.24v4.5h-6.24v9.04h7.25v4.49h-11.8V373.26z"/>
			<path class="st7" d="M466.04,373.26h6.63c4.04,0.01,6.06,2.22,6.06,6.64v4.75c0,2.78-1.2,4.6-3.59,5.48l5.12,14.68h-4.98
				l-4.1-13.88l-0.58,0.08v13.8h-4.55V373.26z M470.6,377.74v9.04h1.05c0.63,0,1.07-0.04,1.3-0.13c0.83-0.33,1.24-1,1.24-2.01v-4.75
				c0-1.44-0.66-2.15-1.98-2.15H470.6z"/>
			<path class="st7" d="M485.05,372.04h-2.52l2.28-4.07h3.57L485.05,372.04z M482.91,373.26h4.55v31.55h-4.55V373.26z"/>
			<path class="st7" d="M505.89,404.81h-4.6l-0.88-6.69h-4.65l-0.9,6.69h-4.58l4.7-31.55h6.24L505.89,404.81z M499.81,393.62
				l-1.74-13.12l-1.74,13.12H499.81z"/>
		</g>
		
			<rect x="162.96" y="103.97" transform="matrix(-1.836970e-16 1 -1 -1.836970e-16 327.4644 -20.3729)" width="21.92" height="99.15"/>
		<path d="M174.71,199.45l-50.37-0.18l0.04,22.62h47.03c24.1,0,43.71,19.61,43.71,43.71c0,24.1-19.61,43.71-43.71,43.71h-47.04
			l-0.02,22.44h50.35c36.48,0,66.15-29.67,66.15-66.15S211.18,199.45,174.71,199.45z"/>
	</g>
</g>
</svg>
