<?xml version="1.0" encoding="utf-8"?>
<!-- Generator: Adobe Illustrator 24.0.0, SVG Export Plug-In . SVG Version: 6.00 Build 0)  -->
<svg version="1.1" xmlns="http://www.w3.org/2000/svg" xmlns:xlink="http://www.w3.org/1999/xlink" x="0px" y="0px"
	 viewBox="0 0 512 512" style="enable-background:new 0 0 512 512;" xml:space="preserve">
<style type="text/css">
	.st0{fill:#9B9B9B;}
	.st1{fill:#FFBF31;}
	.st2{fill:none;}
	.st3{fill:#FFCC30;}
	.st4{fill:#FFFFFF;}
	.st5{fill:#1E1D1C;}
	.st6{fill:#FFCC2A;}
	.st7{fill:#1D1D1B;}
</style>
<g id="GUIAS">
</g>
<g id="Capa_2">
	<g>
		<path d="M116,169.36h-0.12h-21.8H18.19v21.92h75.88v128.68c0,9-7.3,16.3-16.3,16.3H43.28c-9.19,0-16.65-7.45-16.65-16.65v0H4.71
			l0,3.24c0,19.52,15.83,35.33,35.34,35.33l41.7,0c18.92,0,34.25-15.34,34.25-34.25L116,169.36z"/>
		
			<rect x="161.83" y="130.33" transform="matrix(-1.836970e-16 1 -1 -1.836970e-16 352.7122 7.1359)" width="21.92" height="99.18"/>
		<path d="M173.58,225.84l-50.38-0.18l0.04,22.62h47.04c24.11,0,43.72,19.61,43.72,43.72c0,24.11-19.61,43.72-43.72,43.72h-47.05
			l-0.02,22.45h50.36c36.49,0,66.17-29.68,66.17-66.17S210.06,225.84,173.58,225.84z"/>
		<g>
			<g>
				<polygon class="st6" points="347.86,224.01 418.41,224.01 381.23,189.36 				"/>
				<polygon class="st6" points="403.96,321.71 459.57,235.2 433.59,235.2 				"/>
				<polygon class="st6" points="285.6,267.95 313.32,295.66 341.32,315.35 298.54,250.42 				"/>
				<polygon class="st6" points="349.87,184.64 344.19,211.7 370.25,184.64 				"/>
				<polygon class="st6" points="470.61,238.72 410.08,332.89 477.68,245.78 				"/>
				<polygon class="st6" points="454.84,224.01 430.97,206.22 434.62,224.01 				"/>
				<polygon class="st6" points="335,201.01 318.02,224.01 330.17,224.01 				"/>
				<polygon class="st6" points="420.45,210.62 417.48,196.17 402.01,184.64 392.57,184.64 				"/>
				<polygon class="st6" points="387,173.45 370.5,161.15 358.2,173.45 				"/>
				<polygon class="st6" points="330.69,235.2 309.77,235.2 305.61,240.83 360.83,324.63 				"/>
				<polygon class="st6" points="342.5,235.2 378.26,341.32 384.04,345.38 421.76,235.2 				"/>
			</g>
			<path d="M381.77,134.06L258.83,257l122.94,122.94L504.71,257L381.77,134.06z M455.91,224.01h-1.07h-20.22l-3.65-17.79l-1.85-8.99
				L455.91,224.01z M459.57,235.2l-55.61,86.52l29.62-86.52H459.57z M417.48,196.17l2.96,14.45l-27.88-25.98h9.44h13.11
				L417.48,196.17z M349.87,184.64h20.38l-26.06,27.06L349.87,184.64z M381.23,189.36l37.18,34.65h-70.55L381.23,189.36z
				 M381.77,149.88l23.57,23.57H387h-28.8l12.3-12.3L381.77,149.88z M336.16,195.49l-1.16,5.52l-4.83,23h-12.14h-10.38
				L336.16,195.49z M309.77,235.2h20.92l30.14,89.44l-55.22-83.8l-3.71-5.63H309.77z M313.32,295.66l-27.72-27.72L274.65,257
				l17.01-17.01l6.87,10.43l42.78,64.93l16.07,24.38L313.32,295.66z M381.82,351.87l-3.55-10.55L342.5,235.2h79.26l-37.72,110.18
				L381.82,351.87z M410.08,332.89l60.53-94.18l7.07,7.07L488.89,257l-84.08,84.08L410.08,332.89z"/>
		</g>
	</g>
</g>
</svg>
