<?xml version="1.0" encoding="utf-8"?>
<!-- Generator: Adobe Illustrator 24.0.0, SVG Export Plug-In . SVG Version: 6.00 Build 0)  -->
<svg version="1.1" xmlns="http://www.w3.org/2000/svg" xmlns:xlink="http://www.w3.org/1999/xlink" x="0px" y="0px"
	 viewBox="0 0 512 512" style="enable-background:new 0 0 512 512;" xml:space="preserve">
<style type="text/css">
	.st0{fill:#9B9B9B;}
	.st1{fill:#FFBF31;}
	.st2{fill:none;}
	.st3{fill:#FFCC30;}
	.st4{fill:#FFFFFF;}
	.st5{fill:#1E1D1C;}
	.st6{fill:#FFCC2A;}
	.st7{fill:#1D1D1B;}
</style>
<g id="GUIAS">
</g>
<g id="Capa_2">
	<g>
		<polygon class="st0" points="171.95,466.32 166.69,487.3 165.11,496.14 163.21,487.3 157.53,466.32 146.22,466.32 141.89,505.58 
			149.63,505.58 151.37,483.57 152.11,472.45 154.8,483.75 161.57,505.87 168.12,505.87 174.46,483.75 177.02,472.45 177.66,483.57 
			179.58,505.58 187.64,505.58 182.83,466.32 		"/>
		<path class="st0" d="M212.3,476.62c-1.75-0.63-3.99-0.95-6.7-0.95c-1.65,0-3.3,0.18-4.94,0.54c-1.64,0.36-3.09,0.78-4.36,1.26
			c-1.27,0.48-2.2,0.89-2.8,1.24l1.74,5.07c0.72-0.37,1.62-0.71,2.7-1.03c1.07-0.32,2.21-0.57,3.42-0.77
			c1.21-0.19,2.37-0.29,3.47-0.29c1.48,0,2.62,0.23,3.41,0.7c0.79,0.47,1.19,1.45,1.19,2.95v2.17c-1.18,0-2.45,0.05-3.82,0.16
			c-1.36,0.11-2.73,0.29-4.09,0.55c-1.37,0.26-2.62,0.63-3.76,1.11c-1.67,0.72-3,1.73-3.98,3.01c-0.98,1.29-1.47,2.83-1.47,4.62
			c0,1.8,0.39,3.38,1.18,4.73c0.78,1.36,1.88,2.41,3.29,3.17c1.41,0.76,3.05,1.14,4.91,1.14c1.88,0,3.52-0.31,4.9-0.93
			c1.38-0.62,2.47-1.28,3.26-1.98v2.48h7.64v-19.44c0-2.68-0.43-4.77-1.28-6.29C215.36,478.33,214.05,477.26,212.3,476.62z
			 M206.73,500.45c-0.64,0.18-1.29,0.27-1.94,0.27c-1.25,0-2.27-0.34-3.06-1.02c-0.79-0.68-1.19-1.73-1.19-3.16
			c0-1.09,0.27-1.9,0.81-2.43c0.54-0.53,1.15-0.95,1.84-1.27c0.49-0.21,1.1-0.4,1.84-0.57c0.73-0.17,1.49-0.29,2.28-0.38
			c0.79-0.09,1.51-0.13,2.14-0.13v7.4c-0.18,0.21-0.51,0.43-1.01,0.68C207.94,500.07,207.37,500.28,206.73,500.45z"/>
		<path class="st0" d="M241.11,499.26c-0.55,0.18-1.12,0.32-1.72,0.44c-0.6,0.11-1.13,0.17-1.59,0.17c-0.9,0-1.59-0.12-2.06-0.36
			c-0.48-0.24-0.81-0.78-1.01-1.64c-0.19-0.85-0.29-2.21-0.29-4.08v-12.13h7.9v-5.52h-7.9v-6.71h-4.86
			c-0.25,0.65-0.49,1.29-0.71,1.93c-0.23,0.63-0.44,1.22-0.65,1.77c-0.2,0.55-0.39,1.02-0.57,1.43c-0.35,0.83-0.92,1.41-1.7,1.74
			c-0.79,0.33-1.83,0.69-3.13,1.06v4.31h3.57v15.54c0,2.11,0.29,3.81,0.86,5.1c0.57,1.29,1.44,2.22,2.61,2.82
			c1.17,0.59,2.66,0.89,4.45,0.89c1.27,0,2.51-0.14,3.73-0.42c1.21-0.28,2.3-0.64,3.25-1.07c0.95-0.43,1.66-0.86,2.14-1.28
			l-1.06-4.52C242.08,498.9,241.66,499.09,241.11,499.26z"/>
		<path class="st0" d="M269.38,478.33c-1.09-0.91-2.33-1.56-3.72-1.97c-1.39-0.41-2.85-0.6-4.39-0.58
			c-3.03,0.02-5.59,0.68-7.69,1.99c-2.1,1.31-3.7,3.09-4.79,5.35c-1.1,2.25-1.65,4.81-1.65,7.66c0,4.76,1.21,8.48,3.62,11.18
			c2.41,2.7,5.88,4.04,10.41,4.04c1.52,0,2.99-0.14,4.43-0.41c1.43-0.27,2.72-0.63,3.86-1.08c1.14-0.45,2.03-0.94,2.68-1.47
			l-1.35-4.38c-0.48,0.25-1.16,0.49-2.06,0.73c-0.9,0.24-1.85,0.43-2.85,0.57c-1,0.14-1.93,0.21-2.77,0.21
			c-1.55,0-2.91-0.25-4.08-0.75c-1.17-0.5-2.09-1.33-2.77-2.48c-0.63-1.07-0.99-2.48-1.09-4.21h17.59c0.12-0.65,0.2-1.43,0.24-2.35
			s0.05-1.91,0.05-2.99c-0.02-2.15-0.36-3.96-1.02-5.45C271.34,480.43,270.47,479.23,269.38,478.33z M265.52,488.35h-10.29
			c0.1-1.06,0.27-1.98,0.5-2.76c0.48-1.63,1.18-2.78,2.09-3.45c0.91-0.67,1.97-1.01,3.18-1.01c1.25,0,2.22,0.31,2.91,0.91
			c0.69,0.61,1.15,1.45,1.39,2.54C265.53,485.67,265.61,486.93,265.52,488.35z"/>
		<path class="st0" d="M294.79,475.72c-1.29,0-2.51,0.24-3.67,0.73c-1.16,0.48-2.17,1.11-3.01,1.87c-0.72,0.65-1.23,1.34-1.57,2.05
			l-0.41-4.2h-6.98v29.4h8.06v-19.66c0.28-0.27,0.6-0.56,0.99-0.88c0.62-0.5,1.39-0.93,2.31-1.29c0.92-0.36,2-0.54,3.27-0.54
			c1.04,0,1.82,0.08,2.33,0.24c0.51,0.16,0.89,0.32,1.14,0.48v-7.85c-0.21-0.12-0.54-0.21-0.99-0.26
			C295.81,475.75,295.32,475.72,294.79,475.72z"/>
		<path class="st0" d="M306.94,462.7c-0.9,0-1.74,0.22-2.52,0.66c-0.78,0.44-1.42,1.03-1.9,1.76c-0.48,0.73-0.73,1.54-0.73,2.42
			c0,1.3,0.45,2.36,1.35,3.17c0.9,0.81,2,1.21,3.3,1.21c1.39,0,2.59-0.47,3.61-1.41c1.01-0.94,1.52-2.08,1.52-3.42
			c0-1.29-0.41-2.34-1.23-3.16C309.52,463.11,308.39,462.7,306.94,462.7z"/>
		<rect x="302.82" y="476.17" class="st0" width="8.06" height="29.4"/>
		<path class="st0" d="M337.44,476.62c-1.75-0.63-3.98-0.95-6.7-0.95c-1.65,0-3.3,0.18-4.94,0.54c-1.64,0.36-3.09,0.78-4.36,1.26
			c-1.27,0.48-2.2,0.89-2.8,1.24l1.74,5.07c0.72-0.37,1.62-0.71,2.7-1.03c1.07-0.32,2.21-0.57,3.42-0.77
			c1.21-0.19,2.37-0.29,3.48-0.29c1.48,0,2.62,0.23,3.41,0.7c0.79,0.47,1.19,1.45,1.19,2.95v2.17c-1.18,0-2.45,0.05-3.82,0.16
			c-1.37,0.11-2.73,0.29-4.1,0.55c-1.36,0.26-2.62,0.63-3.76,1.11c-1.67,0.72-3,1.73-3.97,3.01c-0.98,1.29-1.47,2.83-1.47,4.62
			c0,1.8,0.39,3.38,1.18,4.73c0.78,1.36,1.88,2.41,3.29,3.17c1.41,0.76,3.05,1.14,4.92,1.14c1.88,0,3.52-0.31,4.9-0.93
			c1.38-0.62,2.47-1.28,3.26-1.98v2.48h7.63v-19.44c0-2.68-0.43-4.77-1.28-6.29C340.5,478.33,339.19,477.26,337.44,476.62z
			 M331.87,500.45c-0.64,0.18-1.29,0.27-1.94,0.27c-1.25,0-2.27-0.34-3.06-1.02c-0.79-0.68-1.19-1.73-1.19-3.16
			c0-1.09,0.27-1.9,0.81-2.43c0.54-0.53,1.15-0.95,1.84-1.27c0.49-0.21,1.1-0.4,1.84-0.57c0.73-0.17,1.49-0.29,2.29-0.38
			c0.79-0.09,1.5-0.13,2.14-0.13v7.4c-0.18,0.21-0.51,0.43-1,0.68C333.08,500.07,332.51,500.28,331.87,500.45z"/>
		<rect x="350.5" y="462.65" class="st0" width="8.08" height="42.93"/>
		<path class="st0" d="M387.28,478.33c-1.09-0.91-2.33-1.56-3.72-1.97c-1.39-0.41-2.85-0.6-4.39-0.58
			c-3.03,0.02-5.59,0.68-7.69,1.99c-2.1,1.31-3.7,3.09-4.79,5.35c-1.1,2.25-1.65,4.81-1.65,7.66c0,4.76,1.21,8.48,3.62,11.18
			c2.41,2.7,5.88,4.04,10.41,4.04c1.52,0,2.99-0.14,4.43-0.41c1.43-0.27,2.72-0.63,3.86-1.08c1.14-0.45,2.03-0.94,2.68-1.47
			l-1.35-4.38c-0.48,0.25-1.16,0.49-2.06,0.73c-0.9,0.24-1.85,0.43-2.85,0.57c-1,0.14-1.93,0.21-2.77,0.21
			c-1.55,0-2.91-0.25-4.08-0.75c-1.17-0.5-2.1-1.33-2.77-2.48c-0.63-1.07-0.99-2.48-1.09-4.21h17.59c0.12-0.65,0.2-1.43,0.24-2.35
			c0.04-0.92,0.05-1.91,0.05-2.99c-0.02-2.15-0.36-3.96-1.02-5.45C389.24,480.43,388.37,479.23,387.28,478.33z M383.42,488.35
			h-10.29c0.1-1.06,0.27-1.98,0.5-2.76c0.48-1.63,1.18-2.78,2.09-3.45c0.91-0.67,1.97-1.01,3.18-1.01c1.25,0,2.22,0.31,2.91,0.91
			c0.69,0.61,1.15,1.45,1.39,2.54C383.43,485.67,383.51,486.93,383.42,488.35z"/>
		<path class="st0" d="M416.59,493.04c-0.73-1.1-1.82-2.08-3.25-2.93c-1.43-0.85-3.21-1.71-5.32-2.58c-1.43-0.6-2.54-1.14-3.34-1.62
			c-0.8-0.48-1.19-1.23-1.18-2.23c0-0.77,0.39-1.37,1.18-1.78c0.78-0.41,2.03-0.62,3.74-0.62c0.93,0,1.85,0.1,2.76,0.3
			c0.91,0.2,1.72,0.46,2.44,0.78c0.72,0.32,1.25,0.62,1.58,0.9l0.87-5.78c-0.56-0.33-1.61-0.7-3.13-1.1
			c-1.52-0.4-3.37-0.59-5.53-0.59c-2.13,0-4.07,0.3-5.83,0.91c-1.75,0.61-3.15,1.52-4.2,2.73c-1.05,1.21-1.58,2.74-1.6,4.57
			c-0.02,1.55,0.28,2.9,0.88,4.06c0.61,1.15,1.53,2.18,2.77,3.08c1.24,0.9,2.82,1.72,4.72,2.48c1.06,0.42,2.02,0.83,2.88,1.23
			c0.86,0.4,1.55,0.82,2.05,1.28s0.75,0.99,0.75,1.61c0,0.9-0.38,1.57-1.14,2.02c-0.76,0.45-1.94,0.66-3.54,0.65
			c-1.27,0-2.5-0.16-3.7-0.46c-1.2-0.31-2.23-0.65-3.09-1.02c-0.86-0.37-1.43-0.67-1.72-0.9l-0.9,5.68c0.51,0.35,1.29,0.7,2.34,1.06
			c1.05,0.35,2.26,0.65,3.64,0.88c1.38,0.24,2.82,0.36,4.32,0.36c3.56,0,6.39-0.76,8.48-2.27c2.1-1.51,3.15-3.73,3.15-6.66
			C417.68,495.48,417.32,494.14,416.59,493.04z"/>
	</g>
	<g>
		<path class="st0" d="M377.99,88.47c0.05,0.61,0.09,1.22,0.17,1.83c0.69,5.87-1.24,10.55-6.31,13.76
			c-1.21,0.76-2.46,1.46-3.74,2.09c-3.37,1.67-6.76,3.29-10.14,4.94c-1.97,0.96-2.97,2.51-2.84,4.73c0.26,4.46,0.53,8.92,0.76,13.38
			c0.13,2.51,1.59,3.85,3.81,4.62c4.15,1.43,8.29,2.87,12.43,4.33c3.7,1.3,6.57,3.6,8.29,7.18c1.41,2.93,1.72,5.99,0.94,9.15
			c-0.17,0.69-0.37,1.39-0.6,2.06c-2.81,8.12-5.65,16.24-8.45,24.36c-0.96,2.76-2.4,5.16-4.72,7.02c-3.38,2.7-7.17,3.48-11.35,2.65
			c-0.88-0.17-1.75-0.4-2.59-0.69c-6.01-2.07-12.01-4.16-18.02-6.24c-1.55-0.54-2.98-1.19-3.73-2.82c-1.42-3.06,0.76-6.49,4.13-6.32
			c0.96,0.05,1.93,0.36,2.86,0.67c5.42,1.85,10.83,3.74,16.25,5.61c0.59,0.21,1.18,0.43,1.78,0.61c3.46,1.02,5.47,0.03,6.77-3.33
			c0.19-0.5,0.36-1.01,0.53-1.52c2.5-7.19,5-14.38,7.5-21.56c0.15-0.42,0.3-0.84,0.44-1.27c1.22-3.77,0.28-5.8-3.4-7.14
			c-3.62-1.32-7.27-2.54-10.9-3.81c-0.84-0.3-1.7-0.57-2.52-0.93c-5.09-2.28-8.03-6.14-8.44-11.76c-0.34-4.72-0.66-9.45-0.8-14.18
			c-0.17-5.59,2.2-9.89,7.19-12.52c3.56-1.88,7.23-3.56,10.85-5.33c0.64-0.31,1.31-0.6,1.93-0.95c3.22-1.83,3.99-4.07,2.4-7.4
			c-3.71-7.75-7.45-15.49-11.24-23.21c-1.59-3.24-4-4.06-7.34-2.51c-3.82,1.76-7.64,3.54-11.36,5.51c-5.57,2.95-11.86,2.19-16.8-2.5
			c-3.1-2.95-6.42-5.68-9.58-8.58c-4.07-3.74-5.25-8.36-3.95-13.67c0.19-0.78,0.47-1.54,0.74-2.3c1.2-3.47,2.41-6.94,3.6-10.41
			c0.23-0.68,0.49-1.35,0.63-2.05c0.53-2.59-0.34-4.36-2.7-5.5c-0.56-0.27-1.16-0.46-1.75-0.67c-7.61-2.65-15.22-5.29-22.84-7.93
			c-0.76-0.26-1.53-0.52-2.32-0.65c-2.08-0.36-3.71,0.37-4.73,2.24c-0.43,0.78-0.76,1.62-1.06,2.46c-1.31,3.71-2.65,7.42-3.88,11.16
			c-1.75,5.32-6.29,9.81-13.51,9.92c-4.02,0.06-8.03,0.4-12.04,0.66c-6.41,0.41-11.08-2.21-13.93-7.96
			c-1.79-3.61-3.52-7.25-5.28-10.87c-0.31-0.64-0.6-1.31-1-1.9c-1.58-2.32-3.69-2.94-6.31-1.89c-0.25,0.1-0.49,0.22-0.73,0.34
			c-7.57,3.67-15.15,7.33-22.72,11.02c-0.79,0.39-1.56,0.88-2.22,1.47c-1.22,1.1-1.7,2.52-1.26,4.13c0.28,1.03,0.64,2.05,1.1,3.01
			c1.64,3.48,3.27,6.97,5.03,10.39c3.24,6.28,1.64,12.39-2.63,16.76c-2.61,2.68-5.12,5.5-7.47,8.41c-4.53,5.6-10.78,6.58-16.37,4.53
			c-3.61-1.32-7.27-2.53-10.91-3.79c-0.59-0.21-1.18-0.44-1.78-0.6c-2.91-0.75-4.86,0.19-6.07,2.96c-0.25,0.57-0.43,1.18-0.64,1.77
			c-2.56,7.36-5.11,14.72-7.67,22.07c-0.23,0.68-0.5,1.35-0.67,2.04c-0.63,2.65,0.24,4.52,2.71,5.74c0.72,0.35,1.5,0.59,2.26,0.86
			c5.41,1.89,10.82,3.76,16.23,5.66c0.84,0.3,1.7,0.59,2.46,1.04c1.94,1.16,2.65,3.29,1.89,5.34c-0.72,1.92-2.56,3.08-4.67,2.84
			c-0.79-0.09-1.58-0.31-2.34-0.58c-5.92-2.04-11.84-4.1-17.76-6.17c-2.92-1.02-5.48-2.55-7.37-5.12
			c-2.55-3.47-3.28-7.27-2.32-11.43c0.18-0.78,0.42-1.56,0.69-2.32c2.75-7.95,5.54-15.89,8.27-23.85c1.2-3.51,3.13-6.43,6.38-8.33
			c3.8-2.22,7.8-2.4,11.91-1.01c3.82,1.29,7.61,2.64,11.42,3.95c0.68,0.23,1.35,0.5,2.05,0.65c1.78,0.4,3.36,0.07,4.62-1.36
			c3.07-3.48,6.17-6.94,9.24-10.43c1.41-1.6,1.44-3.4,0.55-5.25c-1.63-3.39-3.29-6.76-4.89-10.16c-0.61-1.29-1.17-2.62-1.64-3.96
			c-1.99-5.67-0.6-10.53,3.58-14.71c0.43-0.43,0.84-0.88,1.26-1.33c9.51-4.61,19.02-9.21,28.53-13.82c0.52-0.04,1.05-0.12,1.57-0.12
			c1.86,0.01,3.77-0.22,5.58,0.12c4.66,0.89,7.71,3.94,9.77,8.06c1.96,3.93,3.86,7.88,5.74,11.84c0.95,2,2.47,3.01,4.69,2.89
			c4.55-0.25,9.1-0.52,13.64-0.76c1.54-0.08,2.78-0.7,3.59-2c0.42-0.67,0.7-1.45,0.97-2.2c1.4-3.97,2.76-7.95,4.17-11.92
			c1.41-3.98,3.9-7.01,7.87-8.67c3.48-1.45,6.96-1.31,10.48-0.09c6,2.09,12.03,4.12,18.03,6.22c2.96,1.03,5.93,2.04,8.8,3.28
			c2.79,1.2,4.82,3.33,6.2,6.07c1.88,3.76,1.81,7.58,0.47,11.46c-1.38,3.98-2.78,7.94-4.13,11.93c-1.08,3.18-0.72,4.33,1.85,6.59
			c2.82,2.48,5.64,4.95,8.42,7.47c2.86,2.6,3.86,2.77,7.42,1.06c3.71-1.78,7.39-3.65,11.13-5.37c6.52-2.99,12.46-1.7,17.2,3.62
			c0.23,0.26,0.55,0.44,0.82,0.65C368.78,69.45,373.39,78.96,377.99,88.47z"/>
		<path class="st0" d="M312.58,100.98c7.39,15.61,8.42,30.48,3.57,45.76c-0.41,1.3-0.95,2.49-2.21,3.24
			c-1.63,0.97-3.25,1.01-4.8-0.04c-1.43-0.97-2.17-2.42-1.93-4.14c0.19-1.41,0.64-2.79,1.03-4.16c2.86-10.11,2.65-20.14-0.78-30.09
			c-4.67-13.57-13.56-23.48-26.5-29.49c-12.1-5.62-24.65-6.33-37.38-2C230,84.68,220.27,93.65,214,106.48
			c-0.75,1.52-1.26,3.16-1.93,4.72c-0.54,1.26-1.33,2.29-2.67,2.86c-3,1.26-6.26-0.89-6.13-4.14c0.03-0.79,0.26-1.59,0.54-2.33
			c4.52-12,11.97-21.69,22.7-28.78c14.33-9.47,29.96-12.48,46.65-8.6c15.07,3.5,27.11,11.77,35.75,24.73
			C310.44,97.23,311.78,99.66,312.58,100.98z"/>
		<path class="st0" d="M366.17,379.2c-0.89-0.18-1.96-0.21-2.89-0.21c-5.51-0.01-11.02-0.02-16.52-0.02l-7.45,0l-7.46,0h-3.39h-4.74
			c0,0-0.07-85.42-0.21-103.48c-0.03-3.7-0.44-7.73-1.35-13.08c-1.43-8.45-5.21-16.19-8.34-21.99c-7-12.95-14.04-25.88-21.07-38.81
			l-9.05-16.64c-0.36-0.66-0.7-1.31-1.09-2.06l-0.6-1.14l-2.98-5.65l6.28-1.21c0.34-0.07,0.67-0.14,0.98-0.21
			c0.87-0.2,1.86-0.42,2.97-0.48c0.22-0.01,0.44-0.02,0.65-0.02c4.2,0,7.94,1.92,11.11,5.71c2.47,2.95,5.05,6.17,7.1,9.77
			c7.62,13.33,13.81,24.47,19.5,35.07c5.36,9.98,9.34,19.22,12.17,28.25c2.62,8.34,4.11,16.22,4.56,24.09
			c0.3,5.18,0.3,10.4,0.31,15.44l0,0.84c0.02,12.04,0.02,24.09,0.02,36.13c0,9.02,0,18.04,0.01,27.07c0,1.06,0.03,2.45,0.22,3.7
			c0.33,2.09,1.93,3.66,3.99,3.9c0.26,0.03,0.51,0.05,0.76,0.05c2.14,0,3.86-1.08,4.49-2.82c0.31-0.84,0.46-2.02,0.46-3.61
			c0.03-13.83,0.03-27.65,0.03-41.48c0-9.91,0-19.81,0.01-29.72c0.01-8.74-0.65-16.46-2-23.61c-2.12-11.17-5.78-21.94-10.88-32.01
			c-6.43-12.69-13.09-25-21.1-39.6c-2.28-4.15-5.07-8.44-8.53-13.11c-2.28-3.07-4.88-5.92-7.72-8.48
			c-4.25-3.82-8.75-5.68-13.78-5.68c-2.01,0-4.12,0.31-6.29,0.91c-1.37,0.38-2.72,0.79-4.1,1.21l-2.06,0.62l-3.6,1.07l-1.86-3.27
			l-0.58-1.02c-0.4-0.7-0.78-1.35-1.14-2.01l-9.44-17.36l-7.26-13.36c-0.55-1-1.08-2.01-1.62-3.02c-1.24-2.32-2.52-4.72-3.85-6.99
			c-1.04-1.78-2.42-2.65-4.19-2.65c-0.37,0-0.75,0.04-1.15,0.11c-0.84,0.15-1.9,0.63-2.84,1.04c-3.16,1.39-25.8,11.15-25.8,11.15
			s-0.13-2.64-0.15-7.33c-0.01-2.62-0.98-4.05-3.45-5.09c-0.19-0.08-0.36-0.16-0.52-0.25h-2.09c-0.32,0.18-0.65,0.36-0.98,0.54
			c-1.79,0.97-2.59,2.12-2.75,3.98c-0.05,0.64-0.08,1.36-0.08,2.26c0,29.37,0,35.51,0,64.88c0,0.8,0.01,1.64,0.1,2.4
			c0.28,2.39,2.36,4.2,4.84,4.2c2.47-0.01,4.58-1.86,4.83-4.22c0.1-0.94,0.1-1.99,0.1-3.1v-0.26l0.01-7.95
			c0.01-10.8-0.11-21.98-0.05-32.96c0.03-5.43-1.07-4.92,5.32-8.18c3.13-1.6,17.59-7.67,21.31-9.23c0.51-0.21,1.08-0.01,1.36,0.46
			l1.61,2.75l0.27,0.44c0.22,0.35,0.39,0.64,0.56,0.93l13.12,24.13c15.82,29.09,31.64,58.19,47.45,87.29
			c5.34,9.84,7.95,19.36,7.96,29.12c0.04,32.14,0,103.6,0,103.6h-4.88h-3.4l-7.19,0l-7.19,0c-5.59,0-11.17,0-16.76,0.02
			c-1.26,0-2.15,0.07-2.9,0.22c-2.41,0.49-3.94,2.27-3.99,4.63c-0.05,2.5,1.42,4.4,3.86,4.95c0.87,0.2,2.09,0.2,3.07,0.2
			c17.48,0.01,34.95,0.01,52.43,0.01l36.57,0l0.55,0l0.5,0c0.47,0,0.96-0.01,1.38-0.05c2.5-0.28,4.33-2.15,4.45-4.54
			C370.25,381.63,368.82,379.74,366.17,379.2z"/>
		<path class="st0" d="M384.85,346.47c-0.75,0-1.56,0.17-2.41,0.49c-5,1.92-9.26,4.74-12.65,8.39c-2.14,2.3-2.19,5.21-0.14,7.25
			c0.96,0.96,2.1,1.46,3.29,1.46c1.28,0,2.57-0.56,3.72-1.63c3.14-2.89,6.32-4.99,9.73-6.41c1.4-0.59,2.3-1.51,2.92-2.98
			c0.09-0.21,0.18-0.41,0.28-0.59v-1.94c-0.07-0.13-0.13-0.27-0.19-0.42C388.38,347.69,386.85,346.47,384.85,346.47z"/>
		<path class="st0" d="M293.81,256.67c-0.77-2.01-2.52-3.17-4.79-3.17c-0.12,0-0.23,0-0.35,0.01c-1.13,0.06-2.27,0.75-3.88,1.79
			l-10.91,7.09c-25.44,16.54-50.88,33.08-76.33,49.6c-2.32,1.5-4.61,2.95-7.19,4.03c-4.21,1.76-8.43,2.65-12.56,2.65
			c-5.22,0-10.34-1.42-15.22-4.21c-5.17-2.96-9.24-7.4-12.81-13.97l-8.93-16.43c-10.04-18.47-20.09-36.94-30.11-55.42
			c-1.14-2.1-2.2-4.31-3.14-6.57c-4.84-11.57-1.62-25.58,7.83-34.06c3.66-3.28,7.82-5.35,11.04-6.8
			c10.72-4.79,21.45-9.58,32.18-14.36c8.84-3.94,17.67-7.88,26.51-11.83l0.36-0.16c0.95-0.42,1.84-0.82,2.41-1.24
			c1.76-1.31,2.36-2.72,2.02-4.72c-0.38-2.23-1.48-3.42-3.81-4.1c-0.32-0.09-0.64-0.14-0.97-0.14c-0.82,0-1.82,0.28-3.22,0.91
			l-11.45,5.11c-9.16,4.09-18.33,8.18-27.48,12.28c-2.54,1.14-5.09,2.24-7.65,3.35c-5.98,2.59-12.17,5.26-17.92,8.32
			c-14.57,7.74-22,20.22-22.09,37.07c-0.03,6.36,1.83,12.9,5.7,19.99c5.17,9.47,10.31,18.95,15.46,28.43
			c4.7,8.66,9.4,17.32,14.12,25.97c1.19,2.18,2.36,4.38,3.53,6.58c3.02,5.67,6.13,11.54,9.57,16.97c7.76,12.3,19,18.55,34.35,19.08
			c0.66-0.06,1.32-0.11,1.98-0.16c1.58-0.12,3.07-0.24,4.5-0.46c5.83-0.88,11.55-3.24,17.98-7.42l31.63-20.57l55.84-36.31l0.11-0.07
			c0.79-0.51,1.54-1,2.14-1.49C293.97,260.82,294.58,258.68,293.81,256.67z"/>
		<path class="st0" d="M276.71,336.69c-4.4-2.67-8.98-5.08-13.61-7.18c-0.66-0.29-1.33-0.45-2-0.45c-1.88,0-3.56,1.14-4.39,2.99
			c-1.12,2.47-0.12,5.07,2.47,6.47c0.75,0.4,1.52,0.77,2.29,1.13c0.82,0.39,1.64,0.78,2.45,1.2c8.04,4.24,18.25,10.37,25.89,20.21
			c0.38,0.49,0.84,1,1.35,1.5c0.97,0.95,2.13,1.45,3.35,1.45c0.63,0,1.27-0.14,1.9-0.4c2.09-0.88,3.1-2.48,3.08-4.89
			c0.02-1.03-0.51-2.13-1.65-3.58C292.2,347.99,285.09,341.78,276.71,336.69z"/>
		<path class="st0" d="M287.36,310.61c-0.99-0.78-2.03-0.94-2.73-0.94c-1.39,0-2.73,0.61-3.69,1.68c-1.73,1.92-1.65,4.82,0.17,6.76
			c1.79,1.9,3.58,3.8,5.38,5.69c1.8,1.9,3.61,3.81,5.4,5.72c1,1.06,2.07,1.5,3.71,1.51c1.9-0.03,3.22-0.78,4.16-2.44
			c1.04-1.85,1-3.41-0.15-5.06C296.3,318.76,292.18,314.41,287.36,310.61z"/>
		<path class="st0" d="M262.84,357.38c-2.57-0.48-5.18-0.77-7.95-1.08c-0.01,0-0.01,0-0.02,0h-3.22c-0.79,0-1.58-0.02-2.37-0.05
			c-0.69-0.02-1.39-0.04-2.08-0.04c-0.83,0-1.5,0.03-2.09,0.11c-2.23,0.27-3.97,2.49-3.89,4.96c0.08,2.38,1.92,4.46,4.1,4.64
			c4.76,0.39,10.39,0.84,16.11,1.14c0.11,0.01,0.21,0.01,0.32,0.01c2.56,0,4.78-1.78,5.05-4.05
			C267.16,359.97,265.72,357.92,262.84,357.38z"/>
		<path class="st0" d="M209.76,212.5c-4.79,0-8.3,3.39-8.33,8.07c-0.02,2.31,0.83,4.44,2.39,6.01c1.55,1.56,3.66,2.43,5.94,2.44
			c2.27,0,4.38-0.87,5.96-2.46c1.58-1.59,2.44-3.7,2.43-5.95c-0.02-4.61-3.62-8.09-8.36-8.11H209.76z"/>
	</g>
</g>
</svg>
