<?xml version="1.0" encoding="utf-8"?>
<!-- Generator: Adobe Illustrator 24.0.0, SVG Export Plug-In . SVG Version: 6.00 Build 0)  -->
<svg version="1.1" xmlns="http://www.w3.org/2000/svg" xmlns:xlink="http://www.w3.org/1999/xlink" x="0px" y="0px"
	 viewBox="0 0 512 512" style="enable-background:new 0 0 512 512;" xml:space="preserve">
<style type="text/css">
	.st0{fill:#9B9B9B;}
	.st1{fill:#FFBF31;}
	.st2{fill:none;}
	.st3{fill:#FFCC30;}
	.st4{fill:#FFFFFF;}
	.st5{fill:#1E1D1C;}
	.st6{fill:#FFCC2A;}
	.st7{fill:#1D1D1B;}
</style>
<g id="GUIAS">
</g>
<g id="Capa_2">
	<path class="st5" d="M445.55,423.09H66.79c-18.49,0-33.63-15.13-33.63-33.63V39.63C33.17,21.13,48.3,6,66.79,6h378.76
		c18.49,0,33.63,15.13,33.63,33.63v349.83C479.18,407.95,464.05,423.09,445.55,423.09z"/>
	<g>
		<polygon points="189.24,477.08 185.41,492.37 184.25,498.82 182.87,492.37 178.73,477.08 170.49,477.08 167.33,505.69 
			172.97,505.69 174.24,489.66 174.78,481.55 176.74,489.79 181.67,505.9 186.45,505.9 191.07,489.79 192.94,481.55 193.4,489.66 
			194.8,505.69 200.67,505.69 197.17,477.08 		"/>
		<path d="M218.65,484.59c-1.28-0.46-2.9-0.69-4.88-0.69c-1.21,0-2.41,0.13-3.6,0.4c-1.19,0.26-2.25,0.57-3.18,0.92
			c-0.92,0.35-1.6,0.65-2.04,0.9l1.27,3.7c0.53-0.27,1.18-0.52,1.96-0.75c0.78-0.23,1.61-0.42,2.49-0.56
			c0.88-0.14,1.72-0.21,2.53-0.21c1.08,0,1.9,0.17,2.48,0.51c0.58,0.34,0.87,1.06,0.87,2.15v1.58c-0.86,0-1.79,0.04-2.78,0.12
			c-1,0.08-1.99,0.21-2.98,0.4c-1,0.19-1.91,0.46-2.74,0.81c-1.22,0.53-2.19,1.26-2.9,2.2c-0.71,0.94-1.07,2.06-1.07,3.37
			c0,1.31,0.29,2.46,0.86,3.45c0.57,0.99,1.37,1.76,2.4,2.31c1.03,0.55,2.22,0.83,3.58,0.83c1.37,0,2.56-0.22,3.57-0.67
			c1.01-0.45,1.8-0.93,2.38-1.44v1.81h5.56v-14.17c0-1.95-0.31-3.48-0.93-4.58C220.87,485.84,219.92,485.05,218.65,484.59z
			 M214.58,501.96c-0.47,0.13-0.94,0.19-1.41,0.19c-0.91,0-1.66-0.25-2.23-0.74c-0.58-0.49-0.86-1.26-0.86-2.3
			c0-0.8,0.19-1.39,0.59-1.77c0.39-0.39,0.84-0.69,1.34-0.92c0.36-0.15,0.81-0.29,1.34-0.41c0.53-0.12,1.09-0.21,1.66-0.28
			c0.58-0.06,1.1-0.1,1.56-0.1v5.39c-0.13,0.15-0.37,0.32-0.73,0.49C215.47,501.68,215.05,501.83,214.58,501.96z"/>
		<path d="M239.64,501.09c-0.4,0.13-0.81,0.23-1.25,0.32c-0.44,0.08-0.82,0.12-1.16,0.12c-0.66,0-1.16-0.09-1.5-0.26
			c-0.35-0.17-0.59-0.57-0.73-1.19c-0.14-0.62-0.21-1.61-0.21-2.97v-8.84h5.76v-4.02h-5.76v-4.89h-3.54
			c-0.18,0.48-0.35,0.94-0.52,1.41c-0.17,0.46-0.32,0.89-0.47,1.29c-0.15,0.4-0.29,0.74-0.41,1.04c-0.26,0.6-0.67,1.03-1.24,1.27
			c-0.57,0.24-1.33,0.5-2.28,0.77v3.14h2.6v11.32c0,1.54,0.21,2.78,0.63,3.72c0.42,0.94,1.05,1.62,1.91,2.05
			c0.85,0.43,1.93,0.64,3.24,0.64c0.92,0,1.83-0.1,2.72-0.31c0.89-0.21,1.68-0.46,2.37-0.78c0.69-0.31,1.21-0.63,1.56-0.93
			l-0.77-3.29C240.35,500.83,240.04,500.96,239.64,501.09z"/>
		<path d="M260.24,485.84c-0.8-0.66-1.7-1.14-2.71-1.44c-1.01-0.29-2.08-0.44-3.2-0.42c-2.21,0.01-4.08,0.5-5.6,1.45
			c-1.53,0.96-2.69,2.26-3.49,3.9c-0.8,1.64-1.2,3.5-1.2,5.58c0,3.47,0.88,6.18,2.64,8.14c1.76,1.96,4.29,2.94,7.58,2.94
			c1.11,0,2.18-0.1,3.23-0.3c1.05-0.2,1.98-0.46,2.81-0.79c0.83-0.33,1.48-0.68,1.95-1.07l-0.98-3.2c-0.35,0.18-0.85,0.36-1.5,0.53
			c-0.65,0.17-1.35,0.31-2.08,0.41c-0.73,0.1-1.41,0.15-2.02,0.15c-1.13,0-2.12-0.18-2.97-0.55c-0.86-0.37-1.53-0.97-2.02-1.81
			c-0.46-0.78-0.72-1.81-0.8-3.07h12.82c0.09-0.47,0.15-1.05,0.17-1.71c0.03-0.67,0.04-1.39,0.04-2.17
			c-0.01-1.57-0.26-2.89-0.74-3.98C261.67,487.37,261.03,486.5,260.24,485.84z M257.43,493.14h-7.5c0.08-0.77,0.2-1.45,0.36-2.01
			c0.35-1.19,0.86-2.02,1.52-2.51c0.66-0.49,1.43-0.73,2.32-0.73c0.91,0,1.62,0.22,2.12,0.66c0.5,0.44,0.84,1.06,1.01,1.85
			C257.44,491.19,257.49,492.1,257.43,493.14z"/>
		<path d="M278.76,483.94c-0.94,0-1.83,0.18-2.68,0.53c-0.85,0.35-1.58,0.81-2.2,1.37c-0.52,0.47-0.9,0.97-1.14,1.49l-0.3-3.06
			h-5.08v21.43h5.87v-14.33c0.21-0.2,0.44-0.41,0.72-0.64c0.46-0.37,1.02-0.68,1.68-0.94c0.67-0.26,1.46-0.39,2.39-0.39
			c0.76,0,1.32,0.06,1.69,0.17c0.37,0.12,0.65,0.23,0.83,0.35v-5.72c-0.15-0.09-0.4-0.15-0.72-0.19
			C279.5,483.96,279.15,483.94,278.76,483.94z"/>
		<rect x="284.61" y="484.27" width="5.87" height="21.43"/>
		<path d="M287.62,474.45c-0.65,0-1.27,0.16-1.84,0.48c-0.57,0.32-1.03,0.75-1.38,1.28c-0.35,0.53-0.53,1.12-0.53,1.76
			c0,0.95,0.33,1.72,0.98,2.31c0.66,0.59,1.46,0.89,2.41,0.89c1.01,0,1.89-0.34,2.63-1.03c0.74-0.69,1.11-1.52,1.11-2.49
			c0-0.94-0.3-1.7-0.9-2.3C289.49,474.74,288.67,474.45,287.62,474.45z"/>
		<path d="M309.84,484.59c-1.28-0.46-2.9-0.69-4.88-0.69c-1.21,0-2.41,0.13-3.6,0.4c-1.19,0.26-2.25,0.57-3.18,0.92
			s-1.6,0.65-2.04,0.9l1.27,3.7c0.53-0.27,1.18-0.52,1.96-0.75c0.78-0.23,1.61-0.42,2.49-0.56c0.88-0.14,1.72-0.21,2.53-0.21
			c1.08,0,1.91,0.17,2.48,0.51c0.58,0.34,0.87,1.06,0.87,2.15v1.58c-0.86,0-1.79,0.04-2.78,0.12c-1,0.08-1.99,0.21-2.99,0.4
			c-0.99,0.19-1.91,0.46-2.74,0.81c-1.22,0.53-2.18,1.26-2.9,2.2c-0.71,0.94-1.07,2.06-1.07,3.37c0,1.31,0.29,2.46,0.86,3.45
			c0.57,0.99,1.37,1.76,2.4,2.31c1.03,0.55,2.22,0.83,3.58,0.83c1.37,0,2.56-0.22,3.57-0.67c1.01-0.45,1.8-0.93,2.38-1.44v1.81h5.56
			v-14.17c0-1.95-0.31-3.48-0.93-4.58C312.07,485.84,311.12,485.05,309.84,484.59z M305.78,501.96c-0.47,0.13-0.94,0.19-1.41,0.19
			c-0.91,0-1.65-0.25-2.23-0.74c-0.58-0.49-0.87-1.26-0.87-2.3c0-0.8,0.2-1.39,0.59-1.77c0.39-0.39,0.84-0.69,1.34-0.92
			c0.36-0.15,0.81-0.29,1.34-0.41c0.53-0.12,1.09-0.21,1.67-0.28c0.58-0.06,1.1-0.1,1.56-0.1v5.39c-0.13,0.15-0.37,0.32-0.73,0.49
			C306.66,501.68,306.25,501.83,305.78,501.96z"/>
		<rect x="319.36" y="474.41" width="5.89" height="31.28"/>
		<path d="M346.16,485.84c-0.8-0.66-1.7-1.14-2.71-1.44c-1.01-0.29-2.08-0.44-3.2-0.42c-2.21,0.01-4.08,0.5-5.6,1.45
			c-1.53,0.96-2.69,2.26-3.49,3.9c-0.8,1.64-1.2,3.5-1.2,5.58c0,3.47,0.88,6.18,2.64,8.14c1.76,1.96,4.29,2.94,7.59,2.94
			c1.1,0,2.18-0.1,3.22-0.3c1.05-0.2,1.98-0.46,2.81-0.79c0.83-0.33,1.48-0.68,1.95-1.07l-0.98-3.2c-0.35,0.18-0.85,0.36-1.5,0.53
			c-0.65,0.17-1.35,0.31-2.08,0.41c-0.73,0.1-1.41,0.15-2.02,0.15c-1.13,0-2.12-0.18-2.97-0.55c-0.85-0.37-1.53-0.97-2.02-1.81
			c-0.46-0.78-0.72-1.81-0.8-3.07h12.82c0.09-0.47,0.15-1.05,0.17-1.71c0.03-0.67,0.04-1.39,0.04-2.17
			c-0.01-1.57-0.26-2.89-0.74-3.98C347.59,487.37,346.96,486.5,346.16,485.84z M343.35,493.14h-7.5c0.08-0.77,0.2-1.45,0.36-2.01
			c0.35-1.19,0.86-2.02,1.52-2.51c0.66-0.49,1.43-0.73,2.32-0.73c0.91,0,1.62,0.22,2.12,0.66c0.5,0.44,0.84,1.06,1.01,1.85
			C343.36,491.19,343.41,492.1,343.35,493.14z"/>
		<path d="M367.52,496.56c-0.53-0.8-1.32-1.52-2.37-2.14c-1.05-0.62-2.34-1.25-3.88-1.88c-1.04-0.44-1.85-0.83-2.44-1.19
			c-0.59-0.35-0.87-0.89-0.86-1.63c0-0.56,0.29-1,0.86-1.3c0.57-0.3,1.48-0.45,2.72-0.45c0.68,0,1.35,0.07,2.01,0.22
			c0.66,0.15,1.25,0.34,1.78,0.57c0.53,0.23,0.91,0.45,1.16,0.65l0.63-4.22c-0.41-0.24-1.17-0.51-2.28-0.8
			c-1.11-0.29-2.45-0.43-4.03-0.43c-1.55,0-2.97,0.22-4.25,0.67c-1.28,0.44-2.3,1.11-3.06,1.99c-0.76,0.89-1.15,2-1.16,3.33
			c-0.01,1.13,0.2,2.12,0.64,2.96c0.44,0.84,1.12,1.59,2.02,2.24c0.91,0.66,2.05,1.26,3.44,1.81c0.77,0.31,1.47,0.61,2.1,0.89
			c0.63,0.29,1.13,0.6,1.49,0.93c0.37,0.33,0.55,0.73,0.55,1.17c0,0.65-0.28,1.15-0.83,1.47c-0.55,0.33-1.41,0.48-2.58,0.47
			c-0.92,0-1.82-0.11-2.69-0.34c-0.87-0.23-1.63-0.47-2.25-0.74c-0.63-0.27-1.05-0.49-1.25-0.65l-0.66,4.14
			c0.37,0.26,0.94,0.51,1.7,0.77c0.76,0.26,1.65,0.47,2.66,0.65c1.01,0.17,2.06,0.26,3.15,0.26c2.59,0,4.65-0.55,6.18-1.65
			c1.53-1.1,2.29-2.72,2.29-4.85C368.32,498.34,368.05,497.36,367.52,496.56z"/>
	</g>
	<g>
		<g>
			<g>
				<path class="st3" d="M339.39,129.02c0.04,0.44,0.07,0.89,0.12,1.33c0.5,4.28-0.9,7.69-4.6,10.03c-0.88,0.56-1.8,1.06-2.73,1.52
					c-2.45,1.22-4.93,2.4-7.39,3.6c-1.44,0.7-2.16,1.83-2.07,3.45c0.19,3.25,0.39,6.5,0.55,9.75c0.09,1.83,1.16,2.81,2.78,3.37
					c3.02,1.04,6.04,2.09,9.06,3.15c2.7,0.95,4.78,2.62,6.04,5.23c1.03,2.13,1.25,4.36,0.68,6.67c-0.13,0.51-0.27,1.01-0.44,1.5
					c-2.05,5.92-4.12,11.83-6.16,17.75c-0.7,2.01-1.75,3.76-3.44,5.11c-2.46,1.97-5.23,2.53-8.27,1.93
					c-0.64-0.13-1.27-0.29-1.89-0.5c-4.38-1.51-8.76-3.03-13.13-4.55c-1.13-0.39-2.17-0.87-2.72-2.05c-1.04-2.23,0.55-4.73,3.01-4.6
					c0.7,0.03,1.41,0.26,2.08,0.49c3.95,1.35,7.89,2.72,11.84,4.09c0.43,0.15,0.86,0.31,1.3,0.44c2.52,0.74,3.98,0.02,4.93-2.43
					c0.14-0.36,0.26-0.74,0.39-1.11c1.82-5.24,3.64-10.48,5.47-15.71c0.11-0.31,0.22-0.61,0.32-0.92c0.89-2.75,0.21-4.23-2.48-5.21
					c-2.64-0.96-5.3-1.85-7.95-2.78c-0.62-0.22-1.24-0.41-1.83-0.68c-3.71-1.66-5.85-4.48-6.15-8.57
					c-0.25-3.44-0.48-6.89-0.58-10.34c-0.12-4.07,1.6-7.21,5.24-9.13c2.6-1.37,5.27-2.59,7.9-3.88c0.47-0.23,0.95-0.43,1.4-0.69
					c2.34-1.33,2.91-2.97,1.75-5.39c-2.7-5.65-5.43-11.29-8.19-16.91c-1.16-2.36-2.91-2.96-5.35-1.83
					c-2.78,1.29-5.57,2.58-8.28,4.01c-4.06,2.15-8.64,1.59-12.24-1.83c-2.26-2.15-4.68-4.14-6.98-6.26
					c-2.97-2.72-3.83-6.1-2.88-9.97c0.14-0.57,0.35-1.12,0.54-1.68c0.87-2.53,1.75-5.05,2.63-7.58c0.17-0.49,0.36-0.99,0.46-1.49
					c0.39-1.89-0.25-3.18-1.96-4.01c-0.41-0.2-0.85-0.34-1.28-0.49c-5.55-1.93-11.09-3.86-16.64-5.78
					c-0.55-0.19-1.12-0.38-1.69-0.48c-1.52-0.26-2.7,0.27-3.45,1.63c-0.31,0.57-0.55,1.18-0.77,1.79c-0.96,2.71-1.93,5.41-2.83,8.13
					c-1.27,3.88-4.58,7.15-9.84,7.23c-2.93,0.04-5.85,0.29-8.77,0.48c-4.67,0.3-8.07-1.61-10.15-5.8c-1.31-2.63-2.56-5.28-3.85-7.92
					c-0.23-0.47-0.44-0.95-0.73-1.38c-1.15-1.69-2.69-2.14-4.6-1.38c-0.18,0.07-0.36,0.16-0.53,0.25
					c-5.52,2.67-11.04,5.34-16.56,8.03c-0.58,0.28-1.14,0.64-1.62,1.07c-0.89,0.8-1.24,1.84-0.92,3.01c0.21,0.75,0.47,1.49,0.8,2.19
					c1.2,2.54,2.38,5.08,3.67,7.57c2.36,4.58,1.19,9.03-1.91,12.22c-1.91,1.96-3.73,4.01-5.44,6.13c-3.3,4.08-7.86,4.79-11.93,3.3
					c-2.63-0.96-5.3-1.85-7.95-2.77c-0.43-0.15-0.86-0.32-1.3-0.43c-2.12-0.55-3.54,0.14-4.42,2.15c-0.18,0.42-0.31,0.86-0.46,1.29
					c-1.86,5.36-3.73,10.72-5.59,16.09c-0.17,0.49-0.37,0.98-0.49,1.49c-0.46,1.93,0.18,3.3,1.97,4.18
					c0.52,0.26,1.09,0.43,1.65,0.62c3.94,1.38,7.89,2.74,11.83,4.12c0.61,0.21,1.24,0.43,1.79,0.76c1.41,0.84,1.93,2.4,1.38,3.89
					c-0.52,1.4-1.87,2.24-3.4,2.07c-0.58-0.07-1.15-0.23-1.7-0.42c-4.32-1.49-8.63-2.99-12.94-4.5c-2.13-0.75-3.99-1.86-5.37-3.73
					c-1.86-2.53-2.39-5.3-1.69-8.33c0.13-0.57,0.31-1.13,0.5-1.69c2.01-5.8,4.04-11.58,6.03-17.38c0.88-2.56,2.28-4.68,4.65-6.07
					c2.77-1.62,5.68-1.75,8.68-0.73c2.78,0.94,5.55,1.92,8.32,2.88c0.49,0.17,0.98,0.36,1.49,0.47c1.3,0.29,2.45,0.05,3.37-0.99
					c2.24-2.54,4.5-5.06,6.74-7.6c1.03-1.17,1.05-2.47,0.4-3.83c-1.19-2.47-2.4-4.93-3.57-7.41c-0.44-0.94-0.85-1.91-1.19-2.89
					c-1.45-4.13-0.43-7.67,2.61-10.72c0.31-0.31,0.61-0.64,0.92-0.97c6.93-3.36,13.86-6.71,20.79-10.07
					c0.38-0.03,0.76-0.09,1.14-0.09c1.36,0.01,2.75-0.16,4.06,0.09c3.4,0.65,5.62,2.87,7.12,5.87c1.43,2.86,2.81,5.74,4.19,8.63
					c0.69,1.46,1.8,2.19,3.42,2.1c3.31-0.18,6.63-0.38,9.94-0.55c1.12-0.06,2.03-0.51,2.62-1.46c0.31-0.49,0.51-1.05,0.71-1.61
					c1.02-2.89,2.01-5.79,3.04-8.68c1.03-2.9,2.84-5.11,5.73-6.32c2.53-1.06,5.07-0.95,7.63-0.06c4.37,1.52,8.76,3,13.14,4.53
					c2.15,0.75,4.32,1.49,6.41,2.39c2.04,0.88,3.52,2.42,4.52,4.42c1.37,2.74,1.32,5.52,0.34,8.35c-1,2.9-2.02,5.79-3.01,8.69
					c-0.79,2.32-0.52,3.16,1.35,4.8c2.06,1.8,4.11,3.61,6.14,5.44c2.09,1.89,2.81,2.02,5.41,0.77c2.7-1.3,5.38-2.66,8.11-3.91
					c4.75-2.18,9.08-1.24,12.54,2.64c0.17,0.19,0.4,0.32,0.6,0.48C332.68,115.16,336.04,122.09,339.39,129.02z"/>
				<path class="st3" d="M291.72,138.14c5.38,11.37,6.14,22.21,2.6,33.35c-0.3,0.95-0.69,1.81-1.61,2.36
					c-1.19,0.7-2.37,0.74-3.5-0.03c-1.04-0.71-1.58-1.76-1.41-3.02c0.14-1.03,0.46-2.03,0.75-3.03c2.08-7.37,1.93-14.68-0.57-21.93
					c-3.4-9.89-9.88-17.11-19.31-21.49c-8.82-4.1-17.97-4.62-27.24-1.46c-9.9,3.37-16.99,9.91-21.56,19.25
					c-0.54,1.11-0.92,2.3-1.41,3.44c-0.39,0.92-0.97,1.67-1.95,2.08c-2.19,0.91-4.56-0.65-4.47-3.02c0.02-0.57,0.19-1.16,0.39-1.7
					c3.29-8.74,8.72-15.81,16.54-20.98c10.44-6.9,21.84-9.1,34-6.27c10.98,2.55,19.76,8.57,26.05,18.02
					C290.16,135.41,291.14,137.17,291.72,138.14z"/>
			</g>
		</g>
		<g>
			<path class="st4" d="M330.78,340.89c-0.65-0.13-1.43-0.15-2.11-0.16c-4.01-0.01-8.03-0.01-12.04-0.01l-5.43,0l-5.43,0h-2.47
				h-3.45c0,0-0.05-62.25-0.15-75.42c-0.02-2.7-0.32-5.64-0.98-9.53c-1.04-6.16-3.8-11.8-6.08-16.03
				c-5.1-9.44-10.23-18.86-15.35-28.29l-6.59-12.13c-0.26-0.48-0.51-0.96-0.8-1.5l-0.44-0.83l-2.17-4.12l4.58-0.88
				c0.25-0.05,0.49-0.1,0.72-0.16c0.63-0.14,1.35-0.31,2.17-0.35c0.16-0.01,0.32-0.01,0.48-0.01c3.06,0,5.78,1.4,8.1,4.16
				c1.8,2.15,3.68,4.5,5.17,7.12c5.55,9.71,10.07,17.83,14.21,25.56c3.9,7.27,6.8,14.01,8.87,20.59c1.91,6.08,2.99,11.82,3.32,17.55
				c0.22,3.77,0.22,7.58,0.22,11.25l0,0.61c0.01,8.78,0.01,17.55,0.01,26.33c0,6.57,0,13.15,0.01,19.72c0,0.78,0.02,1.78,0.16,2.69
				c0.24,1.53,1.41,2.67,2.91,2.84c0.19,0.02,0.37,0.03,0.55,0.03c1.56,0,2.81-0.79,3.27-2.05c0.22-0.61,0.33-1.47,0.34-2.63
				c0.02-10.08,0.02-20.15,0.02-30.23c0-7.22,0-14.44,0.01-21.66c0.01-6.37-0.47-12-1.46-17.2c-1.55-8.14-4.21-15.99-7.93-23.33
				c-4.69-9.25-9.54-18.22-15.37-28.86c-1.66-3.03-3.7-6.15-6.22-9.55c-1.66-2.23-3.55-4.31-5.63-6.18
				c-3.1-2.78-6.38-4.14-10.04-4.14c-1.46,0-3,0.22-4.58,0.67c-1,0.28-1.98,0.58-2.99,0.88l-1.5,0.45l-2.62,0.78l-1.36-2.38
				l-0.43-0.74c-0.29-0.51-0.57-0.99-0.83-1.47l-6.88-12.65l-5.29-9.74c-0.4-0.73-0.79-1.47-1.18-2.2c-0.9-1.69-1.84-3.44-2.81-5.09
				c-0.76-1.3-1.76-1.93-3.06-1.93c-0.27,0-0.55,0.03-0.84,0.08c-0.61,0.11-1.39,0.46-2.07,0.76c-2.3,1.02-18.8,8.13-18.8,8.13
				s-0.09-1.92-0.11-5.34c-0.01-1.91-0.71-2.95-2.51-3.71c-0.13-0.06-0.26-0.12-0.38-0.18h-1.52c-0.24,0.13-0.47,0.26-0.71,0.39
				c-1.31,0.71-1.89,1.55-2,2.9c-0.04,0.47-0.06,0.99-0.06,1.65c0,21.4,0,25.88,0,47.28c0,0.58,0.01,1.2,0.07,1.75
				c0.21,1.75,1.72,3.06,3.53,3.06c1.8-0.01,3.34-1.36,3.52-3.07c0.07-0.69,0.07-1.45,0.07-2.26v-0.19l0.01-5.79
				c0.01-7.87-0.08-16.02-0.03-24.02c0.02-3.96-0.78-3.59,3.88-5.96c2.28-1.16,12.82-5.59,15.53-6.73c0.37-0.15,0.79-0.01,0.99,0.34
				l1.17,2l0.2,0.32c0.16,0.26,0.29,0.47,0.4,0.68l9.56,17.59c11.53,21.2,23.06,42.4,34.58,63.62c3.89,7.17,5.79,14.11,5.8,21.22
				c0.03,23.42,0,75.5,0,75.5h-3.56h-2.48l-5.24,0l-5.24,0c-4.07,0-8.14,0-12.21,0.01c-0.92,0-1.57,0.05-2.11,0.16
				c-1.76,0.36-2.87,1.65-2.91,3.37c-0.04,1.82,1.04,3.2,2.81,3.61c0.63,0.14,1.52,0.14,2.24,0.14c12.74,0.01,25.47,0.01,38.21,0.01
				l26.65,0l0.4,0l0.36,0c0.34,0,0.7,0,1.01-0.04c1.83-0.21,3.16-1.57,3.24-3.31C333.76,342.67,332.71,341.28,330.78,340.89z"/>
			<path class="st4" d="M344.39,317.04c-0.54,0-1.14,0.12-1.76,0.36c-3.64,1.4-6.74,3.46-9.22,6.12c-1.56,1.67-1.6,3.8-0.1,5.29
				c0.7,0.7,1.53,1.06,2.4,1.06c0.93,0,1.87-0.41,2.71-1.19c2.29-2.11,4.6-3.64,7.09-4.67c1.02-0.43,1.68-1.1,2.13-2.17
				c0.06-0.15,0.13-0.3,0.21-0.43v-1.41c-0.05-0.1-0.1-0.2-0.14-0.3C346.96,317.93,345.85,317.04,344.39,317.04z"/>
			<path class="st4" d="M278.04,251.6c-0.56-1.47-1.84-2.31-3.49-2.31c-0.09,0-0.17,0-0.26,0.01c-0.83,0.04-1.66,0.54-2.83,1.31
				l-7.95,5.17c-18.54,12.06-37.08,24.11-55.63,36.15c-1.69,1.1-3.36,2.15-5.24,2.93c-3.06,1.28-6.14,1.93-9.15,1.93
				c-3.8,0-7.53-1.03-11.09-3.07c-3.77-2.16-6.73-5.39-9.34-10.18l-6.51-11.98c-7.32-13.46-14.64-26.92-21.94-40.39
				c-0.83-1.53-1.6-3.14-2.29-4.79c-3.53-8.43-1.18-18.64,5.7-24.82c2.66-2.39,5.7-3.9,8.05-4.95c7.82-3.49,15.63-6.98,23.45-10.47
				c6.44-2.87,12.88-5.74,19.32-8.62l0.26-0.12c0.69-0.31,1.34-0.59,1.75-0.9c1.28-0.95,1.72-1.98,1.47-3.44
				c-0.28-1.63-1.08-2.49-2.77-2.99c-0.23-0.07-0.47-0.1-0.71-0.1c-0.6,0-1.32,0.2-2.35,0.66l-8.34,3.72
				c-6.68,2.98-13.35,5.96-20.03,8.95c-1.85,0.83-3.71,1.63-5.58,2.44c-4.36,1.88-8.87,3.83-13.06,6.06
				c-10.62,5.64-16.03,14.73-16.1,27.02c-0.03,4.63,1.33,9.4,4.15,14.57c3.76,6.9,7.52,13.81,11.27,20.72
				c3.43,6.31,6.85,12.62,10.29,18.93c0.87,1.59,1.72,3.19,2.57,4.79c2.2,4.13,4.47,8.41,6.97,12.37
				c5.66,8.96,13.85,13.51,25.03,13.91c0.48-0.04,0.96-0.08,1.45-0.12c1.15-0.09,2.24-0.18,3.28-0.33c4.25-0.64,8.41-2.36,13.1-5.41
				l23.05-14.99l40.7-26.46l0.08-0.05c0.58-0.37,1.12-0.73,1.56-1.09C278.16,254.62,278.61,253.06,278.04,251.6z"/>
			<path class="st4" d="M265.58,309.91c-3.2-1.95-6.54-3.71-9.92-5.23c-0.48-0.21-0.97-0.32-1.46-0.32c-1.37,0-2.59,0.83-3.2,2.18
				c-0.81,1.8-0.09,3.69,1.8,4.72c0.55,0.29,1.11,0.56,1.67,0.82c0.6,0.28,1.2,0.57,1.78,0.88c5.86,3.09,13.3,7.56,18.87,14.73
				c0.28,0.36,0.61,0.73,0.99,1.09c0.71,0.69,1.55,1.06,2.44,1.06c0.46,0,0.93-0.1,1.39-0.29c1.53-0.64,2.26-1.81,2.25-3.56
				c0.01-0.75-0.37-1.55-1.2-2.61C276.87,318.15,271.69,313.62,265.58,309.91z"/>
			<path class="st4" d="M273.35,290.91c-0.72-0.57-1.48-0.69-1.99-0.69c-1.01,0-1.99,0.44-2.69,1.22c-1.26,1.4-1.21,3.52,0.13,4.93
				c1.3,1.39,2.61,2.77,3.92,4.15c1.31,1.39,2.63,2.77,3.94,4.17c0.73,0.77,1.51,1.09,2.7,1.1c1.39-0.02,2.35-0.57,3.03-1.78
				c0.76-1.35,0.73-2.48-0.11-3.69C279.86,296.84,276.86,293.68,273.35,290.91z"/>
			<path class="st4" d="M255.47,324.99c-1.87-0.35-3.78-0.56-5.79-0.79c0,0-0.01,0-0.01,0h-2.34c-0.57,0-1.15-0.02-1.72-0.03
				c-0.51-0.02-1.01-0.03-1.51-0.03c-0.61,0-1.09,0.02-1.52,0.08c-1.62,0.2-2.9,1.82-2.83,3.61c0.06,1.73,1.4,3.25,2.99,3.38
				c3.47,0.29,7.57,0.61,11.74,0.83c0.08,0,0.15,0.01,0.23,0.01c1.87,0,3.49-1.3,3.68-2.95
				C258.63,326.88,257.57,325.38,255.47,324.99z"/>
			<path class="st4" d="M216.79,219.41c-3.49,0-6.05,2.47-6.07,5.88c-0.01,1.68,0.61,3.24,1.74,4.38c1.13,1.14,2.67,1.77,4.33,1.77
				c1.66,0,3.19-0.64,4.34-1.79c1.15-1.16,1.78-2.7,1.77-4.34c-0.02-3.36-2.64-5.9-6.1-5.91H216.79z"/>
		</g>
	</g>
</g>
</svg>
