<?xml version="1.0" encoding="utf-8"?>
<!-- Generator: Adobe Illustrator 24.0.0, SVG Export Plug-In . SVG Version: 6.00 Build 0)  -->
<svg version="1.1" xmlns="http://www.w3.org/2000/svg" xmlns:xlink="http://www.w3.org/1999/xlink" x="0px" y="0px"
	 viewBox="0 0 512 512" style="enable-background:new 0 0 512 512;" xml:space="preserve">
<style type="text/css">
	.st0{fill:#9B9B9B;}
	.st1{fill:#FFBF31;}
	.st2{fill:none;}
	.st3{fill:#FFCC30;}
	.st4{fill:#FFFFFF;}
	.st5{fill:#1E1D1C;}
	.st6{fill:#FFCC2A;}
	.st7{fill:#1D1D1B;}
</style>
<g id="GUIAS">
</g>
<g id="Capa_2">
	<g>
		<path d="M33.83,375.21c-1.93-1.2-4.22-1.77-6.87-1.72c-2.58,0.05-4.9,0.59-6.94,1.63c-2.04,1.03-3.66,2.61-4.87,4.74
			c-1.2,2.13-1.84,4.85-1.9,8.17c-0.05,3,0.44,5.63,1.47,7.88c1.03,2.26,2.55,4,4.54,5.23s4.37,1.83,7.13,1.77
			c2.56-0.05,4.83-0.61,6.8-1.68c1.98-1.07,3.54-2.68,4.69-4.85c1.15-2.16,1.76-4.91,1.82-8.23c0.06-3.01-0.42-5.62-1.44-7.84
			C37.25,378.12,35.77,376.41,33.83,375.21z M31.65,395.93c-1.27,1.69-2.98,2.54-5.14,2.54c-1.56,0-2.87-0.46-3.92-1.37
			s-1.83-2.14-2.36-3.67c-0.53-1.54-0.79-3.26-0.79-5.16c0-2.48,0.34-4.47,1.01-5.97s1.57-2.58,2.69-3.26
			c1.12-0.67,2.35-1.01,3.69-1.01c1.5,0,2.75,0.44,3.74,1.31c1,0.87,1.74,2.06,2.24,3.56c0.5,1.5,0.75,3.19,0.75,5.08
			C33.55,391.59,32.92,394.24,31.65,395.93z"/>
		<path d="M50.44,405.25l-0.05-2.9c0.11,0.04,0.2,0.08,0.32,0.12c0.84,0.3,1.91,0.46,3.22,0.46c2.2,0,4.12-0.5,5.77-1.48
			c1.65-0.99,2.92-2.37,3.83-4.15c0.9-1.78,1.36-3.87,1.36-6.27c0-2.33-0.39-4.25-1.18-5.77c-0.79-1.52-1.84-2.65-3.14-3.39
			c-1.31-0.74-2.72-1.11-4.25-1.11c-1.29,0-2.37,0.17-3.24,0.5c-0.87,0.34-1.57,0.72-2.1,1.16c-0.37,0.3-0.66,0.57-0.92,0.82v-2.21
			h-5.53v31.17h5.91V405.25z M52.12,385.64c0.7-0.3,1.48-0.45,2.32-0.45c1.34,0,2.4,0.48,3.16,1.43c0.76,0.96,1.14,2.58,1.12,4.89
			c-0.01,1.58-0.24,2.91-0.67,4c-0.43,1.09-1.02,1.92-1.75,2.49c-0.74,0.57-1.58,0.85-2.54,0.85c-0.74,0-1.39-0.07-1.97-0.2
			s-1.02-0.36-1.35-0.67v-11.42C50.85,386.24,51.41,385.93,52.12,385.64z"/>
		<path d="M78.88,402.62c0.89-0.21,1.69-0.47,2.38-0.79c0.7-0.32,1.22-0.63,1.57-0.94l-0.78-3.32c-0.22,0.14-0.53,0.28-0.93,0.41
			c-0.4,0.13-0.82,0.24-1.26,0.32s-0.83,0.13-1.16,0.13c-0.66,0-1.16-0.09-1.51-0.26c-0.35-0.17-0.59-0.58-0.74-1.2
			s-0.21-1.62-0.21-3v-8.9h5.8v-4.05h-5.8v-4.92h-3.57c-0.18,0.48-0.36,0.95-0.52,1.42c-0.17,0.47-0.33,0.9-0.48,1.3
			c-0.15,0.4-0.29,0.75-0.42,1.05c-0.26,0.61-0.68,1.03-1.25,1.28c-0.58,0.25-1.34,0.5-2.3,0.78v3.16h2.62v11.4
			c0,1.55,0.21,2.8,0.63,3.74c0.42,0.94,1.06,1.63,1.92,2.07c0.86,0.43,1.95,0.65,3.27,0.65C77.08,402.93,77.99,402.82,78.88,402.62
			z"/>
		<path d="M89.6,377.92c1.02,0,1.9-0.35,2.65-1.04s1.11-1.53,1.11-2.51c0-0.94-0.3-1.72-0.9-2.32s-1.43-0.9-2.49-0.9
			c-0.66,0-1.28,0.16-1.85,0.48c-0.58,0.32-1.04,0.75-1.4,1.29c-0.36,0.54-0.53,1.13-0.53,1.77c0,0.96,0.33,1.73,0.99,2.33
			C87.84,377.62,88.64,377.92,89.6,377.92z"/>
		<rect x="86.94" y="381.04" width="5.91" height="21.58"/>
		<path d="M118.18,402.62v-13.59c0-0.71-0.04-1.36-0.09-1.97c0.5-0.38,1.1-0.74,1.81-1.06c0.78-0.36,1.54-0.53,2.28-0.53
			c0.85-0.03,1.51,0.1,1.97,0.38c0.46,0.28,0.78,0.74,0.95,1.4c0.17,0.65,0.26,1.54,0.26,2.65v12.74h5.93v-13.57
			c0-2.11-0.26-3.77-0.78-5c-0.52-1.23-1.28-2.09-2.29-2.6c-1.01-0.5-2.26-0.75-3.74-0.74c-1.12,0-2.19,0.16-3.2,0.47
			c-1.01,0.32-1.9,0.69-2.67,1.12c-0.61,0.34-1.11,0.67-1.49,0.96c-0.45-0.83-1.03-1.45-1.77-1.85c-0.96-0.52-2.18-0.76-3.66-0.72
			c-0.94,0.01-1.87,0.16-2.77,0.44c-0.9,0.28-1.74,0.62-2.51,1.02s-1.41,0.79-1.91,1.18l-0.1-2.31h-5.37v21.58h5.89v-15.55
			c0.65-0.53,1.36-0.93,2.15-1.2c0.79-0.27,1.47-0.41,2.04-0.41c0.84-0.03,1.49,0.1,1.95,0.39c0.46,0.28,0.78,0.75,0.96,1.41
			c0.18,0.65,0.27,1.54,0.27,2.65v12.72H118.18z"/>
		<rect x="137.19" y="381.04" width="5.91" height="21.58"/>
		<path d="M139.85,377.92c1.02,0,1.9-0.35,2.65-1.04s1.11-1.53,1.11-2.51c0-0.94-0.3-1.72-0.9-2.32s-1.43-0.9-2.49-0.9
			c-0.66,0-1.28,0.16-1.85,0.48c-0.58,0.32-1.04,0.75-1.4,1.29c-0.36,0.54-0.53,1.13-0.53,1.77c0,0.96,0.33,1.73,0.99,2.33
			C138.09,377.62,138.89,377.92,139.85,377.92z"/>
		<polygon points="147.12,401.05 147.94,402.62 165.09,402.62 165.09,398.43 155.09,398.43 156.27,396.74 165.65,382.84 
			164.98,381.02 148.56,381.02 148.54,385.17 157.76,385.17 156.64,386.86 		"/>
		<path d="M178.05,389.47c-1,0.08-2,0.21-3,0.41c-1,0.19-1.92,0.47-2.76,0.81c-1.23,0.53-2.2,1.27-2.92,2.21s-1.08,2.07-1.08,3.39
			s0.29,2.48,0.86,3.47s1.38,1.77,2.41,2.33s2.24,0.83,3.61,0.83c1.38,0,2.58-0.23,3.6-0.68s1.81-0.94,2.39-1.45v1.82h5.6v-14.27
			c0-1.96-0.31-3.5-0.94-4.61c-0.63-1.11-1.58-1.9-2.87-2.37c-1.29-0.46-2.92-0.7-4.91-0.7c-1.22,0-2.42,0.13-3.63,0.4
			c-1.2,0.27-2.27,0.57-3.2,0.92c-0.93,0.35-1.62,0.65-2.06,0.91l1.28,3.72c0.53-0.27,1.19-0.52,1.98-0.76s1.63-0.42,2.51-0.56
			c0.89-0.14,1.74-0.21,2.55-0.21c1.09,0,1.92,0.17,2.5,0.51s0.87,1.06,0.87,2.16v1.59C179.99,389.36,179.05,389.4,178.05,389.47z
			 M178.87,398.86c-0.47,0.13-0.95,0.19-1.42,0.19c-0.92,0-1.67-0.25-2.25-0.75c-0.58-0.5-0.87-1.27-0.87-2.32
			c0-0.8,0.2-1.4,0.59-1.78s0.84-0.7,1.35-0.93c0.36-0.16,0.81-0.29,1.35-0.42c0.54-0.12,1.1-0.22,1.68-0.28
			c0.58-0.06,1.1-0.1,1.57-0.1v5.43c-0.13,0.16-0.38,0.32-0.74,0.49S179.34,398.73,178.87,398.86z"/>
		<path d="M204.79,402.45c1.25-0.32,2.18-0.79,2.8-1.41l-0.87-3.62c-0.47,0.23-1.12,0.45-1.96,0.66c-0.84,0.21-1.75,0.31-2.73,0.31
			c-1.01,0-1.92-0.24-2.74-0.73c-0.82-0.49-1.47-1.24-1.94-2.27s-0.69-2.35-0.65-3.96c0.04-1.5,0.33-2.69,0.86-3.59
			c0.54-0.89,1.21-1.53,2.02-1.92s1.63-0.58,2.47-0.58c1.06,0,1.95,0.09,2.67,0.27c0.72,0.18,1.31,0.42,1.79,0.72l0.74-4.52
			c-0.35-0.25-1.04-0.49-2.06-0.72s-2.25-0.35-3.65-0.35c-2.44,0-4.46,0.5-6.04,1.5c-1.58,1-2.76,2.36-3.54,4.06
			s-1.16,3.62-1.16,5.74c0,2.07,0.38,3.92,1.12,5.56c0.75,1.64,1.87,2.94,3.35,3.89c1.49,0.95,3.35,1.42,5.58,1.42
			C202.22,402.93,203.54,402.77,204.79,402.45z"/>
		<path d="M214.43,377.92c1.02,0,1.9-0.35,2.65-1.04s1.11-1.53,1.11-2.51c0-0.94-0.3-1.72-0.9-2.32s-1.43-0.9-2.49-0.9
			c-0.66,0-1.28,0.16-1.85,0.48c-0.58,0.32-1.04,0.75-1.4,1.29c-0.36,0.54-0.53,1.13-0.53,1.77c0,0.96,0.33,1.73,0.99,2.33
			C212.67,377.62,213.48,377.92,214.43,377.92z"/>
		<rect x="211.78" y="381.04" width="5.91" height="21.58"/>
		<path d="M233.09,377.21c0.52-0.39,1.1-0.87,1.73-1.42c0.63-0.55,1.24-1.13,1.84-1.75c0.6-0.61,1.14-1.22,1.61-1.81
			c0.47-0.59,0.82-1.13,1.06-1.61l-3.86-3.06c-0.61,0.94-1.28,1.91-2.01,2.89c-0.73,0.98-1.47,1.92-2.22,2.81s-1.45,1.67-2.11,2.35
			l2.69,2.4C232.15,377.87,232.57,377.61,233.09,377.21z"/>
		<path d="M241.77,398.11c0.92-1.58,1.39-3.53,1.42-5.84c0.04-2.05-0.27-3.96-0.93-5.71c-0.66-1.75-1.74-3.16-3.26-4.22
			s-3.54-1.59-6.07-1.59c-2.03,0-3.84,0.41-5.44,1.22c-1.6,0.81-2.86,2.01-3.78,3.59c-0.92,1.58-1.41,3.52-1.44,5.82
			c-0.01,1.55,0.16,3.02,0.52,4.41c0.36,1.39,0.95,2.62,1.75,3.69c0.81,1.07,1.87,1.92,3.19,2.53c1.32,0.61,2.92,0.92,4.81,0.92
			c2.06,0,3.88-0.41,5.47-1.22S240.85,399.69,241.77,398.11z M236.05,397.07c-0.7,1.16-1.82,1.74-3.35,1.73
			c-1.05,0-1.88-0.33-2.51-0.99s-1.08-1.54-1.37-2.65c-0.28-1.11-0.43-2.32-0.43-3.63c0-2.16,0.35-3.81,1.05-4.95
			c0.7-1.14,1.82-1.71,3.37-1.7c1.03,0.01,1.86,0.34,2.49,0.99s1.08,1.51,1.37,2.58c0.28,1.07,0.43,2.26,0.43,3.57
			C237.1,394.22,236.75,395.91,236.05,397.07z"/>
		<path d="M260.3,386.37c0.44,0.67,0.66,1.85,0.66,3.53v12.72h5.93v-13.55c0-3.13-0.53-5.31-1.59-6.56
			c-1.06-1.25-2.71-1.84-4.96-1.79c-0.94,0.01-1.88,0.16-2.8,0.45c-0.92,0.28-1.77,0.64-2.53,1.06c-0.76,0.42-1.39,0.84-1.88,1.25
			l-0.1-2.42h-5.37v21.58h5.89v-15.55c0.43-0.35,0.89-0.64,1.39-0.88c0.5-0.24,0.99-0.42,1.47-0.54c0.48-0.12,0.92-0.19,1.31-0.2
			C259,385.39,259.86,385.7,260.3,386.37z"/>
		<path d="M290.06,402.41c0.88-0.34,1.6-0.74,2.15-1.18c0.4-0.32,0.7-0.6,0.97-0.85v2.24h5.43v-31.5h-5.85v8.28l0.05,1.89
			c-0.1-0.04-0.2-0.07-0.32-0.11c-0.86-0.28-1.96-0.43-3.29-0.43c-2.2,0-4.11,0.48-5.74,1.45c-1.63,0.97-2.9,2.34-3.8,4.12
			c-0.91,1.78-1.36,3.86-1.36,6.25c0,2.34,0.39,4.27,1.18,5.8c0.79,1.53,1.83,2.67,3.11,3.42c1.29,0.76,2.69,1.13,4.22,1.13
			C288.1,402.93,289.18,402.76,290.06,402.41z M285.55,396.98c-0.77-0.97-1.14-2.57-1.12-4.81c0-1.62,0.22-2.96,0.65-4.04
			c0.43-1.08,1.02-1.89,1.76-2.42s1.58-0.8,2.51-0.8c0.76,0,1.44,0.06,2.04,0.17c0.58,0.11,1.04,0.3,1.36,0.56v11.52
			c-0.41,0.29-0.98,0.58-1.7,0.86c-0.73,0.28-1.51,0.43-2.34,0.43C287.38,398.43,286.32,397.95,285.55,396.98z"/>
		<path d="M316.96,402.63c1.05-0.2,2-0.47,2.83-0.79c0.83-0.33,1.49-0.69,1.97-1.08l-0.99-3.22c-0.35,0.18-0.85,0.36-1.51,0.53
			c-0.66,0.17-1.36,0.31-2.09,0.42c-0.74,0.1-1.42,0.16-2.04,0.16c-1.14,0-2.14-0.18-3-0.55c-0.86-0.37-1.54-0.98-2.04-1.82
			c-0.46-0.78-0.72-1.82-0.8-3.09h12.91c0.09-0.48,0.15-1.05,0.17-1.73c0.03-0.67,0.04-1.4,0.04-2.19c-0.01-1.58-0.26-2.91-0.75-4
			c-0.48-1.09-1.13-1.97-1.93-2.64c-0.8-0.67-1.71-1.15-2.73-1.44c-1.02-0.3-2.09-0.44-3.22-0.43c-2.22,0.01-4.1,0.5-5.64,1.46
			c-1.54,0.96-2.71,2.27-3.52,3.93s-1.21,3.53-1.21,5.62c0,3.49,0.88,6.22,2.66,8.2s4.32,2.97,7.64,2.97
			C314.82,402.93,315.91,402.83,316.96,402.63z M311.26,385.42c0.67-0.49,1.44-0.74,2.34-0.74c0.92,0,1.63,0.22,2.13,0.67
			c0.5,0.45,0.84,1.07,1.02,1.86c0.17,0.79,0.23,1.72,0.17,2.76h-7.55c0.08-0.78,0.2-1.45,0.37-2.03
			C310.08,386.76,310.59,385.91,311.26,385.42z"/>
		<path d="M343.57,402.93c2.2,0,4.12-0.5,5.77-1.48c1.65-0.99,2.92-2.37,3.83-4.15c0.9-1.78,1.36-3.87,1.36-6.27
			c0-2.33-0.39-4.25-1.18-5.77c-0.79-1.52-1.83-2.65-3.14-3.39s-2.72-1.11-4.25-1.11c-1.29,0-2.37,0.17-3.24,0.5
			s-1.57,0.72-2.1,1.16c-0.37,0.3-0.66,0.57-0.92,0.82v-2.21h-5.53v31.17h5.91v-6.94l-0.05-2.9c0.11,0.04,0.2,0.08,0.32,0.12
			C341.19,402.78,342.26,402.93,343.57,402.93z M340.08,386.56c0.41-0.32,0.97-0.63,1.68-0.93c0.7-0.3,1.48-0.45,2.32-0.45
			c1.34,0,2.4,0.48,3.16,1.43c0.76,0.96,1.14,2.58,1.12,4.89c-0.01,1.58-0.24,2.91-0.67,4c-0.43,1.09-1.02,1.92-1.75,2.49
			c-0.74,0.57-1.58,0.85-2.54,0.85c-0.74,0-1.39-0.07-1.97-0.2s-1.02-0.36-1.35-0.67V386.56z"/>
		<path d="M369.74,386.2c0.76,0,1.33,0.06,1.71,0.17s0.65,0.23,0.83,0.35v-5.76c-0.16-0.09-0.4-0.16-0.73-0.19
			c-0.33-0.04-0.69-0.06-1.08-0.06c-0.94,0-1.84,0.18-2.69,0.53c-0.85,0.36-1.59,0.81-2.21,1.38c-0.53,0.48-0.91,0.98-1.15,1.5
			l-0.3-3.08H359v21.58h5.91v-14.43c0.21-0.2,0.44-0.41,0.73-0.64c0.46-0.37,1.02-0.68,1.7-0.95
			C368.01,386.33,368.81,386.2,369.74,386.2z"/>
		<path d="M379.74,402.01c1.32,0.61,2.92,0.92,4.81,0.92c2.05,0,3.88-0.41,5.47-1.22s2.84-2.01,3.76-3.6
			c0.92-1.58,1.39-3.53,1.42-5.84c0.04-2.05-0.27-3.96-0.93-5.71c-0.66-1.75-1.75-3.16-3.26-4.22c-1.51-1.06-3.53-1.59-6.07-1.59
			c-2.03,0-3.84,0.41-5.44,1.22c-1.6,0.81-2.86,2.01-3.78,3.59c-0.92,1.58-1.41,3.52-1.44,5.82c-0.01,1.55,0.16,3.02,0.52,4.41
			c0.36,1.39,0.95,2.62,1.75,3.69C377.36,400.55,378.42,401.39,379.74,402.01z M381.45,386.57c0.7-1.14,1.82-1.71,3.37-1.7
			c1.03,0.01,1.86,0.34,2.49,0.99c0.63,0.65,1.08,1.51,1.37,2.58c0.28,1.07,0.43,2.26,0.43,3.57c0,2.21-0.35,3.9-1.05,5.06
			s-1.82,1.74-3.35,1.73c-1.05,0-1.88-0.33-2.51-0.99c-0.63-0.66-1.08-1.54-1.37-2.65c-0.28-1.11-0.43-2.32-0.43-3.63
			C380.4,389.37,380.75,387.72,381.45,386.57z"/>
		<path d="M407.74,402.93c1.38,0,2.7-0.16,3.95-0.48s2.18-0.79,2.8-1.41l-0.87-3.62c-0.47,0.23-1.12,0.45-1.96,0.66
			c-0.84,0.21-1.75,0.31-2.73,0.31c-1.01,0-1.92-0.24-2.74-0.73c-0.82-0.49-1.47-1.24-1.94-2.27s-0.69-2.35-0.65-3.96
			c0.04-1.5,0.33-2.69,0.86-3.59c0.54-0.89,1.21-1.53,2.02-1.92s1.63-0.58,2.47-0.58c1.06,0,1.95,0.09,2.67,0.27
			c0.72,0.18,1.32,0.42,1.79,0.72l0.74-4.52c-0.35-0.25-1.04-0.49-2.07-0.72c-1.03-0.23-2.25-0.35-3.65-0.35
			c-2.44,0-4.46,0.5-6.04,1.5c-1.58,1-2.76,2.36-3.54,4.06s-1.16,3.62-1.16,5.74c0,2.07,0.38,3.92,1.12,5.56
			c0.75,1.64,1.87,2.94,3.35,3.89C403.64,402.45,405.5,402.93,407.74,402.93z"/>
		<path d="M427.57,402.93c1.11,0,2.19-0.1,3.25-0.3c1.05-0.2,2-0.47,2.83-0.79c0.83-0.33,1.49-0.69,1.97-1.08l-0.99-3.22
			c-0.35,0.18-0.85,0.36-1.51,0.53c-0.66,0.17-1.36,0.31-2.09,0.42c-0.74,0.1-1.42,0.16-2.04,0.16c-1.14,0-2.14-0.18-3-0.55
			c-0.86-0.37-1.54-0.98-2.04-1.82c-0.46-0.78-0.72-1.82-0.8-3.09h12.91c0.09-0.48,0.15-1.05,0.17-1.73
			c0.03-0.67,0.04-1.4,0.04-2.19c-0.01-1.58-0.26-2.91-0.75-4c-0.48-1.09-1.13-1.97-1.93-2.64c-0.8-0.67-1.71-1.15-2.73-1.44
			c-1.02-0.3-2.09-0.44-3.22-0.43c-2.22,0.01-4.1,0.5-5.64,1.46c-1.54,0.96-2.71,2.27-3.52,3.93s-1.21,3.53-1.21,5.62
			c0,3.49,0.88,6.22,2.66,8.2S424.25,402.93,427.57,402.93z M425.12,385.42c0.67-0.49,1.44-0.74,2.34-0.74
			c0.92,0,1.63,0.22,2.13,0.67c0.5,0.45,0.84,1.07,1.02,1.86c0.17,0.79,0.23,1.72,0.17,2.76h-7.55c0.08-0.78,0.2-1.45,0.37-2.03
			C423.94,386.76,424.45,385.91,425.12,385.42z"/>
		<path d="M447.38,402.93c2.61,0,4.69-0.56,6.22-1.67c1.54-1.11,2.31-2.74,2.31-4.88c0-1.16-0.27-2.15-0.8-2.96
			c-0.54-0.81-1.33-1.52-2.38-2.15c-1.05-0.63-2.36-1.26-3.91-1.89c-1.05-0.44-1.87-0.84-2.45-1.19s-0.88-0.9-0.86-1.64
			c0-0.57,0.29-1,0.86-1.31s1.49-0.46,2.74-0.46c0.69,0,1.36,0.07,2.03,0.22c0.67,0.15,1.26,0.34,1.79,0.57s0.92,0.45,1.16,0.66
			l0.64-4.25c-0.41-0.25-1.18-0.51-2.3-0.8c-1.12-0.29-2.47-0.44-4.06-0.44c-1.56,0-2.99,0.22-4.27,0.67
			c-1.29,0.45-2.31,1.11-3.08,2.01c-0.77,0.89-1.16,2.01-1.17,3.35c-0.01,1.14,0.2,2.13,0.65,2.98s1.12,1.6,2.04,2.26
			c0.91,0.66,2.07,1.27,3.46,1.82c0.78,0.31,1.48,0.61,2.11,0.9c0.63,0.29,1.13,0.6,1.5,0.94c0.37,0.34,0.55,0.73,0.55,1.18
			c0,0.66-0.28,1.15-0.83,1.48c-0.56,0.33-1.42,0.49-2.6,0.47c-0.93,0-1.83-0.11-2.71-0.34c-0.88-0.23-1.63-0.48-2.27-0.75
			c-0.63-0.27-1.05-0.49-1.26-0.66l-0.66,4.17c0.38,0.26,0.95,0.52,1.72,0.78c0.77,0.26,1.66,0.47,2.68,0.65
			C445.23,402.84,446.28,402.93,447.38,402.93z"/>
		<path d="M475.55,382.34c-1.51-1.06-3.53-1.59-6.07-1.59c-2.03,0-3.84,0.41-5.44,1.22c-1.6,0.81-2.86,2.01-3.78,3.59
			c-0.92,1.58-1.41,3.52-1.44,5.82c-0.01,1.55,0.16,3.02,0.52,4.41c0.36,1.39,0.95,2.62,1.75,3.69c0.81,1.07,1.87,1.92,3.19,2.53
			c1.32,0.61,2.92,0.92,4.81,0.92c2.05,0,3.88-0.41,5.47-1.22s2.84-2.01,3.76-3.6c0.92-1.58,1.39-3.53,1.42-5.84
			c0.04-2.05-0.27-3.96-0.93-5.71C478.15,384.8,477.06,383.4,475.55,382.34z M472.61,397.07c-0.7,1.16-1.82,1.74-3.35,1.73
			c-1.05,0-1.88-0.33-2.51-0.99c-0.63-0.66-1.08-1.54-1.37-2.65c-0.28-1.11-0.43-2.32-0.43-3.63c0-2.16,0.35-3.81,1.05-4.95
			c0.7-1.14,1.82-1.71,3.37-1.7c1.03,0.01,1.86,0.34,2.49,0.99c0.63,0.65,1.08,1.51,1.37,2.58c0.28,1.07,0.43,2.26,0.43,3.57
			C473.65,394.22,473.3,395.91,472.61,397.07z"/>
		<path d="M498.3,393.42c-0.54-0.81-1.33-1.52-2.38-2.15c-1.05-0.63-2.36-1.26-3.91-1.89c-1.05-0.44-1.87-0.84-2.45-1.19
			s-0.88-0.9-0.86-1.64c0-0.57,0.29-1,0.86-1.31s1.49-0.46,2.74-0.46c0.69,0,1.36,0.07,2.03,0.22c0.67,0.15,1.26,0.34,1.79,0.57
			s0.92,0.45,1.16,0.66l0.64-4.25c-0.41-0.25-1.18-0.51-2.3-0.8c-1.12-0.29-2.47-0.44-4.06-0.44c-1.56,0-2.99,0.22-4.27,0.67
			c-1.29,0.45-2.31,1.11-3.08,2.01c-0.77,0.89-1.16,2.01-1.17,3.35c-0.01,1.14,0.2,2.13,0.65,2.98s1.12,1.6,2.04,2.26
			c0.91,0.66,2.07,1.27,3.46,1.82c0.78,0.31,1.48,0.61,2.11,0.9c0.63,0.29,1.13,0.6,1.5,0.94c0.37,0.34,0.55,0.73,0.55,1.18
			c0,0.66-0.28,1.15-0.83,1.48c-0.56,0.33-1.42,0.49-2.6,0.47c-0.93,0-1.83-0.11-2.71-0.34c-0.88-0.23-1.63-0.48-2.27-0.75
			c-0.63-0.27-1.05-0.49-1.26-0.66l-0.66,4.17c0.38,0.26,0.95,0.52,1.72,0.78c0.77,0.26,1.66,0.47,2.68,0.65
			c1.01,0.17,2.07,0.26,3.17,0.26c2.61,0,4.69-0.56,6.22-1.67c1.54-1.11,2.31-2.74,2.31-4.88
			C499.11,395.21,498.84,394.23,498.3,393.42z"/>
		<polygon points="50.04,453.1 54.87,453.1 65.49,415.96 60.67,415.96 		"/>
		<polygon points="97.64,417.43 93.78,432.82 92.62,439.32 91.22,432.82 87.05,417.43 78.75,417.43 75.57,446.24 81.26,446.24 
			82.53,430.09 83.08,421.93 85.06,430.22 90.02,446.45 94.83,446.45 99.48,430.22 101.36,421.93 101.82,430.09 103.24,446.24 
			109.15,446.24 105.62,417.43 		"/>
		<path d="M126.41,440.91c-0.22,0.17-0.54,0.35-0.95,0.53c-0.41,0.19-0.87,0.35-1.36,0.47c-0.49,0.13-0.97,0.19-1.43,0.19
			c-0.76,0-1.39-0.11-1.87-0.33s-0.84-0.67-1.08-1.34c-0.23-0.67-0.35-1.69-0.35-3.04v-12.76h-5.89v12.68c0,1.36,0.08,2.6,0.25,3.72
			c0.17,1.12,0.49,2.1,0.97,2.93c0.48,0.83,1.18,1.46,2.1,1.91c0.92,0.45,2.14,0.67,3.64,0.67c0.74,0,1.52-0.1,2.35-0.29
			c0.83-0.19,1.62-0.46,2.38-0.79c0.71-0.31,1.3-0.66,1.81-1.04v0.8c0,0.57,0.14,0.93,0.42,1.08c0.28,0.16,0.67,0.23,1.17,0.23h3.76
			v-21.91h-5.91V440.91z"/>
		<path d="M153.43,426.24c-0.8-0.67-1.71-1.15-2.73-1.44c-1.02-0.3-2.09-0.44-3.22-0.43c-2.22,0.01-4.1,0.5-5.64,1.46
			s-2.71,2.27-3.52,3.93c-0.81,1.65-1.21,3.53-1.21,5.62c0,3.49,0.89,6.22,2.66,8.2c1.77,1.98,4.32,2.97,7.64,2.97
			c1.11,0,2.19-0.1,3.25-0.3c1.05-0.2,2-0.47,2.83-0.79c0.83-0.33,1.49-0.69,1.97-1.08l-0.99-3.22c-0.35,0.18-0.85,0.36-1.51,0.53
			c-0.66,0.17-1.36,0.31-2.09,0.42c-0.74,0.1-1.42,0.16-2.04,0.16c-1.14,0-2.14-0.18-3-0.55c-0.86-0.37-1.54-0.98-2.04-1.82
			c-0.46-0.78-0.72-1.82-0.8-3.09h12.91c0.09-0.48,0.15-1.05,0.17-1.73s0.04-1.4,0.04-2.19c-0.01-1.58-0.26-2.91-0.75-4
			C154.88,427.78,154.23,426.91,153.43,426.24z M150.6,433.6h-7.55c0.08-0.78,0.2-1.45,0.37-2.03c0.36-1.2,0.87-2.04,1.53-2.53
			c0.67-0.49,1.44-0.74,2.34-0.74c0.92,0,1.63,0.22,2.13,0.67c0.5,0.45,0.84,1.07,1.02,1.86
			C150.61,431.63,150.67,432.55,150.6,433.6z"/>
		<path d="M172.56,434.89c-1.05-0.63-2.36-1.26-3.91-1.89c-1.05-0.44-1.86-0.84-2.45-1.19c-0.59-0.36-0.88-0.9-0.86-1.64
			c0-0.57,0.29-1,0.86-1.31s1.49-0.46,2.74-0.46c0.68,0,1.36,0.07,2.03,0.22c0.67,0.15,1.26,0.34,1.79,0.57s0.92,0.45,1.16,0.66
			l0.64-4.25c-0.41-0.25-1.18-0.51-2.3-0.8c-1.12-0.29-2.47-0.44-4.06-0.44c-1.56,0-2.99,0.22-4.27,0.67
			c-1.29,0.45-2.31,1.11-3.08,2.01c-0.77,0.89-1.16,2.01-1.17,3.35c-0.01,1.14,0.2,2.13,0.65,2.98s1.12,1.6,2.04,2.26
			s2.06,1.27,3.46,1.82c0.78,0.31,1.48,0.61,2.11,0.9s1.13,0.6,1.5,0.94s0.55,0.73,0.55,1.18c0,0.66-0.28,1.15-0.83,1.48
			c-0.56,0.33-1.42,0.49-2.6,0.47c-0.93,0-1.84-0.11-2.71-0.34c-0.88-0.23-1.63-0.48-2.27-0.75s-1.05-0.49-1.26-0.66l-0.66,4.17
			c0.38,0.26,0.95,0.52,1.72,0.78c0.77,0.26,1.66,0.47,2.68,0.65c1.01,0.17,2.07,0.26,3.17,0.26c2.61,0,4.69-0.56,6.22-1.67
			c1.54-1.11,2.31-2.74,2.31-4.88c0-1.16-0.27-2.15-0.8-2.96C174.41,436.23,173.61,435.51,172.56,434.89z"/>
		<path d="M191.76,441.6c-0.4,0.13-0.82,0.24-1.26,0.32s-0.83,0.13-1.16,0.13c-0.66,0-1.16-0.09-1.51-0.26
			c-0.35-0.17-0.59-0.58-0.74-1.2s-0.21-1.62-0.21-3v-8.9h5.8v-4.05h-5.8v-4.92h-3.57c-0.18,0.48-0.36,0.95-0.52,1.42
			c-0.17,0.47-0.33,0.9-0.48,1.3c-0.15,0.4-0.29,0.75-0.42,1.05c-0.26,0.61-0.68,1.03-1.25,1.28c-0.58,0.25-1.34,0.5-2.3,0.78v3.16
			h2.62v11.4c0,1.55,0.21,2.8,0.63,3.74c0.42,0.94,1.06,1.63,1.92,2.07c0.86,0.43,1.95,0.65,3.27,0.65c0.93,0,1.84-0.1,2.73-0.31
			c0.89-0.21,1.69-0.47,2.38-0.79c0.7-0.32,1.22-0.63,1.57-0.94l-0.78-3.32C192.47,441.34,192.16,441.48,191.76,441.6z"/>
		<path d="M208.68,424.33c-0.94,0-1.84,0.18-2.69,0.53s-1.59,0.81-2.21,1.38c-0.53,0.48-0.91,0.98-1.15,1.5l-0.3-3.08h-5.12v21.58
			h5.91v-14.43c0.21-0.2,0.44-0.41,0.73-0.64c0.46-0.37,1.02-0.68,1.7-0.95c0.67-0.26,1.47-0.4,2.4-0.4c0.76,0,1.33,0.06,1.71,0.17
			c0.37,0.12,0.65,0.23,0.83,0.35v-5.76c-0.15-0.09-0.4-0.16-0.73-0.19C209.43,424.35,209.07,424.33,208.68,424.33z"/>
		<path d="M229.12,426.24c-0.8-0.67-1.71-1.15-2.73-1.44c-1.02-0.3-2.09-0.44-3.22-0.43c-2.22,0.01-4.1,0.5-5.64,1.46
			s-2.71,2.27-3.52,3.93c-0.81,1.65-1.21,3.53-1.21,5.62c0,3.49,0.89,6.22,2.66,8.2c1.77,1.98,4.32,2.97,7.64,2.97
			c1.11,0,2.19-0.1,3.25-0.3c1.05-0.2,2-0.47,2.83-0.79c0.83-0.33,1.49-0.69,1.97-1.08l-0.99-3.22c-0.35,0.18-0.85,0.36-1.51,0.53
			c-0.66,0.17-1.36,0.31-2.09,0.42c-0.74,0.1-1.42,0.16-2.04,0.16c-1.14,0-2.14-0.18-3-0.55c-0.86-0.37-1.54-0.98-2.04-1.82
			c-0.46-0.78-0.72-1.82-0.8-3.09h12.91c0.09-0.48,0.15-1.05,0.17-1.73s0.04-1.4,0.04-2.19c-0.01-1.58-0.26-2.91-0.75-4
			C230.56,427.78,229.92,426.91,229.12,426.24z M226.29,433.6h-7.55c0.08-0.78,0.2-1.45,0.37-2.03c0.36-1.2,0.87-2.04,1.53-2.53
			c0.67-0.49,1.44-0.74,2.34-0.74c0.92,0,1.63,0.22,2.13,0.67c0.5,0.45,0.84,1.07,1.02,1.86
			C226.3,431.63,226.35,432.55,226.29,433.6z"/>
		<path d="M251.68,425.96c-1.51-1.06-3.54-1.59-6.07-1.59c-2.03,0-3.84,0.41-5.44,1.22c-1.6,0.81-2.86,2.01-3.78,3.59
			c-0.92,1.58-1.41,3.52-1.44,5.82c-0.01,1.55,0.16,3.02,0.52,4.41c0.36,1.39,0.95,2.62,1.75,3.69c0.81,1.07,1.87,1.92,3.19,2.53
			c1.32,0.61,2.92,0.92,4.81,0.92c2.06,0,3.88-0.41,5.47-1.22s2.84-2.01,3.76-3.6c0.92-1.58,1.39-3.53,1.42-5.84
			c0.04-2.05-0.27-3.96-0.93-5.71C254.28,428.42,253.2,427.02,251.68,425.96z M248.74,440.69c-0.7,1.16-1.82,1.74-3.35,1.73
			c-1.05,0-1.88-0.33-2.51-0.99s-1.08-1.54-1.37-2.65c-0.28-1.11-0.43-2.32-0.43-3.63c0-2.16,0.35-3.81,1.05-4.95
			c0.7-1.14,1.82-1.71,3.37-1.7c1.03,0.01,1.86,0.34,2.49,0.99s1.08,1.51,1.37,2.58c0.28,1.07,0.43,2.26,0.43,3.57
			C249.78,437.84,249.44,439.53,248.74,440.69z"/>
		<path d="M272.05,434.89c-1.05-0.63-2.36-1.26-3.91-1.89c-1.05-0.44-1.87-0.84-2.45-1.19s-0.88-0.9-0.86-1.64
			c0-0.57,0.29-1,0.86-1.31s1.49-0.46,2.74-0.46c0.69,0,1.36,0.07,2.03,0.22c0.67,0.15,1.26,0.34,1.79,0.57s0.92,0.45,1.16,0.66
			l0.64-4.25c-0.41-0.25-1.18-0.51-2.3-0.8c-1.12-0.29-2.47-0.44-4.06-0.44c-1.56,0-2.99,0.22-4.27,0.67
			c-1.29,0.45-2.31,1.11-3.08,2.01c-0.77,0.89-1.16,2.01-1.17,3.35c-0.01,1.14,0.2,2.13,0.65,2.98s1.12,1.6,2.04,2.26
			c0.91,0.66,2.07,1.27,3.46,1.82c0.78,0.31,1.48,0.61,2.11,0.9c0.63,0.29,1.13,0.6,1.5,0.94c0.37,0.34,0.55,0.73,0.55,1.18
			c0,0.66-0.28,1.15-0.83,1.48c-0.56,0.33-1.42,0.49-2.6,0.47c-0.93,0-1.83-0.11-2.71-0.34c-0.88-0.23-1.63-0.48-2.27-0.75
			c-0.63-0.27-1.05-0.49-1.26-0.66l-0.66,4.17c0.38,0.26,0.95,0.52,1.72,0.78c0.77,0.26,1.66,0.47,2.68,0.65
			c1.01,0.17,2.07,0.26,3.17,0.26c2.61,0,4.69-0.56,6.22-1.67c1.54-1.11,2.31-2.74,2.31-4.88c0-1.16-0.27-2.15-0.8-2.96
			C273.9,436.23,273.1,435.51,272.05,434.89z"/>
		<path d="M301.72,426.24c-0.8-0.67-1.71-1.15-2.73-1.44c-1.02-0.3-2.09-0.44-3.22-0.43c-2.22,0.01-4.1,0.5-5.64,1.46
			c-1.54,0.96-2.71,2.27-3.52,3.93s-1.21,3.53-1.21,5.62c0,3.49,0.88,6.22,2.66,8.2s4.32,2.97,7.64,2.97c1.11,0,2.19-0.1,3.25-0.3
			c1.05-0.2,2-0.47,2.83-0.79c0.83-0.33,1.49-0.69,1.97-1.08l-0.99-3.22c-0.35,0.18-0.85,0.36-1.51,0.53
			c-0.66,0.17-1.36,0.31-2.09,0.42c-0.74,0.1-1.42,0.16-2.04,0.16c-1.14,0-2.14-0.18-3-0.55c-0.86-0.37-1.54-0.98-2.04-1.82
			c-0.46-0.78-0.72-1.82-0.8-3.09h12.91c0.09-0.48,0.15-1.05,0.17-1.73c0.03-0.67,0.04-1.4,0.04-2.19c-0.01-1.58-0.26-2.91-0.75-4
			C303.17,427.78,302.52,426.91,301.72,426.24z M298.89,433.6h-7.55c0.08-0.78,0.2-1.45,0.37-2.03c0.35-1.2,0.87-2.04,1.53-2.53
			c0.67-0.49,1.44-0.74,2.34-0.74c0.92,0,1.63,0.22,2.13,0.67c0.5,0.45,0.84,1.07,1.02,1.86
			C298.9,431.63,298.96,432.55,298.89,433.6z"/>
		<path d="M321.83,424.33c-0.94,0.01-1.88,0.16-2.8,0.45c-0.92,0.28-1.77,0.64-2.53,1.06s-1.39,0.84-1.88,1.25l-0.1-2.42h-5.37
			v21.58h5.89v-15.55c0.43-0.35,0.89-0.64,1.39-0.88c0.5-0.24,0.99-0.42,1.47-0.54c0.48-0.12,0.92-0.19,1.31-0.2
			c1.28-0.05,2.14,0.26,2.58,0.93c0.44,0.67,0.66,1.85,0.66,3.53v12.72h5.93v-13.55c0-3.13-0.53-5.31-1.59-6.56
			C325.73,424.88,324.07,424.28,321.83,424.33z"/>
		<path d="M357.24,418.1c-1.59-0.65-3.5-0.98-5.72-0.98c-1.37,0-2.68,0.05-3.94,0.16c-1.25,0.1-2.51,0.16-3.78,0.16h-2.46v28.81
			h6.09v-8.94c0.34,0,0.76,0.01,1.27,0.02s1.17,0.02,1.99,0.02c3.74,0,6.59-0.9,8.56-2.71c1.97-1.81,2.96-4.36,2.96-7.66
			c0-2.37-0.43-4.27-1.29-5.72C360.06,419.8,358.83,418.75,357.24,418.1z M355.47,430.59c-0.51,0.87-1.2,1.47-2.06,1.82
			c-0.86,0.35-1.81,0.52-2.84,0.52c-0.56,0-1.1-0.01-1.62-0.04c-0.52-0.03-1.03-0.07-1.52-0.14v-11.11
			c0.45-0.09,0.95-0.15,1.49-0.19c0.54-0.04,1.06-0.06,1.55-0.08c1.93-0.07,3.37,0.39,4.32,1.36c0.96,0.97,1.43,2.37,1.43,4.21
			C356.24,428.51,355.98,429.73,355.47,430.59z"/>
		<rect x="366.39" y="414.73" width="5.93" height="31.5"/>
		<path d="M391.67,424.99c-1.29-0.46-2.92-0.7-4.91-0.7c-1.21,0-2.42,0.13-3.63,0.4c-1.2,0.27-2.27,0.57-3.2,0.92
			c-0.93,0.35-1.62,0.65-2.06,0.91l1.28,3.72c0.53-0.27,1.19-0.52,1.98-0.76c0.79-0.23,1.62-0.42,2.51-0.56
			c0.89-0.14,1.74-0.21,2.55-0.21c1.09,0,1.92,0.17,2.5,0.51s0.87,1.06,0.87,2.16v1.59c-0.87,0-1.8,0.04-2.8,0.12
			c-1,0.08-2,0.21-3,0.41c-1,0.19-1.92,0.47-2.76,0.81c-1.23,0.53-2.2,1.27-2.92,2.21c-0.72,0.94-1.08,2.07-1.08,3.39
			s0.29,2.48,0.86,3.47c0.57,1,1.38,1.77,2.41,2.33s2.24,0.83,3.61,0.83c1.38,0,2.58-0.23,3.6-0.68s1.81-0.94,2.39-1.45v1.82h5.6
			v-14.27c0-1.96-0.31-3.5-0.94-4.61S392.95,425.45,391.67,424.99z M387.57,442.48c-0.47,0.13-0.95,0.19-1.42,0.19
			c-0.92,0-1.67-0.25-2.25-0.75c-0.58-0.5-0.87-1.27-0.87-2.32c0-0.8,0.2-1.4,0.59-1.78c0.39-0.39,0.84-0.7,1.35-0.93
			c0.36-0.16,0.81-0.29,1.35-0.42c0.54-0.12,1.1-0.22,1.68-0.28c0.58-0.06,1.11-0.1,1.57-0.1v5.43c-0.13,0.16-0.38,0.32-0.74,0.49
			C388.46,442.2,388.05,442.35,387.57,442.48z"/>
		<path d="M413.97,424.33c-0.94,0.01-1.88,0.16-2.8,0.45c-0.92,0.28-1.77,0.64-2.53,1.06s-1.39,0.84-1.88,1.25l-0.1-2.42h-5.37
			v21.58h5.89v-15.55c0.43-0.35,0.89-0.64,1.39-0.88c0.5-0.24,0.99-0.42,1.47-0.54c0.48-0.12,0.92-0.19,1.31-0.2
			c1.28-0.05,2.14,0.26,2.58,0.93c0.44,0.67,0.66,1.85,0.66,3.53v12.72h5.93v-13.55c0-3.13-0.53-5.31-1.59-6.56
			C417.87,424.88,416.22,424.28,413.97,424.33z"/>
		<path d="M437.85,441.6c-0.4,0.13-0.82,0.24-1.26,0.32s-0.83,0.13-1.16,0.13c-0.66,0-1.16-0.09-1.51-0.26s-0.59-0.58-0.74-1.2
			c-0.14-0.63-0.21-1.62-0.21-3v-8.9h5.8v-4.05h-5.8v-4.92h-3.57c-0.18,0.48-0.36,0.95-0.52,1.42c-0.17,0.47-0.33,0.9-0.48,1.3
			c-0.15,0.4-0.29,0.75-0.42,1.05c-0.26,0.61-0.67,1.03-1.25,1.28s-1.34,0.5-2.3,0.78v3.16h2.62v11.4c0,1.55,0.21,2.8,0.63,3.74
			c0.42,0.94,1.06,1.63,1.92,2.07c0.86,0.43,1.95,0.65,3.27,0.65c0.93,0,1.84-0.1,2.73-0.31s1.69-0.47,2.38-0.79
			s1.22-0.63,1.57-0.94l-0.78-3.32C438.57,441.34,438.25,441.48,437.85,441.6z"/>
		<path d="M456.88,424.99c-1.29-0.46-2.92-0.7-4.91-0.7c-1.21,0-2.42,0.13-3.63,0.4c-1.2,0.27-2.27,0.57-3.2,0.92
			c-0.93,0.35-1.62,0.65-2.06,0.91l1.28,3.72c0.53-0.27,1.19-0.52,1.98-0.76c0.79-0.23,1.62-0.42,2.51-0.56
			c0.89-0.14,1.74-0.21,2.55-0.21c1.09,0,1.92,0.17,2.5,0.51s0.87,1.06,0.87,2.16v1.59c-0.87,0-1.8,0.04-2.8,0.12
			c-1,0.08-2,0.21-3,0.41c-1,0.19-1.92,0.47-2.76,0.81c-1.23,0.53-2.2,1.27-2.92,2.21c-0.72,0.94-1.08,2.07-1.08,3.39
			s0.29,2.48,0.86,3.47c0.57,1,1.38,1.77,2.41,2.33s2.24,0.83,3.61,0.83c1.38,0,2.58-0.23,3.6-0.68s1.81-0.94,2.39-1.45v1.82h5.6
			v-14.27c0-1.96-0.31-3.5-0.94-4.61S458.17,425.45,456.88,424.99z M452.79,442.48c-0.47,0.13-0.95,0.19-1.42,0.19
			c-0.92,0-1.67-0.25-2.25-0.75c-0.58-0.5-0.87-1.27-0.87-2.32c0-0.8,0.2-1.4,0.59-1.78c0.39-0.39,0.84-0.7,1.35-0.93
			c0.36-0.16,0.81-0.29,1.35-0.42c0.54-0.12,1.1-0.22,1.68-0.28c0.58-0.06,1.11-0.1,1.57-0.1v5.43c-0.13,0.16-0.38,0.32-0.74,0.49
			C453.68,442.2,453.26,442.35,452.79,442.48z"/>
	</g>
	<g>
		<g>
			<path d="M373.53,82.65c-2.19-8.45-5.49-16.26-9.85-23.73c1.94-3.25,3.88-6.49,5.73-9.59c-9.36-9.36-18.67-18.67-28.04-28.05
				c-3.09,1.84-6.33,3.78-9.37,5.59c-4.07-1.94-7.87-3.96-11.83-5.6c-3.95-1.64-8.05-2.91-12.21-4.39
				c-0.9-3.54-1.83-7.17-2.74-10.76h-39.54c-0.95,3.74-1.87,7.38-2.8,11.02c-8.43,2.19-16.25,5.49-23.72,9.85
				c-3.29-1.96-6.58-3.92-9.63-5.74c-9.47,9.45-18.73,18.69-28.06,28.01c1.86,3.11,3.79,6.35,5.76,9.64
				c-4.38,7.49-7.69,15.38-9.87,23.74c-3.77,0.97-7.4,1.9-11.02,2.83v39.51c3.72,0.95,7.36,1.89,10.86,2.78
				c0.53,1.33,1.24,5.91,1.24,7.13c1.28-0.7,2.35-4.47,4.16-4.47c0.04,0,0.08,0.01,0.12,0.01c1.05-1.41,2.53-2.52,4.43-3.08
				c1.14-1.89,2.38-3.7,3.84-5.4c1.07-1.26,2.32-2.32,3.56-3.41c0.45-0.39,0.91-0.78,1.35-1.19c0.1-0.09,2.02-2.15,0.9-0.7
				c0.75-0.98,1.59-1.81,2.48-2.51c0.05-1.55,0.41-3.09,1.11-4.45c-0.16,0.07-0.32,0.13-0.49,0.21c-1.48-4.07-0.08-17.12,2.64-25.15
				c4.85-14.34,13.5-25.82,25.99-34.36c24.24-16.57,57.32-14.75,79.62,4.31c23.22,19.85,29.88,51.87,17.11,78.74
				c-13.46,28.31-42.2,39.89-64.57,37.55c1.07-2.25,1.94-4.49,2.64-6.73c-1.55,1.1-3.4,1.79-5.4,1.88
				c-0.15,0.38-0.33,0.76-0.54,1.14c-1.25,2.27-2.96,4.04-4.77,5.82c-1.44,2.51-2.88,4.99-4.83,7.25c-0.5,0.58-1.03,1.1-1.59,1.61
				c-0.44,0.82-1.03,1.57-1.79,2.18c-1.35,1.08-2.85,1.95-4.21,2.96c0.35-0.18-1.18,1.35-1.39,1.55c-0.67,0.62-1.4,1.16-2.17,1.63
				c0.1,0.9,0.17,1.81,0.21,2.71c2.09-0.52,4.01-0.37,6.09,0.51c0.93,3.64,1.86,7.26,2.77,10.79h39.54
				c0.96-3.76,1.88-7.4,2.81-11.02c8.48-2.16,16.28-5.5,23.73-9.84c3.27,1.95,6.51,3.88,9.59,5.72
				c9.37-9.37,18.68-18.68,28.05-28.05c-1.84-3.08-3.78-6.33-5.73-9.59c4.43-7.5,7.67-15.42,9.88-23.73
				c3.81-0.97,7.44-1.89,10.99-2.8V85.45C380.81,84.5,377.16,83.57,373.53,82.65z M376.33,118.53c-3.19,0.81-6.33,1.62-9.69,2.47
				c-2.23,10.92-6.46,21.09-12.67,30.44c1.75,2.93,3.42,5.73,4.93,8.26c-6.37,6.37-12.56,12.56-18.95,18.95
				c-2.47-1.46-5.27-3.12-8.28-4.89c-9.29,6.14-19.44,10.42-30.44,12.63c-0.84,3.3-1.65,6.44-2.47,9.68h-26.6
				c-0.58-2.33-1.11-4.74-1.8-7.1c-0.29-1.02-0.14-2.3-1.42-2.94c2.22-2.3,4.42-4.57,6.71-6.94c25.34,2.66,47.2-4.9,64.65-23.71
				c13.93-15.02,20.42-33.14,19.48-53.6c-1.84-40.08-35.12-71.42-75.18-70.96c-14.38,0.17-27.64,4.19-39.68,12.04
				c-11.97,7.8-21.05,18.22-27.03,31.2c-6.01,13.04-7.6,27.66-5.69,41.21c-2.54,2.65-4.41,4.96-6.61,7.25
				c-2.99-1.78-7.61-2.7-11.01-4.15V91.96c3.19-0.82,6.33-1.62,9.69-2.48c2.22-10.93,6.45-21.1,12.67-30.45
				c-1.74-2.93-3.41-5.72-4.94-8.28c6.36-6.36,12.55-12.55,18.94-18.94c2.49,1.47,5.29,3.12,8.31,4.9
				c9.27-6.14,19.41-10.43,30.41-12.61c0.84-3.31,1.65-6.45,2.48-9.69h26.59c0.79,3.05,1.59,6.19,2.48,9.64
				c10.8,2.23,21,6.39,30.42,12.68c2.86-1.7,5.66-3.35,8.4-4.98c1.81,1.14,15.3,14.4,19.01,18.69c-1.63,2.77-3.31,5.63-4.85,8.25
				c2.61,5.11,5.42,9.87,7.53,14.93c2.1,5.05,3.5,10.4,5.31,15.94c2.84,0.73,6.05,1.56,9.28,2.4V118.53z"/>
			<path d="M277.36,88.68c5.46,0,10.77,0,16.32,0c0-5.52,0-10.89,0-16.51c5.61,0,10.99,0,16.51,0c0-2.79,0-5.35,0-7.86
				c2.02-0.54,18.21-0.72,24.53-0.31c0.47,1.95,0.67,51.02,0.23,57.43c-1.94,0.46-51.49,0.65-57.43,0.22
				C277.09,119.76,276.94,93.75,277.36,88.68z M326.66,113.42c0-13.86,0-27.48,0-41.1c-2.76,0-5.37,0-7.97,0c0,13.78,0,27.4,0,41.1
				C321.38,113.42,323.93,113.42,326.66,113.42z M310.14,113.42c0.4-6.27,0.24-30.88-0.23-32.99c-1.25,0-2.53-0.03-3.8,0.01
				c-1.34,0.04-2.7-0.2-3.99,0.19c-0.39,6.16-0.23,30.77,0.22,32.79C304.88,113.42,307.43,113.42,310.14,113.42z M293.66,97.01
				c-2.86-0.02-5.48-0.19-8.06,0.08c-0.35,4.76-0.23,14.37,0.2,16.36c2.59,0.02,5.2,0.19,7.86-0.09
				C293.66,107.87,293.66,102.58,293.66,97.01z"/>
			<path d="M238.15,89.91c-2.58-0.83-5.01-1.61-7.42-2.39c3.67-15.63,19.51-32.37,36.96-37.15c0.8,2.47,1.61,4.95,2.46,7.57
				C254.4,63.59,243.8,74.23,238.15,89.91z"/>
			<path d="M326.02,146.69c-2.13-2.06-3.97-3.85-5.95-5.76c1.66-1.89,3.27-3.74,5.02-5.73c2.14,1.62,4.25,3.21,6.61,4.99
				C329.75,142.42,327.91,144.53,326.02,146.69z"/>
			<path d="M277.83,56.13c-0.44-2.87-0.83-5.38-1.26-8.17c3.01-0.26,5.78-0.5,8.73-0.75c0,2.89,0,5.5,0,8.27
				C282.88,55.7,280.45,55.91,277.83,56.13z"/>
			<path d="M294.41,162.52c-0.45-2.81-0.85-5.32-1.3-8.11c2.46-0.59,4.81-1.15,7.39-1.77c0.86,2.62,1.67,5.09,2.58,7.87
				C300.11,161.19,297.33,161.84,294.41,162.52z"/>
			<path d="M311.29,157.02c-1.28-2.57-2.42-4.85-3.64-7.29c2.14-1.28,4.18-2.51,6.37-3.82c1.8,1.98,3.23,4.18,4.7,6.48
				C316.55,154.4,314.01,155.58,311.29,157.02z"/>
		</g>
		<g>
			<path class="st1" d="M280.61,170.98c6.67-13.96,6.06-27.66-0.18-41.44c-0.96,0.17-1.45,1.04-2.07,1.66
				c-7.63,7.59-15.24,15.21-22.84,22.82c-1.72,1.72-3.62,3.12-5.9,4.06c-4.69,1.94-11.08,0.58-14.92-4.05
				c-3.48-4.2-4.1-10.22-1.28-14.95c0.91-1.53,2.13-2.93,3.39-4.2c7.51-7.59,15.08-15.12,22.63-22.67c0.59-0.59,1.14-1.23,1.8-1.95
				c-13.89-6.35-24.96-6.57-39.74-0.93c-3.39,1.29-7.99,4.26-11.45,7.16c-5.43,4.54-9,10.38-11.99,16.79
				c-0.39,0.83-0.69,1.54-0.91,2.11c-3.5,9.22-3.6,18.76-0.7,28.38c-0.14,0.54-0.25,0.95-0.4,1.49c-0.43,0.4-0.82,0.76-1.23,1.11
				c-5.18,4.41-10.36,8.81-15.53,13.23c-13.74,11.75-27.51,23.48-41.21,35.28c-7.69,6.62-10.92,14.98-9.36,25.11
				c1.62,10.59,10.41,21.03,24.14,22.2c9.05,0.77,16.71-2.52,22.68-9.45c5.45-6.33,10.86-12.69,16.29-19.04
				c9.78-11.46,19.56-22.92,29.35-34.38c1.55-1.81,3.14-3.6,4.68-5.37c0.37,0.09,0.69,0.16,0.97,0.23
				c9.54,2.3,19.55,2.02,28.91-0.93C268.06,189.38,276.88,179.51,280.61,170.98z M227.11,185.55c-1.13-0.41-2.25-0.84-3.38-1.25
				c-0.07-0.03-0.17,0-0.43,0c-0.22,0.2-0.56,0.45-0.82,0.76c-13.52,15.84-27.03,31.7-40.55,47.55c-3.97,4.65-7.97,9.27-11.89,13.96
				c-3.98,4.75-8.92,7.5-15.2,7.49c-7.24-0.01-14.12-4.59-16.79-11.28c-2.97-7.44-1.66-14.2,3.76-20.05
				c1.8-1.95,3.95-3.58,5.97-5.32c8.83-7.55,17.68-15.08,26.52-22.62c10.35-8.83,20.69-17.65,31.03-26.48
				c0.32-0.28,0.63-0.58,1.08-1c-6.27-15.55-4.88-29.76,6.6-42.33c8.72-9.55,23.39-13.09,32.55-10.8c-0.47,0.54-0.85,1.05-1.3,1.49
				c-4.62,4.63-9.27,9.24-13.87,13.89c-3.33,3.37-5.63,7.3-6.61,12.02c-2.06,9.98,3.87,21.33,14.79,24.64
				c8.47,2.56,15.81,0.32,22.07-5.63c4.68-4.44,9.17-9.1,13.72-13.68c0.6-0.61,1.08-1.34,1.83-2.3c0.67,1.51,0.82,2.55,0.88,3.63
				c1.03,18.73-11.47,35.18-29.41,38.88C240.66,188.54,233.82,187.97,227.11,185.55z"/>
			<path class="st1" d="M169.61,233.31c0.03,6.75-5.49,12.4-12.19,12.47c-6.87,0.08-12.57-5.49-12.6-12.33
				c-0.03-6.86,5.59-12.49,12.45-12.47C164.01,221.01,169.58,226.57,169.61,233.31z M157,237.5c2.23,0.12,4.18-1.61,4.33-3.84
				c0.15-2.24-1.54-4.2-3.77-4.39c-2.34-0.19-4.38,1.61-4.46,3.96C153.02,235.47,154.76,237.38,157,237.5z"/>
			<path class="st1" d="M171.23,214c1.84-1.82,3.66-3.62,5.55-5.49c1.57,1.75,3.37,3.76,5.07,5.67c-1.53,1.53-3.39,3.4-5.31,5.32
				C174.8,217.69,173.02,215.85,171.23,214z"/>
			<path class="st1" d="M188.45,196.77c1.7,1.81,3.5,3.71,5.2,5.52c-1.68,1.66-3.5,3.45-5.47,5.4c-1.89-1.4-3.55-3.56-5.44-5.24
				C184.71,200.48,186.57,198.64,188.45,196.77z"/>
			<path class="st1" d="M199.99,195.97c-1.78-1.77-3.63-3.62-5.46-5.45c1.72-1.78,3.42-3.54,5.05-5.23
				c1.97,1.91,3.86,3.72,5.63,5.44C203.43,192.52,201.69,194.26,199.99,195.97z"/>
		</g>
	</g>
	<g>
		<polygon class="st0" points="66.77,476.54 62.3,490.46 61.26,494.47 60.22,490.46 55.47,476.54 52.09,476.54 49.82,497.95 
			52.12,497.95 53.39,484.64 53.94,478.3 55.84,484.64 60.63,498.16 61.92,498.16 66.48,484.64 68.21,478.3 68.84,484.64 
			70.34,497.95 72.73,497.95 69.96,476.54 		"/>
		<path class="st0" d="M87.09,494.73c-0.3,0.23-0.69,0.46-1.17,0.69c-0.49,0.23-1.01,0.42-1.58,0.58s-1.12,0.23-1.66,0.23
			c-0.84,0-1.49-0.12-1.97-0.36c-0.48-0.24-0.82-0.71-1.03-1.4c-0.21-0.69-0.31-1.71-0.31-3.05v-9.51h-2.33v9.43
			c0,1.02,0.06,1.95,0.17,2.78s0.32,1.56,0.64,2.17c0.32,0.61,0.79,1.08,1.41,1.41s1.45,0.5,2.48,0.5c0.63,0,1.29-0.08,1.97-0.25
			s1.34-0.4,1.97-0.68c0.62-0.28,1.18-0.6,1.67-0.95v0.88c0,0.41,0.1,0.67,0.31,0.79s0.5,0.17,0.87,0.17h0.92V481.9h-2.36V494.73z"
			/>
		<path class="st0" d="M104.88,483.32c-0.5-0.53-1.1-0.94-1.8-1.22c-0.7-0.28-1.47-0.42-2.33-0.4c-1.54,0.01-2.84,0.37-3.91,1.09
			c-1.07,0.72-1.88,1.7-2.44,2.94c-0.56,1.24-0.84,2.67-0.84,4.27c0,2.57,0.6,4.57,1.8,6.02c1.2,1.45,2.93,2.17,5.17,2.17
			c0.66,0,1.35-0.06,2.05-0.19c0.71-0.12,1.36-0.3,1.95-0.52s1.07-0.48,1.41-0.76l-0.49-1.53c-0.28,0.18-0.67,0.37-1.16,0.56
			c-0.49,0.19-1.02,0.34-1.59,0.47c-0.56,0.12-1.09,0.19-1.58,0.19c-0.99,0-1.87-0.18-2.65-0.55s-1.4-0.97-1.86-1.79
			c-0.46-0.83-0.72-1.93-0.76-3.3c-0.01-0.2,0-0.38,0-0.58h10.52c0.06-0.34,0.09-0.7,0.1-1.1c0.01-0.4,0.01-0.85,0.01-1.35
			c-0.02-0.91-0.17-1.74-0.45-2.49C105.78,484.49,105.38,483.85,104.88,483.32z M95.96,488.59c0.09-0.8,0.24-1.51,0.46-2.1
			c0.41-1.09,0.98-1.88,1.71-2.37c0.73-0.49,1.56-0.74,2.48-0.74c0.97,0,1.73,0.23,2.29,0.69c0.56,0.46,0.94,1.08,1.16,1.87
			s0.3,1.67,0.24,2.65H95.96z"/>
		<path class="st0" d="M117.48,489.93c-0.81-0.42-1.63-0.81-2.46-1.17c-0.85-0.37-1.58-0.77-2.2-1.22
			c-0.62-0.45-0.92-1.09-0.92-1.92c0.02-0.63,0.32-1.16,0.91-1.57s1.46-0.62,2.61-0.62c0.52,0,1.02,0.04,1.51,0.13
			c0.48,0.09,0.92,0.2,1.29,0.33c0.38,0.13,0.65,0.27,0.84,0.4l0.4-1.79c-0.29-0.16-0.81-0.34-1.57-0.54
			c-0.76-0.2-1.61-0.29-2.55-0.27c-1.01,0-1.94,0.14-2.78,0.43c-0.85,0.29-1.53,0.73-2.04,1.33s-0.78,1.35-0.8,2.28
			c-0.01,0.87,0.2,1.63,0.64,2.25c0.44,0.63,1.04,1.18,1.82,1.65s1.66,0.91,2.67,1.31c0.45,0.18,0.93,0.4,1.43,0.65
			c0.5,0.25,0.93,0.56,1.29,0.94c0.36,0.37,0.53,0.85,0.53,1.41c0,0.82-0.33,1.43-0.99,1.85s-1.5,0.63-2.53,0.63
			c-0.64-0.01-1.28-0.08-1.91-0.22c-0.63-0.13-1.19-0.29-1.67-0.48c-0.49-0.18-0.83-0.35-1.03-0.49l-0.37,1.79
			c0.31,0.2,0.73,0.39,1.28,0.56s1.15,0.31,1.81,0.42c0.66,0.11,1.34,0.17,2.02,0.17c1.7,0,3.06-0.38,4.07-1.15
			c1.01-0.76,1.52-1.85,1.52-3.26c0-0.92-0.27-1.69-0.8-2.3S118.29,490.35,117.48,489.93z"/>
		<path class="st0" d="M131.72,495.86c-0.35,0.12-0.73,0.22-1.13,0.3c-0.4,0.08-0.77,0.12-1.1,0.12c-0.53,0-0.95-0.07-1.26-0.2
			c-0.31-0.13-0.54-0.44-0.67-0.93c-0.13-0.48-0.2-1.26-0.2-2.33v-9.14h4.99v-1.79h-4.99v-3.66h-1.41c-0.1,0.32-0.19,0.69-0.27,1.12
			s-0.16,0.83-0.23,1.21c-0.07,0.38-0.14,0.65-0.19,0.81c-0.12,0.33-0.43,0.54-0.93,0.64c-0.49,0.1-1,0.22-1.52,0.37v1.3h2.22v10.46
			c0,1.14,0.17,2,0.5,2.58c0.34,0.58,0.78,0.96,1.34,1.16c0.56,0.2,1.16,0.29,1.82,0.29c0.49,0,1.01-0.06,1.56-0.19
			s1.07-0.3,1.55-0.5c0.48-0.2,0.86-0.41,1.12-0.63l-0.4-1.35C132.33,495.62,132.07,495.74,131.72,495.86z"/>
		<path class="st0" d="M143.3,481.7c-0.74,0-1.46,0.15-2.16,0.46c-0.7,0.31-1.31,0.66-1.82,1.05c-0.42,0.33-0.72,0.61-0.9,0.85
			l-0.14-2.13h-2.02v16.03h2.36v-12.33c0.23-0.23,0.52-0.47,0.89-0.74c0.44-0.31,0.94-0.58,1.51-0.81c0.57-0.23,1.18-0.34,1.84-0.34
			c0.6,0,1.04,0.04,1.32,0.12c0.28,0.08,0.5,0.15,0.64,0.23v-2.22c-0.14-0.06-0.34-0.1-0.6-0.13
			C143.97,481.71,143.66,481.7,143.3,481.7z"/>
		<path class="st0" d="M157.83,483.32c-0.5-0.53-1.1-0.94-1.8-1.22c-0.7-0.28-1.47-0.42-2.33-0.4c-1.54,0.01-2.84,0.37-3.91,1.09
			c-1.07,0.72-1.88,1.7-2.44,2.94c-0.56,1.24-0.84,2.67-0.84,4.27c0,2.57,0.6,4.57,1.8,6.02c1.2,1.45,2.93,2.17,5.17,2.17
			c0.66,0,1.35-0.06,2.05-0.19c0.71-0.12,1.36-0.3,1.95-0.52s1.07-0.48,1.41-0.76l-0.49-1.53c-0.28,0.18-0.67,0.37-1.16,0.56
			c-0.49,0.19-1.02,0.34-1.59,0.47c-0.56,0.12-1.09,0.19-1.58,0.19c-0.99,0-1.87-0.18-2.65-0.55s-1.4-0.97-1.86-1.79
			c-0.46-0.83-0.72-1.93-0.76-3.3c-0.01-0.2,0-0.38,0-0.58h10.52c0.06-0.34,0.09-0.7,0.1-1.1c0.01-0.4,0.01-0.85,0.01-1.35
			c-0.02-0.91-0.17-1.74-0.45-2.49C158.73,484.49,158.34,483.85,157.83,483.32z M148.91,488.59c0.09-0.8,0.24-1.51,0.46-2.1
			c0.41-1.09,0.98-1.88,1.71-2.37c0.73-0.49,1.56-0.74,2.48-0.74c0.97,0,1.73,0.23,2.29,0.69c0.56,0.46,0.94,1.08,1.16,1.87
			s0.3,1.67,0.24,2.65H148.91z"/>
		<path class="st0" d="M173.82,482.86c-1.03-0.78-2.39-1.17-4.06-1.17c-1.35,0-2.58,0.31-3.67,0.92c-1.09,0.61-1.96,1.51-2.61,2.69
			c-0.65,1.18-0.99,2.62-1.02,4.32c-0.01,1.13,0.11,2.21,0.36,3.24c0.25,1.03,0.65,1.94,1.21,2.74c0.56,0.8,1.28,1.43,2.18,1.89
			c0.89,0.46,1.98,0.69,3.26,0.69c1.38,0,2.62-0.31,3.7-0.94c1.09-0.63,1.94-1.54,2.57-2.74s0.96-2.65,0.99-4.36
			c0.02-1.51-0.2-2.9-0.67-4.19C175.6,484.67,174.85,483.64,173.82,482.86z M173.08,494.79c-0.84,1.16-2.03,1.73-3.55,1.72
			c-1.09-0.02-1.97-0.35-2.66-0.98c-0.69-0.63-1.19-1.47-1.52-2.5s-0.49-2.16-0.49-3.38c0.02-2.01,0.46-3.56,1.32-4.66
			c0.86-1.1,2.04-1.63,3.55-1.6c1.07,0.01,1.94,0.31,2.62,0.91c0.68,0.6,1.19,1.4,1.51,2.4s0.49,2.12,0.48,3.35
			C174.34,492.06,173.92,493.63,173.08,494.79z"/>
		<path class="st0" d="M187.64,489.93c-0.81-0.42-1.63-0.81-2.46-1.17c-0.85-0.37-1.58-0.77-2.2-1.22
			c-0.62-0.45-0.92-1.09-0.92-1.92c0.02-0.63,0.32-1.16,0.91-1.57s1.46-0.62,2.61-0.62c0.52,0,1.02,0.04,1.51,0.13
			c0.48,0.09,0.92,0.2,1.29,0.33c0.38,0.13,0.65,0.27,0.84,0.4l0.4-1.79c-0.29-0.16-0.81-0.34-1.57-0.54
			c-0.76-0.2-1.61-0.29-2.55-0.27c-1.01,0-1.94,0.14-2.78,0.43c-0.85,0.29-1.53,0.73-2.04,1.33s-0.78,1.35-0.8,2.28
			c-0.01,0.87,0.2,1.63,0.64,2.25c0.44,0.63,1.04,1.18,1.82,1.65s1.66,0.91,2.67,1.31c0.45,0.18,0.93,0.4,1.43,0.65
			c0.5,0.25,0.93,0.56,1.29,0.94c0.36,0.37,0.53,0.85,0.53,1.41c0,0.82-0.33,1.43-0.99,1.85s-1.5,0.63-2.53,0.63
			c-0.64-0.01-1.28-0.08-1.91-0.22c-0.63-0.13-1.19-0.29-1.67-0.48c-0.49-0.18-0.83-0.35-1.03-0.49l-0.37,1.79
			c0.31,0.2,0.73,0.39,1.28,0.56s1.15,0.31,1.81,0.42c0.66,0.11,1.34,0.17,2.02,0.17c1.7,0,3.06-0.38,4.07-1.15
			c1.01-0.76,1.52-1.85,1.52-3.26c0-0.92-0.27-1.69-0.8-2.3S188.45,490.35,187.64,489.93z"/>
		<path class="st0" d="M208.36,496.01c-0.71,0.26-1.53,0.39-2.45,0.39c-0.91,0-1.76-0.25-2.53-0.74c-0.77-0.49-1.39-1.23-1.85-2.22
			c-0.46-0.99-0.67-2.23-0.63-3.73c0.04-1.4,0.3-2.56,0.8-3.48c0.49-0.92,1.13-1.6,1.9-2.05c0.77-0.45,1.59-0.67,2.46-0.67
			c0.75,0,1.44,0.07,2.08,0.22c0.63,0.14,1.15,0.36,1.56,0.65l0.4-1.87c-0.29-0.19-0.78-0.38-1.46-0.55s-1.51-0.26-2.46-0.26
			c-1.62,0-3,0.37-4.13,1.11c-1.13,0.74-1.98,1.75-2.57,3.03s-0.87,2.72-0.86,4.34c0,1.53,0.27,2.89,0.81,4.1s1.32,2.16,2.36,2.86
			c1.03,0.7,2.28,1.05,3.75,1.05c1.03,0,1.98-0.14,2.85-0.42s1.55-0.65,2.05-1.11l-0.49-1.36
			C209.59,495.51,209.07,495.75,208.36,496.01z"/>
		<path class="st0" d="M224.29,482.86c-1.03-0.78-2.39-1.17-4.06-1.17c-1.35,0-2.58,0.31-3.67,0.92c-1.09,0.61-1.96,1.51-2.61,2.69
			c-0.65,1.18-0.99,2.62-1.02,4.32c-0.01,1.13,0.11,2.21,0.36,3.24c0.25,1.03,0.65,1.94,1.21,2.74c0.56,0.8,1.28,1.43,2.18,1.89
			c0.89,0.46,1.98,0.69,3.26,0.69c1.38,0,2.62-0.31,3.7-0.94c1.09-0.63,1.94-1.54,2.57-2.74s0.96-2.65,0.99-4.36
			c0.02-1.51-0.2-2.9-0.67-4.19C226.07,484.67,225.32,483.64,224.29,482.86z M223.55,494.79c-0.84,1.16-2.03,1.73-3.55,1.72
			c-1.09-0.02-1.97-0.35-2.66-0.98c-0.69-0.63-1.19-1.47-1.52-2.5s-0.49-2.16-0.49-3.38c0.02-2.01,0.46-3.56,1.32-4.66
			c0.86-1.1,2.04-1.63,3.55-1.6c1.07,0.01,1.94,0.31,2.62,0.91c0.68,0.6,1.19,1.4,1.51,2.4s0.49,2.12,0.48,3.35
			C224.81,492.06,224.39,493.63,223.55,494.79z"/>
		<path class="st0" d="M239.46,481.67c-0.78,0.02-1.55,0.16-2.31,0.42c-0.76,0.26-1.45,0.57-2.08,0.92
			c-0.63,0.35-1.14,0.67-1.52,0.96v-2.05h-2.1v16.03h2.36v-12.37c0.4-0.32,0.87-0.62,1.41-0.92c0.54-0.3,1.09-0.54,1.66-0.73
			c0.57-0.19,1.1-0.29,1.6-0.3c1.38-0.06,2.3,0.26,2.75,0.96c0.45,0.7,0.68,1.84,0.68,3.42v9.95h2.36v-9.92
			c0-2.36-0.37-4.02-1.1-4.98C242.45,482.1,241.21,481.64,239.46,481.67z"/>
		<path class="st0" d="M263.17,482.1c-0.82-0.29-1.78-0.43-2.88-0.43c-0.87,0-1.7,0.11-2.51,0.32c-0.81,0.22-1.5,0.45-2.08,0.71
			c-0.58,0.26-0.96,0.45-1.15,0.58l0.58,1.67c0.28-0.2,0.67-0.41,1.18-0.62c0.51-0.21,1.06-0.39,1.66-0.53
			c0.6-0.14,1.17-0.21,1.71-0.21c1.26,0,2.2,0.21,2.82,0.62c0.62,0.41,0.93,1.23,0.93,2.46v1.67c-0.56,0-1.2,0.03-1.94,0.09
			c-0.73,0.06-1.48,0.16-2.24,0.3c-0.76,0.14-1.45,0.33-2.08,0.57c-1.12,0.41-1.98,0.99-2.57,1.72c-0.59,0.74-0.89,1.63-0.89,2.69
			c0,0.93,0.21,1.73,0.63,2.4c0.42,0.67,0.99,1.18,1.73,1.54s1.57,0.53,2.52,0.53c1.15,0,2.17-0.19,3.05-0.58
			c0.86-0.38,1.51-0.76,1.94-1.16v1.5h2.19v-11.18c0-1.34-0.23-2.39-0.68-3.13C264.63,482.9,264,482.39,263.17,482.1z M261.2,496.15
			c-0.59,0.18-1.23,0.27-1.91,0.27c-1.15,0-1.98-0.27-2.49-0.81c-0.51-0.54-0.76-1.23-0.76-2.07c0-0.72,0.21-1.32,0.62-1.79
			c0.41-0.47,1.02-0.86,1.83-1.15c0.45-0.18,0.99-0.33,1.62-0.44c0.63-0.11,1.25-0.19,1.85-0.24c0.61-0.05,1.1-0.07,1.48-0.07v5.18
			c-0.12,0.12-0.37,0.29-0.75,0.5C262.29,495.77,261.79,495.97,261.2,496.15z"/>
		<path class="st0" d="M279.06,481.67c-0.78,0.02-1.55,0.16-2.31,0.42s-1.45,0.57-2.08,0.92c-0.63,0.35-1.14,0.67-1.52,0.96v-2.05
			h-2.1v16.03h2.36v-12.37c0.4-0.32,0.87-0.62,1.41-0.92c0.54-0.3,1.09-0.54,1.66-0.73c0.57-0.19,1.1-0.29,1.6-0.3
			c1.38-0.06,2.3,0.26,2.75,0.96c0.45,0.7,0.68,1.84,0.68,3.42v9.95h2.36v-9.92c0-2.36-0.37-4.02-1.1-4.98
			C282.05,482.1,280.81,481.64,279.06,481.67z"/>
		<path class="st0" d="M293.97,478.37c0.37-0.3,0.76-0.65,1.17-1.04c0.42-0.39,0.83-0.79,1.24-1.2c0.41-0.41,0.78-0.8,1.12-1.18
			c0.34-0.38,0.6-0.71,0.79-0.99l-1.7-1.47c-0.48,0.67-0.98,1.32-1.5,1.95c-0.52,0.62-1.05,1.24-1.59,1.85
			c-0.54,0.6-1.1,1.21-1.67,1.83l1.21,0.95C293.29,478.91,293.6,478.68,293.97,478.37z"/>
		<path class="st0" d="M297.25,482.1c-0.82-0.29-1.78-0.43-2.88-0.43c-0.87,0-1.7,0.11-2.51,0.32c-0.81,0.22-1.5,0.45-2.08,0.71
			c-0.58,0.26-0.96,0.45-1.15,0.58l0.58,1.67c0.28-0.2,0.67-0.41,1.18-0.62c0.51-0.21,1.06-0.39,1.66-0.53
			c0.6-0.14,1.17-0.21,1.71-0.21c1.26,0,2.2,0.21,2.82,0.62c0.62,0.41,0.93,1.23,0.93,2.46v1.67c-0.56,0-1.2,0.03-1.94,0.09
			c-0.73,0.06-1.48,0.16-2.24,0.3c-0.76,0.14-1.45,0.33-2.08,0.57c-1.12,0.41-1.98,0.99-2.57,1.72c-0.59,0.74-0.89,1.63-0.89,2.69
			c0,0.93,0.21,1.73,0.63,2.4c0.42,0.67,0.99,1.18,1.73,1.54s1.57,0.53,2.51,0.53c1.15,0,2.17-0.19,3.05-0.58
			c0.86-0.38,1.51-0.76,1.94-1.16v1.5h2.19v-11.18c0-1.34-0.23-2.39-0.68-3.13C298.71,482.9,298.07,482.39,297.25,482.1z
			 M295.27,496.15c-0.59,0.18-1.23,0.27-1.91,0.27c-1.15,0-1.98-0.27-2.49-0.81c-0.51-0.54-0.76-1.23-0.76-2.07
			c0-0.72,0.21-1.32,0.62-1.79s1.02-0.86,1.83-1.15c0.45-0.18,0.99-0.33,1.62-0.44c0.63-0.11,1.25-0.19,1.85-0.24
			c0.61-0.05,1.1-0.07,1.48-0.07v5.18c-0.12,0.12-0.37,0.29-0.75,0.5C296.36,495.77,295.86,495.97,295.27,496.15z"/>
		<rect x="305.09" y="474.52" class="st0" width="2.36" height="23.44"/>
		<path class="st0" d="M314.26,475.01c-0.28,0-0.55,0.08-0.81,0.23c-0.26,0.15-0.48,0.37-0.66,0.64c-0.17,0.27-0.26,0.59-0.26,0.94
			c0,0.5,0.15,0.89,0.45,1.17c0.3,0.28,0.66,0.42,1.07,0.42c0.45,0,0.85-0.17,1.2-0.5c0.35-0.33,0.53-0.77,0.53-1.32
			c0-0.45-0.12-0.83-0.37-1.13C315.16,475.16,314.78,475.01,314.26,475.01z"/>
		<rect x="313.02" y="481.93" class="st0" width="2.33" height="16.03"/>
		<path class="st0" d="M327.62,489.93c-0.81-0.42-1.63-0.81-2.46-1.17c-0.85-0.37-1.58-0.77-2.2-1.22
			c-0.62-0.45-0.93-1.09-0.92-1.92c0.02-0.63,0.32-1.16,0.91-1.57s1.46-0.62,2.61-0.62c0.52,0,1.02,0.04,1.51,0.13
			s0.92,0.2,1.29,0.33c0.37,0.13,0.65,0.27,0.84,0.4l0.4-1.79c-0.29-0.16-0.81-0.34-1.57-0.54c-0.76-0.2-1.61-0.29-2.55-0.27
			c-1.01,0-1.94,0.14-2.78,0.43c-0.85,0.29-1.53,0.73-2.04,1.33s-0.78,1.35-0.8,2.28c-0.01,0.87,0.2,1.63,0.64,2.25
			c0.44,0.63,1.04,1.18,1.82,1.65s1.67,0.91,2.67,1.31c0.45,0.18,0.93,0.4,1.43,0.65c0.5,0.25,0.93,0.56,1.29,0.94
			c0.35,0.37,0.53,0.85,0.53,1.41c0,0.82-0.33,1.43-0.99,1.85s-1.5,0.63-2.53,0.63c-0.64-0.01-1.28-0.08-1.91-0.22
			c-0.63-0.13-1.19-0.29-1.67-0.48s-0.83-0.35-1.03-0.49l-0.38,1.79c0.31,0.2,0.73,0.39,1.28,0.56s1.15,0.31,1.81,0.42
			s1.34,0.17,2.02,0.17c1.7,0,3.06-0.38,4.07-1.15s1.52-1.85,1.52-3.26c0-0.92-0.27-1.69-0.8-2.3S328.43,490.35,327.62,489.93z"/>
		<path class="st0" d="M335.91,475.01c-0.28,0-0.55,0.08-0.81,0.23c-0.26,0.15-0.48,0.37-0.66,0.64c-0.17,0.27-0.26,0.59-0.26,0.94
			c0,0.5,0.15,0.89,0.45,1.17c0.3,0.28,0.66,0.42,1.07,0.42c0.45,0,0.85-0.17,1.2-0.5c0.35-0.33,0.53-0.77,0.53-1.32
			c0-0.45-0.12-0.83-0.37-1.13C336.81,475.16,336.43,475.01,335.91,475.01z"/>
		<rect x="334.67" y="481.93" class="st0" width="2.33" height="16.03"/>
		<path class="st0" d="M349.27,489.93c-0.81-0.42-1.63-0.81-2.46-1.17c-0.85-0.37-1.58-0.77-2.2-1.22
			c-0.62-0.45-0.93-1.09-0.92-1.92c0.02-0.63,0.32-1.16,0.91-1.57s1.46-0.62,2.61-0.62c0.52,0,1.02,0.04,1.51,0.13
			s0.92,0.2,1.29,0.33c0.37,0.13,0.65,0.27,0.84,0.4l0.4-1.79c-0.29-0.16-0.81-0.34-1.57-0.54c-0.76-0.2-1.61-0.29-2.55-0.27
			c-1.01,0-1.94,0.14-2.78,0.43c-0.85,0.29-1.53,0.73-2.04,1.33s-0.78,1.35-0.8,2.28c-0.01,0.87,0.2,1.63,0.64,2.25
			c0.44,0.63,1.04,1.18,1.82,1.65s1.67,0.91,2.67,1.31c0.45,0.18,0.93,0.4,1.43,0.65c0.5,0.25,0.93,0.56,1.29,0.94
			c0.35,0.37,0.53,0.85,0.53,1.41c0,0.82-0.33,1.43-0.99,1.85s-1.5,0.63-2.53,0.63c-0.64-0.01-1.28-0.08-1.91-0.22
			c-0.63-0.13-1.19-0.29-1.67-0.48s-0.83-0.35-1.03-0.49l-0.38,1.79c0.31,0.2,0.73,0.39,1.28,0.56s1.15,0.31,1.81,0.42
			s1.34,0.17,2.02,0.17c1.7,0,3.06-0.38,4.07-1.15s1.52-1.85,1.52-3.26c0-0.92-0.27-1.69-0.8-2.3S350.08,490.35,349.27,489.93z"/>
		<path class="st0" d="M371.36,481.26l0.03,0.97c-0.15-0.06-0.32-0.12-0.51-0.18c-0.74-0.24-1.63-0.36-2.67-0.36
			c-1.61,0-3.02,0.38-4.23,1.12c-1.21,0.75-2.14,1.78-2.81,3.1c-0.67,1.32-1,2.83-1,4.54c0,1.81,0.3,3.28,0.9,4.42
			s1.38,1.97,2.35,2.51s2,0.8,3.09,0.8c0.99,0,1.83-0.14,2.53-0.42c0.7-0.28,1.27-0.61,1.71-0.97c0.29-0.24,0.52-0.44,0.72-0.62
			v1.78h2.16v-23.44h-2.28V481.26z M369.69,495.76c-0.75,0.38-1.6,0.58-2.54,0.58c-1.44,0-2.57-0.51-3.39-1.54
			c-0.82-1.02-1.22-2.58-1.19-4.66c0.02-1.43,0.27-2.65,0.74-3.65c0.48-1,1.12-1.77,1.93-2.3c0.81-0.53,1.73-0.79,2.75-0.79
			c0.88,0,1.61,0.08,2.17,0.23c0.54,0.15,0.94,0.33,1.2,0.56v10.54C370.98,495.04,370.42,495.39,369.69,495.76z"/>
		<path class="st0" d="M389.01,483.32c-0.5-0.53-1.11-0.94-1.8-1.22c-0.7-0.28-1.47-0.42-2.33-0.4c-1.54,0.01-2.84,0.37-3.91,1.09
			s-1.88,1.7-2.44,2.94c-0.56,1.24-0.84,2.67-0.84,4.27c0,2.57,0.6,4.57,1.8,6.02s2.93,2.17,5.17,2.17c0.66,0,1.35-0.06,2.05-0.19
			c0.71-0.12,1.36-0.3,1.95-0.52c0.6-0.22,1.07-0.48,1.41-0.76l-0.49-1.53c-0.28,0.18-0.67,0.37-1.16,0.56
			c-0.5,0.19-1.02,0.34-1.58,0.47c-0.56,0.12-1.09,0.19-1.58,0.19c-0.99,0-1.87-0.18-2.65-0.55s-1.4-0.97-1.86-1.79
			c-0.46-0.83-0.72-1.93-0.76-3.3c-0.01-0.2,0-0.38,0-0.58h10.52c0.06-0.34,0.09-0.7,0.1-1.1c0.01-0.4,0.01-0.85,0.01-1.35
			c-0.02-0.91-0.17-1.74-0.45-2.49C389.91,484.49,389.52,483.85,389.01,483.32z M380.09,488.59c0.09-0.8,0.24-1.51,0.46-2.1
			c0.41-1.09,0.98-1.88,1.71-2.37c0.73-0.49,1.56-0.74,2.48-0.74c0.97,0,1.73,0.23,2.29,0.69c0.56,0.46,0.94,1.08,1.16,1.87
			c0.22,0.79,0.3,1.67,0.24,2.65H380.09z"/>
		<path class="st0" d="M410.05,481.26l0.03,0.97c-0.15-0.06-0.32-0.12-0.51-0.18c-0.74-0.24-1.63-0.36-2.67-0.36
			c-1.61,0-3.02,0.38-4.23,1.12c-1.21,0.75-2.14,1.78-2.81,3.1c-0.67,1.32-1,2.83-1,4.54c0,1.81,0.3,3.28,0.9,4.42
			s1.38,1.97,2.35,2.51s2,0.8,3.09,0.8c0.99,0,1.83-0.14,2.53-0.42c0.7-0.28,1.27-0.61,1.71-0.97c0.29-0.24,0.52-0.44,0.72-0.62
			v1.78h2.16v-23.44h-2.28V481.26z M408.38,495.76c-0.75,0.38-1.6,0.58-2.54,0.58c-1.44,0-2.57-0.51-3.39-1.54
			c-0.82-1.02-1.22-2.58-1.19-4.66c0.02-1.43,0.27-2.65,0.74-3.65c0.48-1,1.12-1.77,1.93-2.3c0.81-0.53,1.73-0.79,2.75-0.79
			c0.88,0,1.61,0.08,2.17,0.23c0.54,0.15,0.94,0.33,1.2,0.56v10.54C409.66,495.04,409.11,495.39,408.38,495.76z"/>
		<path class="st0" d="M425.86,482.1c-0.82-0.29-1.78-0.43-2.88-0.43c-0.87,0-1.7,0.11-2.51,0.32c-0.81,0.22-1.5,0.45-2.08,0.71
			c-0.58,0.26-0.96,0.45-1.15,0.58l0.58,1.67c0.28-0.2,0.67-0.41,1.18-0.62c0.51-0.21,1.06-0.39,1.66-0.53
			c0.6-0.14,1.17-0.21,1.71-0.21c1.26,0,2.2,0.21,2.82,0.62c0.62,0.41,0.93,1.23,0.93,2.46v1.67c-0.56,0-1.2,0.03-1.94,0.09
			c-0.73,0.06-1.48,0.16-2.24,0.3c-0.76,0.14-1.45,0.33-2.08,0.57c-1.12,0.41-1.98,0.99-2.57,1.72c-0.59,0.74-0.89,1.63-0.89,2.69
			c0,0.93,0.21,1.73,0.63,2.4c0.42,0.67,0.99,1.18,1.73,1.54s1.57,0.53,2.51,0.53c1.15,0,2.17-0.19,3.05-0.58
			c0.86-0.38,1.51-0.76,1.94-1.16v1.5h2.19v-11.18c0-1.34-0.23-2.39-0.68-3.13C427.33,482.9,426.69,482.39,425.86,482.1z
			 M423.89,496.15c-0.59,0.18-1.23,0.27-1.91,0.27c-1.15,0-1.98-0.27-2.49-0.81c-0.51-0.54-0.76-1.23-0.76-2.07
			c0-0.72,0.21-1.32,0.62-1.79s1.02-0.86,1.83-1.15c0.45-0.18,0.99-0.33,1.62-0.44c0.63-0.11,1.25-0.19,1.85-0.24
			c0.61-0.05,1.1-0.07,1.48-0.07v5.18c-0.12,0.12-0.37,0.29-0.75,0.5C424.98,495.77,424.48,495.97,423.89,496.15z"/>
		<path class="st0" d="M440.98,495.86c-0.35,0.12-0.73,0.22-1.13,0.3c-0.4,0.08-0.77,0.12-1.09,0.12c-0.53,0-0.95-0.07-1.26-0.2
			c-0.31-0.13-0.54-0.44-0.67-0.93c-0.13-0.48-0.2-1.26-0.2-2.33v-9.14h4.99v-1.79h-4.99v-3.66h-1.41c-0.1,0.32-0.18,0.69-0.27,1.12
			s-0.16,0.83-0.23,1.21c-0.07,0.38-0.14,0.65-0.19,0.81c-0.12,0.33-0.44,0.54-0.93,0.64c-0.5,0.1-1,0.22-1.52,0.37v1.3h2.22v10.46
			c0,1.14,0.17,2,0.5,2.58c0.34,0.58,0.78,0.96,1.34,1.16c0.56,0.2,1.16,0.29,1.82,0.29c0.49,0,1.01-0.06,1.56-0.19
			c0.55-0.13,1.07-0.3,1.55-0.5c0.48-0.2,0.86-0.41,1.12-0.63l-0.4-1.35C441.6,495.62,441.33,495.74,440.98,495.86z"/>
		<path class="st0" d="M455.87,482.86c-1.03-0.78-2.39-1.17-4.06-1.17c-1.35,0-2.58,0.31-3.67,0.92c-1.09,0.61-1.96,1.51-2.61,2.69
			s-0.99,2.62-1.02,4.32c-0.01,1.13,0.11,2.21,0.36,3.24s0.65,1.94,1.21,2.74c0.56,0.8,1.28,1.43,2.18,1.89
			c0.89,0.46,1.98,0.69,3.26,0.69c1.38,0,2.62-0.31,3.7-0.94c1.09-0.63,1.94-1.54,2.57-2.74c0.63-1.2,0.96-2.65,0.99-4.36
			c0.02-1.51-0.21-2.9-0.67-4.19C457.65,484.67,456.91,483.64,455.87,482.86z M455.14,494.79c-0.84,1.16-2.02,1.73-3.55,1.72
			c-1.09-0.02-1.97-0.35-2.66-0.98c-0.69-0.63-1.19-1.47-1.52-2.5c-0.33-1.03-0.49-2.16-0.49-3.38c0.02-2.01,0.46-3.56,1.32-4.66
			c0.86-1.1,2.04-1.63,3.55-1.6c1.07,0.01,1.94,0.31,2.62,0.91c0.68,0.6,1.19,1.4,1.51,2.4c0.33,1,0.48,2.12,0.48,3.35
			C456.4,492.06,455.98,493.63,455.14,494.79z"/>
		<path class="st0" d="M471.71,491.48c-0.53-0.61-1.2-1.13-2.01-1.55c-0.81-0.42-1.63-0.81-2.46-1.17c-0.85-0.37-1.58-0.77-2.2-1.22
			c-0.62-0.45-0.93-1.09-0.92-1.92c0.02-0.63,0.32-1.16,0.91-1.57s1.46-0.62,2.61-0.62c0.52,0,1.02,0.04,1.51,0.13
			s0.92,0.2,1.29,0.33c0.37,0.13,0.65,0.27,0.84,0.4l0.4-1.79c-0.29-0.16-0.81-0.34-1.57-0.54c-0.76-0.2-1.61-0.29-2.55-0.27
			c-1.01,0-1.94,0.14-2.78,0.43c-0.85,0.29-1.53,0.73-2.04,1.33s-0.78,1.35-0.8,2.28c-0.01,0.87,0.2,1.63,0.64,2.25
			c0.44,0.63,1.04,1.18,1.82,1.65s1.67,0.91,2.67,1.31c0.45,0.18,0.93,0.4,1.43,0.65c0.5,0.25,0.93,0.56,1.29,0.94
			c0.35,0.37,0.53,0.85,0.53,1.41c0,0.82-0.33,1.43-0.99,1.85s-1.5,0.63-2.53,0.63c-0.64-0.01-1.28-0.08-1.91-0.22
			c-0.63-0.13-1.19-0.29-1.67-0.48s-0.83-0.35-1.03-0.49l-0.38,1.79c0.31,0.2,0.73,0.39,1.28,0.56s1.15,0.31,1.81,0.42
			s1.34,0.17,2.02,0.17c1.7,0,3.06-0.38,4.07-1.15s1.52-1.85,1.52-3.26C472.51,492.85,472.24,492.09,471.71,491.48z"/>
	</g>
</g>
</svg>
