<?xml version="1.0" encoding="utf-8"?>
<!-- Generator: Adobe Illustrator 24.0.0, SVG Export Plug-In . SVG Version: 6.00 Build 0)  -->
<svg version="1.1" xmlns="http://www.w3.org/2000/svg" xmlns:xlink="http://www.w3.org/1999/xlink" x="0px" y="0px"
	 viewBox="0 0 512 512" style="enable-background:new 0 0 512 512;" xml:space="preserve">
<style type="text/css">
	.st0{fill:#9B9B9B;}
	.st1{fill:#FFBF31;}
	.st2{fill:none;}
	.st3{fill:#FFCC30;}
	.st4{fill:#FFFFFF;}
	.st5{fill:#1E1D1C;}
	.st6{fill:#FFCC2A;}
	.st7{fill:#1D1D1B;}
</style>
<g id="GUIAS">
</g>
<g id="Capa_2">
	<g>
		<path class="st0" d="M141,430.13c0.43,0,0.98,0.01,1.63,0.02c0.66,0.02,1.51,0.02,2.56,0.02c4.81,0,8.48-1.16,11.02-3.49
			c2.54-2.33,3.81-5.61,3.81-9.86c0-3.04-0.55-5.5-1.66-7.36c-1.11-1.86-2.68-3.21-4.73-4.05s-4.5-1.26-7.36-1.26
			c-1.76,0-3.45,0.07-5.07,0.2c-1.61,0.14-3.24,0.2-4.87,0.2h-3.17v37.09H141V430.13z M141,409.99c0.58-0.12,1.22-0.2,1.92-0.25
			c0.7-0.05,1.37-0.08,2-0.1c2.48-0.08,4.33,0.5,5.57,1.75c1.23,1.25,1.85,3.05,1.85,5.42c0,2.01-0.33,3.58-0.99,4.69
			c-0.66,1.11-1.54,1.9-2.65,2.35c-1.11,0.45-2.32,0.67-3.66,0.67c-0.72,0-1.41-0.02-2.09-0.05c-0.67-0.03-1.33-0.09-1.96-0.18
			V409.99z"/>
		<path class="st0" d="M181.65,413.76c-0.2-0.12-0.51-0.2-0.93-0.25c-0.43-0.05-0.89-0.07-1.39-0.07c-1.22,0-2.37,0.23-3.47,0.69
			c-1.1,0.46-2.05,1.05-2.84,1.77c-0.68,0.62-1.17,1.26-1.49,1.93l-0.39-3.97h-6.59v27.78h7.61v-18.58
			c0.27-0.26,0.57-0.53,0.94-0.83c0.59-0.47,1.32-0.88,2.18-1.22c0.86-0.34,1.9-0.51,3.09-0.51c0.98,0,1.71,0.08,2.2,0.22
			c0.48,0.15,0.84,0.3,1.07,0.45V413.76z"/>
		<path class="st0" d="M205.76,415.53c-1.95-1.36-4.55-2.05-7.81-2.05c-2.61,0-4.95,0.52-7,1.57c-2.06,1.05-3.68,2.59-4.87,4.62
			c-1.19,2.03-1.81,4.53-1.86,7.48c-0.02,2,0.21,3.89,0.67,5.68c0.47,1.79,1.22,3.37,2.26,4.75c1.04,1.38,2.41,2.47,4.1,3.26
			c1.7,0.79,3.76,1.19,6.19,1.19c2.65,0,4.99-0.53,7.04-1.57c2.05-1.05,3.66-2.59,4.84-4.63c1.18-2.04,1.79-4.54,1.82-7.52
			c0.05-2.65-0.35-5.1-1.2-7.35C209.11,418.71,207.71,416.9,205.76,415.53z M201.97,434.5c-0.9,1.5-2.34,2.24-4.32,2.22
			c-1.35,0-2.43-0.42-3.23-1.27c-0.81-0.85-1.39-1.98-1.76-3.41c-0.37-1.42-0.55-2.98-0.55-4.68c0-2.78,0.45-4.9,1.35-6.38
			c0.9-1.47,2.35-2.2,4.34-2.18c1.33,0.02,2.4,0.44,3.21,1.27c0.81,0.83,1.39,1.94,1.76,3.32c0.36,1.38,0.55,2.91,0.55,4.59
			C203.32,430.83,202.87,433,201.97,434.5z"/>
		<path class="st0" d="M233.09,439.86c0.5-0.4,0.91-0.76,1.25-1.08v2.87h6.99v-40.56h-7.54v10.66l0.07,2.44
			c-0.13-0.05-0.26-0.09-0.41-0.14c-1.11-0.36-2.52-0.55-4.23-0.55c-2.83,0-5.29,0.62-7.39,1.87c-2.1,1.25-3.73,3.02-4.89,5.31
			c-1.16,2.29-1.75,4.97-1.75,8.05c0,3.01,0.51,5.5,1.52,7.46c1.01,1.96,2.35,3.43,4.01,4.4c1.65,0.97,3.46,1.46,5.43,1.46
			c1.65,0,3.04-0.22,4.17-0.66C231.45,440.94,232.38,440.43,233.09,439.86z M224.52,434.38c-0.99-1.25-1.47-3.31-1.44-6.19
			c0-2.08,0.28-3.81,0.84-5.2c0.56-1.39,1.31-2.43,2.27-3.12c0.96-0.69,2.03-1.04,3.23-1.04c0.98,0,1.86,0.07,2.62,0.21
			c0.75,0.14,1.33,0.38,1.75,0.72v14.83c-0.53,0.38-1.26,0.75-2.18,1.11c-0.94,0.36-1.94,0.55-3.01,0.55
			C226.87,436.25,225.51,435.62,224.52,434.38z"/>
		<path class="st0" d="M265.24,434.78c-0.28,0.22-0.69,0.44-1.22,0.69c-0.53,0.24-1.11,0.44-1.75,0.61
			c-0.63,0.17-1.25,0.25-1.85,0.25c-0.98,0-1.78-0.14-2.41-0.43c-0.63-0.28-1.09-0.86-1.39-1.72c-0.3-0.86-0.45-2.17-0.45-3.92
			v-16.42h-7.59v16.32c0,1.75,0.11,3.34,0.32,4.79c0.22,1.45,0.63,2.7,1.25,3.77c0.62,1.06,1.52,1.88,2.71,2.46
			c1.19,0.57,2.75,0.86,4.68,0.86c0.95,0,1.96-0.13,3.02-0.38c1.07-0.25,2.09-0.58,3.06-1.01c0.91-0.4,1.68-0.84,2.33-1.33v1.02
			c0,0.73,0.18,1.2,0.54,1.4c0.36,0.2,0.86,0.3,1.51,0.3h4.84v-28.2h-7.61V434.78z"/>
		<path class="st0" d="M284.36,440.2c1.91,1.22,4.31,1.84,7.19,1.84c1.78,0,3.47-0.21,5.08-0.61c1.6-0.41,2.81-1.01,3.61-1.81
			l-1.12-4.67c-0.6,0.3-1.44,0.58-2.52,0.85c-1.08,0.27-2.25,0.4-3.52,0.4c-1.3,0-2.48-0.31-3.53-0.94c-1.06-0.63-1.89-1.6-2.5-2.92
			c-0.61-1.32-0.89-3.02-0.84-5.1c0.05-1.93,0.42-3.47,1.11-4.62c0.69-1.15,1.55-1.97,2.59-2.47c1.04-0.5,2.1-0.75,3.18-0.75
			c1.37,0,2.51,0.12,3.43,0.35c0.93,0.23,1.69,0.54,2.31,0.93l0.95-5.82c-0.45-0.32-1.34-0.62-2.66-0.92
			c-1.32-0.3-2.89-0.45-4.7-0.45c-3.15,0-5.74,0.64-7.77,1.93s-3.56,3.03-4.55,5.23c-1,2.2-1.5,4.66-1.5,7.39
			c0,2.66,0.48,5.05,1.45,7.16C281.01,437.31,282.44,438.98,284.36,440.2z"/>
		<path class="st0" d="M320.47,440.63c0.9-0.41,1.57-0.81,2.02-1.21l-1-4.27c-0.28,0.18-0.68,0.36-1.2,0.52
			c-0.52,0.17-1.06,0.3-1.62,0.41c-0.57,0.11-1.07,0.16-1.5,0.16c-0.85,0-1.5-0.11-1.95-0.34c-0.45-0.23-0.77-0.74-0.95-1.55
			c-0.18-0.81-0.27-2.09-0.27-3.86v-11.46h7.46v-5.22h-7.46v-6.34h-4.59c-0.23,0.62-0.46,1.22-0.67,1.82
			c-0.22,0.6-0.42,1.16-0.61,1.67c-0.19,0.52-0.37,0.97-0.54,1.35c-0.33,0.78-0.87,1.33-1.61,1.65c-0.74,0.32-1.73,0.65-2.96,1v4.07
			h3.37v14.68c0,2,0.27,3.6,0.81,4.82c0.54,1.22,1.36,2.1,2.47,2.66c1.11,0.56,2.51,0.84,4.21,0.84c1.2,0,2.37-0.14,3.52-0.4
			C318.55,441.37,319.57,441.04,320.47,440.63z"/>
		<path class="st0" d="M350.7,435.84c1.18-2.04,1.79-4.54,1.82-7.52c0.05-2.65-0.35-5.1-1.2-7.35c-0.85-2.26-2.24-4.06-4.19-5.43
			c-1.95-1.36-4.55-2.05-7.81-2.05c-2.61,0-4.95,0.52-7,1.57c-2.06,1.05-3.68,2.59-4.87,4.62c-1.19,2.03-1.81,4.53-1.86,7.48
			c-0.02,2,0.21,3.89,0.67,5.68c0.46,1.79,1.22,3.37,2.26,4.75c1.04,1.38,2.41,2.47,4.11,3.26c1.7,0.79,3.76,1.19,6.19,1.19
			c2.65,0,4.99-0.53,7.04-1.57C347.9,439.42,349.51,437.88,350.7,435.84z M343.33,434.5c-0.9,1.5-2.34,2.24-4.32,2.22
			c-1.35,0-2.42-0.42-3.23-1.27c-0.81-0.85-1.39-1.98-1.76-3.41c-0.36-1.42-0.55-2.98-0.55-4.68c0-2.78,0.45-4.9,1.35-6.38
			c0.9-1.47,2.35-2.2,4.34-2.18c1.33,0.02,2.4,0.44,3.21,1.27c0.81,0.83,1.39,1.94,1.76,3.32c0.37,1.38,0.55,2.91,0.55,4.59
			C344.68,430.83,344.23,433,343.33,434.5z"/>
		<path class="st0" d="M376.41,429.8c-0.69-1.04-1.71-1.96-3.07-2.77c-1.36-0.81-3.03-1.62-5.03-2.44c-1.35-0.57-2.4-1.07-3.16-1.53
			c-0.76-0.46-1.13-1.16-1.11-2.11c0-0.73,0.37-1.29,1.11-1.68c0.74-0.39,1.92-0.59,3.53-0.59c0.88,0,1.75,0.1,2.61,0.29
			c0.86,0.19,1.63,0.44,2.31,0.74c0.68,0.3,1.18,0.58,1.5,0.85l0.82-5.46c-0.53-0.32-1.52-0.66-2.96-1.04
			c-1.44-0.37-3.18-0.56-5.23-0.56c-2.01,0-3.85,0.29-5.5,0.86c-1.66,0.57-2.98,1.44-3.97,2.58c-0.99,1.15-1.49,2.59-1.51,4.32
			c-0.02,1.46,0.26,2.74,0.84,3.83c0.58,1.09,1.45,2.06,2.62,2.91c1.17,0.85,2.66,1.63,4.46,2.34c1,0.4,1.9,0.79,2.72,1.16
			c0.81,0.37,1.46,0.78,1.94,1.21c0.47,0.43,0.71,0.94,0.71,1.52c0,0.85-0.36,1.49-1.07,1.91c-0.72,0.43-1.83,0.63-3.35,0.61
			c-1.2,0-2.36-0.15-3.49-0.44c-1.13-0.29-2.1-0.61-2.92-0.96c-0.82-0.35-1.36-0.63-1.62-0.85l-0.85,5.37
			c0.48,0.33,1.22,0.66,2.21,1c0.99,0.33,2.14,0.61,3.45,0.84c1.3,0.22,2.67,0.34,4.08,0.34c3.36,0,6.03-0.72,8.01-2.15
			c1.98-1.43,2.97-3.53,2.97-6.29C377.45,432.11,377.11,430.84,376.41,429.8z"/>
		<path class="st0" d="M172.54,489.8c1.48-2.79,2.26-6.32,2.35-10.59c0.08-3.88-0.54-7.24-1.86-10.1c-1.32-2.85-3.23-5.05-5.72-6.59
			c-2.49-1.54-5.44-2.28-8.85-2.21c-3.33,0.07-6.31,0.76-8.93,2.09c-2.63,1.33-4.72,3.37-6.26,6.1c-1.55,2.74-2.36,6.25-2.45,10.52
			c-0.07,3.86,0.57,7.24,1.9,10.15c1.33,2.9,3.28,5.15,5.84,6.74c2.18,1.35,4.72,2.09,7.61,2.25c0.8,1.79,1.64,3.25,2.53,4.33
			c1.02,1.23,2.3,2.1,3.83,2.61c1.53,0.51,3.49,0.76,5.89,0.76c1.1,0,2-0.12,2.71-0.36c0.71-0.24,1.27-0.48,1.68-0.71v-5.34
			c-0.53,0.18-1.12,0.33-1.76,0.45c-0.64,0.12-1.3,0.17-1.96,0.17c-1.43,0-2.59-0.1-3.48-0.3c-0.89-0.2-1.61-0.57-2.15-1.11
			c-0.3-0.3-0.57-0.67-0.83-1.11c1.37-0.36,2.66-0.85,3.87-1.5C169.05,494.66,171.06,492.58,172.54,489.8z M157.89,492.46
			c-2.01,0-3.69-0.59-5.04-1.76c-1.35-1.17-2.36-2.75-3.05-4.73c-0.68-1.98-1.02-4.19-1.02-6.64c0-3.19,0.43-5.76,1.3-7.69
			c0.86-1.93,2.02-3.33,3.46-4.19c1.44-0.86,3.02-1.3,4.75-1.3c1.93,0,3.53,0.56,4.82,1.68c1.28,1.12,2.24,2.65,2.88,4.58
			c0.64,1.93,0.96,4.11,0.96,6.54c0,4.64-0.81,8.05-2.45,10.23C162.88,491.37,160.67,492.46,157.89,492.46z"/>
		<path class="st0" d="M197.38,490.93c-0.28,0.22-0.69,0.44-1.22,0.69c-0.53,0.24-1.12,0.44-1.75,0.61
			c-0.63,0.17-1.25,0.25-1.85,0.25c-0.98,0-1.79-0.14-2.41-0.42s-1.08-0.86-1.38-1.72c-0.3-0.86-0.45-2.17-0.45-3.92v-16.42h-7.59
			v16.32c0,1.75,0.11,3.34,0.32,4.79c0.22,1.45,0.63,2.7,1.25,3.77c0.62,1.07,1.52,1.88,2.71,2.46c1.19,0.57,2.75,0.86,4.68,0.86
			c0.95,0,1.95-0.12,3.02-0.37c1.07-0.25,2.09-0.59,3.06-1.01c0.91-0.4,1.68-0.84,2.33-1.33v1.02c0,0.73,0.18,1.2,0.54,1.4
			c0.36,0.2,0.86,0.3,1.51,0.3h4.84v-28.2h-7.61V490.93z"/>
		<path class="st0" d="M217.46,456.39c-0.94,1.26-1.89,2.47-2.86,3.62c-0.97,1.15-1.87,2.16-2.72,3.02l3.47,3.09
			c0.42-0.18,0.96-0.53,1.63-1.03c0.67-0.51,1.42-1.12,2.22-1.82c0.81-0.71,1.6-1.46,2.37-2.25s1.46-1.57,2.07-2.33
			c0.61-0.77,1.06-1.45,1.36-2.07l-4.97-3.94C219.26,453.89,218.4,455.13,217.46,456.39z"/>
		<rect x="212.95" y="470.02" class="st0" width="7.61" height="27.78"/>
		<path class="st0" d="M266.09,470.54c-1.3-0.65-2.9-0.96-4.82-0.95c-1.45,0-2.82,0.21-4.12,0.61c-1.3,0.41-2.44,0.89-3.43,1.45
			c-0.79,0.44-1.43,0.86-1.92,1.24c-0.57-1.07-1.33-1.86-2.28-2.38c-1.23-0.66-2.8-0.97-4.72-0.92c-1.22,0.02-2.41,0.21-3.57,0.56
			c-1.16,0.36-2.24,0.79-3.23,1.31c-0.99,0.52-1.81,1.02-2.46,1.52l-0.13-2.97h-6.91v27.78h7.59v-20.02
			c0.83-0.68,1.76-1.2,2.77-1.55c1.01-0.35,1.89-0.52,2.62-0.52c1.08-0.03,1.92,0.13,2.51,0.5c0.59,0.37,1,0.97,1.23,1.81
			c0.23,0.84,0.35,1.98,0.35,3.41v16.37h7.59v-17.5c0-0.92-0.05-1.76-0.12-2.55c0.65-0.49,1.42-0.94,2.33-1.36
			c1.01-0.46,1.99-0.69,2.93-0.69c1.1-0.03,1.94,0.13,2.53,0.49c0.59,0.36,1,0.96,1.22,1.8c0.22,0.84,0.34,1.98,0.34,3.41v16.4h7.64
			v-17.47c0-2.71-0.33-4.86-1-6.44C268.37,472.31,267.39,471.19,266.09,470.54z"/>
		<rect x="277.64" y="470.02" class="st0" width="7.61" height="27.78"/>
		<path class="st0" d="M281.54,457.29c-0.85,0-1.64,0.21-2.38,0.62c-0.74,0.42-1.34,0.97-1.8,1.66c-0.46,0.69-0.69,1.45-0.69,2.28
			c0,1.23,0.43,2.23,1.27,3c0.85,0.76,1.89,1.15,3.12,1.15c1.31,0,2.45-0.44,3.41-1.34c0.96-0.89,1.44-1.97,1.44-3.23
			c0-1.21-0.39-2.21-1.16-2.98C283.97,457.68,282.9,457.29,281.54,457.29z"/>
		<path class="st0" d="M309.12,491.96c-1.08,0.27-2.26,0.4-3.52,0.4c-1.3,0-2.47-0.31-3.53-0.94c-1.06-0.62-1.89-1.6-2.5-2.92
			c-0.61-1.32-0.88-3.02-0.84-5.11c0.05-1.93,0.42-3.47,1.11-4.62s1.56-1.97,2.59-2.47c1.04-0.5,2.1-0.75,3.18-0.75
			c1.37,0,2.51,0.12,3.43,0.35c0.92,0.23,1.69,0.54,2.31,0.92l0.95-5.82c-0.45-0.32-1.34-0.62-2.66-0.92
			c-1.32-0.3-2.89-0.45-4.7-0.45c-3.15,0-5.74,0.65-7.77,1.94c-2.04,1.29-3.56,3.03-4.56,5.23c-1,2.2-1.5,4.66-1.5,7.39
			c0,2.66,0.48,5.05,1.45,7.16c0.96,2.11,2.4,3.78,4.32,5.01c1.91,1.22,4.31,1.83,7.19,1.83c1.78,0,3.47-0.21,5.08-0.61
			c1.61-0.41,2.81-1.01,3.61-1.81l-1.12-4.67C311.04,491.41,310.2,491.69,309.12,491.96z"/>
		<path class="st0" d="M337.49,471.69c-1.94-1.36-4.55-2.05-7.81-2.05c-2.61,0-4.95,0.52-7,1.57c-2.05,1.05-3.68,2.59-4.87,4.62
			c-1.19,2.03-1.81,4.53-1.86,7.49c-0.02,2,0.21,3.89,0.67,5.68c0.47,1.79,1.22,3.38,2.26,4.75c1.04,1.38,2.41,2.47,4.1,3.26
			c1.7,0.79,3.76,1.19,6.19,1.19c2.65,0,4.99-0.52,7.04-1.57c2.05-1.05,3.66-2.59,4.84-4.63c1.18-2.04,1.79-4.55,1.82-7.53
			c0.05-2.65-0.35-5.1-1.2-7.35C340.84,474.86,339.44,473.06,337.49,471.69z M333.7,490.66c-0.9,1.5-2.34,2.24-4.32,2.22
			c-1.35,0-2.43-0.43-3.23-1.27c-0.81-0.85-1.39-1.99-1.76-3.41c-0.37-1.42-0.55-2.98-0.55-4.68c0-2.78,0.45-4.9,1.35-6.38
			c0.9-1.47,2.34-2.2,4.34-2.18c1.33,0.01,2.4,0.44,3.21,1.27c0.81,0.83,1.39,1.94,1.76,3.32c0.36,1.38,0.55,2.91,0.55,4.59
			C335.05,486.99,334.6,489.16,333.7,490.66z"/>
		<path class="st0" d="M363.71,483.18c-1.36-0.81-3.03-1.62-5.03-2.43c-1.35-0.57-2.4-1.08-3.16-1.53
			c-0.76-0.46-1.13-1.16-1.11-2.11c0-0.73,0.37-1.29,1.11-1.69c0.74-0.39,1.92-0.58,3.53-0.58c0.88,0,1.75,0.1,2.61,0.28
			c0.86,0.19,1.63,0.44,2.31,0.74c0.68,0.3,1.18,0.58,1.5,0.85l0.82-5.46c-0.53-0.31-1.52-0.66-2.96-1.03
			c-1.44-0.38-3.18-0.56-5.23-0.56c-2.01,0-3.85,0.29-5.5,0.86c-1.65,0.57-2.98,1.44-3.97,2.58c-0.99,1.15-1.5,2.59-1.51,4.32
			c-0.02,1.46,0.26,2.74,0.84,3.83c0.57,1.09,1.45,2.06,2.62,2.91c1.17,0.85,2.66,1.63,4.46,2.35c1,0.4,1.91,0.79,2.72,1.16
			c0.82,0.38,1.46,0.78,1.94,1.21c0.47,0.43,0.71,0.94,0.71,1.52c0,0.85-0.36,1.48-1.08,1.91c-0.72,0.43-1.83,0.63-3.34,0.61
			c-1.2,0-2.36-0.14-3.49-0.44c-1.13-0.29-2.1-0.61-2.92-0.96c-0.81-0.35-1.36-0.63-1.62-0.85l-0.85,5.37
			c0.48,0.33,1.22,0.67,2.21,1c0.99,0.33,2.14,0.61,3.44,0.84c1.31,0.22,2.67,0.34,4.08,0.34c3.36,0,6.03-0.72,8.01-2.15
			c1.98-1.43,2.97-3.52,2.97-6.29c0-1.5-0.35-2.77-1.04-3.81C366.09,484.92,365.07,483.99,363.71,483.18z"/>
	</g>
	<path class="st2" d="M353.58,236.78c0,13.31-10.79,24.09-24.09,24.09c-5.43,0-10.42-1.82-14.45-4.85l0.02,25.45
		c7.46,0.61,71.47,0.34,73.89-0.29c0.68-11.26,0.34-124.14-0.36-126.62h-73.6L315,210.5c6.71-13.21,14.48-25.68,14.48-25.68
		S353.58,223.48,353.58,236.78z"/>
	<path class="st2" d="M314.83,108.47v3.34h91.51c-12.19-21.33-24.22-42.37-36.19-63.32h-57.61c-1.22,2.14-2.4,4.23-3.63,6.39
		c4.88,7.51,6.15,15.75,5.96,24.44C314.67,89.03,314.83,98.76,314.83,108.47z"/>
	<path class="st2" d="M102.72,147.8c0,52.68,0,105.35,0,158.03c0,0.99-0.02,1.99,0.02,2.98c0.28,6.8,4.93,12.84,11.49,14.57
		c2.1,0.55,4.36,0.68,6.54,0.68c55.11,0.04,167.31,0.05,168.3,0c6.65-0.32,12.63-4.9,14.39-11.3c0.58-2.09,0.72-4.35,0.72-6.54
		c0.04-52.9,0.03-105.79,0.03-158.69v-3.53h-201.5V147.8z"/>
	<path class="st2" d="M367.66,37.53c0.51-6.28,0.33-18.56-0.32-20.94h-51.97c-0.69,2.28-0.8,17.47-0.16,20.94H367.66z"/>
	<path class="st2" d="M304.09,132.74c0.04-0.31,0.11-0.63,0.11-0.96c0-19.22,0.04-38.44-0.06-57.66c-0.01-2.28-0.48-4.62-1.13-6.82
		c-3.27-11.13-13.26-18.8-24.85-18.89c-15.69-0.13-31.37-0.04-47.06-0.01c-1.1,0-2.21,0.11-3.29,0.3
		c-9.93,1.75-16.87,7.31-20.67,16.63c-4.42,10.82-8.7,21.7-13.03,32.56c-0.24,0.59-0.41,1.22-0.38,1.14
		c2.84,2.89,5.36,5.45,7.97,8.1c0.35-0.79,0.8-1.77,1.2-2.76c4.6-11.46,9.28-22.9,13.76-34.41c2.85-7.34,9.15-11.1,16.4-11.03
		c14.69,0.15,29.38,0.01,44.08,0.06c9.66,0.03,16.43,6.83,16.46,16.53c0.05,14.91,0.02,29.83,0,44.74c0,0.73-0.14,1.46-0.23,2.35
		h-2.47c-27.4,0-54.79-0.02-82.19,0.02c-5.04,0.01-9.23-1.73-12.75-5.3c-4.65-4.72-9.39-9.35-14.03-14.09
		c-1.23-1.25-2.46-1.89-4.31-1.88c-18.01,0.07-36.01,0.07-54.02,0.01c-1.71-0.01-2.84,0.44-3.91,1.83
		c-4.19,5.41-8.47,10.76-12.81,16.05c-3.27,3.97-4.65,8.42-4.01,13.73C108.81,133.54,301.67,133.32,304.09,132.74z"/>
	<path class="st2" d="M282.97,74.86c-0.16-3.14-2.13-5.05-5.27-5.27c-0.88-0.06-1.77-0.02-2.65-0.02c-11.26,0-22.53,0-33.79,0
		c-2.98,0-5.96,0.02-8.95,0c-2.62-0.02-4.41,1.16-5.45,3.54c-0.27,0.61-0.5,1.22-0.75,1.84c-4.54,11.36-9.07,22.73-13.6,34.09
		c-0.35,0.88-0.63,1.78-1.01,2.85h71.52v-3.56c0-8.84,0-17.67,0-26.51C283.01,79.49,283.09,77.17,282.97,74.86z"/>
	<path class="st2" d="M176.8,90.32c0.5-6.86,0.3-18.36-0.34-20.59h-52.39v20.8C129.86,91.1,174.41,90.89,176.8,90.32z"/>
	<path class="st2" d="M314.83,124.52c-0.01,6.28,0,12.57,0,19.29c14.41,0,28.42,0,42.43,0c14.09,0.01,28.17-0.03,42.22,0.02
		c0.65,8.83,0.36,145.82-0.34,148.53h-84.31c0,3.93-0.16,7.66,0.03,11.38c0.36,7.14-0.88,13.83-4.94,19.85
		c-0.05,0.08-0.02,0.21-0.05,0.51h3.63c17.12,0,34.23,0,51.35,0c9.83,0,19.66,0.06,29.49-0.02c7.76-0.07,13.96-5.19,15.57-12.79
		c0.34-1.6,0.35-3.29,0.35-4.93c0.02-60.07,0.01-120.15,0.01-180.22v-3.36h-95.34C314.89,123.46,314.83,123.99,314.83,124.52z"/>
	<path class="st0" d="M329.48,260.88c13.31,0,24.09-10.79,24.09-24.09c0-13.31-24.09-51.97-24.09-51.97s-7.77,12.47-14.48,25.68
		l0.03,45.53C319.06,259.06,324.05,260.88,329.48,260.88z"/>
	<path class="st0" d="M420.94,123.26c0.01-5.05-1.18-9.47-3.69-13.82c-12.52-21.69-24.88-43.48-37.35-65.21
		c-1.03-1.79-1.5-3.56-1.47-5.62c0.08-6.96-0.18-13.93,0.09-20.88c0.28-6.99-5.24-11.95-11.72-11.87
		c-17.01,0.22-34.02,0.2-51.03,0.01c-6.61-0.07-11.82,5.04-11.59,11.65c0.24,6.95-0.09,13.92,0.12,20.87
		c0.09,3.13-1.08,5.5-2.98,7.86c-7.91-6.42-16.95-8.71-26.92-8.56c-14.14,0.22-28.28-0.17-42.42,0.12
		c-16.26,0.33-27.8,8.17-34.44,23.04c-1.71,3.82-3.13,7.77-4.7,11.66c-1.59,3.96-3.2,7.93-4.79,11.89
		c-0.16-0.03-0.32-0.06-0.48-0.09c0-4.38,0.02-8.75-0.01-13.13c-0.01-1.32,0-2.67-0.28-3.95c-1.21-5.36-6.16-8.36-10.93-8.33
		c-17.01,0.11-34.03,0.22-51.03-0.04c-6.68-0.1-12.39,4.65-12.04,12.23c0.31,6.72,0.01,13.47,0.1,20.21
		c0.03,1.98-0.44,3.55-1.74,5.11c-4.17,5-8.06,10.24-12.27,15.21c-5.09,6.02-7.3,12.82-7.29,20.71
		c0.1,57.77,0.06,115.55,0.06,173.32c0,1.1-0.03,2.21,0.03,3.31c0.4,8.18,3.73,14.9,10.15,20c5.03,4,10.83,5.73,17.24,5.73
		c91.36-0.02,182.72-0.01,274.07-0.01c0.44,0,0.88,0,1.33-0.01c8.7-0.4,15.72-3.99,20.9-11.03c3.74-5.09,5.09-10.86,5.08-17.13
		C420.86,245.43,420.85,184.35,420.94,123.26z M124.07,69.73h52.39c0.64,2.23,0.84,13.72,0.34,20.59
		c-2.39,0.57-46.94,0.78-52.73,0.22V69.73z M106.88,119.23c4.35-5.29,8.63-10.64,12.81-16.05c1.08-1.39,2.2-1.84,3.91-1.83
		c18.01,0.06,36.01,0.07,54.02-0.01c1.84-0.01,3.08,0.63,4.31,1.88c4.64,4.74,9.37,9.37,14.03,14.09c3.52,3.57,7.71,5.31,12.75,5.3
		c27.4-0.04,54.79-0.02,82.19-0.02h2.47c0.09-0.89,0.23-1.62,0.23-2.35c0.01-14.91,0.04-29.83,0-44.74
		c-0.03-9.7-6.8-16.5-16.46-16.53c-14.69-0.05-29.38,0.09-44.08-0.06c-7.25-0.07-13.55,3.69-16.4,11.03
		c-4.48,11.51-9.15,22.94-13.76,34.41c-0.4,0.99-0.85,1.96-1.2,2.76c-2.61-2.65-5.12-5.21-7.97-8.1c-0.03,0.08,0.15-0.54,0.38-1.14
		c4.33-10.86,8.61-21.74,13.03-32.56c3.8-9.32,10.74-14.87,20.67-16.63c1.08-0.19,2.19-0.3,3.29-0.3
		c15.69-0.02,31.37-0.11,47.06,0.01c11.58,0.09,21.57,7.77,24.85,18.89c0.65,2.2,1.12,4.54,1.13,6.82
		c0.09,19.22,0.06,38.44,0.06,57.66c0,0.32-0.07,0.64-0.11,0.96c-2.42,0.58-195.29,0.81-201.22,0.22
		C102.22,127.65,103.61,123.2,106.88,119.23z M283.01,108.32v3.56h-71.52c0.38-1.07,0.66-1.97,1.01-2.85
		c4.53-11.37,9.07-22.73,13.6-34.09c0.25-0.61,0.48-1.23,0.75-1.84c1.04-2.37,2.84-3.56,5.45-3.54c2.98,0.03,5.96,0,8.95,0
		c11.26,0,22.53,0,33.79,0c0.88,0,1.77-0.04,2.65,0.02c3.14,0.22,5.11,2.13,5.27,5.27c0.12,2.31,0.04,4.64,0.04,6.96
		C283.01,90.65,283.01,99.48,283.01,108.32z M304.22,147.54c0,52.9,0.01,105.79-0.03,158.69c0,2.18-0.15,4.45-0.72,6.54
		c-1.76,6.4-7.75,10.98-14.39,11.3c-0.99,0.05-113.19,0.03-168.3,0c-2.19,0-4.45-0.13-6.54-0.68c-6.57-1.73-11.22-7.77-11.49-14.57
		c-0.04-0.99-0.02-1.99-0.02-2.98c0-52.68,0-105.35,0-158.03v-3.8h201.5V147.54z M315.37,16.6h51.97
		c0.64,2.37,0.83,14.66,0.32,20.94h-52.45C314.57,34.07,314.68,18.88,315.37,16.6z M312.54,48.49h57.61
		c11.98,20.95,24,42,36.19,63.32h-91.51v-3.34c0-9.72-0.16-19.44,0.05-29.16c0.19-8.69-1.08-16.94-5.96-24.44
		C310.14,52.72,311.32,50.63,312.54,48.49z M314.97,154.57h73.6c0.71,2.48,1.05,115.36,0.36,126.62
		c-2.42,0.63-66.43,0.89-73.89,0.29l-0.02-25.45L315,210.5L314.97,154.57z M410.27,126.13c0,60.07,0,120.15-0.01,180.22
		c0,1.65-0.01,3.34-0.35,4.93c-1.61,7.6-7.81,12.72-15.57,12.79c-9.83,0.08-19.66,0.02-29.49,0.02c-17.12,0-34.23,0-51.35,0h-3.63
		c0.02-0.3-0.01-0.44,0.05-0.51c4.06-6.01,5.3-12.7,4.94-19.85c-0.19-3.72-0.03-7.45-0.03-11.38h84.31c0.7-2.71,1-139.7,0.34-148.53
		c-14.05-0.06-28.13-0.02-42.22-0.02c-14.01-0.01-28.02,0-42.43,0c0-6.72,0-13,0-19.29c0-0.53,0.06-1.06,0.11-1.75h95.34V126.13z"/>
	<path class="st0" d="M124.09,165.14c52.96,0,105.72,0,158.47,0c0.56,2.45,0.75,132.33,0.19,137.55c-52.82,0-105.66,0-158.67,0
		C124.09,256.9,124.09,211.21,124.09,165.14z M134.78,175.76c-0.58,5.79-0.36,113.97,0.21,116.36c8.97,0.66,134.86,0.34,137.25-0.33
		c0-38.64,0-77.27,0-116.03C226.38,175.76,180.68,175.76,134.78,175.76z"/>
	<path class="st0" d="M145.38,271.19c14.06,0,27.94,0,42,0c0,3.47,0,6.83,0,10.33c-14,0-27.88,0-42,0
		C145.38,278.2,145.38,274.85,145.38,271.19z"/>
	<path class="st0" d="M145.38,256.64c9.24,0,18.36,0,27.6,0c0,3.47,0,6.83,0,10.33c-9.2,0-18.32,0-27.6,0
		C145.38,263.66,145.38,260.3,145.38,256.64z"/>
	<path class="st0" d="M201.97,281.52c-3.42,0-6.21-1.16-8.39-3.47c-2.18-2.31-3.26-5.16-3.26-8.54c-0.04-2.29,0.5-4.42,1.63-6.38
		c1.13-1.96,2.65-3.54,4.57-4.75s4.09-1.81,6.5-1.81c3.57,0,6.41,1.14,8.51,3.41c2.1,2.27,3.15,5.1,3.15,8.48
		c0,2.29-0.55,4.43-1.66,6.41c-1.11,1.98-2.62,3.59-4.54,4.81C206.54,280.91,204.38,281.52,201.97,281.52z M194.05,246.68
		l-3.03-67.7h23.19l-2.33,67.7H194.05z"/>
</g>
</svg>
