<?xml version="1.0" encoding="utf-8"?>
<!-- Generator: Adobe Illustrator 24.0.0, SVG Export Plug-In . SVG Version: 6.00 Build 0)  -->
<svg version="1.1" xmlns="http://www.w3.org/2000/svg" xmlns:xlink="http://www.w3.org/1999/xlink" x="0px" y="0px"
	 viewBox="0 0 512 512" style="enable-background:new 0 0 512 512;" xml:space="preserve">
<style type="text/css">
	.st0{fill:#9B9B9B;}
	.st1{fill:#FFBF31;}
	.st2{fill:none;}
	.st3{fill:#FFCC30;}
	.st4{fill:#FFFFFF;}
	.st5{fill:#1E1D1C;}
	.st6{fill:#FFCC2A;}
	.st7{fill:#1D1D1B;}
</style>
<g id="GUIAS">
</g>
<g id="Capa_2">
	<path class="st5" d="M445.03,422.94H66.26c-18.49,0-33.63-15.13-33.63-33.63V39.49c0-18.49,15.13-33.63,33.63-33.63h378.76
		c18.49,0,33.63,15.13,33.63,33.63v349.83C478.65,407.81,463.52,422.94,445.03,422.94z"/>
	<g>
		<path d="M198.17,503.45c-0.53-0.92-1.02-1.93-1.47-3c-0.45-1.08-0.92-2.12-1.39-3.14c-0.47-1.01-0.98-1.91-1.54-2.69
			c-0.35-0.49-0.74-0.87-1.16-1.18c0.44-0.19,0.86-0.39,1.25-0.63c1.11-0.69,1.97-1.64,2.59-2.87c0.62-1.22,0.92-2.77,0.92-4.63
			c0-1.65-0.28-3.04-0.85-4.16c-0.56-1.11-1.33-2-2.3-2.67c-0.97-0.66-2.07-1.14-3.3-1.42c-1.23-0.29-2.52-0.43-3.85-0.43
			c-1.81,0-3.36,0.05-4.66,0.15c-1.3,0.1-2.43,0.15-3.41,0.15c-0.26,0-0.51,0-0.76,0c-0.25,0-0.5,0-0.75,0c-0.25,0-0.51,0-0.76,0
			v28.61h6.03v-10.9c1.52,0,2.7-0.02,3.56-0.07c0.06,0,0.11-0.01,0.17-0.01c0.64,0.08,1.2,0.39,1.66,0.96
			c0.49,0.6,0.92,1.36,1.29,2.27c0.37,0.91,0.73,1.87,1.07,2.87c0.34,1,0.71,1.93,1.11,2.79c0.28,0.61,0.48,1.06,0.61,1.34
			c0.12,0.28,0.27,0.52,0.43,0.74h6.68c-0.19-0.35-0.39-0.69-0.59-1.04C198.56,504.17,198.37,503.81,198.17,503.45z M185.4,490.55
			c-0.51,0-1-0.01-1.49-0.04c-0.49-0.02-0.87-0.06-1.14-0.1v-9.15c0.51-0.12,1.08-0.2,1.69-0.26c0.62-0.06,1.23-0.09,1.83-0.09
			c1.36,0,2.42,0.2,3.18,0.59c0.76,0.39,1.29,0.93,1.59,1.62c0.3,0.69,0.45,1.46,0.45,2.34c0,1.55-0.41,2.79-1.22,3.7
			c-0.81,0.92-2.04,1.38-3.67,1.38C186.32,490.55,185.91,490.55,185.4,490.55z"/>
		<path d="M217.62,485.69c-0.8-0.66-1.7-1.14-2.72-1.44c-1.01-0.29-2.08-0.44-3.2-0.42c-2.21,0.01-4.07,0.5-5.6,1.45
			c-1.53,0.96-2.69,2.26-3.49,3.9c-0.8,1.64-1.2,3.5-1.2,5.58c0,3.47,0.88,6.18,2.64,8.14c1.76,1.96,4.29,2.94,7.58,2.94
			c1.1,0,2.18-0.1,3.22-0.3c1.05-0.2,1.98-0.46,2.81-0.79c0.83-0.33,1.48-0.68,1.95-1.07l-0.98-3.2c-0.35,0.18-0.85,0.36-1.5,0.53
			c-0.65,0.17-1.35,0.31-2.08,0.41c-0.73,0.1-1.41,0.15-2.02,0.15c-1.13,0-2.12-0.18-2.97-0.55c-0.85-0.37-1.53-0.97-2.02-1.81
			c-0.46-0.78-0.72-1.81-0.79-3.07h12.82c0.09-0.47,0.15-1.05,0.17-1.71c0.03-0.67,0.04-1.39,0.04-2.17
			c-0.01-1.57-0.26-2.89-0.74-3.98C219.05,487.23,218.41,486.35,217.62,485.69z M214.81,493h-7.5c0.08-0.77,0.2-1.45,0.36-2.01
			c0.35-1.19,0.86-2.02,1.52-2.51s1.43-0.73,2.32-0.73c0.91,0,1.62,0.22,2.12,0.66c0.5,0.44,0.84,1.06,1.01,1.85
			C214.82,491.04,214.87,491.96,214.81,493z"/>
		<path d="M238.23,484.45c-1.28-0.46-2.91-0.69-4.88-0.69c-1.21,0-2.41,0.13-3.6,0.4c-1.19,0.26-2.25,0.57-3.18,0.92
			s-1.6,0.65-2.04,0.9l1.27,3.7c0.53-0.27,1.18-0.52,1.96-0.75c0.78-0.23,1.61-0.42,2.49-0.56c0.88-0.14,1.72-0.21,2.53-0.21
			c1.08,0,1.91,0.17,2.48,0.51c0.58,0.34,0.87,1.06,0.87,2.15v1.58c-0.86,0-1.79,0.04-2.78,0.12c-1,0.08-1.99,0.21-2.98,0.4
			c-1,0.19-1.91,0.46-2.75,0.81c-1.22,0.53-2.18,1.26-2.9,2.2c-0.71,0.94-1.07,2.06-1.07,3.37c0,1.31,0.29,2.46,0.86,3.45
			c0.57,0.99,1.37,1.76,2.4,2.31c1.03,0.55,2.22,0.83,3.58,0.83c1.37,0,2.56-0.22,3.57-0.67c1.01-0.45,1.8-0.93,2.38-1.44v1.81h5.56
			v-14.17c0-1.95-0.31-3.48-0.93-4.58C240.45,485.7,239.51,484.91,238.23,484.45z M234.17,501.82c-0.47,0.13-0.94,0.19-1.42,0.19
			c-0.91,0-1.65-0.25-2.23-0.74c-0.58-0.49-0.87-1.26-0.87-2.3c0-0.8,0.2-1.39,0.59-1.77c0.39-0.39,0.84-0.69,1.34-0.92
			c0.36-0.15,0.81-0.29,1.34-0.41c0.53-0.12,1.09-0.21,1.67-0.28c0.58-0.06,1.1-0.1,1.56-0.1v5.39c-0.13,0.15-0.37,0.32-0.73,0.49
			C235.05,501.54,234.63,501.69,234.17,501.82z"/>
		<path d="M259.88,501.05c-0.83,0.21-1.74,0.31-2.71,0.31c-1,0-1.91-0.24-2.72-0.72c-0.82-0.48-1.46-1.23-1.93-2.25
			c-0.47-1.02-0.68-2.33-0.64-3.94c0.04-1.49,0.32-2.67,0.86-3.56c0.53-0.89,1.2-1.52,2-1.91c0.8-0.39,1.62-0.58,2.45-0.58
			c1.05,0,1.93,0.09,2.65,0.27c0.71,0.18,1.31,0.42,1.78,0.71l0.73-4.49c-0.35-0.24-1.03-0.48-2.05-0.71
			c-1.02-0.23-2.23-0.35-3.63-0.35c-2.43,0-4.43,0.5-6,1.49c-1.57,1-2.74,2.34-3.51,4.03c-0.77,1.69-1.16,3.59-1.16,5.7
			c0,2.05,0.37,3.9,1.12,5.53c0.74,1.63,1.85,2.92,3.33,3.86c1.48,0.94,3.32,1.41,5.54,1.41c1.37,0,2.68-0.16,3.92-0.47
			c1.24-0.31,2.17-0.78,2.78-1.4l-0.86-3.6C261.36,500.62,260.71,500.84,259.88,501.05z"/>
		<path d="M278.17,500.95c-0.4,0.13-0.82,0.23-1.25,0.32c-0.44,0.08-0.82,0.12-1.15,0.12c-0.66,0-1.16-0.09-1.5-0.26
			c-0.35-0.17-0.59-0.57-0.73-1.19c-0.14-0.62-0.21-1.61-0.21-2.97v-8.84h5.76v-4.02h-5.76v-4.89h-3.54
			c-0.18,0.48-0.35,0.94-0.52,1.41c-0.17,0.46-0.32,0.89-0.47,1.29c-0.15,0.4-0.29,0.74-0.41,1.04c-0.26,0.6-0.67,1.03-1.24,1.27
			c-0.57,0.24-1.33,0.5-2.28,0.77v3.14h2.6v11.32c0,1.54,0.21,2.78,0.63,3.72c0.42,0.94,1.05,1.62,1.9,2.05
			c0.85,0.43,1.93,0.65,3.24,0.65c0.92,0,1.83-0.1,2.72-0.31c0.89-0.21,1.67-0.46,2.37-0.78c0.69-0.31,1.21-0.63,1.56-0.93
			l-0.77-3.29C278.87,500.69,278.56,500.82,278.17,500.95z"/>
		<path d="M286.94,474.31c-0.65,0-1.27,0.16-1.84,0.48c-0.57,0.32-1.03,0.75-1.39,1.28c-0.35,0.53-0.53,1.12-0.53,1.76
			c0,0.95,0.33,1.72,0.98,2.31c0.65,0.59,1.46,0.89,2.41,0.89c1.01,0,1.89-0.34,2.63-1.03c0.74-0.69,1.11-1.52,1.11-2.49
			c0-0.94-0.3-1.7-0.89-2.3C288.82,474.6,288,474.31,286.94,474.31z"/>
		<rect x="283.94" y="484.13" width="5.87" height="21.43"/>
		<polygon points="305.41,494.56 304.08,499.91 302.64,494.56 299.3,484.1 293.01,484.1 301.25,505.86 306.7,505.86 314.82,484.1 
			308.62,484.1 		"/>
		<path d="M332.67,485.41c-1.5-1.05-3.51-1.58-6.03-1.58c-2.02,0-3.82,0.41-5.4,1.21c-1.59,0.81-2.84,2-3.75,3.56
			c-0.92,1.57-1.4,3.49-1.43,5.78c-0.01,1.54,0.16,3,0.52,4.38s0.94,2.6,1.74,3.67c0.8,1.07,1.86,1.9,3.17,2.51
			c1.31,0.61,2.9,0.91,4.77,0.91c2.04,0,3.85-0.4,5.43-1.21s2.82-2,3.73-3.57c0.91-1.57,1.38-3.51,1.41-5.81
			c0.04-2.04-0.27-3.93-0.92-5.67C335.25,487.86,334.17,486.47,332.67,485.41z M329.74,500.05c-0.69,1.15-1.8,1.73-3.33,1.71
			c-1.04,0-1.87-0.33-2.49-0.98c-0.62-0.65-1.08-1.53-1.36-2.63c-0.28-1.1-0.42-2.3-0.42-3.61c0-2.14,0.35-3.78,1.04-4.92
			c0.69-1.14,1.81-1.7,3.35-1.68c1.03,0.01,1.85,0.34,2.47,0.98s1.08,1.49,1.36,2.56c0.28,1.07,0.42,2.25,0.42,3.54
			C330.78,497.22,330.44,498.89,329.74,500.05z"/>
		<path d="M355.26,496.42c-0.53-0.8-1.32-1.52-2.37-2.14c-1.05-0.62-2.34-1.25-3.88-1.88c-1.04-0.44-1.85-0.83-2.44-1.19
			c-0.59-0.35-0.87-0.89-0.86-1.63c0-0.56,0.29-1,0.86-1.3c0.57-0.3,1.48-0.45,2.72-0.45c0.68,0,1.35,0.07,2.01,0.22
			c0.66,0.15,1.25,0.34,1.78,0.57c0.53,0.23,0.91,0.45,1.16,0.65l0.63-4.22c-0.41-0.24-1.17-0.51-2.28-0.8
			c-1.11-0.29-2.45-0.43-4.03-0.43c-1.55,0-2.97,0.22-4.25,0.67c-1.28,0.44-2.3,1.11-3.06,1.99c-0.76,0.89-1.15,2-1.16,3.33
			c-0.01,1.13,0.2,2.12,0.64,2.96c0.44,0.84,1.12,1.59,2.02,2.24c0.91,0.66,2.05,1.26,3.44,1.81c0.77,0.31,1.47,0.61,2.1,0.89
			c0.63,0.29,1.13,0.6,1.49,0.93c0.37,0.33,0.55,0.72,0.55,1.17c0,0.65-0.28,1.15-0.83,1.47c-0.55,0.33-1.41,0.48-2.58,0.47
			c-0.92,0-1.82-0.11-2.69-0.34c-0.87-0.23-1.63-0.47-2.25-0.74c-0.63-0.27-1.05-0.49-1.25-0.65l-0.66,4.14
			c0.37,0.26,0.94,0.51,1.7,0.77c0.76,0.26,1.65,0.47,2.66,0.64s2.06,0.26,3.15,0.26c2.59,0,4.65-0.55,6.18-1.66
			c1.53-1.1,2.29-2.72,2.29-4.85C356.06,498.2,355.79,497.22,355.26,496.42z"/>
	</g>
	<g>
		<path class="st3" d="M197.88,183.73c-0.04,15.56-12.8,28.27-28.37,28.25c-15.66-0.01-28.42-12.88-28.31-28.56
			c0.1-15.55,12.92-28.2,28.5-28.12C185.27,155.38,197.93,168.15,197.88,183.73z M169.53,203.88c11.13,0,20.25-9.1,20.25-20.24
			c0-11.15-9.09-20.24-20.24-20.24c-11.14,0-20.24,9.09-20.24,20.23C149.3,194.77,158.4,203.88,169.53,203.88z"/>
		<g>
			<path class="st4" d="M371.45,297.69c-0.46-0.27-0.92-0.54-1.4-0.81l-0.66-0.38l-1.52-0.88l1.17-1.31
				c6.05-6.74,7.33-15,3.43-22.09c-3.76-6.83-9.31-10.16-16.97-10.16c-1.19,0-2.44,0.08-3.73,0.25l-1.18,0.15l-0.36-1.13
				c-0.02-0.07-0.05-0.14-0.08-0.22c-0.09-0.25-0.21-0.56-0.26-0.93c-0.46-3.27-1.62-6.41-3.42-9.33
				c-4.37-7.06-10.63-11.33-18.61-12.71c-1.24-0.21-2.1-0.36-2.63-1.17c-0.54-0.82-0.32-1.69,0.01-3.01
				c0.34-1.34,0.7-2.89,0.77-4.44c0.29-6.48-1.96-12.56-6.33-17.13c-4.37-4.56-10.33-7.08-16.79-7.08c-0.18,0-0.36,0-0.55,0.01
				c-0.22,0.01-0.45,0.04-0.67,0.06c-0.33,0.04-0.69,0.09-1.08,0.09c-0.58,0-1.09-0.1-1.56-0.31l-0.71-0.32l-0.12-0.77
				c-0.04-0.16-0.09-0.39-0.05-0.68c0.1-0.88,0.53-1.51,0.88-2.02c0.11-0.16,0.21-0.31,0.3-0.47c2.6-4.89,3.12-9.64,1.59-14.52
				c-1.98-6.32-6.02-10.43-12.34-12.56c-2.64-0.89-3.03-1.44-3.03-4.24l0-4.31v-0.36h-5.14v21.24h5.16v-5.62v-2.04l1.91,0.69
				c3.92,1.41,6.93,4.4,8.27,8.22c1.32,3.78,0.86,7.93-1.27,11.4c-0.67,1.09-1.25,2.03-2.49,2.03c-0.7,0-1.29-0.32-2.12-0.77
				c-3.18-1.73-6.45-2.68-9.71-2.81c-0.38-0.02-0.75-0.02-1.12-0.02c-7.2,0-13.3,2.92-18.12,8.68c-0.06,0.07-0.1,0.16-0.15,0.24
				c-0.28,0.5-0.87,1.53-2.28,1.58l-0.72,0.03l-0.45-0.57l-0.42-0.54c-0.27-0.34-0.53-0.68-0.81-1.01
				c-4.76-5.59-10.78-8.42-17.9-8.42c-0.24,0-0.49,0-0.74,0.01c-3.56,0.09-7.04,1.1-10.36,3c-0.5,0.28-1.04,0.56-1.7,0.56
				c-0.76,0-1.45-0.37-2.04-1.09c-2.55-3.14-3.31-7.52-2.02-11.7c1.31-4.28,4.51-7.56,8.54-8.78l1.84-0.56v1.93
				c0,0.58,0,1.16,0.01,1.74c0.01,1.29,0.02,2.62-0.02,3.94c0.89-0.03,1.79-0.05,2.68-0.05c0.86,0,1.73,0.02,2.59,0.05
				c-0.04-2.27-0.03-4.58-0.02-6.81l0.01-2.66l0-3.24c-0.01-2.87-0.01-5.83,0.02-8.76c-0.83,0.03-1.67,0.04-2.5,0.04
				c-0.92,0-1.84-0.01-2.76-0.03c0,0.73,0,1.42,0,2.11c-0.01,1.06-0.01,2.16,0.02,3.23c0.04,1.31-0.2,2.9-2.51,3.53
				c-5.61,1.53-10.25,5.72-12.41,11.21c-2.18,5.52-1.58,11.68,1.65,16.89c0.03,0.05,0.06,0.09,0.09,0.13
				c0.26,0.36,1.05,1.44,0.2,2.76l-0.42,0.65h-0.78h-0.98l-0.99,0l-0.99,0c-7.94,0.01-14.29,3.15-18.87,9.34
				c-4.24,5.73-5.5,12.17-3.74,19.14l0.14,0.52c0.25,0.94,0.49,1.83-0.07,2.66c-0.62,0.92-1.81,1.06-3.06,1.21
				c-1.41,0.17-2.88,0.57-4.49,1.23c-9.37,3.82-15.11,10.69-17.07,20.43l-0.02,0.11c-0.14,0.72-0.48,2.4-2.42,2.4
				c-0.23,0-0.48-0.02-0.75-0.08c-0.97-0.18-1.97-0.27-2.98-0.27c-6.68,0-13.08,3.85-16.31,9.81c-3.79,7-2.85,15.22,2.46,21.45
				c0.04,0.05,0.09,0.09,0.13,0.13c0.33,0.32,1.02,1,0.89,2.14l-0.08,0.75l-0.66,0.36l-0.53,0.28c-0.33,0.17-0.65,0.34-0.96,0.53
				c-8.21,5.05-12.1,12.18-11.55,21.2c0.54,8.91,5.09,15.47,13.53,19.5c2.9,1.39,6.19,2,10.67,2c36.75-0.02,73.46-0.02,110.19-0.02
				l33.99,0l33.99,0l6.15,0l6.15,0c3.24,0,6.48,0,9.72,0.02l0.22,0c1.86,0,4.04-0.08,6.13-0.69c9.93-2.91,15.72-9.47,17.18-19.5
				C383.83,311.18,379.48,302.44,371.45,297.69z M354.72,267.29c0.34-0.02,0.68-0.04,1.02-0.04c5.57,0,10.52,3.32,12.62,8.47
				c2.25,5.52,0.83,11.26-3.81,15.35l-1.23,1.08l-0.91-1.36c-4.4-6.58-10.51-10.68-18.16-12.2l-1.5-0.3l0.4-1.48
				C344.55,271.6,349.31,267.68,354.72,267.29z M261.72,216.21c1.76-7.93,8.93-13.71,17.05-13.75c8.33,0,15.55,5.8,17.27,13.79
				c0.1,0.44,0.14,0.89,0.18,1.33c0.03,0.36,0.09,0.94,0.18,1.18c0.06,0.01,0.17,0.04,0.38,0.04c0.3,0,0.62-0.04,0.95-0.07
				c0.4-0.04,0.82-0.09,1.25-0.09l0.15,0c0.48,0.01,0.97,0.02,1.46,0.02l1.12,0c-0.03-1.15-0.28-2.26-0.54-3.42
				c-0.21-0.92-0.42-1.88-0.52-2.87l-0.14-1.38l1.37-0.18c0.66-0.09,1.32-0.13,1.98-0.13c6.97,0,13.55,4.88,16,11.87
				c3.03,8.64-1.74,17.45-7.91,20.66l-2.09,1.09v-2.36c0-0.56-0.01-1.11-0.02-1.64c-0.02-1.19-0.04-2.32,0.03-3.48
				c0.11-1.83-0.53-3.58-1.81-4.93c-1.38-1.47-3.33-2.31-5.36-2.31c-4.87,0.06-10.06,0.08-16.4,0.08c-3.78,0-7.55-0.01-11.33-0.02
				c-3.36-0.01-6.72-0.02-10.08-0.02l-0.68,0.01l-0.45,0c-0.54,0-1.36,0-1.96-0.62c-0.61-0.63-0.58-1.4-0.55-2.38l0.02-0.56
				c0.02-0.91,0.01-1.83-0.01-2.75C261.22,221.01,261.18,218.63,261.72,216.21z M312.72,264.5c-0.03,5.89-3.76,11.08-9.07,12.61
				l-1.83,0.53v-1.9v-22.15v-1.68l1.66,0.26C308.72,253,312.75,259.48,312.72,264.5z M300.64,234.87L300.64,234.87
				c0.38,0,0.69-0.01,0.96-0.01c0.22,0,0.41-0.01,0.57-0.01c0.48,0,1.28,0,1.88,0.62c0.61,0.63,0.59,1.39,0.56,2.44
				c-0.01,0.26-0.02,0.57-0.02,0.92c-0.01,0.49,0.02,0.99,0.04,1.48c0.06,1.41,0.13,2.87-0.35,4.39l-0.31,0.97l-1.02,0.02
				c-0.55,0.01-1.11,0.03-1.66,0.05c-1.21,0.04-2.43,0.07-3.64,0.07c-16.61,0-33.22,0.01-49.83,0.01l-15.53,0h-15.53h-2.56h-1.43
				v-1.43v-8.1v-1.43h1.43h2.53l18.69,0l18.7,0C269.62,234.86,285.13,234.86,300.64,234.87z M215.43,251.54v1.96v22.14v1.55
				l-1.55-0.12c-4.39-0.36-9.1-6.26-9.32-11.69c-0.25-6.03,3.46-11.48,9-13.24L215.43,251.54z M196.97,223.9
				c1.91-7.53,9.07-13.21,16.66-13.21c0.61,0,1.22,0.04,1.82,0.11l1.53,0.18l-0.29,1.51c-0.13,0.66-0.27,1.3-0.42,1.94
				c-0.32,1.43-0.63,2.79-0.7,4.22h0.62l2.01,0l2.66,0l0.05-0.36c0.15-1.09,0.3-2.22,0.63-3.33c2.18-7.27,9.26-12.54,16.83-12.54
				c0.68,0,1.37,0.04,2.04,0.13c8.76,1.1,15.32,8.2,15.58,16.88c0.06,1.97,0.05,3.89,0.03,5.93c-0.01,0.93-0.01,1.87-0.01,2.82v1.43
				h-1.43h-2.66l-10.67,0l-10.67,0c-5.37,0-10.74,0-16.11,0.02c-4.21,0.01-6.97,2.75-7.04,6.99c-0.01,0.66-0.01,1.33-0.01,2l0,1.02
				v2.04v1.95l-1.86-0.59C199.92,241.25,194.83,232.32,196.97,223.9z M148.65,276.26c1.93-5.38,7.07-9,12.79-9
				c5.81,0,10.66,3.62,12.69,9.45l0.54,1.54l-1.6,0.33c-7.86,1.61-13.81,5.59-18.18,12.17l-0.87,1.32l-1.22-1
				C148.29,287.39,146.7,281.71,148.65,276.26z M218.01,334.91h-2.06l-16.06,0l-16.06,0c-8.6,0-17.21,0-25.81,0.01
				c-6.28,0-11.28-2.46-14.87-7.32c-2.82-3.82-3.93-8.53-3.12-13.26c0.82-4.75,3.44-8.83,7.4-11.5c0.28-0.19,0.56-0.31,0.81-0.43
				c0.1-0.04,0.2-0.09,0.3-0.14l1.91-0.95l0.15,2.13l0.11,1.62c0.07,1.07,0.15,2.11,0.22,3.15c1.7-0.31,3.41-0.6,5.12-0.88
				c-0.15-2.33-0.04-4.41,0.34-6.35c1.97-10.16,10.91-17.54,21.26-17.54c2.57,0,5.11,0.46,7.54,1.38c0.46,0.17,0.9,0.37,1.35,0.57
				l0.34,0.15c0.11,0.05,0.22,0.1,0.32,0.14c0.04-0.08,0.09-0.16,0.11-0.21c0.34-0.62,0.7-1.22,1.08-1.83c0.51-0.83,1-1.63,1.4-2.48
				c-2.08-1.16-4.45-1.96-7.19-2.43c-1.19-0.2-2.47-0.68-3-2.64c-1.06-3.94-3.1-7.14-6.07-9.5c-1.65-1.32-1.43-3-1.29-4.01
				c1.16-8.65,5.71-14.71,13.53-18.03c2.51-1.06,5.18-1.6,7.93-1.6c0.36,0,0.72,0.01,1.08,0.03l0.15,0.01c0.73,0.03,1.83,0.08,2.7,1
				c1.75,1.84,3.92,3.43,6.64,4.85l1,0.52l-0.27,1.09c-0.26,1.07-0.87,1.71-1.31,2.17c-0.11,0.12-0.23,0.24-0.33,0.36
				c-3.87,5.02-5.05,11.28-3.22,17.19c1.83,5.91,6.33,10.42,12.37,12.38c2.57,0.83,2.99,1.4,2.99,4.03l0,22.36v9.01
				c0,7.59,0.18,8.29,3.75,14.83l1.16,2.12H218.01z M288.82,333.52c-1.77,0.92-3.71,1.38-5.77,1.38c-4.6,0-9.19,0-13.79,0.01
				c-4.76,0-9.52,0.01-14.28,0.01c-6.92,0-13.85-0.01-20.77-0.04c-7.44-0.03-13.34-5.97-13.43-13.53c0-0.27-0.05-0.61-0.1-0.97
				c-0.16-1.23-0.39-2.92,0.98-4c0.75-0.59,1.67-0.66,2.31-0.66c0.4,0,0.82,0.03,1.24,0.07c0.34,0.03,0.67,0.06,0.98,0.06l0.67,0
				c1.68-0.01,3.36-0.01,5.04-0.01c1.68,0,3.37,0.01,5.05,0.03c-0.06-0.86-0.03-1.7,0-2.52c0.03-0.95,0.06-1.85-0.04-2.72
				c-0.45-0.03-0.94-0.04-1.51-0.04c-0.51,0-1.01,0.01-1.52,0.02c-0.53,0.01-1.06,0.02-1.58,0.02l-0.47,0
				c-1.32-0.02-2.65-0.03-3.97-0.03c-1.44,0-2.89,0.01-4.33,0.04l-0.12,0c-0.63,0-1.43-0.08-2.04-0.71
				c-0.69-0.72-0.64-1.7-0.62-2.02c0.09-1.9,0.09-3.72,0-5.42c-0.02-0.33-0.07-1.35,0.64-2.09c0.71-0.75,1.7-0.75,2.24-0.75
				c3.53,0.02,7.01,0.02,10.48,0.02l5.08,0l4.72,0c0.4,0,0.84,0,1.14-0.02c0.02-0.32,0.02-0.8,0.02-1.27c0-1.3,0-2.6,0-3.9H222.2
				h-1.42l-0.01-1.42c-0.02-2.9-0.02-5.5,0-8.2l0.01-1.42h1.42h14.65v-5.22h-14.57h-1.43v-1.43v-8.08v-1.43h1.43h22.66v-5.22h-22.64
				h-1.43v-1.43v-7.92v-0.86l0.76-0.4c0.7-0.37,1.36-0.41,1.8-0.41c0.22,0,0.43,0.01,0.64,0.03c0.15,0.01,0.3,0.02,0.45,0.02
				c12.84-0.01,25.67-0.01,38.51-0.01c9.85,0,19.7,0,29.55,0.01c0.37,0,0.67-0.01,0.93-0.01c0.21,0,0.4-0.01,0.56-0.01
				c0.48,0,1.28,0,1.87,0.61c0.61,0.62,0.59,1.37,0.57,2.41c-0.01,0.27-0.01,0.6-0.01,0.98c0.01,21.93,0.01,43.85,0,65.78
				C296.5,326.61,293.92,330.89,288.82,333.52z M376.54,322.85c-2.37,7.07-8.86,11.91-16.14,12.02c-2.5,0.04-5.22,0.06-8.54,0.06
				c-1.93,0-3.87-0.01-5.8-0.01c-1.93-0.01-3.86-0.01-5.79-0.01h-0.13l-15.39,0h-11.4l-11.4,0h-2.91h-2.81l1.65-2.27
				c2.77-3.81,3.98-7.98,3.91-13.52c-0.09-7.86-0.07-15.85-0.05-23.57c0.01-3.03,0.01-6.05,0.02-9.08c0-2.41,0.32-3.11,2.68-3.8
				c6.1-1.77,10.85-6.49,12.71-12.61c1.87-6.16,0.49-12.61-3.78-17.7l-0.5-0.61l-0.28-0.34l-0.49-0.59l0.22-0.73
				c0.37-1.26,1.36-1.69,1.89-1.92c0.1-0.04,0.19-0.08,0.28-0.13l0.66-0.39c1.1-0.65,2.15-1.27,2.82-2.11
				c1.88-2.33,4.19-2.6,5.77-2.6c0.44,0,0.9,0.02,1.36,0.07c10.64,0.96,18.85,9.08,19.96,19.75c0.09,0.9,0.27,2.57-1.41,3.93
				c-2.94,2.38-4.93,5.51-5.92,9.3c-0.54,2.07-1.86,2.56-3.2,2.77c-2.24,0.36-4.55,1.14-7.08,2.4c0.17,0.28,0.33,0.56,0.48,0.84
				c0.13,0.24,0.26,0.48,0.4,0.71c0.27,0.44,0.49,0.9,0.71,1.35c0.35,0.71,0.75,1.52,1.14,1.8c0.25-0.05,0.79-0.36,1.12-0.55
				c0.51-0.29,1.08-0.62,1.7-0.81c2.17-0.69,4.41-1.03,6.64-1.03c5.72,0,11.33,2.35,15.39,6.44c4.1,4.13,6.33,9.64,6.29,15.53
				c-0.01,0.8-0.01,1.62,0.06,1.94c0.31,0.12,1.12,0.24,1.91,0.35c0.22,0.03,0.45,0.06,0.68,0.08c0.38,0.04,0.75,0.08,1.13,0.15
				c0.55,0.1,1.02,0.19,1.35,0.23c0.04-0.38,0.06-0.95,0.08-1.46c0.03-0.66,0.02-1.32,0.01-2.02c0-0.34-0.01-0.7-0.01-1.06v-1.51
				l1.51,0.08c1.37,0.08,2.21,0.82,2.77,1.31c0.09,0.08,0.18,0.16,0.28,0.24C376.72,308.39,378.88,315.89,376.54,322.85z"/>
			<path class="st4" d="M264.11,175.31l0.01,0.99c0.01,0.62,0.01,1.25,0,1.87c0.49-0.01,0.98-0.01,1.46-0.01l1.24,0l1.23,0l0.96,0
				c0.11,0,0.23,0,0.34,0c0-0.12,0-0.23,0-0.33c0-3.54,0-7.08,0-10.62c0-4.72,0-9.45,0.01-14.17c0-0.2-0.01-0.4-0.02-0.61
				c-0.03-0.78-0.07-1.65,0.29-2.58l0.33-0.86l0.92-0.05l0.04,0l0.1,0c1.3,0,1.81,0.98,2.01,1.35l0.06,0.12
				c1.39,2.34,3.43,3.48,6.22,3.48c0.58,0,1.07-0.01,1.56-0.01l1.81,0l1.8,0c0.75,0,1.49,0,2.24-0.01c3.41-0.05,5.87-1.95,6.77-5.23
				c0.67-2.44,1.23-2.86,3.77-2.86h0.71l5.65,0.01l5.64,0.01c3.5,0,7-0.01,10.5-0.04h0.01l0.1,0c1.89,0,3.52,0.51,5.14,1.6
				c10.55,7.1,20.24,13.56,29.61,19.75c3.06,2.02,6.17,3.04,9.24,3.04c3,0,6.06-0.97,9.12-2.88c1.57-0.98,3.26-2.12,5.16-3.48
				c3.02-2.15,4.55-5.09,4.56-8.74c0.04-15.94,0.04-32.11,0-48.06c-0.01-3.66-1.54-6.6-4.56-8.74c-1.57-1.11-3.65-2.56-5.79-3.88
				c-2.57-1.58-5.37-2.39-8.32-2.39c-0.32,0-0.64,0.01-0.96,0.03c-3,0.17-5.85,1.15-8.48,2.91c-9.93,6.66-19.88,13.28-29.83,19.9
				l-0.2,0.13c-0.87,0.59-1.96,1.32-3.52,1.32c-4.07-0.03-8.11-0.04-12.15-0.04c-4.13,0-8.27,0.01-12.4,0.03
				c-2.11,0-2.67-1.26-2.94-2.48c-0.82-3.71-3.21-5.6-7.09-5.63c-0.96-0.01-1.92-0.01-2.87-0.01c-1.06,0-2.13,0-3.19,0.01l-1,0
				c-0.72,0-1.46,0-2.12,0.19c-3.15,0.89-5.03,3.38-5.05,6.65c-0.04,7.99-0.02,16.1,0,23.26c0,0.87,0,2.48-1.96,3.45
				c-4.17,2.08-6.18,5.46-6.16,10.34c0.02,5.43,0.02,10.86,0.01,16.3L264.11,175.31z M294.3,122.12c0.66-0.67,1.55-0.68,1.85-0.68
				c0,0,0,0,0,0c0.07,0,0.15,0,0.23,0.01c1.52,0.07,3.08,0.08,4.59,0.09c0.64,0,1.28,0.01,1.91,0.02l1,0.01l0.33,0.95
				c0.56,1.6,0.48,3.19,0.4,4.6c-0.04,0.7-0.07,1.36-0.03,1.99c0.01,0.17,0.01,0.33,0.02,0.47l0.27,0c0.61-0.01,1.22-0.01,1.83-0.01
				l1.52,0l1.23,0l0.4,0c0-0.06,0-0.12,0-0.17l0-0.35c0-0.64,0-1.28,0-1.92c0-0.87,0-1.75,0-2.62c0-0.16-0.01-0.29-0.01-0.42
				c-0.03-0.56-0.06-1.32,0.53-1.93c0.61-0.64,1.48-0.69,2.32-0.69l0.33,0c0.78,0.01,1.56,0.02,2.34,0.02l1.86-0.01l2.02-0.01h1.43
				v1.43v6.66c0.88,0.01,1.74,0.01,2.6,0.01c0.93,0,1.85,0,2.79-0.01c0-0.36,0-0.72,0.01-1.07c0.01-1.97,0.02-3.83-0.03-5.69
				c-0.05-1.74,0.57-2.93,2.01-3.89c8.4-5.55,16.91-11.23,25.14-16.73l4.27-2.85c2.13-1.42,4.31-2.14,6.49-2.14
				c2.15,0,4.31,0.71,6.41,2.1c1.5,0.99,2.97,1.96,4.42,2.95c1.82,1.23,2.75,2.91,2.74,4.99c-0.03,6.36-0.04,12.72-0.06,19.08
				l-0.02,5.19l0.02,6.09c0.02,5.7,0.03,11.4,0.06,17.11c0.01,2.09-0.88,3.78-2.66,5.01c-0.95,0.66-1.91,1.3-2.88,1.93
				c-0.51,0.34-1.03,0.68-1.54,1.02c-2.13,1.43-4.32,2.15-6.5,2.15c-2.21,0-4.43-0.74-6.6-2.21c-3.85-2.59-7.72-5.16-11.58-7.73
				l-3.91-2.6l-5.73-3.81c-3.47-2.31-6.94-4.62-10.41-6.93c-0.43-0.29-0.81-0.6-1.19-0.9c-0.03-0.02-0.06-0.05-0.09-0.08
				l-25.63-0.02l-0.94,0l-0.57-0.01l-0.53-0.01c-0.19,0-0.38,0-0.57,0.02c-0.09,0.01-0.17,0.01-0.25,0.01
				c-0.71,0-1.28-0.22-1.7-0.66c-0.43-0.45-0.64-1.07-0.6-1.84c0.03-0.68,0.02-1.36,0.01-2.03l-0.01-0.94l0-2.99
				c0.01-2.62,0.01-5.25-0.02-7.87C293.62,123.56,293.69,122.74,294.3,122.12z M277.42,142.57c0.03-0.57,0.05-1.13,0.05-1.7
				c-0.05-7.41-0.04-14.94-0.02-22.22l0-1.51c0-0.33,0-0.61-0.01-0.85c-0.02-0.95-0.03-1.7,0.57-2.32c0.59-0.61,1.4-0.61,1.94-0.61
				l0.43,0l0.62,0.01l0.31,0c0.69-0.01,1.39-0.01,2.08-0.01l1.7,0l1.6,0h0.84l0.41,0.73c0.54,0.96,0.5,1.79,0.47,2.34
				c0,0.09-0.01,0.18-0.01,0.27c0.01,7.76,0.01,15.52,0.01,23.29v4.98c0,0.14,0,0.29-0.01,0.43c-0.01,0.24-0.01,0.47,0.01,0.71
				c0.08,0.94-0.26,1.51-0.55,1.83c-0.29,0.31-0.82,0.69-1.72,0.69c-0.11,0-0.23-0.01-0.35-0.02l-0.12,0l-0.18,0h-0.03l-0.1,0
				c-0.3-0.01-0.6-0.01-0.9-0.01c-0.45,0-0.91,0.01-1.36,0.02c-0.47,0.01-0.94,0.02-1.42,0.02c-1.09,0-1.93-0.05-2.73-0.16
				l-0.91-0.13l-0.26-0.88C277.27,145.78,277.35,144.15,277.42,142.57z"/>
			<path class="st4" d="M153.17,145.74c5.18,0.03,10.35,0.04,15.52,0.04c3.67,0,7.33-0.01,11-0.01c3.67-0.01,7.34-0.01,11-0.01h0.16
				l6.56,0l7.04,0c5.33,0,10.66,0,15.99-0.02c1.46,0,2.84,0.32,3.32,2.67c0.72,3.47,3.19,5.41,6.96,5.44l0.48,0
				c1.22,0.01,2.43,0.02,3.65,0.02c1.22,0,2.44-0.01,3.66-0.05c2.21-0.06,3.94-1,5.31-2.87c0.06-0.08,0.1-0.18,0.14-0.28
				c0.24-0.51,0.69-1.46,1.92-1.76l0.9-0.22l0.57,0.74c0.65,0.84,0.59,1.72,0.56,2.26c-0.01,0.09-0.01,0.18-0.01,0.27
				c0.01,4.44,0.01,8.88,0.01,13.32l0,3.63l0,2.57c0,2.23,0.01,4.45-0.02,6.68c0.93-0.04,1.78-0.06,2.62-0.06
				c0.9,0,1.79,0.02,2.65,0.06c0-0.01,0-0.02,0-0.04c-0.01-3.45-0.01-6.9,0-10.35c0.01-5.48,0.01-11.14-0.04-16.71
				c-0.04-4.03-1.93-7.15-5.45-9.03c-2.21-1.18-2.66-2.67-2.65-4.54c0.06-10.03,0.06-20.32,0.01-30.59
				c-0.02-4.06-2.78-6.83-6.87-6.89c-1.01-0.02-2.01-0.02-3.02-0.02c-0.91,0-1.82,0-2.73,0.01l-2.07,0.01
				c-0.7,0-1.28,0.08-1.82,0.25c-2.7,0.83-4.27,2.56-4.78,5.28c-0.33,1.73-1.24,2.61-2.7,2.61c-0.19,0-0.41-0.02-0.65-0.05
				c-0.09-0.01-0.18-0.01-0.27-0.01c-0.12,0-0.23,0-0.35,0.01c-0.15,0.01-0.3,0.01-0.45,0.01l-14.45,0h-14.45l-19.4,0
				c-1.86,0-3.67-0.01-5.48-0.02c-1.81-0.01-3.62-0.02-5.43-0.02c-2.82,0-5.13,0.02-7.27,0.07c-5.9,0.12-11.27,2.96-14.73,7.79
				c-3.49,4.86-4.47,10.9-2.69,16.58C137.88,140.38,145.01,145.69,153.17,145.74z M228.83,142.53c0.03-0.56,0.05-1.12,0.05-1.67
				c-0.04-7.89-0.03-15.92-0.03-23.68l0-7.89c0-3.38,0.66-4.02,4.13-4.02h1.68h1.68h1.75h0.86l0.4,0.76
				c0.51,0.96,0.47,1.78,0.44,2.32c0,0.09-0.01,0.18-0.01,0.28c0.01,10.38,0.01,20.76,0.01,31.14v5.21c0,0.14,0,0.29-0.01,0.43
				c-0.01,0.24-0.01,0.47,0.01,0.71c0.08,0.93-0.25,1.51-0.55,1.83c-0.29,0.31-0.82,0.69-1.73,0.69c-0.11,0-0.23-0.01-0.35-0.02
				l-0.12,0l-0.18,0h-0.03l-0.11,0c-0.3-0.01-0.6-0.02-0.9-0.02c-0.45,0-0.91,0.01-1.36,0.02c-0.47,0.01-0.94,0.02-1.42,0.02
				c-1.09,0-1.93-0.05-2.74-0.17l-0.91-0.13l-0.26-0.88C228.67,145.76,228.75,144.12,228.83,142.53z M140.8,121.93
				c2.09-5.13,6.19-8.08,11.86-8.53c0.51-0.04,1.06-0.06,1.71-0.06c0.45,0,0.92,0.01,1.4,0.02c0.5,0.01,1.02,0.02,1.57,0.02h1.43
				v1.43v14.75c0.7,0,1.39,0,2.09,0l1.79,0l1.43,0V114.9v-1.43h1.43h8.08h1.43v1.43v6.47h5.22v-6.46v-1.43h1.43h8.08h1.43v1.43
				v14.65c0.23,0,0.46,0,0.68,0c0.68-0.01,1.34-0.01,2-0.01c0.87,0,1.73,0.01,2.59,0.04c-0.02-3.15-0.02-6.3-0.01-9.45l0-2.86
				c0-3.28,0.64-3.9,4.01-3.9c0.44,0,0.86,0.01,1.28,0.02c0.4,0.01,0.8,0.02,1.2,0.02c0.56,0,1.02-0.02,1.43-0.06
				c0.17-0.02,0.33-0.02,0.48-0.02c0.82,0,1.46,0.25,1.93,0.73c0.66,0.7,0.7,1.64,0.66,2.39c-0.04,0.74-0.03,1.48-0.01,2.27
				c0.01,0.9,0.03,1.84-0.04,2.79c0.03,0,0.05,0,0.08,0c0.86-0.05,1.77-0.07,2.68-0.07c0.82,0,1.66,0.02,2.53,0.06
				c-0.02-0.84-0.02-1.69-0.01-2.53c0.01-0.98,0.02-1.91-0.02-2.84c-0.01-0.33-0.06-1.33,0.64-2.05c0.68-0.71,1.63-0.71,1.94-0.71
				l0.21,0c0.93,0.03,1.86,0.05,2.79,0.05c0.89,0,1.78-0.02,2.66-0.05l0.22,0c0.3,0,1.2,0,1.87,0.68c0.61,0.62,0.68,1.43,0.68,2.07
				c-0.03,3.15-0.03,6.3-0.02,9.45l0,3.43l-0.01,2.5c-0.01,2.08-0.01,4.22,0.03,6.33c0.01,0.6-0.05,1.47-0.68,2.11
				c-0.29,0.3-0.82,0.65-1.69,0.65c-0.16,0-0.35-0.01-0.55-0.04c-0.05-0.01-0.11-0.01-0.17-0.01c-0.09,0-0.18,0-0.27,0.01
				c-0.12,0-0.25,0.01-0.37,0.01l-16.75,0l-16.75,0c-10.75,0-21.5,0-32.25,0.02c-4.59,0-8.11-1.46-10.79-4.46
				C139.62,131.89,138.73,127,140.8,121.93z"/>
			<path class="st4" d="M363.92,201.28h-0.02c-10.37,0.01-18.79,8.46-18.79,18.83c0.01,10.36,8.45,18.79,18.82,18.79
				c5.02,0,9.74-1.97,13.3-5.54c3.56-3.57,5.51-8.29,5.51-13.3C382.72,209.71,374.28,201.28,363.92,201.28z M364.03,233.66
				L364.03,233.66h-0.09c-3.62,0-7.03-1.42-9.61-4c-2.57-2.58-3.99-5.99-3.98-9.6c0.01-7.47,6.12-13.54,13.61-13.54l0.13,0
				c7.4,0.07,13.42,6.17,13.41,13.6C377.48,227.54,371.44,233.62,364.03,233.66z"/>
		</g>
		<path class="st3" d="M335.57,183.65c0,6.71-5.55,12.2-12.28,12.14c-6.6-0.06-12.01-5.53-12.01-12.15
			c0-6.72,5.53-12.19,12.28-12.14C330.16,171.55,335.57,177.02,335.57,183.65z M327.46,183.63c-0.01-2.18-1.8-3.99-3.99-4.02
			c-2.19-0.02-4.02,1.73-4.08,3.92c-0.06,2.29,1.82,4.19,4.11,4.14C325.68,187.64,327.47,185.81,327.46,183.63z"/>
		<path class="st3" d="M324.93,139.12c2.37-0.74,4.29-2.14,6.14-3.78c5.68-5.04,13.51-5.84,19.97-1.85
			c1.56,0.96,2.91,2.25,4.36,3.39c3.17,2.49,6.28,3.05,9.8,1.24c1.25-0.64,2.38-1.57,3.42-2.53c2.14-1.97,4.54-3.4,7.37-4.1
			c0.03,7.74,0.04,15.48,0.08,23.21c0.01,1.67-0.72,2.91-2.04,3.83c-1.45,1.01-2.93,1.96-4.4,2.94c-3.85,2.58-7.66,2.53-11.5-0.05
			c-5.15-3.47-10.33-6.9-15.5-10.34c-5.38-3.58-10.76-7.16-16.13-10.74C325.96,139.96,325.45,139.52,324.93,139.12z"/>
		<path class="st3" d="M287.56,283.57c0.09,4.21-3.79,8.02-8.03,8.01c-4.21-0.01-8.02-3.82-8-8.05c0.01-4.22,3.83-8.02,8.05-8
			C284.11,275.54,287.69,279.61,287.56,283.57z"/>
		<path class="st3" d="M266.71,301.08c6.89-0.16,12.19,6.12,12.2,12.12c0.02,6.39-5.73,12.19-12.16,12.21
			c-6.39,0.02-12.19-5.74-12.21-12.16C254.54,306.84,260.31,300.93,266.71,301.08z"/>
		<path class="st3" d="M169.54,171.71c6.47-0.58,12.33,5.71,12.06,11.79c-2.39,0.32-4.82,0.06-7.24,0.15
			c-0.7,0.03-0.74-0.44-0.89-0.94c-0.38-1.26-1.06-2.37-2.4-2.73c-1.27-0.34-1.66-0.97-1.57-2.28
			C169.64,175.7,169.54,173.69,169.54,171.71z"/>
	</g>
</g>
</svg>
