<?xml version="1.0" encoding="utf-8"?>
<!-- Generator: Adobe Illustrator 24.0.0, SVG Export Plug-In . SVG Version: 6.00 Build 0)  -->
<svg version="1.1" xmlns="http://www.w3.org/2000/svg" xmlns:xlink="http://www.w3.org/1999/xlink" x="0px" y="0px"
	 viewBox="0 0 512 512" style="enable-background:new 0 0 512 512;" xml:space="preserve">
<style type="text/css">
	.st0{fill:#9B9B9B;}
	.st1{fill:#FFBF31;}
	.st2{fill:none;}
	.st3{fill:#FFCC30;}
	.st4{fill:#FFFFFF;}
	.st5{fill:#1E1D1C;}
	.st6{fill:#FFCC2A;}
	.st7{fill:#1D1D1B;}
</style>
<g id="GUIAS">
</g>
<g id="Capa_2">
	<path class="st4" d="M505.46,239.73c-0.04-0.57-0.02-1.17-0.26-1.69l0.07-0.13l-0.07-0.11c0.04-2.57-0.26-5.11-0.68-7.66
		c0.02-0.02,0.07-0.06,0.07-0.11c-0.02-0.06-0.07-0.16-0.11-0.23c0.04-1.01,0.04-2.01-0.33-2.96l0.07-0.11l-0.09-0.08
		c0.04-0.9,0.02-1.77-0.31-2.63l0.04-0.09l-0.07-0.1c-0.07-1.78-0.33-3.53-0.72-5.26c-0.02-0.4,0-0.81-0.07-1.21
		c-0.81-4.76-1.65-9.5-2.68-14.22c-4.02-18.66-10.12-36.6-18.3-53.86c-8.45-17.84-18.92-34.43-31.36-49.77
		c-12.22-15.12-26.01-28.68-41.37-40.63c-14.64-11.44-30.35-21.1-47.16-29c-10.75-5.05-21.79-9.3-33.16-12.73
		c-14.66-4.43-29.6-7.5-44.84-9.19c-7.81-0.88-15.65-1.38-23.5-1.53c-10.82-0.25-21.62,0.33-32.39,1.53
		c-10.05,1.13-20.01,2.83-29.85,5.15c-20.65,4.9-40.34,12.31-59.08,22.28c-24.29,12.9-45.91,29.36-64.83,49.34
		c-11.15,11.79-21.09,24.52-29.76,38.21c-9.98,15.73-18.1,32.36-24.34,49.92c-4.41,12.44-7.84,25.17-10.23,38.18
		c-0.55,2.95-1.16,5.93-1.41,8.94c-0.02,0.24-0.04,0.48-0.07,0.72l-0.09,0.1l0.07,0.09c-0.57,2.7-0.92,5.44-1.03,8.21l-0.09,0.09
		l0.07,0.09c-0.4,1.08-0.35,2.2-0.33,3.29l-0.09,0.12l0.07,0.11c-0.4,1.18-0.33,2.41-0.33,3.62c-0.02,0.04-0.09,0.09-0.09,0.11
		c0.02,0.09,0.04,0.17,0.07,0.27c-0.48,2.39-0.48,4.84-0.57,7.29c-0.46,10.75-0.37,21.49,0.5,32.23c0.68,8.4,1.73,16.75,3.25,25.04
		c1.1,5.99,2.31,11.96,3.99,17.84c0.09,0.44,0.18,0.9,0.29,1.36c4.98,18.66,11.98,36.52,21.09,53.57c4.24,7.96,9.04,15.6,13.89,23.2
		c0.66,1.03,0.77,1.93,0.44,3.06c-2.04,6.85-3.82,13.74-5.77,20.62c-2.7,9.34-5.09,18.76-7.64,28.13
		c-3.69,13.52-7.4,27.01-11.08,40.52c-0.11,0.4-0.37,0.76-0.02,1.16c0.15-0.02,0.33-0.04,0.48-0.09c8.89-2.3,17.78-4.61,26.64-6.98
		c5.71-1.52,11.46-2.97,17.14-4.56c3.55-1.04,7.18-1.82,10.73-2.81c3.47-0.98,6.98-1.8,10.45-2.76c3.51-0.98,7.05-1.9,10.6-2.72
		c3.86-0.92,7.7-2,11.54-3.01c1.67-0.44,3.38-0.73,4.98-1.34c0.99-0.4,1.71-0.33,2.57,0.17c1.08,0.66,2.19,1.28,3.29,1.94
		c4.92,3,9.88,5.93,14.99,8.57c5.81,3.05,11.7,6,17.75,8.56c4.92,2.09,9.88,4.1,14.88,5.9c9.7,3.49,19.55,6.39,29.6,8.65
		c1.89,0.42,3.75,1.05,5.73,1.09c0.37-0.04,0.75-0.09,1.01,0.23c0.26,0.04,0.5,0.09,0.77,0.11c0.46,0,0.97-0.13,1.34,0.29
		c0.72,0.11,1.38,0.59,2.15,0.4c0.59,0.04,1.21-0.18,1.69,0.3c0.13,0.02,0.29,0.04,0.42,0.04c0.57,0.04,1.19-0.17,1.69,0.31
		c0.13,0.02,0.29,0.02,0.42,0.04c0.66,0.27,1.32,0.42,2.02,0.33c0.13,0.02,0.26,0.02,0.37,0.04c0.68,0.29,1.36,0.38,2.06,0.31
		l0.4,0.04c0.66,0.28,1.36,0.38,2.06,0.3c0.13,0.02,0.26,0.02,0.4,0.02c0.66,0.27,1.34,0.38,2.04,0.31c0.24,0.02,0.5,0.04,0.75,0.04
		c0.9,0.33,1.82,0.4,2.77,0.33c0.11,0.02,0.24,0.02,0.37,0.02c0.79,0.31,1.58,0.35,2.39,0.29c0.37,0.02,0.75,0.04,1.1,0.06
		c0.9,0.28,1.82,0.38,2.77,0.3c0.48,0.02,0.94,0.02,1.43,0.05c1.14,0.3,2.28,0.39,3.45,0.28c0.59,0.02,1.19,0.04,1.8,0.06
		c1.82,0.33,3.69,0.38,5.53,0.29c5.38,0.19,10.73,0.21,16.09,0c2.08,0.11,4.17,0.04,6.25-0.29c0.35-0.02,0.7-0.04,1.08-0.04
		c1.41,0.06,2.79,0,4.15-0.3c0.13-0.03,0.26-0.03,0.4-0.03c1.27,0.08,2.54-0.04,3.77-0.32c0.26-0.02,0.53-0.04,0.77-0.06
		c0.83,0.11,1.62,0,2.41-0.29c0.24,0,0.48-0.02,0.72-0.04c0.83,0.09,1.62-0.02,2.41-0.29c0.24-0.02,0.48-0.04,0.72-0.06
		c0.72,0.09,1.4-0.04,2.06-0.31l0.75-0.04c0.5-0.48,1.14-0.28,1.73-0.28c0.22-0.02,0.46-0.04,0.7-0.09c0.5-0.46,1.12-0.25,1.71-0.27
		c0.13-0.02,0.24-0.02,0.37-0.04c0.7,0.09,1.38-0.06,2.04-0.33c0.13-0.02,0.26-0.02,0.42-0.04c0.48-0.48,1.1-0.27,1.67-0.31
		c0.13,0,0.29-0.02,0.42-0.04c0.5-0.48,1.12-0.26,1.69-0.3c0.86-0.14,1.69-0.29,2.52-0.44c0.29-0.33,0.64-0.27,0.99-0.25
		c0.94-0.5,2.02-0.26,3.01-0.5c4.41-1.11,8.87-1.95,13.21-3.25c2.72-0.79,5.49-1.45,8.21-2.26c6.78-2.01,13.43-4.39,19.99-7.04
		c5.64-2.26,11.19-4.73,16.68-7.33c5.18-2.49,10.2-5.23,15.19-8.1c3.62-2.11,7.24-4.29,10.73-6.59c3.09-2.06,6.26-4.03,9.28-6.16
		c3.27-2.33,6.5-4.76,9.66-7.27c2.96-2.33,5.88-4.71,8.73-7.2c3.1-2.68,6.19-5.37,9.11-8.21c4.52-4.36,9-8.75,13.21-13.41
		c2-2.24,4.04-4.44,6.01-6.7c5.44-6.14,10.36-12.72,15.01-19.48c17.38-25.19,29.76-52.65,37.09-82.36c0.57-2.38,1.27-4.73,1.51-7.16
		c0.07-0.13,0.11-0.25,0.15-0.4c0.61-2.79,1.3-5.55,1.58-8.4c0.09-0.27,0.22-0.53,0.26-0.81c1.51-8.71,2.57-17.47,3.14-26.3
		C506.19,261.82,506.12,250.77,505.46,239.73 M408.05,343.73c-0.81,5.88-2.24,11.64-3.97,17.32c-1.69,5.53-4.63,10.23-8.54,14.4
		c-6.15,6.58-13.39,11.69-21.24,16c-5.86,3.23-11.96,5.95-18.52,7.46c-2.9,0.66-5.88,0.79-8.82,1.15
		c-4.32,0.55-8.67,0.74-13.04,0.55c-6.89-0.27-13.65-1.47-20.32-3.01c-13.96-3.25-27.45-7.94-40.86-12.9
		c-11.39-4.23-22.6-8.88-33.25-14.79c-13.67-7.6-26.42-16.5-38.43-26.51c-8.73-7.27-17.01-15.01-24.89-23.2
		c-0.48-0.5-0.99-0.94-1.51-1.43c-1.89-2.11-3.77-4.23-5.71-6.34c-12.09-13.32-23.09-27.5-33.16-42.4c-3.2-4.78-6.74-9.32-9.81-14.2
		c-1.78-2.85-3.47-5.79-5.2-8.65c-1.62-2.66-3.12-5.35-4.48-8.11c-2.26-4.56-4.35-9.25-6.21-14.01c-0.7-1.78-1.1-3.66-1.93-5.4
		c0.26-0.72-0.13-1.38-0.33-2.01c-3.47-10.91-5.11-22.06-4.5-33.52c1.03-18.65,7.13-35.29,19.25-49.64c2.46-2.9,5-5.67,7.64-8.39
		c5.75-5.85,12.66-8.84,20.94-8.73c4.7,0.08,9.42,0.1,14.11,0.29c4.81,0.19,8.62,2.07,11.52,5.88c2.3,3.02,3.88,6.47,5.38,9.94
		c6.06,14.1,11.72,28.35,17.53,42.55c1.58,3.86,3.12,7.75,4.89,11.54c1.93,4.21,1.78,8.32-0.2,12.59
		c-2.83,6.17-6.69,11.55-11.15,16.58c-0.42,0.48-0.9,0.92-1.14,1.53c-1.25,1.36-2.5,2.72-3.58,4.23c-0.11,0.1-0.2,0.2-0.29,0.31
		l-0.07,0.06c-0.09,0.11-0.15,0.18-0.24,0.29h-0.09l-0.02,0.11c-0.04,0.09-0.11,0.15-0.22,0.19c-1.54,1.61-3.14,3.1-4.56,4.79
		c-2.98,3.58-3.01,7.39-1.01,11.33c1.54,3.02,3.42,5.88,5.27,8.75c3.12,4.86,6.39,9.61,9.88,14.22
		c9.2,12.13,19.27,23.41,30.92,33.27c10.51,8.9,21.75,16.74,33.86,23.29c6.76,3.66,13.76,6.77,20.8,9.85
		c2.33,1.01,4.59,2.24,7.07,2.93c3.73,0.99,7.02,0.26,9.83-2.42c0.7-0.7,1.38-1.4,2.04-2.16c1.97-2.28,3.93-4.59,5.88-6.9
		c5.02-5.95,10.01-11.96,14.68-18.18c1.03-1.4,2-2.86,3.05-4.26c0.59-0.78,1.19-1.58,1.89-2.28c2.54-2.58,5.64-3.25,9.13-2.52
		c3.55,0.74,6.87,2.15,10.16,3.62c2.85,1.3,5.71,2.56,8.56,3.86c3.82,1.84,7.64,3.69,11.46,5.55c11.67,5.73,23.37,11.46,35.05,17.21
		c0.94,0.46,1.82,1.03,2.74,1.53c2.74,1.59,4.08,3.98,4.21,7.16C408.66,335.97,408.57,339.87,408.05,343.73"/>
</g>
</svg>
